<?xml version="1.0" encoding="UTF-8" standalone="no"?>
<!DOCTYPE svg PUBLIC "-//W3C//DTD SVG 1.1//EN"
 "http://www.w3.org/Graphics/SVG/1.1/DTD/svg11.dtd">
<!-- Generated by graphviz version 2.43.0 (0)
 -->
<!-- Title: G Pages: 1 -->
<svg width="1349pt" height="1066pt"
 viewBox="0.00 0.00 1349.39 1065.88" xmlns="http://www.w3.org/2000/svg" xmlns:xlink="http://www.w3.org/1999/xlink">
<g id="graph0" class="graph" transform="scale(1 1) rotate(0) translate(4 1061.88)">
<title>G</title><style>.edge>path:hover{stroke-width:8}</style>
<polygon fill="white" stroke="transparent" points="-4,4 -4,-1061.88 1345.39,-1061.88 1345.39,4 -4,4"/>
<!-- dotenv -->
<g id="node1" class="node">
<title>dotenv</title><style>.edge>path:hover{stroke-width:8}</style>
<ellipse fill="#b65353" stroke="black" cx="870.16" cy="-1039.88" rx="29.37" ry="18"/>
<text text-anchor="middle" x="870.16" y="-1037.38" font-family="Helvetica,sans-Serif" font-size="10.00" fill="#ffffff">dotenv</text>
</g>
<!-- logger_setup -->
<g id="node22" class="node">
<title>logger_setup</title><style>.edge>path:hover{stroke-width:8}</style>
<ellipse fill="#06f9f9" stroke="black" cx="870.16" cy="-967.88" rx="47.19" ry="18"/>
<text text-anchor="middle" x="870.16" y="-965.38" font-family="Helvetica,sans-Serif" font-size="10.00" fill="#000000">logger_setup</text>
</g>
<!-- dotenv&#45;&gt;logger_setup -->
<g id="edge1" class="edge">
<title>dotenv&#45;&gt;logger_setup</title><style>.edge>path:hover{stroke-width:8}</style>
<path fill="none" stroke="black" d="M870.16,-1021.58C870.16,-1013.86 870.16,-1004.59 870.16,-995.99"/>
<polygon fill="#b65353" stroke="black" points="873.66,-995.98 870.16,-985.98 866.66,-995.98 873.66,-995.98"/>
</g>
<!-- handlers -->
<g id="node2" class="node">
<title>handlers</title><style>.edge>path:hover{stroke-width:8}</style>
<ellipse fill="#85f910" stroke="black" cx="814.16" cy="-127" rx="34.96" ry="18"/>
<text text-anchor="middle" x="814.16" y="-124.5" font-family="Helvetica,sans-Serif" font-size="10.00" fill="#000000">handlers</text>
</g>
<!-- new_note_py -->
<g id="node23" class="node">
<title>new_note_py</title><style>.edge>path:hover{stroke-width:8}</style>
<ellipse fill="#4c3563" stroke="black" cx="814.16" cy="-18" rx="46.51" ry="18"/>
<text text-anchor="middle" x="814.16" y="-15.5" font-family="Helvetica,sans-Serif" font-size="10.00" fill="#ffffff">new_note.py</text>
</g>
<!-- handlers&#45;&gt;new_note_py -->
<g id="edge2" class="edge">
<title>handlers&#45;&gt;new_note_py</title><style>.edge>path:hover{stroke-width:8}</style>
<path fill="none" stroke="black" d="M814.16,-108.81C814.16,-98.44 814.16,-84.96 814.16,-73"/>
</g>
<!-- handlers_header -->
<g id="node3" class="node">
<title>handlers_header</title><style>.edge>path:hover{stroke-width:8}</style>
<ellipse fill="#85f316" stroke="black" cx="556.16" cy="-528.94" rx="43.68" ry="21.43"/>
<text text-anchor="middle" x="556.16" y="-531.94" font-family="Helvetica,sans-Serif" font-size="10.00" fill="#000000">handlers.</text>
<text text-anchor="middle" x="556.16" y="-520.94" font-family="Helvetica,sans-Serif" font-size="10.00" fill="#000000">header</text>
</g>
<!-- handlers_process_headers -->
<g id="node8" class="node">
<title>handlers_process_headers</title><style>.edge>path:hover{stroke-width:8}</style>
<ellipse fill="#4c7326" stroke="black" cx="541.16" cy="-340.97" rx="43.68" ry="28.98"/>
<text text-anchor="middle" x="541.16" y="-349.47" font-family="Helvetica,sans-Serif" font-size="10.00" fill="#ffffff">handlers.</text>
<text text-anchor="middle" x="541.16" y="-338.47" font-family="Helvetica,sans-Serif" font-size="10.00" fill="#ffffff">process.</text>
<text text-anchor="middle" x="541.16" y="-327.47" font-family="Helvetica,sans-Serif" font-size="10.00" fill="#ffffff">headers</text>
</g>
<!-- handlers_header&#45;&gt;handlers_process_headers -->
<g id="edge3" class="edge">
<title>handlers_header&#45;&gt;handlers_process_headers</title><style>.edge>path:hover{stroke-width:8}</style>
<path fill="none" stroke="black" d="M553.1,-507.68C551.09,-488.43 550.38,-459.07 560.16,-435.96"/>
<path fill="none" stroke="black" d="M560.16,-433.96C567.59,-416.38 564.26,-395.65 558.45,-378.33"/>
<polygon fill="#85f316" stroke="black" points="561.58,-376.71 554.8,-368.57 555.02,-379.16 561.58,-376.71"/>
</g>
<!-- handlers_sql_db_notes -->
<g id="node13" class="node">
<title>handlers_sql_db_notes</title><style>.edge>path:hover{stroke-width:8}</style>
<ellipse fill="#4c6b2e" stroke="black" cx="977.16" cy="-340.97" rx="43.68" ry="28.98"/>
<text text-anchor="middle" x="977.16" y="-349.47" font-family="Helvetica,sans-Serif" font-size="10.00" fill="#ffffff">handlers.</text>
<text text-anchor="middle" x="977.16" y="-338.47" font-family="Helvetica,sans-Serif" font-size="10.00" fill="#ffffff">sql.</text>
<text text-anchor="middle" x="977.16" y="-327.47" font-family="Helvetica,sans-Serif" font-size="10.00" fill="#ffffff">db_notes</text>
</g>
<!-- handlers_header&#45;&gt;handlers_sql_db_notes -->
<g id="edge4" class="edge">
<title>handlers_header&#45;&gt;handlers_sql_db_notes</title><style>.edge>path:hover{stroke-width:8}</style>
<path fill="none" stroke="black" d="M581.45,-511.52C621.21,-486.24 701.3,-437.44 774.16,-405.97 824.61,-384.17 884.96,-366.1 926.68,-354.78"/>
<polygon fill="#85f316" stroke="black" points="927.85,-358.09 936.6,-352.12 926.04,-351.33 927.85,-358.09"/>
</g>
<!-- handlers_sql_db_notes_utils -->
<g id="node14" class="node">
<title>handlers_sql_db_notes_utils</title><style>.edge>path:hover{stroke-width:8}</style>
<ellipse fill="#4c6b2e" stroke="black" cx="661.16" cy="-209.99" rx="61.54" ry="28.98"/>
<text text-anchor="middle" x="661.16" y="-218.49" font-family="Helvetica,sans-Serif" font-size="10.00" fill="#ffffff">handlers.</text>
<text text-anchor="middle" x="661.16" y="-207.49" font-family="Helvetica,sans-Serif" font-size="10.00" fill="#ffffff">sql.</text>
<text text-anchor="middle" x="661.16" y="-196.49" font-family="Helvetica,sans-Serif" font-size="10.00" fill="#ffffff">db_notes_utils</text>
</g>
<!-- handlers_header&#45;&gt;handlers_sql_db_notes_utils -->
<g id="edge5" class="edge">
<title>handlers_header&#45;&gt;handlers_sql_db_notes_utils</title><style>.edge>path:hover{stroke-width:8}</style>
<path fill="none" stroke="black" d="M537.27,-509.41C511.9,-484.82 465.02,-440.51 422.16,-405.97 383.94,-375.17 338.46,-390.65 332.16,-341.97"/>
</g>
<!-- handlers_header&#45;&gt;new_note_py -->
<g id="edge6" class="edge">
<title>handlers_header&#45;&gt;new_note_py</title><style>.edge>path:hover{stroke-width:8}</style>
<path fill="none" stroke="black" d="M560.16,-433.96C592.92,-356.54 687.04,-436.71 738.16,-369.97 781.26,-313.69 728.78,-278.26 751.16,-210.99"/>
</g>
<!-- handlers_header_extract_yaml_header -->
<g id="node4" class="node">
<title>handlers_header_extract_yaml_header</title><style>.edge>path:hover{stroke-width:8}</style>
<ellipse fill="#66a328" stroke="black" cx="963.16" cy="-528.94" rx="84.71" ry="28.98"/>
<text text-anchor="middle" x="963.16" y="-537.44" font-family="Helvetica,sans-Serif" font-size="10.00" fill="#000000">handlers.</text>
<text text-anchor="middle" x="963.16" y="-526.44" font-family="Helvetica,sans-Serif" font-size="10.00" fill="#000000">header.</text>
<text text-anchor="middle" x="963.16" y="-515.44" font-family="Helvetica,sans-Serif" font-size="10.00" fill="#000000">extract_yaml_header</text>
</g>
<!-- handlers_header_yaml_read -->
<g id="node6" class="node">
<title>handlers_header_yaml_read</title><style>.edge>path:hover{stroke-width:8}</style>
<ellipse fill="#5c8137" stroke="black" cx="1125.16" cy="-434.96" rx="48.17" ry="28.98"/>
<text text-anchor="middle" x="1125.16" y="-443.46" font-family="Helvetica,sans-Serif" font-size="10.00" fill="#ffffff">handlers.</text>
<text text-anchor="middle" x="1125.16" y="-432.46" font-family="Helvetica,sans-Serif" font-size="10.00" fill="#ffffff">header.</text>
<text text-anchor="middle" x="1125.16" y="-421.46" font-family="Helvetica,sans-Serif" font-size="10.00" fill="#ffffff">yaml_read</text>
</g>
<!-- handlers_header_extract_yaml_header&#45;&gt;handlers_header_yaml_read -->
<g id="edge7" class="edge">
<title>handlers_header_extract_yaml_header&#45;&gt;handlers_header_yaml_read</title><style>.edge>path:hover{stroke-width:8}</style>
<path fill="none" stroke="black" d="M1005.72,-503.77C1029.24,-490.42 1058.4,-473.86 1082.02,-460.45"/>
<polygon fill="#66a328" stroke="black" points="1083.8,-463.46 1090.77,-455.48 1080.35,-457.37 1083.8,-463.46"/>
</g>
<!-- handlers_header_extract_yaml_header&#45;&gt;handlers_process_headers -->
<g id="edge8" class="edge">
<title>handlers_header_extract_yaml_header&#45;&gt;handlers_process_headers</title><style>.edge>path:hover{stroke-width:8}</style>
<path fill="none" stroke="black" d="M910.62,-506.01C881.54,-493.79 844.77,-478.2 812.16,-463.95 732.1,-428.97 639.38,-386.9 585.78,-362.42"/>
<polygon fill="#66a328" stroke="black" points="587.11,-359.18 576.56,-358.21 584.2,-365.55 587.11,-359.18"/>
</g>
<!-- handlers_header_extract_yaml_header&#45;&gt;handlers_sql_db_notes -->
<g id="edge9" class="edge">
<title>handlers_header_extract_yaml_header&#45;&gt;handlers_sql_db_notes</title><style>.edge>path:hover{stroke-width:8}</style>
<path fill="none" stroke="black" d="M910.65,-506.01C879.12,-489.38 848,-464.56 864.16,-435.96"/>
</g>
<!-- handlers_header_header_utils -->
<g id="node5" class="node">
<title>handlers_header_header_utils</title><style>.edge>path:hover{stroke-width:8}</style>
<ellipse fill="#70ca16" stroke="black" cx="880.16" cy="-622.92" rx="54.39" ry="28.98"/>
<text text-anchor="middle" x="880.16" y="-631.42" font-family="Helvetica,sans-Serif" font-size="10.00" fill="#000000">handlers.</text>
<text text-anchor="middle" x="880.16" y="-620.42" font-family="Helvetica,sans-Serif" font-size="10.00" fill="#000000">header.</text>
<text text-anchor="middle" x="880.16" y="-609.42" font-family="Helvetica,sans-Serif" font-size="10.00" fill="#000000">header_utils</text>
</g>
<!-- handlers_header_header_utils&#45;&gt;handlers_header_extract_yaml_header -->
<g id="edge10" class="edge">
<title>handlers_header_header_utils&#45;&gt;handlers_header_extract_yaml_header</title><style>.edge>path:hover{stroke-width:8}</style>
<path fill="none" stroke="black" d="M903.28,-596.3C912.15,-586.46 922.44,-575.06 931.95,-564.52"/>
<polygon fill="#70ca16" stroke="black" points="934.61,-566.8 938.71,-557.03 929.41,-562.11 934.61,-566.8"/>
</g>
<!-- handlers_header_header_utils&#45;&gt;handlers_header_yaml_read -->
<g id="edge11" class="edge">
<title>handlers_header_header_utils&#45;&gt;handlers_header_yaml_read</title><style>.edge>path:hover{stroke-width:8}</style>
<path fill="none" stroke="black" d="M867.84,-594.64C857.75,-567.7 848.22,-526.76 869.16,-499.95 893.32,-468.99 999.94,-450.8 1067.74,-442.16"/>
<polygon fill="#70ca16" stroke="black" points="1068.36,-445.61 1077.85,-440.9 1067.5,-438.66 1068.36,-445.61"/>
</g>
<!-- handlers_header_header_utils&#45;&gt;handlers_process_headers -->
<g id="edge12" class="edge">
<title>handlers_header_header_utils&#45;&gt;handlers_process_headers</title><style>.edge>path:hover{stroke-width:8}</style>
<path fill="none" stroke="black" d="M833.23,-608.17C814.91,-603.16 793.67,-597.79 774.16,-593.93 714.56,-582.15 543.19,-603.63 503.16,-557.93 458.95,-507.46 493.62,-424.12 519.52,-377.1"/>
<polygon fill="#70ca16" stroke="black" points="522.68,-378.62 524.56,-368.2 516.58,-375.18 522.68,-378.62"/>
</g>
<!-- handlers_header_header_utils&#45;&gt;handlers_sql_db_notes -->
<g id="edge13" class="edge">
<title>handlers_header_header_utils&#45;&gt;handlers_sql_db_notes</title><style>.edge>path:hover{stroke-width:8}</style>
<path fill="none" stroke="black" d="M774.16,-527.94C744.37,-479.11 836.03,-485.76 864.16,-435.96"/>
<path fill="none" stroke="black" d="M864.16,-433.96C880.63,-404.8 910.28,-381.2 935.08,-365.21"/>
<polygon fill="#70ca16" stroke="black" points="937,-368.14 943.62,-359.87 933.29,-362.2 937,-368.14"/>
</g>
<!-- handlers_header_header_utils&#45;&gt;handlers_sql_db_notes_utils -->
<g id="edge14" class="edge">
<title>handlers_header_header_utils&#45;&gt;handlers_sql_db_notes_utils</title><style>.edge>path:hover{stroke-width:8}</style>
<path fill="none" stroke="black" d="M845.53,-600.32C821.96,-583.84 791.92,-559.06 774.16,-529.94"/>
<path fill="none" stroke="black" d="M774.16,-527.94C724.99,-447.34 665.95,-458.12 632.16,-369.97 617.08,-330.65 632.16,-316.35 644.16,-275.98 646.76,-267.21 649.37,-257.71 651.73,-248.75"/>
<polygon fill="#70ca16" stroke="black" points="655.15,-249.49 654.28,-238.93 648.38,-247.73 655.15,-249.49"/>
</g>
<!-- handlers_header_yaml_read&#45;&gt;new_note_py -->
<g id="edge15" class="edge">
<title>handlers_header_yaml_read&#45;&gt;new_note_py</title><style>.edge>path:hover{stroke-width:8}</style>
<path fill="none" stroke="black" d="M1161.65,-415.63C1210.49,-390.79 1290.78,-348.73 1288.16,-341.97"/>
<path fill="none" stroke="black" d="M1288.16,-339.97C1223.15,-172.22 1018.01,-371.34 896.16,-238.98 862.26,-202.17 897.05,-173.92 877.16,-128"/>
</g>
<!-- handlers_process -->
<g id="node7" class="node">
<title>handlers_process</title><style>.edge>path:hover{stroke-width:8}</style>
<ellipse fill="#85c247" stroke="black" cx="685.16" cy="-340.97" rx="43.68" ry="21.43"/>
<text text-anchor="middle" x="685.16" y="-343.97" font-family="Helvetica,sans-Serif" font-size="10.00" fill="#000000">handlers.</text>
<text text-anchor="middle" x="685.16" y="-332.97" font-family="Helvetica,sans-Serif" font-size="10.00" fill="#000000">process</text>
</g>
<!-- handlers_process&#45;&gt;handlers_sql_db_notes_utils -->
<g id="edge16" class="edge">
<title>handlers_process&#45;&gt;handlers_sql_db_notes_utils</title><style>.edge>path:hover{stroke-width:8}</style>
<path fill="none" stroke="black" d="M699.9,-320.77C707.98,-308.67 716.83,-292.3 719.16,-275.98"/>
<path fill="none" stroke="black" d="M719.16,-274.98C721.03,-261.85 714.68,-250.16 705.57,-240.47"/>
<polygon fill="#85c247" stroke="black" points="707.83,-237.79 698.16,-233.47 703.02,-242.88 707.83,-237.79"/>
</g>
<!-- handlers_process&#45;&gt;new_note_py -->
<g id="edge17" class="edge">
<title>handlers_process&#45;&gt;new_note_py</title><style>.edge>path:hover{stroke-width:8}</style>
<path fill="none" stroke="black" d="M719.16,-274.98C723.64,-243.5 741.12,-241.16 751.16,-210.99"/>
</g>
<!-- handlers_process_headers&#45;&gt;handlers_sql_db_notes_utils -->
<g id="edge18" class="edge">
<title>handlers_process_headers&#45;&gt;handlers_sql_db_notes_utils</title><style>.edge>path:hover{stroke-width:8}</style>
<path fill="none" stroke="black" d="M570.96,-319.65C588.51,-307.41 610.96,-291.28 630.16,-275.98"/>
<path fill="none" stroke="black" d="M630.16,-274.98C638.79,-268.1 645.17,-258.22 649.83,-248.28"/>
<polygon fill="#4c7326" stroke="black" points="653.15,-249.39 653.77,-238.82 646.69,-246.7 653.15,-249.39"/>
</g>
<!-- handlers_process_headers&#45;&gt;new_note_py -->
<g id="edge19" class="edge">
<title>handlers_process_headers&#45;&gt;new_note_py</title><style>.edge>path:hover{stroke-width:8}</style>
<path fill="none" stroke="black" d="M630.16,-274.98C677.73,-237.07 731.95,-268.72 751.16,-210.99"/>
<path fill="none" stroke="black" d="M751.16,-208.99C762.52,-174.84 723.75,-151.34 751.16,-128"/>
</g>
<!-- handlers_sql -->
<g id="node9" class="node">
<title>handlers_sql</title><style>.edge>path:hover{stroke-width:8}</style>
<ellipse fill="#85f910" stroke="black" cx="663.16" cy="-528.94" rx="44.98" ry="18"/>
<text text-anchor="middle" x="663.16" y="-526.44" font-family="Helvetica,sans-Serif" font-size="10.00" fill="#000000">handlers.sql</text>
</g>
<!-- handlers_sql&#45;&gt;handlers_process_headers -->
<g id="edge20" class="edge">
<title>handlers_sql&#45;&gt;handlers_process_headers</title><style>.edge>path:hover{stroke-width:8}</style>
<path fill="none" stroke="black" d="M652.33,-511.44C632.5,-481.21 589.97,-416.38 563.64,-376.25"/>
<polygon fill="#85f910" stroke="black" points="566.53,-374.28 558.12,-367.84 560.68,-378.12 566.53,-374.28"/>
</g>
<!-- handlers_sql&#45;&gt;new_note_py -->
<g id="edge21" class="edge">
<title>handlers_sql&#45;&gt;new_note_py</title><style>.edge>path:hover{stroke-width:8}</style>
<path fill="none" stroke="black" d="M675.9,-511.54C697.29,-483.55 741.03,-424.3 771.16,-369.97 799.62,-318.63 901.78,-181.29 877.16,-128"/>
<path fill="none" stroke="black" d="M877.16,-126C871.08,-116.43 866.77,-116.37 858.16,-109 838.96,-92.57 814.16,-98.27 814.16,-73"/>
</g>
<!-- handlers_sql_db_connection -->
<g id="node10" class="node">
<title>handlers_sql_db_connection</title><style>.edge>path:hover{stroke-width:8}</style>
<ellipse fill="#80e619" stroke="black" cx="708.16" cy="-810.89" rx="61.54" ry="28.98"/>
<text text-anchor="middle" x="708.16" y="-819.39" font-family="Helvetica,sans-Serif" font-size="10.00" fill="#000000">handlers.</text>
<text text-anchor="middle" x="708.16" y="-808.39" font-family="Helvetica,sans-Serif" font-size="10.00" fill="#000000">sql.</text>
<text text-anchor="middle" x="708.16" y="-797.39" font-family="Helvetica,sans-Serif" font-size="10.00" fill="#000000">db_connection</text>
</g>
<!-- handlers_sql_db_get_linked_data -->
<g id="node11" class="node">
<title>handlers_sql_db_get_linked_data</title><style>.edge>path:hover{stroke-width:8}</style>
<ellipse fill="#6ba135" stroke="black" cx="578.16" cy="-622.92" rx="78.48" ry="28.98"/>
<text text-anchor="middle" x="578.16" y="-631.42" font-family="Helvetica,sans-Serif" font-size="10.00" fill="#000000">handlers.</text>
<text text-anchor="middle" x="578.16" y="-620.42" font-family="Helvetica,sans-Serif" font-size="10.00" fill="#000000">sql.</text>
<text text-anchor="middle" x="578.16" y="-609.42" font-family="Helvetica,sans-Serif" font-size="10.00" fill="#000000">db_get_linked_data</text>
</g>
<!-- handlers_sql_db_connection&#45;&gt;handlers_sql_db_get_linked_data -->
<g id="edge22" class="edge">
<title>handlers_sql_db_connection&#45;&gt;handlers_sql_db_get_linked_data</title><style>.edge>path:hover{stroke-width:8}</style>
<path fill="none" stroke="black" d="M472.16,-715.91C461.98,-687.06 487.26,-664.39 515.68,-648.77"/>
<polygon fill="#80e619" stroke="black" points="517.31,-651.87 524.57,-644.15 514.08,-645.66 517.31,-651.87"/>
</g>
<!-- handlers_sql_db_connection&#45;&gt;handlers_sql_db_notes -->
<g id="edge23" class="edge">
<title>handlers_sql_db_connection&#45;&gt;handlers_sql_db_notes</title><style>.edge>path:hover{stroke-width:8}</style>
<path fill="none" stroke="black" d="M472.16,-621.92C467.57,-607.6 478.47,-602 491.16,-593.93 576.99,-539.37 631.32,-612.49 717.16,-557.93 729.85,-549.87 727.43,-542.18 736.16,-529.94"/>
<path fill="none" stroke="black" d="M736.16,-527.94C763.87,-489.06 833.52,-418.27 850.16,-405.97 874.88,-387.67 905.62,-372.03 930.66,-360.79"/>
<polygon fill="#80e619" stroke="black" points="932.21,-363.93 939.96,-356.7 929.4,-357.52 932.21,-363.93"/>
</g>
<!-- handlers_sql_db_connection&#45;&gt;handlers_sql_db_notes_utils -->
<g id="edge24" class="edge">
<title>handlers_sql_db_connection&#45;&gt;handlers_sql_db_notes_utils</title><style>.edge>path:hover{stroke-width:8}</style>
<path fill="none" stroke="black" d="M646.51,-809.03C584.89,-804.25 495.97,-785.4 472.16,-717.91"/>
<path fill="none" stroke="black" d="M472.16,-715.91C458.55,-677.35 484.61,-662.86 472.16,-623.92"/>
<path fill="none" stroke="black" d="M472.16,-621.92C420.1,-459.22 203.44,-688.39 93.16,-557.93 76.52,-538.25 78.88,-521.4 93.16,-499.95 116.11,-465.45 145.66,-488.33 179.16,-463.95 192.4,-454.3 191.73,-447.71 203.16,-435.96"/>
<path fill="none" stroke="black" d="M203.16,-433.96C214.27,-421.91 214.67,-416.58 227.16,-405.97 268.79,-370.56 337.46,-396.37 332.16,-341.97"/>
<path fill="none" stroke="black" d="M332.16,-339.97C329.4,-311.67 304.92,-284.16 332.16,-275.98"/>
</g>
<!-- handlers_sql_db_update_notes -->
<g id="node15" class="node">
<title>handlers_sql_db_update_notes</title><style>.edge>path:hover{stroke-width:8}</style>
<ellipse fill="#70a838" stroke="black" cx="276.16" cy="-716.91" rx="70.92" ry="28.98"/>
<text text-anchor="middle" x="276.16" y="-725.41" font-family="Helvetica,sans-Serif" font-size="10.00" fill="#000000">handlers.</text>
<text text-anchor="middle" x="276.16" y="-714.41" font-family="Helvetica,sans-Serif" font-size="10.00" fill="#000000">sql.</text>
<text text-anchor="middle" x="276.16" y="-703.41" font-family="Helvetica,sans-Serif" font-size="10.00" fill="#000000">db_update_notes</text>
</g>
<!-- handlers_sql_db_connection&#45;&gt;handlers_sql_db_update_notes -->
<g id="edge25" class="edge">
<title>handlers_sql_db_connection&#45;&gt;handlers_sql_db_update_notes</title><style>.edge>path:hover{stroke-width:8}</style>
<path fill="none" stroke="black" d="M652.56,-798.05C574.86,-781.51 433.69,-751.45 348.07,-733.22"/>
<polygon fill="#80e619" stroke="black" points="348.67,-729.77 338.17,-731.11 347.22,-736.61 348.67,-729.77"/>
</g>
<!-- handlers_sql_db_utils -->
<g id="node16" class="node">
<title>handlers_sql_db_utils</title><style>.edge>path:hover{stroke-width:8}</style>
<ellipse fill="#70b42d" stroke="black" cx="726.16" cy="-716.91" rx="43.68" ry="28.98"/>
<text text-anchor="middle" x="726.16" y="-725.41" font-family="Helvetica,sans-Serif" font-size="10.00" fill="#000000">handlers.</text>
<text text-anchor="middle" x="726.16" y="-714.41" font-family="Helvetica,sans-Serif" font-size="10.00" fill="#000000">sql.</text>
<text text-anchor="middle" x="726.16" y="-703.41" font-family="Helvetica,sans-Serif" font-size="10.00" fill="#000000">db_utils</text>
</g>
<!-- handlers_sql_db_connection&#45;&gt;handlers_sql_db_utils -->
<g id="edge26" class="edge">
<title>handlers_sql_db_connection&#45;&gt;handlers_sql_db_utils</title><style>.edge>path:hover{stroke-width:8}</style>
<path fill="none" stroke="black" d="M713.65,-781.79C715.26,-773.59 717.04,-764.49 718.74,-755.78"/>
<polygon fill="#80e619" stroke="black" points="722.21,-756.32 720.69,-745.83 715.34,-754.97 722.21,-756.32"/>
</g>
<!-- handlers_sql_db_get_linked_data&#45;&gt;handlers_process_headers -->
<g id="edge27" class="edge">
<title>handlers_sql_db_get_linked_data&#45;&gt;handlers_process_headers</title><style>.edge>path:hover{stroke-width:8}</style>
<path fill="none" stroke="black" d="M519.61,-603.36C467.21,-586.47 398.03,-563.38 394.16,-557.93 353.81,-501.19 386.67,-458.67 432.16,-405.97 448.95,-386.5 473.21,-371.45 494.57,-360.85"/>
<polygon fill="#6ba135" stroke="black" points="496.31,-363.9 503.84,-356.44 493.3,-357.58 496.31,-363.9"/>
</g>
<!-- handlers_sql_db_get_linked_notes_utils -->
<g id="node12" class="node">
<title>handlers_sql_db_get_linked_notes_utils</title><style>.edge>path:hover{stroke-width:8}</style>
<ellipse fill="#70a838" stroke="black" cx="203.16" cy="-528.94" rx="101.23" ry="28.98"/>
<text text-anchor="middle" x="203.16" y="-537.44" font-family="Helvetica,sans-Serif" font-size="10.00" fill="#000000">handlers.</text>
<text text-anchor="middle" x="203.16" y="-526.44" font-family="Helvetica,sans-Serif" font-size="10.00" fill="#000000">sql.</text>
<text text-anchor="middle" x="203.16" y="-515.44" font-family="Helvetica,sans-Serif" font-size="10.00" fill="#000000">db_get_linked_notes_utils</text>
</g>
<!-- handlers_sql_db_get_linked_data&#45;&gt;handlers_sql_db_get_linked_notes_utils -->
<g id="edge28" class="edge">
<title>handlers_sql_db_get_linked_data&#45;&gt;handlers_sql_db_get_linked_notes_utils</title><style>.edge>path:hover{stroke-width:8}</style>
<path fill="none" stroke="black" d="M519.96,-603.41C508.79,-600.08 497.15,-596.78 486.16,-593.93 412.23,-574.8 392.59,-574.96 318.16,-557.93 308.29,-555.67 297.96,-553.25 287.72,-550.8"/>
<polygon fill="#6ba135" stroke="black" points="288.48,-547.39 277.94,-548.46 286.84,-554.19 288.48,-547.39"/>
</g>
<!-- handlers_sql_db_get_linked_notes_utils&#45;&gt;handlers_process_headers -->
<g id="edge29" class="edge">
<title>handlers_sql_db_get_linked_notes_utils&#45;&gt;handlers_process_headers</title><style>.edge>path:hover{stroke-width:8}</style>
<path fill="none" stroke="black" d="M210.55,-499.65C217.71,-474.98 229.21,-442.19 241.16,-435.96"/>
</g>
<!-- handlers_sql_db_get_linked_notes_utils&#45;&gt;handlers_sql_db_notes_utils -->
<g id="edge30" class="edge">
<title>handlers_sql_db_get_linked_notes_utils&#45;&gt;handlers_sql_db_notes_utils</title><style>.edge>path:hover{stroke-width:8}</style>
<path fill="none" stroke="black" d="M193.95,-499.99C189.13,-479.49 187.13,-452.44 203.16,-435.96"/>
</g>
<!-- handlers_sql_db_notes&#45;&gt;new_note_py -->
<g id="edge31" class="edge">
<title>handlers_sql_db_notes&#45;&gt;new_note_py</title><style>.edge>path:hover{stroke-width:8}</style>
<path fill="none" stroke="black" d="M945.82,-320.49C874.76,-275.24 710.61,-164.17 751.16,-128"/>
</g>
<!-- handlers_sql_db_notes_utils&#45;&gt;new_note_py -->
<g id="edge32" class="edge">
<title>handlers_sql_db_notes_utils&#45;&gt;new_note_py</title><style>.edge>path:hover{stroke-width:8}</style>
<path fill="none" stroke="black" d="M689.07,-183.76C706.82,-167.74 730.29,-146.61 751.16,-128"/>
</g>
<!-- handlers_sql_db_update_notes&#45;&gt;handlers_process_headers -->
<g id="edge33" class="edge">
<title>handlers_sql_db_update_notes&#45;&gt;handlers_process_headers</title><style>.edge>path:hover{stroke-width:8}</style>
<path fill="none" stroke="black" d="M36.16,-527.94C50.4,-503.58 66.84,-510.14 93.16,-499.95 146.67,-479.22 168.91,-495.03 217.16,-463.95 230.93,-455.07 226.63,-443.54 241.16,-435.96"/>
<path fill="none" stroke="black" d="M241.16,-433.96C322.93,-391.28 427.77,-364.82 489.39,-351.79"/>
<polygon fill="#70a838" stroke="black" points="490.19,-355.2 499.27,-349.74 488.77,-348.35 490.19,-355.2"/>
</g>
<!-- handlers_sql_db_update_notes&#45;&gt;new_note_py -->
<g id="edge34" class="edge">
<title>handlers_sql_db_update_notes&#45;&gt;new_note_py</title><style>.edge>path:hover{stroke-width:8}</style>
<path fill="none" stroke="black" d="M218.61,-700.03C133,-673.27 -12.87,-613.78 36.16,-529.94"/>
<path fill="none" stroke="black" d="M36.16,-527.94C44.26,-507.02 59.07,-511.74 78.16,-499.95 105.59,-483 119.83,-488.14 141.16,-463.95 171.06,-430.02 166.95,-413.22 180.16,-369.97 192.6,-329.21 165.64,-302.3 199.16,-275.98"/>
</g>
<!-- handlers_sql_db_utils&#45;&gt;handlers_sql_db_get_linked_data -->
<g id="edge35" class="edge">
<title>handlers_sql_db_utils&#45;&gt;handlers_sql_db_get_linked_data</title><style>.edge>path:hover{stroke-width:8}</style>
<path fill="none" stroke="black" d="M694.77,-696.4C674.77,-683.97 648.47,-667.62 625.91,-653.6"/>
<polygon fill="#70b42d" stroke="black" points="627.48,-650.46 617.14,-648.15 623.79,-656.41 627.48,-650.46"/>
</g>
<!-- handlers_sql_db_utils&#45;&gt;handlers_sql_db_notes -->
<g id="edge36" class="edge">
<title>handlers_sql_db_utils&#45;&gt;handlers_sql_db_notes</title><style>.edge>path:hover{stroke-width:8}</style>
<path fill="none" stroke="black" d="M684.16,-621.92C680.3,-617.49 732.75,-534.72 736.16,-529.94"/>
</g>
<!-- handlers_sql_db_utils&#45;&gt;handlers_sql_db_notes_utils -->
<g id="edge37" class="edge">
<title>handlers_sql_db_utils&#45;&gt;handlers_sql_db_notes_utils</title><style>.edge>path:hover{stroke-width:8}</style>
<path fill="none" stroke="black" d="M718.18,-688.2C711.49,-668.61 700.4,-642.6 684.16,-623.92"/>
<path fill="none" stroke="black" d="M684.16,-621.92C674.29,-610.58 677.95,-601.83 665.16,-593.93 561.78,-530.09 486.17,-637.28 394.16,-557.93 318.53,-492.72 341.21,-441.42 332.16,-341.97"/>
</g>
<!-- handlers_utils -->
<g id="node17" class="node">
<title>handlers_utils</title><style>.edge>path:hover{stroke-width:8}</style>
<ellipse fill="#85f910" stroke="black" cx="1019.16" cy="-810.89" rx="48.72" ry="18"/>
<text text-anchor="middle" x="1019.16" y="-808.39" font-family="Helvetica,sans-Serif" font-size="10.00" fill="#000000">handlers.utils</text>
</g>
<!-- handlers_utils&#45;&gt;handlers_header_extract_yaml_header -->
<g id="edge38" class="edge">
<title>handlers_utils&#45;&gt;handlers_header_extract_yaml_header</title><style>.edge>path:hover{stroke-width:8}</style>
<path fill="none" stroke="black" d="M1030.25,-793.28C1042.2,-775.12 1061.46,-744.98 1076.16,-717.91"/>
<path fill="none" stroke="black" d="M1076.16,-715.91C1101.45,-669.3 1015.18,-674.78 1000.16,-623.92"/>
</g>
<!-- handlers_utils&#45;&gt;handlers_header_header_utils -->
<g id="edge39" class="edge">
<title>handlers_utils&#45;&gt;handlers_header_header_utils</title><style>.edge>path:hover{stroke-width:8}</style>
<path fill="none" stroke="black" d="M1009.16,-793.17C994.57,-769.15 966.1,-723.82 938.16,-687.91 929.95,-677.36 920.42,-666.4 911.49,-656.59"/>
<polygon fill="#85f910" stroke="black" points="913.84,-653.98 904.49,-649 908.7,-658.72 913.84,-653.98"/>
</g>
<!-- handlers_utils&#45;&gt;handlers_header_yaml_read -->
<g id="edge40" class="edge">
<title>handlers_utils&#45;&gt;handlers_header_yaml_read</title><style>.edge>path:hover{stroke-width:8}</style>
<path fill="none" stroke="black" d="M1076.16,-621.92C1080.56,-577.91 1103.2,-572.79 1114.16,-529.94"/>
</g>
<!-- handlers_utils&#45;&gt;handlers_process_headers -->
<g id="edge41" class="edge">
<title>handlers_utils&#45;&gt;handlers_process_headers</title><style>.edge>path:hover{stroke-width:8}</style>
<path fill="none" stroke="black" d="M1076.16,-715.91C1095.24,-679.75 1072.09,-664.6 1076.16,-623.92"/>
<path fill="none" stroke="black" d="M1076.16,-621.92C1080.23,-581.24 1095.3,-566.06 1076.16,-529.94"/>
<path fill="none" stroke="black" d="M1076.16,-527.94C1069.12,-514.65 1069.79,-508.1 1057.16,-499.95 978.71,-449.3 936.87,-498.59 850.16,-463.95 807,-446.71 805.43,-425.25 763.16,-405.97 708.22,-380.9 690.13,-386.84 632.16,-369.97 618.49,-365.99 603.72,-361.52 590.14,-357.34"/>
<polygon fill="#85f910" stroke="black" points="591.08,-353.97 580.5,-354.36 589.02,-360.65 591.08,-353.97"/>
</g>
<!-- handlers_utils&#45;&gt;handlers_sql_db_notes -->
<g id="edge42" class="edge">
<title>handlers_utils&#45;&gt;handlers_sql_db_notes</title><style>.edge>path:hover{stroke-width:8}</style>
<path fill="none" stroke="black" d="M1076.16,-715.91C1119.27,-636.48 1213.09,-722.79 1269.16,-651.91 1299.04,-614.13 1311.82,-477.92 1288.16,-435.96"/>
<path fill="none" stroke="black" d="M1288.16,-433.96C1260.07,-390.31 1111.14,-361.82 1029.99,-349.3"/>
<polygon fill="#85f910" stroke="black" points="1030.37,-345.82 1019.96,-347.78 1029.32,-352.74 1030.37,-345.82"/>
</g>
<!-- handlers_utils&#45;&gt;handlers_sql_db_notes_utils -->
<g id="edge43" class="edge">
<title>handlers_utils&#45;&gt;handlers_sql_db_notes_utils</title><style>.edge>path:hover{stroke-width:8}</style>
<path fill="none" stroke="black" d="M1076.16,-527.94C1028.89,-441.94 1098.35,-382.55 1030.16,-311.98 1006.84,-287.86 769.22,-248.85 737.16,-238.98 730.75,-237.01 724.08,-234.8 717.49,-232.51"/>
<polygon fill="#85f910" stroke="black" points="718.51,-229.16 707.91,-229.12 716.17,-235.76 718.51,-229.16"/>
</g>
<!-- handlers_utils&#45;&gt;new_note_py -->
<g id="edge44" class="edge">
<title>handlers_utils&#45;&gt;new_note_py</title><style>.edge>path:hover{stroke-width:8}</style>
<path fill="none" stroke="black" d="M1288.16,-433.96C1266.03,-399.58 1304.77,-379.33 1288.16,-341.97"/>
</g>
<!-- handlers_utils_config -->
<g id="node18" class="node">
<title>handlers_utils_config</title><style>.edge>path:hover{stroke-width:8}</style>
<ellipse fill="#85b653" stroke="black" cx="949.16" cy="-209.99" rx="43.68" ry="28.98"/>
<text text-anchor="middle" x="949.16" y="-218.49" font-family="Helvetica,sans-Serif" font-size="10.00" fill="#000000">handlers.</text>
<text text-anchor="middle" x="949.16" y="-207.49" font-family="Helvetica,sans-Serif" font-size="10.00" fill="#000000">utils.</text>
<text text-anchor="middle" x="949.16" y="-196.49" font-family="Helvetica,sans-Serif" font-size="10.00" fill="#000000">config</text>
</g>
<!-- handlers_utils_config&#45;&gt;new_note_py -->
<g id="edge45" class="edge">
<title>handlers_utils_config&#45;&gt;new_note_py</title><style>.edge>path:hover{stroke-width:8}</style>
<path fill="none" stroke="black" d="M922.15,-186.77C906.15,-171.92 887.1,-150.96 877.16,-128"/>
</g>
<!-- handlers_utils_files -->
<g id="node19" class="node">
<title>handlers_utils_files</title><style>.edge>path:hover{stroke-width:8}</style>
<ellipse fill="#80f30c" stroke="black" cx="870.16" cy="-810.89" rx="43.68" ry="28.98"/>
<text text-anchor="middle" x="870.16" y="-819.39" font-family="Helvetica,sans-Serif" font-size="10.00" fill="#000000">handlers.</text>
<text text-anchor="middle" x="870.16" y="-808.39" font-family="Helvetica,sans-Serif" font-size="10.00" fill="#000000">utils.</text>
<text text-anchor="middle" x="870.16" y="-797.39" font-family="Helvetica,sans-Serif" font-size="10.00" fill="#000000">files</text>
</g>
<!-- handlers_utils_files&#45;&gt;handlers_header_extract_yaml_header -->
<g id="edge46" class="edge">
<title>handlers_utils_files&#45;&gt;handlers_header_extract_yaml_header</title><style>.edge>path:hover{stroke-width:8}</style>
<path fill="none" stroke="black" d="M962.16,-621.92C959.65,-604.55 959.48,-585.13 960.11,-568.64"/>
<polygon fill="#80f30c" stroke="black" points="963.62,-568.43 960.61,-558.27 956.63,-568.09 963.62,-568.43"/>
</g>
<!-- handlers_utils_files&#45;&gt;handlers_header_header_utils -->
<g id="edge47" class="edge">
<title>handlers_utils_files&#45;&gt;handlers_header_header_utils</title><style>.edge>path:hover{stroke-width:8}</style>
<path fill="none" stroke="black" d="M890.33,-784.69C902.97,-767.13 918.01,-742.52 924.16,-717.91"/>
<path fill="none" stroke="black" d="M924.16,-715.91C929.2,-695.72 920.34,-674.69 909.28,-657.83"/>
<polygon fill="#80f30c" stroke="black" points="911.98,-655.59 903.36,-649.43 906.26,-659.62 911.98,-655.59"/>
</g>
<!-- handlers_utils_files&#45;&gt;handlers_header_yaml_read -->
<g id="edge48" class="edge">
<title>handlers_utils_files&#45;&gt;handlers_header_yaml_read</title><style>.edge>path:hover{stroke-width:8}</style>
<path fill="none" stroke="black" d="M895.79,-787.25C908.87,-775.33 924.79,-760.25 938.16,-745.9 938.49,-745.54 1114.04,-530.41 1114.16,-529.94"/>
<path fill="none" stroke="black" d="M1114.16,-527.94C1118.61,-510.52 1121.27,-490.77 1122.86,-474.05"/>
<polygon fill="#80f30c" stroke="black" points="1126.35,-474.34 1123.71,-464.08 1119.37,-473.75 1126.35,-474.34"/>
</g>
<!-- handlers_utils_files&#45;&gt;handlers_process_headers -->
<g id="edge49" class="edge">
<title>handlers_utils_files&#45;&gt;handlers_process_headers</title><style>.edge>path:hover{stroke-width:8}</style>
<path fill="none" stroke="black" d="M446.16,-527.94C418.6,-497.74 426.73,-471.93 446.16,-435.96"/>
</g>
<!-- handlers_utils_files&#45;&gt;handlers_sql_db_notes -->
<g id="edge50" class="edge">
<title>handlers_utils_files&#45;&gt;handlers_sql_db_notes</title><style>.edge>path:hover{stroke-width:8}</style>
<path fill="none" stroke="black" d="M924.16,-715.91C934.88,-672.99 968.46,-667.7 962.16,-623.92"/>
<path fill="none" stroke="black" d="M962.16,-621.92C955,-572.26 896.63,-599.91 869.16,-557.93 839.45,-512.53 837.47,-483.2 864.16,-435.96"/>
</g>
<!-- handlers_utils_files&#45;&gt;handlers_sql_db_notes_utils -->
<g id="edge51" class="edge">
<title>handlers_utils_files&#45;&gt;handlers_sql_db_notes_utils</title><style>.edge>path:hover{stroke-width:8}</style>
<path fill="none" stroke="black" d="M862.46,-782.08C847.39,-733.66 808.93,-635.11 736.16,-593.93 635.78,-537.12 584.41,-605.1 479.16,-557.93 461.61,-550.07 459.12,-544.15 446.16,-529.94"/>
<path fill="none" stroke="black" d="M446.16,-527.94C413.37,-492.23 336.86,-390.22 332.16,-341.97"/>
</g>
<!-- handlers_utils_normalization -->
<g id="node20" class="node">
<title>handlers_utils_normalization</title><style>.edge>path:hover{stroke-width:8}</style>
<ellipse fill="#80cc33" stroke="black" cx="1201.16" cy="-622.92" rx="59.29" ry="28.98"/>
<text text-anchor="middle" x="1201.16" y="-631.42" font-family="Helvetica,sans-Serif" font-size="10.00" fill="#000000">handlers.</text>
<text text-anchor="middle" x="1201.16" y="-620.42" font-family="Helvetica,sans-Serif" font-size="10.00" fill="#000000">utils.</text>
<text text-anchor="middle" x="1201.16" y="-609.42" font-family="Helvetica,sans-Serif" font-size="10.00" fill="#000000">normalization</text>
</g>
<!-- handlers_utils_normalization&#45;&gt;handlers_header_yaml_read -->
<g id="edge52" class="edge">
<title>handlers_utils_normalization&#45;&gt;handlers_header_yaml_read</title><style>.edge>path:hover{stroke-width:8}</style>
<path fill="none" stroke="black" d="M1203.91,-593.88C1205.05,-575.52 1205.27,-551.1 1201.16,-529.94"/>
<path fill="none" stroke="black" d="M1201.16,-527.94C1196.35,-503.25 1179.01,-481.29 1162.11,-465.03"/>
<polygon fill="#80cc33" stroke="black" points="1164.15,-462.15 1154.42,-457.96 1159.42,-467.31 1164.15,-462.15"/>
</g>
<!-- handlers_utils_normalization&#45;&gt;handlers_process_headers -->
<g id="edge53" class="edge">
<title>handlers_utils_normalization&#45;&gt;handlers_process_headers</title><style>.edge>path:hover{stroke-width:8}</style>
<path fill="none" stroke="black" d="M1201.16,-527.94C1193.35,-487.81 1226.88,-467.73 1201.16,-435.96"/>
<path fill="none" stroke="black" d="M1201.16,-433.96C1191.69,-422.27 1195.21,-413.44 1182.16,-405.97 1075.86,-345.12 752.62,-392.12 632.16,-369.97 617.9,-367.34 602.73,-363.23 588.94,-358.96"/>
<polygon fill="#80cc33" stroke="black" points="589.78,-355.55 579.18,-355.84 587.64,-362.22 589.78,-355.55"/>
</g>
<!-- handlers_utils_normalization&#45;&gt;handlers_sql_db_notes -->
<g id="edge54" class="edge">
<title>handlers_utils_normalization&#45;&gt;handlers_sql_db_notes</title><style>.edge>path:hover{stroke-width:8}</style>
<path fill="none" stroke="black" d="M1201.16,-433.96C1191.69,-422.27 1194.23,-414.93 1182.16,-405.97 1137.16,-372.57 1074.34,-356.33 1030.13,-348.61"/>
<polygon fill="#80cc33" stroke="black" points="1030.6,-345.14 1020.16,-346.96 1029.45,-352.05 1030.6,-345.14"/>
</g>
<!-- handlers_utils_paths -->
<g id="node21" class="node">
<title>handlers_utils_paths</title><style>.edge>path:hover{stroke-width:8}</style>
<ellipse fill="#80c040" stroke="black" cx="127.16" cy="-340.97" rx="43.68" ry="28.98"/>
<text text-anchor="middle" x="127.16" y="-349.47" font-family="Helvetica,sans-Serif" font-size="10.00" fill="#000000">handlers.</text>
<text text-anchor="middle" x="127.16" y="-338.47" font-family="Helvetica,sans-Serif" font-size="10.00" fill="#000000">utils.</text>
<text text-anchor="middle" x="127.16" y="-327.47" font-family="Helvetica,sans-Serif" font-size="10.00" fill="#000000">paths</text>
</g>
<!-- handlers_utils_paths&#45;&gt;handlers_sql_db_notes_utils -->
<g id="edge55" class="edge">
<title>handlers_utils_paths&#45;&gt;handlers_sql_db_notes_utils</title><style>.edge>path:hover{stroke-width:8}</style>
<path fill="none" stroke="black" d="M166.38,-327.45C207.58,-314.37 274.31,-293.36 332.16,-275.98"/>
</g>
<!-- handlers_utils_paths&#45;&gt;new_note_py -->
<g id="edge56" class="edge">
<title>handlers_utils_paths&#45;&gt;new_note_py</title><style>.edge>path:hover{stroke-width:8}</style>
<path fill="none" stroke="black" d="M152.12,-317.05C165.81,-304.66 183.2,-289.23 199.16,-275.98"/>
<path fill="none" stroke="black" d="M199.16,-274.98C247.98,-234.43 702.83,-169.15 751.16,-128"/>
<path fill="none" stroke="black" d="M751.16,-126C759.56,-118.4 761.55,-116.37 770.16,-109 789.35,-92.57 814.16,-98.27 814.16,-73"/>
<path fill="none" stroke="black" d="M814.16,-72C814.16,-63.68 814.16,-54.63 814.16,-46.4"/>
<polygon fill="#80c040" stroke="black" points="817.66,-46.19 814.16,-36.19 810.66,-46.19 817.66,-46.19"/>
</g>
<!-- logger_setup&#45;&gt;handlers_header_extract_yaml_header -->
<g id="edge57" class="edge">
<title>logger_setup&#45;&gt;handlers_header_extract_yaml_header</title><style>.edge>path:hover{stroke-width:8}</style>
<path fill="none" stroke="black" d="M870.16,-875.88C858.65,-849.83 905.73,-862.4 923.16,-839.88 954.33,-799.58 1014.59,-672.78 1000.16,-623.92"/>
<path fill="none" stroke="black" d="M1000.16,-621.92C993.6,-603.79 985.7,-583.91 978.88,-567.29"/>
<polygon fill="#06f9f9" stroke="black" points="982.07,-565.83 975.01,-557.92 975.6,-568.5 982.07,-565.83"/>
</g>
<!-- logger_setup&#45;&gt;handlers_header_header_utils -->
<g id="edge58" class="edge">
<title>logger_setup&#45;&gt;handlers_header_header_utils</title><style>.edge>path:hover{stroke-width:8}</style>
<path fill="none" stroke="black" d="M798.16,-809.89C789.27,-796.75 833.32,-710.32 860.33,-660.04"/>
<polygon fill="#06f9f9" stroke="black" points="863.48,-661.56 865.16,-651.1 857.33,-658.24 863.48,-661.56"/>
</g>
<!-- logger_setup&#45;&gt;handlers_header_yaml_read -->
<g id="edge59" class="edge">
<title>logger_setup&#45;&gt;handlers_header_yaml_read</title><style>.edge>path:hover{stroke-width:8}</style>
<path fill="none" stroke="black" d="M870.16,-875.88C851.25,-833.19 1035.63,-861.22 1077.16,-839.88 1145.91,-804.55 1164.96,-786.21 1201.16,-717.91"/>
<path fill="none" stroke="black" d="M1201.16,-715.91C1218.29,-678.11 1152.51,-688.63 1133.16,-651.91 1107.57,-603.38 1100.56,-583.09 1114.16,-529.94"/>
</g>
<!-- logger_setup&#45;&gt;handlers_process_headers -->
<g id="edge60" class="edge">
<title>logger_setup&#45;&gt;handlers_process_headers</title><style>.edge>path:hover{stroke-width:8}</style>
<path fill="none" stroke="black" d="M798.16,-809.89C773.4,-777.35 809.47,-757.19 798.16,-717.91"/>
<path fill="none" stroke="black" d="M798.16,-715.91C787.2,-677.85 762.47,-681.5 736.16,-651.91 715.68,-628.89 724.22,-610.37 698.16,-593.93 597.24,-530.3 510.65,-647.77 432.16,-557.93 396.25,-516.84 420.23,-483.97 446.16,-435.96"/>
<path fill="none" stroke="black" d="M446.16,-433.96C459.01,-407.76 482.53,-384.9 502.95,-368.52"/>
<polygon fill="#06f9f9" stroke="black" points="505.14,-371.25 510.88,-362.35 500.84,-365.72 505.14,-371.25"/>
</g>
<!-- logger_setup&#45;&gt;handlers_sql_db_connection -->
<g id="edge61" class="edge">
<title>logger_setup&#45;&gt;handlers_sql_db_connection</title><style>.edge>path:hover{stroke-width:8}</style>
<path fill="none" stroke="black" d="M870.16,-875.88C868.98,-873.23 811.03,-850.77 764.77,-833.2"/>
<polygon fill="#06f9f9" stroke="black" points="765.99,-829.92 755.4,-829.64 763.51,-836.46 765.99,-829.92"/>
</g>
<!-- logger_setup&#45;&gt;handlers_sql_db_get_linked_data -->
<g id="edge62" class="edge">
<title>logger_setup&#45;&gt;handlers_sql_db_get_linked_data</title><style>.edge>path:hover{stroke-width:8}</style>
<path fill="none" stroke="black" d="M870.16,-875.88C858.65,-849.83 837.29,-860.02 817.16,-839.88 806.53,-829.25 807.16,-823.93 798.16,-811.89"/>
<path fill="none" stroke="black" d="M798.16,-809.89C789.16,-797.84 791.12,-791.01 779.16,-781.9 739.58,-751.75 713.7,-774.73 673.16,-745.9 641.52,-723.39 615.3,-687.38 598.48,-660.31"/>
<polygon fill="#06f9f9" stroke="black" points="601.32,-658.24 593.15,-651.5 595.34,-661.87 601.32,-658.24"/>
</g>
<!-- logger_setup&#45;&gt;handlers_sql_db_get_linked_notes_utils -->
<g id="edge63" class="edge">
<title>logger_setup&#45;&gt;handlers_sql_db_get_linked_notes_utils</title><style>.edge>path:hover{stroke-width:8}</style>
<path fill="none" stroke="black" d="M375.16,-809.89C323.88,-790.38 380.61,-737.03 356.16,-687.91 330.61,-636.6 282.4,-591.13 246.9,-562.31"/>
<polygon fill="#06f9f9" stroke="black" points="249.07,-559.57 239.07,-556.06 244.7,-565.04 249.07,-559.57"/>
</g>
<!-- logger_setup&#45;&gt;handlers_sql_db_notes -->
<g id="edge64" class="edge">
<title>logger_setup&#45;&gt;handlers_sql_db_notes</title><style>.edge>path:hover{stroke-width:8}</style>
<path fill="none" stroke="black" d="M798.16,-715.91C789.84,-673.14 706.97,-562.28 736.16,-529.94"/>
</g>
<!-- logger_setup&#45;&gt;handlers_sql_db_notes_utils -->
<g id="edge65" class="edge">
<title>logger_setup&#45;&gt;handlers_sql_db_notes_utils</title><style>.edge>path:hover{stroke-width:8}</style>
<path fill="none" stroke="black" d="M873.99,-949.84C877.35,-931.13 880.27,-900.59 870.16,-876.88"/>
<path fill="none" stroke="black" d="M870.16,-875.88C863.55,-863.69 388.15,-816.71 375.16,-811.89"/>
<path fill="none" stroke="black" d="M375.16,-809.89C217.43,-751.34 122.55,-793.17 31.16,-651.91 -5.6,-595.11 -10.98,-558.94 22.16,-499.95 48.92,-452.3 111.65,-488.36 127.16,-435.96"/>
<path fill="none" stroke="black" d="M127.16,-433.96C136.65,-398.27 86.68,-404.71 74.16,-369.97 65.42,-345.72 57.24,-331.42 74.16,-311.98 112.16,-268.31 276.71,-292.63 332.16,-275.98"/>
<path fill="none" stroke="black" d="M332.16,-274.98C420.13,-248.02 524.95,-229.95 592.24,-220.08"/>
<polygon fill="#06f9f9" stroke="black" points="592.91,-223.52 602.3,-218.62 591.9,-216.59 592.91,-223.52"/>
</g>
<!-- logger_setup&#45;&gt;handlers_sql_db_update_notes -->
<g id="edge66" class="edge">
<title>logger_setup&#45;&gt;handlers_sql_db_update_notes</title><style>.edge>path:hover{stroke-width:8}</style>
<path fill="none" stroke="black" d="M375.16,-809.89C345.6,-798.64 319.73,-773.74 301.85,-752.68"/>
<polygon fill="#06f9f9" stroke="black" points="304.45,-750.34 295.4,-744.83 299.04,-754.78 304.45,-750.34"/>
</g>
<!-- logger_setup&#45;&gt;handlers_sql_db_utils -->
<g id="edge67" class="edge">
<title>logger_setup&#45;&gt;handlers_sql_db_utils</title><style>.edge>path:hover{stroke-width:8}</style>
<path fill="none" stroke="black" d="M798.16,-809.89C789.73,-797.43 788.18,-793.92 779.16,-781.9 771.23,-771.34 762.19,-760.15 753.86,-750.13"/>
<polygon fill="#06f9f9" stroke="black" points="756.47,-747.79 747.36,-742.38 751.1,-752.29 756.47,-747.79"/>
</g>
<!-- logger_setup&#45;&gt;handlers_utils_files -->
<g id="edge68" class="edge">
<title>logger_setup&#45;&gt;handlers_utils_files</title><style>.edge>path:hover{stroke-width:8}</style>
<path fill="none" stroke="black" d="M870.16,-875.88C866.64,-867.92 865.28,-858.84 865.08,-850.06"/>
<polygon fill="#06f9f9" stroke="black" points="868.58,-850.08 865.32,-840 861.58,-849.91 868.58,-850.08"/>
</g>
<!-- logger_setup&#45;&gt;handlers_utils_normalization -->
<g id="edge69" class="edge">
<title>logger_setup&#45;&gt;handlers_utils_normalization</title><style>.edge>path:hover{stroke-width:8}</style>
<path fill="none" stroke="black" d="M1201.16,-715.91C1209.7,-699.78 1210.62,-679.72 1209.01,-662.45"/>
<polygon fill="#06f9f9" stroke="black" points="1212.44,-661.62 1207.73,-652.12 1205.49,-662.48 1212.44,-661.62"/>
</g>
<!-- logger_setup&#45;&gt;handlers_utils_paths -->
<g id="edge70" class="edge">
<title>logger_setup&#45;&gt;handlers_utils_paths</title><style>.edge>path:hover{stroke-width:8}</style>
<path fill="none" stroke="black" d="M127.16,-433.96C132.26,-416.71 132.87,-396.84 131.96,-379.98"/>
<polygon fill="#06f9f9" stroke="black" points="135.44,-379.65 131.22,-369.93 128.46,-380.16 135.44,-379.65"/>
</g>
<!-- logger_setup&#45;&gt;new_note_py -->
<g id="edge71" class="edge">
<title>logger_setup&#45;&gt;new_note_py</title><style>.edge>path:hover{stroke-width:8}</style>
<path fill="none" stroke="black" d="M1201.16,-715.91C1222.51,-670.5 1266.72,-693.92 1294.16,-651.91 1369.51,-536.57 1344.15,-467.86 1288.16,-341.97"/>
</g>
</g>
</svg>
