<?xml version="1.0" encoding="UTF-8" standalone="no"?>
<!DOCTYPE svg PUBLIC "-//W3C//DTD SVG 1.1//EN"
 "http://www.w3.org/Graphics/SVG/1.1/DTD/svg11.dtd">
<!-- Generated by graphviz version 2.43.0 (0)
 -->
<!-- Title: G Pages: 1 -->
<svg width="656pt" height="782pt"
 viewBox="0.00 0.00 655.73 781.77" xmlns="http://www.w3.org/2000/svg" xmlns:xlink="http://www.w3.org/1999/xlink">
<g id="graph0" class="graph" transform="scale(1 1) rotate(0) translate(4 777.77)">
<title>G</title><style>.edge>path:hover{stroke-width:8}</style>
<polygon fill="white" stroke="transparent" points="-4,4 -4,-777.77 651.73,-777.77 651.73,4 -4,4"/>
<!-- dotenv -->
<g id="node1" class="node">
<title>dotenv</title><style>.edge>path:hover{stroke-width:8}</style>
<ellipse fill="#b65353" stroke="black" cx="390.73" cy="-744.78" rx="29.37" ry="18"/>
<text text-anchor="middle" x="390.73" y="-742.28" font-family="Helvetica,sans-Serif" font-size="10.00" fill="#ffffff">dotenv</text>
</g>
<!-- logger_setup -->
<g id="node12" class="node">
<title>logger_setup</title><style>.edge>path:hover{stroke-width:8}</style>
<ellipse fill="#0c68f3" stroke="black" cx="390.73" cy="-658.57" rx="47.19" ry="18"/>
<text text-anchor="middle" x="390.73" y="-656.07" font-family="Helvetica,sans-Serif" font-size="10.00" fill="#ffffff">logger_setup</text>
</g>
<!-- dotenv&#45;&gt;logger_setup -->
<g id="edge1" class="edge">
<title>dotenv&#45;&gt;logger_setup</title><style>.edge>path:hover{stroke-width:8}</style>
<path fill="none" stroke="black" d="M390.73,-726.74C390.73,-715.32 390.73,-700.05 390.73,-686.94"/>
<polygon fill="#b65353" stroke="black" points="394.23,-686.59 390.73,-676.59 387.23,-686.59 394.23,-686.59"/>
</g>
<!-- handlers -->
<g id="node2" class="node">
<title>handlers</title><style>.edge>path:hover{stroke-width:8}</style>
<ellipse fill="#b8db2f" stroke="black" cx="34.73" cy="-130.21" rx="34.96" ry="18"/>
<text text-anchor="middle" x="34.73" y="-127.71" font-family="Helvetica,sans-Serif" font-size="10.00" fill="#000000">handlers</text>
</g>
<!-- large_note_py -->
<g id="node11" class="node">
<title>large_note_py</title><style>.edge>path:hover{stroke-width:8}</style>
<ellipse fill="#407756" stroke="black" cx="203.73" cy="-18" rx="48.72" ry="18"/>
<text text-anchor="middle" x="203.73" y="-15.5" font-family="Helvetica,sans-Serif" font-size="10.00" fill="#ffffff">large_note.py</text>
</g>
<!-- handlers&#45;&gt;large_note_py -->
<g id="edge2" class="edge">
<title>handlers&#45;&gt;large_note_py</title><style>.edge>path:hover{stroke-width:8}</style>
<path fill="none" stroke="black" d="M59.12,-117.22C65.43,-114.34 72.27,-111.4 78.73,-109 132.93,-88.88 201.53,-130.77 203.73,-73"/>
<path fill="none" stroke="black" d="M203.73,-72C204.05,-63.69 204.14,-54.64 204.13,-46.41"/>
<polygon fill="#b8db2f" stroke="black" points="207.63,-46.17 204.06,-36.19 200.63,-46.21 207.63,-46.17"/>
</g>
<!-- handlers_header -->
<g id="node3" class="node">
<title>handlers_header</title><style>.edge>path:hover{stroke-width:8}</style>
<ellipse fill="#a9c247" stroke="black" cx="131.73" cy="-130.21" rx="43.68" ry="21.43"/>
<text text-anchor="middle" x="131.73" y="-133.21" font-family="Helvetica,sans-Serif" font-size="10.00" fill="#000000">handlers.</text>
<text text-anchor="middle" x="131.73" y="-122.21" font-family="Helvetica,sans-Serif" font-size="10.00" fill="#000000">header</text>
</g>
<!-- handlers_header&#45;&gt;large_note_py -->
<g id="edge3" class="edge">
<title>handlers_header&#45;&gt;large_note_py</title><style>.edge>path:hover{stroke-width:8}</style>
<path fill="none" stroke="black" d="M166.32,-116.74C184.39,-107.78 202.95,-93.6 203.73,-73"/>
</g>
<!-- handlers_header_extract_yaml_header -->
<g id="node4" class="node">
<title>handlers_header_extract_yaml_header</title><style>.edge>path:hover{stroke-width:8}</style>
<ellipse fill="#7e8f3d" stroke="black" cx="236.73" cy="-216.42" rx="84.71" ry="28.98"/>
<text text-anchor="middle" x="236.73" y="-224.92" font-family="Helvetica,sans-Serif" font-size="10.00" fill="#000000">handlers.</text>
<text text-anchor="middle" x="236.73" y="-213.92" font-family="Helvetica,sans-Serif" font-size="10.00" fill="#000000">header.</text>
<text text-anchor="middle" x="236.73" y="-202.92" font-family="Helvetica,sans-Serif" font-size="10.00" fill="#000000">extract_yaml_header</text>
</g>
<!-- handlers_header_extract_yaml_header&#45;&gt;large_note_py -->
<g id="edge4" class="edge">
<title>handlers_header_extract_yaml_header&#45;&gt;large_note_py</title><style>.edge>path:hover{stroke-width:8}</style>
<path fill="none" stroke="black" d="M298.53,-196.49C329.83,-182.93 359.38,-161.65 349.73,-131.21"/>
<path fill="none" stroke="black" d="M349.73,-129.21C328.71,-62.93 201.09,-142.48 203.73,-73"/>
</g>
<!-- handlers_header_header_utils -->
<g id="node5" class="node">
<title>handlers_header_header_utils</title><style>.edge>path:hover{stroke-width:8}</style>
<ellipse fill="#8b9d43" stroke="black" cx="205.73" cy="-310.4" rx="54.39" ry="28.98"/>
<text text-anchor="middle" x="205.73" y="-318.9" font-family="Helvetica,sans-Serif" font-size="10.00" fill="#000000">handlers.</text>
<text text-anchor="middle" x="205.73" y="-307.9" font-family="Helvetica,sans-Serif" font-size="10.00" fill="#000000">header.</text>
<text text-anchor="middle" x="205.73" y="-296.9" font-family="Helvetica,sans-Serif" font-size="10.00" fill="#000000">header_utils</text>
</g>
<!-- handlers_header_header_utils&#45;&gt;handlers_header_extract_yaml_header -->
<g id="edge5" class="edge">
<title>handlers_header_header_utils&#45;&gt;handlers_header_extract_yaml_header</title><style>.edge>path:hover{stroke-width:8}</style>
<path fill="none" stroke="black" d="M215.03,-281.8C217.89,-273.33 221.08,-263.86 224.12,-254.85"/>
<polygon fill="#8b9d43" stroke="black" points="227.45,-255.91 227.33,-245.31 220.82,-253.67 227.45,-255.91"/>
</g>
<!-- handlers_sql -->
<g id="node6" class="node">
<title>handlers_sql</title><style>.edge>path:hover{stroke-width:8}</style>
<ellipse fill="#a9c247" stroke="black" cx="276.73" cy="-130.21" rx="44.98" ry="18"/>
<text text-anchor="middle" x="276.73" y="-127.71" font-family="Helvetica,sans-Serif" font-size="10.00" fill="#000000">handlers.sql</text>
</g>
<!-- handlers_sql&#45;&gt;large_note_py -->
<g id="edge6" class="edge">
<title>handlers_sql&#45;&gt;large_note_py</title><style>.edge>path:hover{stroke-width:8}</style>
<path fill="none" stroke="black" d="M243.1,-118.07C223.56,-109.24 202.9,-94.74 203.73,-73"/>
</g>
<!-- handlers_sql_db_connection -->
<g id="node7" class="node">
<title>handlers_sql_db_connection</title><style>.edge>path:hover{stroke-width:8}</style>
<ellipse fill="#92a446" stroke="black" cx="521.73" cy="-498.37" rx="61.54" ry="28.98"/>
<text text-anchor="middle" x="521.73" y="-506.87" font-family="Helvetica,sans-Serif" font-size="10.00" fill="#000000">handlers.</text>
<text text-anchor="middle" x="521.73" y="-495.87" font-family="Helvetica,sans-Serif" font-size="10.00" fill="#000000">sql.</text>
<text text-anchor="middle" x="521.73" y="-484.87" font-family="Helvetica,sans-Serif" font-size="10.00" fill="#000000">db_connection</text>
</g>
<!-- handlers_sql_db_temp_blocs -->
<g id="node8" class="node">
<title>handlers_sql_db_temp_blocs</title><style>.edge>path:hover{stroke-width:8}</style>
<ellipse fill="#78883a" stroke="black" cx="455.73" cy="-404.38" rx="63.78" ry="28.98"/>
<text text-anchor="middle" x="455.73" y="-412.88" font-family="Helvetica,sans-Serif" font-size="10.00" fill="#ffffff">handlers.</text>
<text text-anchor="middle" x="455.73" y="-401.88" font-family="Helvetica,sans-Serif" font-size="10.00" fill="#ffffff">sql.</text>
<text text-anchor="middle" x="455.73" y="-390.88" font-family="Helvetica,sans-Serif" font-size="10.00" fill="#ffffff">db_temp_blocs</text>
</g>
<!-- handlers_sql_db_connection&#45;&gt;handlers_sql_db_temp_blocs -->
<g id="edge7" class="edge">
<title>handlers_sql_db_connection&#45;&gt;handlers_sql_db_temp_blocs</title><style>.edge>path:hover{stroke-width:8}</style>
<path fill="none" stroke="black" d="M502.64,-470.76C495.86,-461.31 488.12,-450.52 480.91,-440.47"/>
<polygon fill="#92a446" stroke="black" points="483.68,-438.33 475.01,-432.25 477.99,-442.41 483.68,-438.33"/>
</g>
<!-- handlers_sql_db_temp_blocs&#45;&gt;large_note_py -->
<g id="edge8" class="edge">
<title>handlers_sql_db_temp_blocs&#45;&gt;large_note_py</title><style>.edge>path:hover{stroke-width:8}</style>
<path fill="none" stroke="black" d="M424.41,-379.03C405.86,-362.36 384.34,-338.42 375.73,-311.4"/>
</g>
<!-- handlers_utils -->
<g id="node9" class="node">
<title>handlers_utils</title><style>.edge>path:hover{stroke-width:8}</style>
<ellipse fill="#b1ce3b" stroke="black" cx="123.73" cy="-498.37" rx="48.72" ry="18"/>
<text text-anchor="middle" x="123.73" y="-495.87" font-family="Helvetica,sans-Serif" font-size="10.00" fill="#000000">handlers.utils</text>
</g>
<!-- handlers_utils&#45;&gt;handlers_header_extract_yaml_header -->
<g id="edge9" class="edge">
<title>handlers_utils&#45;&gt;handlers_header_extract_yaml_header</title><style>.edge>path:hover{stroke-width:8}</style>
<path fill="none" stroke="black" d="M123.73,-309.4C131.44,-281.61 154.69,-260.33 178.11,-245.28"/>
<polygon fill="#b1ce3b" stroke="black" points="180.02,-248.21 186.72,-240.01 176.37,-242.24 180.02,-248.21"/>
</g>
<!-- handlers_utils&#45;&gt;handlers_header_header_utils -->
<g id="edge10" class="edge">
<title>handlers_utils&#45;&gt;handlers_header_header_utils</title><style>.edge>path:hover{stroke-width:8}</style>
<path fill="none" stroke="black" d="M123.73,-403.38C128.97,-378.28 147.28,-356.52 165.28,-340.47"/>
<polygon fill="#b1ce3b" stroke="black" points="167.59,-343.1 172.93,-333.95 163.05,-337.77 167.59,-343.1"/>
</g>
<!-- handlers_utils&#45;&gt;large_note_py -->
<g id="edge11" class="edge">
<title>handlers_utils&#45;&gt;large_note_py</title><style>.edge>path:hover{stroke-width:8}</style>
<path fill="none" stroke="black" d="M121.66,-480.2C119.89,-461.56 118.38,-431.02 123.73,-405.38"/>
<path fill="none" stroke="black" d="M123.73,-403.38C132.08,-363.36 112.8,-350.79 123.73,-311.4"/>
<path fill="none" stroke="black" d="M123.73,-309.4C138.4,-256.53 116.03,-235.35 142.73,-187.43 154.7,-165.95 171.88,-172.39 184.73,-151.43 203.47,-120.85 202.37,-108.84 203.73,-73"/>
</g>
<!-- handlers_utils_files -->
<g id="node10" class="node">
<title>handlers_utils_files</title><style>.edge>path:hover{stroke-width:8}</style>
<ellipse fill="#aecc33" stroke="black" cx="359.73" cy="-498.37" rx="43.68" ry="28.98"/>
<text text-anchor="middle" x="359.73" y="-506.87" font-family="Helvetica,sans-Serif" font-size="10.00" fill="#000000">handlers.</text>
<text text-anchor="middle" x="359.73" y="-495.87" font-family="Helvetica,sans-Serif" font-size="10.00" fill="#000000">utils.</text>
<text text-anchor="middle" x="359.73" y="-484.87" font-family="Helvetica,sans-Serif" font-size="10.00" fill="#000000">files</text>
</g>
<!-- handlers_utils_files&#45;&gt;handlers_header_extract_yaml_header -->
<g id="edge12" class="edge">
<title>handlers_utils_files&#45;&gt;handlers_header_extract_yaml_header</title><style>.edge>path:hover{stroke-width:8}</style>
<path fill="none" stroke="black" d="M325.73,-403.38C308.38,-365.98 344.2,-352.12 337.73,-311.4"/>
<path fill="none" stroke="black" d="M337.73,-309.4C333.51,-282.83 313.2,-261.75 291.88,-246.5"/>
<polygon fill="#aecc33" stroke="black" points="293.62,-243.45 283.38,-240.74 289.69,-249.25 293.62,-243.45"/>
</g>
<!-- handlers_utils_files&#45;&gt;handlers_header_header_utils -->
<g id="edge13" class="edge">
<title>handlers_utils_files&#45;&gt;handlers_header_header_utils</title><style>.edge>path:hover{stroke-width:8}</style>
<path fill="none" stroke="black" d="M350.88,-469.93C344.59,-451.4 335.55,-426.54 325.73,-405.38"/>
<path fill="none" stroke="black" d="M325.73,-403.38C311.64,-373 281.79,-350.06 255.39,-334.68"/>
<polygon fill="#aecc33" stroke="black" points="257.03,-331.59 246.6,-329.76 253.61,-337.7 257.03,-331.59"/>
</g>
<!-- handlers_utils_files&#45;&gt;large_note_py -->
<g id="edge14" class="edge">
<title>handlers_utils_files&#45;&gt;large_note_py</title><style>.edge>path:hover{stroke-width:8}</style>
<path fill="none" stroke="black" d="M337.73,-309.4C331.26,-268.68 351.26,-258.62 349.73,-217.42"/>
<path fill="none" stroke="black" d="M349.73,-215.42C348.34,-178.02 361.04,-166.89 349.73,-131.21"/>
</g>
<!-- logger_setup&#45;&gt;handlers_header_extract_yaml_header -->
<g id="edge15" class="edge">
<title>logger_setup&#45;&gt;handlers_header_extract_yaml_header</title><style>.edge>path:hover{stroke-width:8}</style>
<path fill="none" stroke="black" d="M287.73,-403.38C273.7,-350.34 285.42,-333.67 268.73,-281.41 265.82,-272.29 261.76,-262.85 257.5,-254.12"/>
<polygon fill="#0c68f3" stroke="black" points="260.51,-252.31 252.86,-244.98 254.26,-255.48 260.51,-252.31"/>
</g>
<!-- logger_setup&#45;&gt;handlers_header_header_utils -->
<g id="edge16" class="edge">
<title>logger_setup&#45;&gt;handlers_header_header_utils</title><style>.edge>path:hover{stroke-width:8}</style>
<path fill="none" stroke="black" d="M405.05,-641.39C419.31,-623.3 438.22,-592.8 431.73,-564.36"/>
<path fill="none" stroke="black" d="M431.73,-563.36C421.93,-506.38 344.96,-570.73 306.73,-527.36 270.45,-486.2 298.94,-459.09 287.73,-405.38"/>
<path fill="none" stroke="black" d="M287.73,-403.38C281.23,-378.81 263.1,-357.24 245.54,-341.17"/>
<polygon fill="#0c68f3" stroke="black" points="247.38,-338.13 237.55,-334.18 242.78,-343.4 247.38,-338.13"/>
</g>
<!-- logger_setup&#45;&gt;handlers_sql_db_connection -->
<g id="edge17" class="edge">
<title>logger_setup&#45;&gt;handlers_sql_db_connection</title><style>.edge>path:hover{stroke-width:8}</style>
<path fill="none" stroke="black" d="M431.73,-563.36C427.17,-543.35 442.16,-528.88 461.15,-518.83"/>
<polygon fill="#0c68f3" stroke="black" points="462.91,-521.86 470.41,-514.37 459.88,-515.55 462.91,-521.86"/>
</g>
<!-- logger_setup&#45;&gt;handlers_sql_db_temp_blocs -->
<g id="edge18" class="edge">
<title>logger_setup&#45;&gt;handlers_sql_db_temp_blocs</title><style>.edge>path:hover{stroke-width:8}</style>
<path fill="none" stroke="black" d="M431.73,-497.37C429.63,-479.17 433.86,-459.47 439.33,-442.98"/>
<polygon fill="#0c68f3" stroke="black" points="442.76,-443.77 442.85,-433.17 436.17,-441.41 442.76,-443.77"/>
</g>
<!-- logger_setup&#45;&gt;handlers_utils_files -->
<g id="edge19" class="edge">
<title>logger_setup&#45;&gt;handlers_utils_files</title><style>.edge>path:hover{stroke-width:8}</style>
<path fill="none" stroke="black" d="M431.73,-563.36C427.91,-546.61 415.57,-533.01 402.16,-522.71"/>
<polygon fill="#0c68f3" stroke="black" points="403.92,-519.67 393.74,-516.73 399.87,-525.38 403.92,-519.67"/>
</g>
<!-- logger_setup&#45;&gt;large_note_py -->
<g id="edge20" class="edge">
<title>logger_setup&#45;&gt;large_note_py</title><style>.edge>path:hover{stroke-width:8}</style>
<path fill="none" stroke="black" d="M431.73,-563.36C427.35,-535.26 434.99,-527.62 431.73,-499.37"/>
<path fill="none" stroke="black" d="M431.73,-497.37C427.62,-461.78 395.89,-466.69 382.73,-433.37 362.79,-382.87 392.22,-363.14 375.73,-311.4"/>
<path fill="none" stroke="black" d="M375.73,-309.4C361.45,-269.39 351.31,-259.87 349.73,-217.42"/>
</g>
<!-- mysql -->
<g id="node13" class="node">
<title>mysql</title><style>.edge>path:hover{stroke-width:8}</style>
<ellipse fill="#b13bce" stroke="black" cx="483.73" cy="-658.57" rx="27.84" ry="18"/>
<text text-anchor="middle" x="483.73" y="-656.07" font-family="Helvetica,sans-Serif" font-size="10.00" fill="#ffffff">mysql</text>
</g>
<!-- mysql&#45;&gt;handlers_sql_db_connection -->
<g id="edge21" class="edge">
<title>mysql&#45;&gt;handlers_sql_db_connection</title><style>.edge>path:hover{stroke-width:8}</style>
<path fill="none" stroke="black" d="M501.35,-644.5C527.86,-624.14 574.83,-585.02 573.73,-564.36"/>
<path fill="none" stroke="black" d="M573.73,-563.36C576.55,-551.02 571.23,-539.58 563.05,-529.88"/>
<polygon fill="#b13bce" stroke="black" points="565.42,-527.3 555.97,-522.49 560.36,-532.14 565.42,-527.3"/>
</g>
<!-- mysql&#45;&gt;handlers_sql_db_temp_blocs -->
<g id="edge22" class="edge">
<title>mysql&#45;&gt;handlers_sql_db_temp_blocs</title><style>.edge>path:hover{stroke-width:8}</style>
<path fill="none" stroke="black" d="M573.73,-563.36C581.11,-531.11 628,-528.16 611.73,-499.37"/>
<path fill="none" stroke="black" d="M611.73,-497.37C604.33,-484.28 604.18,-479.13 592.73,-469.37 570.58,-450.5 541.93,-435.98 516.56,-425.57"/>
<polygon fill="#b13bce" stroke="black" points="517.6,-422.22 507.02,-421.78 515.02,-428.73 517.6,-422.22"/>
</g>
<!-- mysql_connector -->
<g id="node14" class="node">
<title>mysql_connector</title><style>.edge>path:hover{stroke-width:8}</style>
<ellipse fill="#a02fbc" stroke="black" cx="575.73" cy="-658.57" rx="45.92" ry="21.43"/>
<text text-anchor="middle" x="575.73" y="-661.57" font-family="Helvetica,sans-Serif" font-size="10.00" fill="#ffffff">mysql.</text>
<text text-anchor="middle" x="575.73" y="-650.57" font-family="Helvetica,sans-Serif" font-size="10.00" fill="#ffffff">connector</text>
</g>
<!-- mysql_connector&#45;&gt;handlers_sql_db_connection -->
<g id="edge23" class="edge">
<title>mysql_connector&#45;&gt;handlers_sql_db_connection</title><style>.edge>path:hover{stroke-width:8}</style>
<path fill="none" stroke="black" d="M591.09,-638.56C604.24,-619.91 619.86,-590.53 611.73,-564.36"/>
<path fill="none" stroke="black" d="M611.73,-563.36C606.74,-545.6 592.8,-532.16 577.33,-522.29"/>
<polygon fill="#a02fbc" stroke="black" points="579.02,-519.22 568.63,-517.17 575.47,-525.26 579.02,-519.22"/>
</g>
<!-- mysql_connector&#45;&gt;handlers_sql_db_temp_blocs -->
<g id="edge24" class="edge">
<title>mysql_connector&#45;&gt;handlers_sql_db_temp_blocs</title><style>.edge>path:hover{stroke-width:8}</style>
<path fill="none" stroke="black" d="M611.73,-563.36C604.04,-535.98 625.72,-524.13 611.73,-499.37"/>
</g>
<!-- mysql_connector_errors -->
<g id="node15" class="node">
<title>mysql_connector_errors</title><style>.edge>path:hover{stroke-width:8}</style>
<ellipse fill="#a947c2" stroke="black" cx="575.73" cy="-744.78" rx="47.25" ry="28.98"/>
<text text-anchor="middle" x="575.73" y="-753.28" font-family="Helvetica,sans-Serif" font-size="10.00" fill="#ffffff">mysql.</text>
<text text-anchor="middle" x="575.73" y="-742.28" font-family="Helvetica,sans-Serif" font-size="10.00" fill="#ffffff">connector.</text>
<text text-anchor="middle" x="575.73" y="-731.28" font-family="Helvetica,sans-Serif" font-size="10.00" fill="#ffffff">errors</text>
</g>
<!-- mysql_connector_errors&#45;&gt;handlers_sql_db_temp_blocs -->
<g id="edge25" class="edge">
<title>mysql_connector_errors&#45;&gt;handlers_sql_db_temp_blocs</title><style>.edge>path:hover{stroke-width:8}</style>
<path fill="none" stroke="black" d="M602.66,-720.71C613.59,-709.59 624.98,-695.31 630.73,-679.78 658.76,-604.18 651.39,-569.57 611.73,-499.37"/>
</g>
<!-- mysql_connector_errors&#45;&gt;mysql_connector -->
<g id="edge26" class="edge">
<title>mysql_connector_errors&#45;&gt;mysql_connector</title><style>.edge>path:hover{stroke-width:8}</style>
<path fill="none" stroke="black" d="M575.73,-715.74C575.73,-707.53 575.73,-698.51 575.73,-690.16"/>
<polygon fill="#a947c2" stroke="black" points="579.23,-690.03 575.73,-680.03 572.23,-690.03 579.23,-690.03"/>
</g>
</g>
</svg>
