<?xml version="1.0" encoding="UTF-8" standalone="no"?>
<!DOCTYPE svg PUBLIC "-//W3C//DTD SVG 1.1//EN"
 "http://www.w3.org/Graphics/SVG/1.1/DTD/svg11.dtd">
<!-- Generated by graphviz version 2.43.0 (0)
 -->
<!-- Title: G Pages: 1 -->
<svg width="1527pt" height="753pt"
 viewBox="0.00 0.00 1526.64 753.36" xmlns="http://www.w3.org/2000/svg" xmlns:xlink="http://www.w3.org/1999/xlink">
<g id="graph0" class="graph" transform="scale(1 1) rotate(0) translate(4 749.36)">
<title>G</title><style>.edge>path:hover{stroke-width:8}</style>
<polygon fill="white" stroke="transparent" points="-4,4 -4,-749.36 1522.64,-749.36 1522.64,4 -4,4"/>
<!-- dotenv -->
<g id="node1" class="node">
<title>dotenv</title><style>.edge>path:hover{stroke-width:8}</style>
<ellipse fill="#b6b653" stroke="black" cx="739.37" cy="-727.36" rx="29.37" ry="18"/>
<text text-anchor="middle" x="739.37" y="-724.86" font-family="Helvetica,sans-Serif" font-size="10.00" fill="#000000">dotenv</text>
</g>
<!-- logger_setup -->
<g id="node22" class="node">
<title>logger_setup</title><style>.edge>path:hover{stroke-width:8}</style>
<ellipse fill="#0606f9" stroke="black" cx="739.37" cy="-655.36" rx="47.19" ry="18"/>
<text text-anchor="middle" x="739.37" y="-652.86" font-family="Helvetica,sans-Serif" font-size="10.00" fill="#ffffff">logger_setup</text>
</g>
<!-- dotenv&#45;&gt;logger_setup -->
<g id="edge1" class="edge">
<title>dotenv&#45;&gt;logger_setup</title><style>.edge>path:hover{stroke-width:8}</style>
<path fill="none" stroke="black" d="M739.37,-709.05C739.37,-701.34 739.37,-692.07 739.37,-683.47"/>
<polygon fill="#b6b653" stroke="black" points="742.87,-683.46 739.37,-673.46 735.87,-683.46 742.87,-683.46"/>
</g>
<!-- get_type_py -->
<g id="node2" class="node">
<title>get_type_py</title><style>.edge>path:hover{stroke-width:8}</style>
<ellipse fill="#356335" stroke="black" cx="668.37" cy="-18" rx="43.62" ry="18"/>
<text text-anchor="middle" x="668.37" y="-15.5" font-family="Helvetica,sans-Serif" font-size="10.00" fill="#ffffff">get_type.py</text>
</g>
<!-- handlers -->
<g id="node3" class="node">
<title>handlers</title><style>.edge>path:hover{stroke-width:8}</style>
<ellipse fill="#10f9f9" stroke="black" cx="426.37" cy="-130.21" rx="34.96" ry="18"/>
<text text-anchor="middle" x="426.37" y="-127.71" font-family="Helvetica,sans-Serif" font-size="10.00" fill="#000000">handlers</text>
</g>
<!-- handlers&#45;&gt;get_type_py -->
<g id="edge2" class="edge">
<title>handlers&#45;&gt;get_type_py</title><style>.edge>path:hover{stroke-width:8}</style>
<path fill="none" stroke="black" d="M450.15,-116.97C456.58,-114.03 463.64,-111.12 470.37,-109 513.03,-95.56 690.41,-111.91 668.37,-73"/>
<path fill="none" stroke="black" d="M668.37,-72C664.05,-64.37 662.95,-55.08 663.26,-46.42"/>
<polygon fill="#10f9f9" stroke="black" points="666.76,-46.62 664.23,-36.33 659.79,-45.95 666.76,-46.62"/>
</g>
<!-- handlers_header -->
<g id="node4" class="node">
<title>handlers_header</title><style>.edge>path:hover{stroke-width:8}</style>
<ellipse fill="#47c2c2" stroke="black" cx="523.37" cy="-130.21" rx="43.68" ry="21.43"/>
<text text-anchor="middle" x="523.37" y="-133.21" font-family="Helvetica,sans-Serif" font-size="10.00" fill="#000000">handlers.</text>
<text text-anchor="middle" x="523.37" y="-122.21" font-family="Helvetica,sans-Serif" font-size="10.00" fill="#000000">header</text>
</g>
<!-- handlers_header&#45;&gt;get_type_py -->
<g id="edge3" class="edge">
<title>handlers_header&#45;&gt;get_type_py</title><style>.edge>path:hover{stroke-width:8}</style>
<path fill="none" stroke="black" d="M557.8,-116.8C601.14,-101.04 669.83,-75.58 668.37,-73"/>
</g>
<!-- handlers_header_extract_yaml_header -->
<g id="node5" class="node">
<title>handlers_header_extract_yaml_header</title><style>.edge>path:hover{stroke-width:8}</style>
<ellipse fill="#3d8f8f" stroke="black" cx="121.37" cy="-216.42" rx="84.71" ry="28.98"/>
<text text-anchor="middle" x="121.37" y="-224.92" font-family="Helvetica,sans-Serif" font-size="10.00" fill="#ffffff">handlers.</text>
<text text-anchor="middle" x="121.37" y="-213.92" font-family="Helvetica,sans-Serif" font-size="10.00" fill="#ffffff">header.</text>
<text text-anchor="middle" x="121.37" y="-202.92" font-family="Helvetica,sans-Serif" font-size="10.00" fill="#ffffff">extract_yaml_header</text>
</g>
<!-- handlers_header_extract_yaml_header&#45;&gt;get_type_py -->
<g id="edge4" class="edge">
<title>handlers_header_extract_yaml_header&#45;&gt;get_type_py</title><style>.edge>path:hover{stroke-width:8}</style>
<path fill="none" stroke="black" d="M204.11,-209.81C358.05,-198.92 677,-173.97 722.37,-151.43 733.41,-145.94 740.28,-143.49 741.37,-131.21"/>
<path fill="none" stroke="black" d="M741.37,-129.21C742.46,-116.93 731.78,-116.96 722.37,-109 700.35,-90.37 682.59,-98.1 668.37,-73"/>
</g>
<!-- handlers_header_header_utils -->
<g id="node6" class="node">
<title>handlers_header_header_utils</title><style>.edge>path:hover{stroke-width:8}</style>
<ellipse fill="#439d9d" stroke="black" cx="90.37" cy="-310.4" rx="54.39" ry="28.98"/>
<text text-anchor="middle" x="90.37" y="-318.9" font-family="Helvetica,sans-Serif" font-size="10.00" fill="#000000">handlers.</text>
<text text-anchor="middle" x="90.37" y="-307.9" font-family="Helvetica,sans-Serif" font-size="10.00" fill="#000000">header.</text>
<text text-anchor="middle" x="90.37" y="-296.9" font-family="Helvetica,sans-Serif" font-size="10.00" fill="#000000">header_utils</text>
</g>
<!-- handlers_header_header_utils&#45;&gt;handlers_header_extract_yaml_header -->
<g id="edge5" class="edge">
<title>handlers_header_header_utils&#45;&gt;handlers_header_extract_yaml_header</title><style>.edge>path:hover{stroke-width:8}</style>
<path fill="none" stroke="black" d="M99.67,-281.8C102.53,-273.33 105.72,-263.86 108.76,-254.85"/>
<polygon fill="#439d9d" stroke="black" points="112.09,-255.91 111.97,-245.31 105.46,-253.67 112.09,-255.91"/>
</g>
<!-- handlers_sql -->
<g id="node7" class="node">
<title>handlers_sql</title><style>.edge>path:hover{stroke-width:8}</style>
<ellipse fill="#10f9f9" stroke="black" cx="668.37" cy="-130.21" rx="44.98" ry="18"/>
<text text-anchor="middle" x="668.37" y="-127.71" font-family="Helvetica,sans-Serif" font-size="10.00" fill="#000000">handlers.sql</text>
</g>
<!-- handlers_sql&#45;&gt;get_type_py -->
<g id="edge6" class="edge">
<title>handlers_sql&#45;&gt;get_type_py</title><style>.edge>path:hover{stroke-width:8}</style>
<path fill="none" stroke="black" d="M672.56,-112.12C674.48,-100.36 675.06,-84.8 668.37,-73"/>
</g>
<!-- handlers_sql_db_categs -->
<g id="node8" class="node">
<title>handlers_sql_db_categs</title><style>.edge>path:hover{stroke-width:8}</style>
<ellipse fill="#378181" stroke="black" cx="584.37" cy="-310.4" rx="46.84" ry="28.98"/>
<text text-anchor="middle" x="584.37" y="-318.9" font-family="Helvetica,sans-Serif" font-size="10.00" fill="#ffffff">handlers.</text>
<text text-anchor="middle" x="584.37" y="-307.9" font-family="Helvetica,sans-Serif" font-size="10.00" fill="#ffffff">sql.</text>
<text text-anchor="middle" x="584.37" y="-296.9" font-family="Helvetica,sans-Serif" font-size="10.00" fill="#ffffff">db_categs</text>
</g>
<!-- handlers_sql_db_categs&#45;&gt;get_type_py -->
<g id="edge7" class="edge">
<title>handlers_sql_db_categs&#45;&gt;get_type_py</title><style>.edge>path:hover{stroke-width:8}</style>
<path fill="none" stroke="black" d="M573.96,-281.97C567.44,-259.65 563.74,-229.89 584.37,-217.42"/>
</g>
<!-- handlers_sql_db_categs_utils -->
<g id="node9" class="node">
<title>handlers_sql_db_categs_utils</title><style>.edge>path:hover{stroke-width:8}</style>
<ellipse fill="#409696" stroke="black" cx="454.37" cy="-310.4" rx="65.11" ry="28.98"/>
<text text-anchor="middle" x="454.37" y="-318.9" font-family="Helvetica,sans-Serif" font-size="10.00" fill="#ffffff">handlers.</text>
<text text-anchor="middle" x="454.37" y="-307.9" font-family="Helvetica,sans-Serif" font-size="10.00" fill="#ffffff">sql.</text>
<text text-anchor="middle" x="454.37" y="-296.9" font-family="Helvetica,sans-Serif" font-size="10.00" fill="#ffffff">db_categs_utils</text>
</g>
<!-- handlers_sql_db_categs_utils&#45;&gt;get_type_py -->
<g id="edge8" class="edge">
<title>handlers_sql_db_categs_utils&#45;&gt;get_type_py</title><style>.edge>path:hover{stroke-width:8}</style>
<path fill="none" stroke="black" d="M486.09,-285.01C511.89,-265.65 549.59,-238.44 584.37,-217.42"/>
</g>
<!-- handlers_sql_db_connection -->
<g id="node10" class="node">
<title>handlers_sql_db_connection</title><style>.edge>path:hover{stroke-width:8}</style>
<ellipse fill="#0cf3f3" stroke="black" cx="600.37" cy="-498.37" rx="61.54" ry="28.98"/>
<text text-anchor="middle" x="600.37" y="-506.87" font-family="Helvetica,sans-Serif" font-size="10.00" fill="#000000">handlers.</text>
<text text-anchor="middle" x="600.37" y="-495.87" font-family="Helvetica,sans-Serif" font-size="10.00" fill="#000000">sql.</text>
<text text-anchor="middle" x="600.37" y="-484.87" font-family="Helvetica,sans-Serif" font-size="10.00" fill="#000000">db_connection</text>
</g>
<!-- handlers_sql_db_connection&#45;&gt;handlers_sql_db_categs -->
<g id="edge9" class="edge">
<title>handlers_sql_db_connection&#45;&gt;handlers_sql_db_categs</title><style>.edge>path:hover{stroke-width:8}</style>
<path fill="none" stroke="black" d="M615.37,-403.38C609.47,-385.49 602.81,-365.69 597.18,-349.05"/>
<polygon fill="#0cf3f3" stroke="black" points="600.35,-347.49 593.82,-339.14 593.72,-349.74 600.35,-347.49"/>
</g>
<!-- handlers_sql_db_connection&#45;&gt;handlers_sql_db_categs_utils -->
<g id="edge10" class="edge">
<title>handlers_sql_db_connection&#45;&gt;handlers_sql_db_categs_utils</title><style>.edge>path:hover{stroke-width:8}</style>
<path fill="none" stroke="black" d="M611.72,-469.45C617.61,-450.93 622.27,-426.28 615.37,-405.38"/>
<path fill="none" stroke="black" d="M615.37,-403.38C610.66,-389.11 607.88,-385.07 596.37,-375.39 582.71,-363.91 545.4,-347.26 512.45,-333.82"/>
<polygon fill="#0cf3f3" stroke="black" points="513.43,-330.44 502.85,-329.95 510.81,-336.94 513.43,-330.44"/>
</g>
<!-- handlers_sql_db_folders_utils -->
<g id="node11" class="node">
<title>handlers_sql_db_folders_utils</title><style>.edge>path:hover{stroke-width:8}</style>
<ellipse fill="#409696" stroke="black" cx="304.37" cy="-310.4" rx="66.44" ry="28.98"/>
<text text-anchor="middle" x="304.37" y="-318.9" font-family="Helvetica,sans-Serif" font-size="10.00" fill="#ffffff">handlers.</text>
<text text-anchor="middle" x="304.37" y="-307.9" font-family="Helvetica,sans-Serif" font-size="10.00" fill="#ffffff">sql.</text>
<text text-anchor="middle" x="304.37" y="-296.9" font-family="Helvetica,sans-Serif" font-size="10.00" fill="#ffffff">db_folders_utils</text>
</g>
<!-- handlers_sql_db_connection&#45;&gt;handlers_sql_db_folders_utils -->
<g id="edge11" class="edge">
<title>handlers_sql_db_connection&#45;&gt;handlers_sql_db_folders_utils</title><style>.edge>path:hover{stroke-width:8}</style>
<path fill="none" stroke="black" d="M561.4,-475.88C540.12,-463.86 513.47,-448.31 490.37,-433.37 453.2,-409.33 446.3,-399.81 409.37,-375.39 390.86,-363.15 370.06,-350.29 351.89,-339.34"/>
<polygon fill="#0cf3f3" stroke="black" points="353.58,-336.27 343.2,-334.13 349.97,-342.28 353.58,-336.27"/>
</g>
<!-- handlers_sql_db_get_linked_data -->
<g id="node12" class="node">
<title>handlers_sql_db_get_linked_data</title><style>.edge>path:hover{stroke-width:8}</style>
<ellipse fill="#409696" stroke="black" cx="765.37" cy="-310.4" rx="78.48" ry="28.98"/>
<text text-anchor="middle" x="765.37" y="-318.9" font-family="Helvetica,sans-Serif" font-size="10.00" fill="#ffffff">handlers.</text>
<text text-anchor="middle" x="765.37" y="-307.9" font-family="Helvetica,sans-Serif" font-size="10.00" fill="#ffffff">sql.</text>
<text text-anchor="middle" x="765.37" y="-296.9" font-family="Helvetica,sans-Serif" font-size="10.00" fill="#ffffff">db_get_linked_data</text>
</g>
<!-- handlers_sql_db_connection&#45;&gt;handlers_sql_db_get_linked_data -->
<g id="edge12" class="edge">
<title>handlers_sql_db_connection&#45;&gt;handlers_sql_db_get_linked_data</title><style>.edge>path:hover{stroke-width:8}</style>
<path fill="none" stroke="black" d="M623.66,-471.12C652.73,-438.35 702.53,-382.22 734.69,-345.98"/>
<polygon fill="#0cf3f3" stroke="black" points="737.65,-347.92 741.67,-338.12 732.41,-343.28 737.65,-347.92"/>
</g>
<!-- handlers_sql_db_update_notes -->
<g id="node14" class="node">
<title>handlers_sql_db_update_notes</title><style>.edge>path:hover{stroke-width:8}</style>
<ellipse fill="#439d9d" stroke="black" cx="970.37" cy="-404.38" rx="70.92" ry="28.98"/>
<text text-anchor="middle" x="970.37" y="-412.88" font-family="Helvetica,sans-Serif" font-size="10.00" fill="#000000">handlers.</text>
<text text-anchor="middle" x="970.37" y="-401.88" font-family="Helvetica,sans-Serif" font-size="10.00" fill="#000000">sql.</text>
<text text-anchor="middle" x="970.37" y="-390.88" font-family="Helvetica,sans-Serif" font-size="10.00" fill="#000000">db_update_notes</text>
</g>
<!-- handlers_sql_db_connection&#45;&gt;handlers_sql_db_update_notes -->
<g id="edge13" class="edge">
<title>handlers_sql_db_connection&#45;&gt;handlers_sql_db_update_notes</title><style>.edge>path:hover{stroke-width:8}</style>
<path fill="none" stroke="black" d="M644.96,-478.15C653.61,-474.89 662.69,-471.79 671.37,-469.37 764.3,-443.55 791.74,-456.52 885.37,-433.37 892.9,-431.51 900.73,-429.31 908.45,-426.98"/>
<polygon fill="#0cf3f3" stroke="black" points="909.63,-430.27 918.14,-423.96 907.55,-423.59 909.63,-430.27"/>
</g>
<!-- handlers_sql_db_utils -->
<g id="node15" class="node">
<title>handlers_sql_db_utils</title><style>.edge>path:hover{stroke-width:8}</style>
<ellipse fill="#21bfbf" stroke="black" cx="543.37" cy="-404.38" rx="43.68" ry="28.98"/>
<text text-anchor="middle" x="543.37" y="-412.88" font-family="Helvetica,sans-Serif" font-size="10.00" fill="#000000">handlers.</text>
<text text-anchor="middle" x="543.37" y="-401.88" font-family="Helvetica,sans-Serif" font-size="10.00" fill="#000000">sql.</text>
<text text-anchor="middle" x="543.37" y="-390.88" font-family="Helvetica,sans-Serif" font-size="10.00" fill="#000000">db_utils</text>
</g>
<!-- handlers_sql_db_connection&#45;&gt;handlers_sql_db_utils -->
<g id="edge14" class="edge">
<title>handlers_sql_db_connection&#45;&gt;handlers_sql_db_utils</title><style>.edge>path:hover{stroke-width:8}</style>
<path fill="none" stroke="black" d="M583.58,-470.27C577.74,-460.84 571.1,-450.13 564.93,-440.17"/>
<polygon fill="#0cf3f3" stroke="black" points="567.9,-438.31 559.65,-431.66 561.95,-442 567.9,-438.31"/>
</g>
<!-- handlers_sql_db_folders_utils&#45;&gt;get_type_py -->
<g id="edge15" class="edge">
<title>handlers_sql_db_folders_utils&#45;&gt;get_type_py</title><style>.edge>path:hover{stroke-width:8}</style>
<path fill="none" stroke="black" d="M353.71,-290.83C362.56,-287.61 371.72,-284.36 380.37,-281.41 470.32,-250.76 503.05,-266.58 584.37,-217.42"/>
</g>
<!-- handlers_sql_db_get_linked_folders_utils -->
<g id="node13" class="node">
<title>handlers_sql_db_get_linked_folders_utils</title><style>.edge>path:hover{stroke-width:8}</style>
<ellipse fill="#439d9d" stroke="black" cx="741.37" cy="-216.42" rx="105.22" ry="28.98"/>
<text text-anchor="middle" x="741.37" y="-224.92" font-family="Helvetica,sans-Serif" font-size="10.00" fill="#000000">handlers.</text>
<text text-anchor="middle" x="741.37" y="-213.92" font-family="Helvetica,sans-Serif" font-size="10.00" fill="#000000">sql.</text>
<text text-anchor="middle" x="741.37" y="-202.92" font-family="Helvetica,sans-Serif" font-size="10.00" fill="#000000">db_get_linked_folders_utils</text>
</g>
<!-- handlers_sql_db_get_linked_data&#45;&gt;handlers_sql_db_get_linked_folders_utils -->
<g id="edge16" class="edge">
<title>handlers_sql_db_get_linked_data&#45;&gt;handlers_sql_db_get_linked_folders_utils</title><style>.edge>path:hover{stroke-width:8}</style>
<path fill="none" stroke="black" d="M758.04,-281.3C755.9,-273.1 753.53,-264 751.25,-255.3"/>
<polygon fill="#409696" stroke="black" points="754.57,-254.14 748.66,-245.34 747.8,-255.9 754.57,-254.14"/>
</g>
<!-- handlers_sql_db_get_linked_folders_utils&#45;&gt;get_type_py -->
<g id="edge17" class="edge">
<title>handlers_sql_db_get_linked_folders_utils&#45;&gt;get_type_py</title><style>.edge>path:hover{stroke-width:8}</style>
<path fill="none" stroke="black" d="M740.13,-187.29C739.71,-170.9 739.71,-149.85 741.37,-131.21"/>
</g>
<!-- handlers_sql_db_update_notes&#45;&gt;get_type_py -->
<g id="edge18" class="edge">
<title>handlers_sql_db_update_notes&#45;&gt;get_type_py</title><style>.edge>path:hover{stroke-width:8}</style>
<path fill="none" stroke="black" d="M961.76,-375.38C946.73,-330.54 911.8,-242.12 855.37,-187.43 814.81,-148.11 736.37,-187.48 741.37,-131.21"/>
</g>
<!-- handlers_sql_db_utils&#45;&gt;handlers_sql_db_categs -->
<g id="edge19" class="edge">
<title>handlers_sql_db_utils&#45;&gt;handlers_sql_db_categs</title><style>.edge>path:hover{stroke-width:8}</style>
<path fill="none" stroke="black" d="M555.45,-376.28C559.42,-367.38 563.9,-357.33 568.12,-347.85"/>
<polygon fill="#21bfbf" stroke="black" points="571.36,-349.18 572.24,-338.63 564.97,-346.33 571.36,-349.18"/>
</g>
<!-- handlers_sql_db_utils&#45;&gt;handlers_sql_db_categs_utils -->
<g id="edge20" class="edge">
<title>handlers_sql_db_utils&#45;&gt;handlers_sql_db_categs_utils</title><style>.edge>path:hover{stroke-width:8}</style>
<path fill="none" stroke="black" d="M519.99,-379.22C509.76,-368.65 497.6,-356.08 486.55,-344.65"/>
<polygon fill="#21bfbf" stroke="black" points="488.94,-342.09 479.47,-337.34 483.91,-346.96 488.94,-342.09"/>
</g>
<!-- handlers_sql_db_utils&#45;&gt;handlers_sql_db_folders_utils -->
<g id="edge21" class="edge">
<title>handlers_sql_db_utils&#45;&gt;handlers_sql_db_folders_utils</title><style>.edge>path:hover{stroke-width:8}</style>
<path fill="none" stroke="black" d="M509.02,-385.97C501.32,-382.3 493.13,-378.58 485.37,-375.39 439.74,-356.64 426.85,-355.92 380.37,-339.39 374.94,-337.46 369.3,-335.43 363.65,-333.38"/>
<polygon fill="#21bfbf" stroke="black" points="364.78,-330.07 354.19,-329.93 362.38,-336.64 364.78,-330.07"/>
</g>
<!-- handlers_sql_db_utils&#45;&gt;handlers_sql_db_get_linked_data -->
<g id="edge22" class="edge">
<title>handlers_sql_db_utils&#45;&gt;handlers_sql_db_get_linked_data</title><style>.edge>path:hover{stroke-width:8}</style>
<path fill="none" stroke="black" d="M577.82,-386.21C585.52,-382.53 593.68,-378.74 601.37,-375.39 633.99,-361.18 670.85,-346.67 701.35,-335.06"/>
<polygon fill="#21bfbf" stroke="black" points="702.91,-338.21 711.02,-331.4 700.43,-331.67 702.91,-338.21"/>
</g>
<!-- handlers_utils -->
<g id="node16" class="node">
<title>handlers_utils</title><style>.edge>path:hover{stroke-width:8}</style>
<ellipse fill="#2fdbdb" stroke="black" cx="433.37" cy="-498.37" rx="48.72" ry="18"/>
<text text-anchor="middle" x="433.37" y="-495.87" font-family="Helvetica,sans-Serif" font-size="10.00" fill="#000000">handlers.utils</text>
</g>
<!-- handlers_utils&#45;&gt;get_type_py -->
<g id="edge23" class="edge">
<title>handlers_utils&#45;&gt;get_type_py</title><style>.edge>path:hover{stroke-width:8}</style>
<path fill="none" stroke="black" d="M210.37,-309.4C291.52,-158.68 437.88,-305.97 584.37,-217.42"/>
<path fill="none" stroke="black" d="M584.37,-215.42C603.89,-203.62 607.04,-197.75 627.37,-187.43 667.64,-166.99 684.83,-176.52 722.37,-151.43 732.62,-144.57 740.3,-143.5 741.37,-131.21"/>
</g>
<!-- handlers_utils&#45;&gt;handlers_header_extract_yaml_header -->
<g id="edge24" class="edge">
<title>handlers_utils&#45;&gt;handlers_header_extract_yaml_header</title><style>.edge>path:hover{stroke-width:8}</style>
<path fill="none" stroke="black" d="M210.37,-403.38C179.12,-377.02 190.99,-347.4 210.37,-311.4"/>
<path fill="none" stroke="black" d="M210.37,-309.4C223.53,-284.97 202.67,-262.48 177.85,-245.86"/>
<polygon fill="#2fdbdb" stroke="black" points="179.64,-242.85 169.32,-240.45 175.89,-248.76 179.64,-242.85"/>
</g>
<!-- handlers_utils&#45;&gt;handlers_header_header_utils -->
<g id="edge25" class="edge">
<title>handlers_utils&#45;&gt;handlers_header_header_utils</title><style>.edge>path:hover{stroke-width:8}</style>
<path fill="none" stroke="black" d="M403.67,-483.89C393.18,-479.21 381.29,-473.98 370.37,-469.37 299.81,-439.6 268.91,-454.77 210.37,-405.38"/>
<path fill="none" stroke="black" d="M210.37,-403.38C197.85,-392.82 198.64,-386.26 186.37,-375.39 170.8,-361.59 152.05,-348.45 135.28,-337.71"/>
<polygon fill="#2fdbdb" stroke="black" points="137.04,-334.69 126.71,-332.32 133.31,-340.61 137.04,-334.69"/>
</g>
<!-- handlers_utils&#45;&gt;handlers_sql_db_categs -->
<g id="edge26" class="edge">
<title>handlers_utils&#45;&gt;handlers_sql_db_categs</title><style>.edge>path:hover{stroke-width:8}</style>
<path fill="none" stroke="black" d="M438.12,-480.39C445.81,-455.24 462.95,-407.61 490.37,-375.39 504.1,-359.26 522.83,-345.41 539.97,-334.76"/>
<polygon fill="#2fdbdb" stroke="black" points="541.97,-337.64 548.74,-329.49 538.37,-331.64 541.97,-337.64"/>
</g>
<!-- handlers_utils_files -->
<g id="node17" class="node">
<title>handlers_utils_files</title><style>.edge>path:hover{stroke-width:8}</style>
<ellipse fill="#33cccc" stroke="black" cx="146.37" cy="-498.37" rx="43.68" ry="28.98"/>
<text text-anchor="middle" x="146.37" y="-506.87" font-family="Helvetica,sans-Serif" font-size="10.00" fill="#000000">handlers.</text>
<text text-anchor="middle" x="146.37" y="-495.87" font-family="Helvetica,sans-Serif" font-size="10.00" fill="#000000">utils.</text>
<text text-anchor="middle" x="146.37" y="-484.87" font-family="Helvetica,sans-Serif" font-size="10.00" fill="#000000">files</text>
</g>
<!-- handlers_utils_files&#45;&gt;get_type_py -->
<g id="edge27" class="edge">
<title>handlers_utils_files&#45;&gt;get_type_py</title><style>.edge>path:hover{stroke-width:8}</style>
<path fill="none" stroke="black" d="M106.38,-486.34C70.28,-473.73 20.94,-448.96 8.37,-405.38"/>
<path fill="none" stroke="black" d="M8.37,-403.38C-2.96,-364.1 -2.56,-350.79 8.37,-311.4"/>
<path fill="none" stroke="black" d="M8.37,-309.4C23.04,-256.53 -13.11,-224.46 27.37,-187.43 117.59,-104.91 466.44,-204.93 576.37,-151.43 599.13,-140.35 595.24,-125.58 614.37,-109 636.17,-90.11 682.59,-98.1 668.37,-73"/>
</g>
<!-- handlers_utils_files&#45;&gt;handlers_header_extract_yaml_header -->
<g id="edge28" class="edge">
<title>handlers_utils_files&#45;&gt;handlers_header_extract_yaml_header</title><style>.edge>path:hover{stroke-width:8}</style>
<path fill="none" stroke="black" d="M8.37,-309.4C16.08,-281.61 39.33,-260.33 62.76,-245.28"/>
<polygon fill="#33cccc" stroke="black" points="64.66,-248.21 71.36,-240.01 61.01,-242.24 64.66,-248.21"/>
</g>
<!-- handlers_utils_files&#45;&gt;handlers_header_header_utils -->
<g id="edge29" class="edge">
<title>handlers_utils_files&#45;&gt;handlers_header_header_utils</title><style>.edge>path:hover{stroke-width:8}</style>
<path fill="none" stroke="black" d="M8.37,-403.38C0.72,-376.84 21.65,-353.67 44.28,-337.22"/>
<polygon fill="#33cccc" stroke="black" points="46.38,-340.02 52.64,-331.47 42.42,-334.25 46.38,-340.02"/>
</g>
<!-- handlers_utils_normalization -->
<g id="node18" class="node">
<title>handlers_utils_normalization</title><style>.edge>path:hover{stroke-width:8}</style>
<ellipse fill="#4cb3b3" stroke="black" cx="739.37" cy="-498.37" rx="59.29" ry="28.98"/>
<text text-anchor="middle" x="739.37" y="-506.87" font-family="Helvetica,sans-Serif" font-size="10.00" fill="#000000">handlers.</text>
<text text-anchor="middle" x="739.37" y="-495.87" font-family="Helvetica,sans-Serif" font-size="10.00" fill="#000000">utils.</text>
<text text-anchor="middle" x="739.37" y="-484.87" font-family="Helvetica,sans-Serif" font-size="10.00" fill="#000000">normalization</text>
</g>
<!-- handlers_utils_normalization&#45;&gt;handlers_sql_db_categs -->
<g id="edge30" class="edge">
<title>handlers_utils_normalization&#45;&gt;handlers_sql_db_categs</title><style>.edge>path:hover{stroke-width:8}</style>
<path fill="none" stroke="black" d="M717.49,-471.12C689.8,-437.89 642.07,-380.62 611.92,-344.45"/>
<polygon fill="#4cb3b3" stroke="black" points="614.49,-342.06 605.39,-336.62 609.11,-346.55 614.49,-342.06"/>
</g>
<!-- handlers_utils_paths -->
<g id="node19" class="node">
<title>handlers_utils_paths</title><style>.edge>path:hover{stroke-width:8}</style>
<ellipse fill="#40bfc0" stroke="black" cx="898.37" cy="-498.37" rx="43.68" ry="28.98"/>
<text text-anchor="middle" x="898.37" y="-506.87" font-family="Helvetica,sans-Serif" font-size="10.00" fill="#000000">handlers.</text>
<text text-anchor="middle" x="898.37" y="-495.87" font-family="Helvetica,sans-Serif" font-size="10.00" fill="#000000">utils.</text>
<text text-anchor="middle" x="898.37" y="-484.87" font-family="Helvetica,sans-Serif" font-size="10.00" fill="#000000">paths</text>
</g>
<!-- handlers_utils_paths&#45;&gt;get_type_py -->
<g id="edge31" class="edge">
<title>handlers_utils_paths&#45;&gt;get_type_py</title><style>.edge>path:hover{stroke-width:8}</style>
<path fill="none" stroke="black" d="M767.37,-403.38C750.03,-391.58 746.39,-387.66 729.37,-375.39 706.87,-359.16 697.65,-359.35 678.37,-339.39 656.96,-317.23 659.01,-305.95 640.37,-281.41 617.51,-251.31 552.03,-236.97 584.37,-217.42"/>
</g>
<!-- handlers_utils_paths&#45;&gt;handlers_sql_db_categs -->
<g id="edge32" class="edge">
<title>handlers_utils_paths&#45;&gt;handlers_sql_db_categs</title><style>.edge>path:hover{stroke-width:8}</style>
<path fill="none" stroke="black" d="M869.14,-476.48C842.7,-457.68 802.63,-429.4 767.37,-405.38"/>
<path fill="none" stroke="black" d="M767.37,-403.38C753.83,-394.16 756.83,-384.74 743.37,-375.39 705.26,-348.92 688.27,-357.08 645.37,-339.39 640.39,-337.34 635.22,-335.11 630.08,-332.84"/>
<polygon fill="#40bfc0" stroke="black" points="631.5,-329.64 620.94,-328.74 628.63,-336.03 631.5,-329.64"/>
</g>
<!-- Levenshtein -->
<g id="node20" class="node">
<title>Levenshtein</title><style>.edge>path:hover{stroke-width:8}</style>
<ellipse fill="#822b2b" stroke="black" cx="1162.37" cy="-130.21" rx="44.98" ry="18"/>
<text text-anchor="middle" x="1162.37" y="-127.71" font-family="Helvetica,sans-Serif" font-size="10.00" fill="#ffffff">Levenshtein</text>
</g>
<!-- Levenshtein&#45;&gt;get_type_py -->
<g id="edge33" class="edge">
<title>Levenshtein&#45;&gt;get_type_py</title><style>.edge>path:hover{stroke-width:8}</style>
<path fill="none" stroke="black" d="M1117.85,-128.11C1000.54,-124.66 690.42,-111.91 668.37,-73"/>
</g>
<!-- Levenshtein_levenshtein_cpp -->
<g id="node21" class="node">
<title>Levenshtein_levenshtein_cpp</title><style>.edge>path:hover{stroke-width:8}</style>
<ellipse fill="#b65353" stroke="black" cx="1347.37" cy="-216.42" rx="67.76" ry="21.43"/>
<text text-anchor="middle" x="1347.37" y="-219.42" font-family="Helvetica,sans-Serif" font-size="10.00" fill="#ffffff">Levenshtein.</text>
<text text-anchor="middle" x="1347.37" y="-208.42" font-family="Helvetica,sans-Serif" font-size="10.00" fill="#ffffff">levenshtein_cpp</text>
</g>
<!-- Levenshtein_levenshtein_cpp&#45;&gt;Levenshtein -->
<g id="edge34" class="edge">
<title>Levenshtein_levenshtein_cpp&#45;&gt;Levenshtein</title><style>.edge>path:hover{stroke-width:8}</style>
<path fill="none" stroke="black" d="M1310.38,-198.58C1278.32,-183.99 1232.16,-162.98 1199.94,-148.31"/>
<polygon fill="#b65353" stroke="black" points="1201.38,-145.12 1190.83,-144.17 1198.48,-151.49 1201.38,-145.12"/>
</g>
<!-- logger_setup&#45;&gt;get_type_py -->
<g id="edge35" class="edge">
<title>logger_setup&#45;&gt;get_type_py</title><style>.edge>path:hover{stroke-width:8}</style>
<path fill="none" stroke="black" d="M970.37,-497.37C1075.4,-449.74 1409.02,-519.8 1485.37,-433.37 1526.64,-386.66 1542.1,-290.67 1453.37,-187.43 1381.06,-103.28 1325.27,-130.24 1216.37,-109 1156.48,-97.32 698.45,-126.09 668.37,-73"/>
</g>
<!-- logger_setup&#45;&gt;handlers_header_extract_yaml_header -->
<g id="edge36" class="edge">
<title>logger_setup&#45;&gt;handlers_header_extract_yaml_header</title><style>.edge>path:hover{stroke-width:8}</style>
<path fill="none" stroke="black" d="M172.37,-403.38C137.29,-361.2 170.06,-333.67 153.37,-281.41 150.46,-272.29 146.4,-262.85 142.14,-254.12"/>
<polygon fill="#0606f9" stroke="black" points="145.15,-252.31 137.5,-244.98 138.9,-255.48 145.15,-252.31"/>
</g>
<!-- logger_setup&#45;&gt;handlers_header_header_utils -->
<g id="edge37" class="edge">
<title>logger_setup&#45;&gt;handlers_header_header_utils</title><style>.edge>path:hover{stroke-width:8}</style>
<path fill="none" stroke="black" d="M739.37,-563.36C691.06,-497.99 453.24,-550.68 375.37,-527.36 289.3,-501.57 266.65,-489.37 196.37,-433.37 183.55,-423.16 183.6,-417.32 172.37,-405.38"/>
<path fill="none" stroke="black" d="M172.37,-403.38C155.76,-383.41 136.46,-361.7 120.76,-344.38"/>
<polygon fill="#0606f9" stroke="black" points="123.14,-341.8 113.83,-336.76 117.97,-346.51 123.14,-341.8"/>
</g>
<!-- logger_setup&#45;&gt;handlers_sql_db_categs -->
<g id="edge38" class="edge">
<title>logger_setup&#45;&gt;handlers_sql_db_categs</title><style>.edge>path:hover{stroke-width:8}</style>
<path fill="none" stroke="black" d="M739.37,-563.36C719.14,-535.78 789.73,-556.65 807.37,-527.36 820.66,-505.28 819.53,-492.1 807.37,-469.37 793.76,-443.94 776.9,-450.06 753.37,-433.37 718.42,-408.6 711.07,-400.51 676.37,-375.39 659.19,-362.96 639.96,-349.51 623.55,-338.17"/>
<polygon fill="#0606f9" stroke="black" points="625.46,-335.24 615.24,-332.44 621.49,-341 625.46,-335.24"/>
</g>
<!-- logger_setup&#45;&gt;handlers_sql_db_categs_utils -->
<g id="edge39" class="edge">
<title>logger_setup&#45;&gt;handlers_sql_db_categs_utils</title><style>.edge>path:hover{stroke-width:8}</style>
<path fill="none" stroke="black" d="M395.37,-403.38C383.43,-382.87 397.26,-360.43 414.51,-342.85"/>
<polygon fill="#0606f9" stroke="black" points="417.25,-345.08 422.06,-335.64 412.41,-340.02 417.25,-345.08"/>
</g>
<!-- logger_setup&#45;&gt;handlers_sql_db_connection -->
<g id="edge40" class="edge">
<title>logger_setup&#45;&gt;handlers_sql_db_connection</title><style>.edge>path:hover{stroke-width:8}</style>
<path fill="none" stroke="black" d="M739.37,-563.36C734.76,-555.18 692.85,-536.52 656.25,-521.45"/>
<polygon fill="#0606f9" stroke="black" points="657.17,-518.05 646.59,-517.5 654.53,-524.53 657.17,-518.05"/>
</g>
<!-- logger_setup&#45;&gt;handlers_sql_db_folders_utils -->
<g id="edge41" class="edge">
<title>logger_setup&#45;&gt;handlers_sql_db_folders_utils</title><style>.edge>path:hover{stroke-width:8}</style>
<path fill="none" stroke="black" d="M739.37,-563.36C683.09,-487.2 608.99,-578.63 529.37,-527.36 516.73,-519.22 521.69,-509.27 510.37,-499.37"/>
<path fill="none" stroke="black" d="M510.37,-497.37C499.06,-487.46 502.93,-478.99 491.37,-469.37 460.78,-443.91 438.21,-460.81 409.37,-433.37 399.29,-423.79 402.37,-417.4 395.37,-405.38"/>
<path fill="none" stroke="black" d="M395.37,-403.38C382.02,-380.45 361.62,-359.1 343.51,-342.75"/>
<polygon fill="#0606f9" stroke="black" points="345.74,-340.04 335.92,-336.06 341.11,-345.29 345.74,-340.04"/>
</g>
<!-- logger_setup&#45;&gt;handlers_sql_db_get_linked_data -->
<g id="edge42" class="edge">
<title>logger_setup&#45;&gt;handlers_sql_db_get_linked_data</title><style>.edge>path:hover{stroke-width:8}</style>
<path fill="none" stroke="black" d="M739.37,-563.36C682.84,-486.3 870.98,-579.04 951.37,-527.36 964.02,-519.23 956.68,-505.57 970.37,-499.37"/>
<path fill="none" stroke="black" d="M970.37,-497.37C984.07,-491.16 962.33,-479.67 951.37,-469.37 928.42,-447.83 913.32,-454.92 890.37,-433.37 879.41,-423.08 880.62,-417.24 871.37,-405.38"/>
<path fill="none" stroke="black" d="M871.37,-403.38C853.64,-380.66 829.67,-359.29 809,-342.88"/>
<polygon fill="#0606f9" stroke="black" points="811,-340.01 800.97,-336.62 806.7,-345.53 811,-340.01"/>
</g>
<!-- logger_setup&#45;&gt;handlers_sql_db_get_linked_folders_utils -->
<g id="edge43" class="edge">
<title>logger_setup&#45;&gt;handlers_sql_db_get_linked_folders_utils</title><style>.edge>path:hover{stroke-width:8}</style>
<path fill="none" stroke="black" d="M871.37,-403.38C837.63,-360.12 883.4,-326.65 852.37,-281.41 842.07,-266.4 827.02,-254.44 811.29,-245.13"/>
<polygon fill="#0606f9" stroke="black" points="812.95,-242.04 802.52,-240.22 809.54,-248.15 812.95,-242.04"/>
</g>
<!-- logger_setup&#45;&gt;handlers_sql_db_update_notes -->
<g id="edge44" class="edge">
<title>logger_setup&#45;&gt;handlers_sql_db_update_notes</title><style>.edge>path:hover{stroke-width:8}</style>
<path fill="none" stroke="black" d="M970.37,-497.37C989.58,-488.66 988.97,-464.45 983.87,-443.05"/>
<polygon fill="#0606f9" stroke="black" points="987.19,-441.9 981.18,-433.17 980.43,-443.74 987.19,-441.9"/>
</g>
<!-- logger_setup&#45;&gt;handlers_sql_db_utils -->
<g id="edge45" class="edge">
<title>logger_setup&#45;&gt;handlers_sql_db_utils</title><style>.edge>path:hover{stroke-width:8}</style>
<path fill="none" stroke="black" d="M510.37,-497.37C493.28,-482.41 503.09,-457.94 516.34,-438"/>
<polygon fill="#0606f9" stroke="black" points="519.24,-439.95 522.16,-429.77 513.53,-435.91 519.24,-439.95"/>
</g>
<!-- logger_setup&#45;&gt;handlers_utils_files -->
<g id="edge46" class="edge">
<title>logger_setup&#45;&gt;handlers_utils_files</title><style>.edge>path:hover{stroke-width:8}</style>
<path fill="none" stroke="black" d="M744.1,-637.18C748.33,-618.08 752.12,-586.95 739.37,-564.36"/>
<path fill="none" stroke="black" d="M739.37,-563.36C713.17,-527.64 386.37,-532.49 342.37,-527.36 293.53,-521.66 238.08,-513.59 198.65,-507.58"/>
<polygon fill="#0606f9" stroke="black" points="199.14,-504.11 188.73,-506.06 198.08,-511.03 199.14,-504.11"/>
</g>
<!-- logger_setup&#45;&gt;handlers_utils_normalization -->
<g id="edge47" class="edge">
<title>logger_setup&#45;&gt;handlers_utils_normalization</title><style>.edge>path:hover{stroke-width:8}</style>
<path fill="none" stroke="black" d="M739.37,-563.36C735.02,-555.64 733.38,-546.51 733.18,-537.61"/>
<polygon fill="#0606f9" stroke="black" points="736.69,-537.48 733.54,-527.36 729.69,-537.23 736.69,-537.48"/>
</g>
<!-- logger_setup&#45;&gt;handlers_utils_paths -->
<g id="edge48" class="edge">
<title>logger_setup&#45;&gt;handlers_utils_paths</title><style>.edge>path:hover{stroke-width:8}</style>
<path fill="none" stroke="black" d="M739.37,-563.36C715.96,-521.85 796.4,-545.74 840.37,-527.36 845.09,-525.39 849.97,-523.23 854.8,-521.01"/>
<polygon fill="#0606f9" stroke="black" points="856.42,-524.12 863.99,-516.71 853.45,-517.78 856.42,-524.12"/>
</g>
<!-- rapidfuzz -->
<g id="node23" class="node">
<title>rapidfuzz</title><style>.edge>path:hover{stroke-width:8}</style>
<polygon fill="blue" stroke="black" points="1223.37,-234.42 1161.37,-234.42 1161.37,-198.42 1223.37,-198.42 1223.37,-234.42"/>
<text text-anchor="middle" x="1192.37" y="-213.92" font-family="Helvetica,sans-Serif" font-size="10.00" fill="white">rapidfuzz</text>
</g>
<!-- rapidfuzz&#45;&gt;Levenshtein -->
<g id="edge49" class="edge">
<title>rapidfuzz&#45;&gt;Levenshtein</title><style>.edge>path:hover{stroke-width:8}</style>
<path fill="none" stroke="black" d="M1186.3,-198.38C1182.15,-186.74 1176.57,-171.07 1171.85,-157.8"/>
<polygon fill="blue" stroke="black" points="1175.09,-156.47 1168.43,-148.23 1168.49,-158.82 1175.09,-156.47"/>
</g>
<!-- rapidfuzz_distance -->
<g id="node24" class="node">
<title>rapidfuzz_distance</title><style>.edge>path:hover{stroke-width:8}</style>
<polygon fill="blue" stroke="black" points="1296.87,-328.4 1231.87,-328.4 1231.87,-292.4 1296.87,-292.4 1296.87,-328.4"/>
<text text-anchor="middle" x="1264.37" y="-313.4" font-family="Helvetica,sans-Serif" font-size="10.00" fill="white">rapidfuzz.</text>
<text text-anchor="middle" x="1264.37" y="-302.4" font-family="Helvetica,sans-Serif" font-size="10.00" fill="white">distance</text>
</g>
<!-- rapidfuzz_distance&#45;&gt;Levenshtein -->
<g id="edge50" class="edge">
<title>rapidfuzz_distance&#45;&gt;Levenshtein</title><style>.edge>path:hover{stroke-width:8}</style>
<path fill="none" stroke="black" d="M1263.25,-292.27C1260.92,-267.36 1253.82,-220.49 1232.37,-187.43 1223.05,-173.05 1208.83,-160.66 1195.63,-151.19"/>
<polygon fill="blue" stroke="black" points="1197.4,-148.16 1187.17,-145.41 1193.45,-153.94 1197.4,-148.16"/>
</g>
<!-- rapidfuzz_distance&#45;&gt;rapidfuzz -->
<g id="edge51" class="edge">
<title>rapidfuzz_distance&#45;&gt;rapidfuzz</title><style>.edge>path:hover{stroke-width:8}</style>
<path fill="none" stroke="black" d="M1250.83,-292.1C1239.97,-278.22 1224.57,-258.55 1212.3,-242.87"/>
<polygon fill="blue" stroke="black" points="1214.77,-240.36 1205.85,-234.64 1209.26,-244.67 1214.77,-240.36"/>
</g>
<!-- rapidfuzz_distance_Hamming -->
<g id="node25" class="node">
<title>rapidfuzz_distance_Hamming</title><style>.edge>path:hover{stroke-width:8}</style>
<polygon fill="blue" stroke="black" points="1309.87,-424.88 1244.87,-424.88 1244.87,-383.88 1309.87,-383.88 1309.87,-424.88"/>
<text text-anchor="middle" x="1277.37" y="-412.88" font-family="Helvetica,sans-Serif" font-size="10.00" fill="white">rapidfuzz.</text>
<text text-anchor="middle" x="1277.37" y="-401.88" font-family="Helvetica,sans-Serif" font-size="10.00" fill="white">distance.</text>
<text text-anchor="middle" x="1277.37" y="-390.88" font-family="Helvetica,sans-Serif" font-size="10.00" fill="white">Hamming</text>
</g>
<!-- rapidfuzz_distance_Hamming&#45;&gt;Levenshtein -->
<g id="edge52" class="edge">
<title>rapidfuzz_distance_Hamming&#45;&gt;Levenshtein</title><style>.edge>path:hover{stroke-width:8}</style>
<path fill="none" stroke="black" d="M1306.02,-383.68C1310.44,-380.82 1314.99,-377.97 1319.37,-375.39 1372.81,-343.93 1421.43,-369.4 1443.37,-311.4"/>
<path fill="none" stroke="black" d="M1443.37,-309.4C1462.79,-258.09 1462.76,-226.63 1424.37,-187.43 1360.26,-121.96 1310.09,-174.34 1221.37,-151.43 1215.6,-149.93 1209.57,-148.15 1203.68,-146.26"/>
<polygon fill="blue" stroke="black" points="1204.54,-142.86 1193.94,-143.03 1202.33,-149.51 1204.54,-142.86"/>
</g>
<!-- rapidfuzz_distance_Hamming&#45;&gt;rapidfuzz_distance -->
<g id="edge53" class="edge">
<title>rapidfuzz_distance_Hamming&#45;&gt;rapidfuzz_distance</title><style>.edge>path:hover{stroke-width:8}</style>
<path fill="none" stroke="black" d="M1274.61,-383.88C1272.74,-370.64 1270.24,-352.95 1268.18,-338.37"/>
<polygon fill="blue" stroke="black" points="1271.64,-337.82 1266.77,-328.41 1264.71,-338.8 1271.64,-337.82"/>
</g>
<!-- rapidfuzz_distance_Indel -->
<g id="node26" class="node">
<title>rapidfuzz_distance_Indel</title><style>.edge>path:hover{stroke-width:8}</style>
<polygon fill="blue" stroke="black" points="1392.87,-424.88 1327.87,-424.88 1327.87,-383.88 1392.87,-383.88 1392.87,-424.88"/>
<text text-anchor="middle" x="1360.37" y="-412.88" font-family="Helvetica,sans-Serif" font-size="10.00" fill="white">rapidfuzz.</text>
<text text-anchor="middle" x="1360.37" y="-401.88" font-family="Helvetica,sans-Serif" font-size="10.00" fill="white">distance.</text>
<text text-anchor="middle" x="1360.37" y="-390.88" font-family="Helvetica,sans-Serif" font-size="10.00" fill="white">Indel</text>
</g>
<!-- rapidfuzz_distance_Indel&#45;&gt;Levenshtein -->
<g id="edge54" class="edge">
<title>rapidfuzz_distance_Indel&#45;&gt;Levenshtein</title><style>.edge>path:hover{stroke-width:8}</style>
<path fill="none" stroke="black" d="M1386.96,-383.77C1407.01,-367.11 1432.81,-341.2 1443.37,-311.4"/>
</g>
<!-- rapidfuzz_distance_Indel&#45;&gt;rapidfuzz_distance -->
<g id="edge55" class="edge">
<title>rapidfuzz_distance_Indel&#45;&gt;rapidfuzz_distance</title><style>.edge>path:hover{stroke-width:8}</style>
<path fill="none" stroke="black" d="M1340.01,-383.88C1325.26,-369.74 1305.21,-350.53 1289.46,-335.44"/>
<polygon fill="blue" stroke="black" points="1291.76,-332.8 1282.12,-328.41 1286.92,-337.85 1291.76,-332.8"/>
</g>
<!-- rapidfuzz_distance_Jaro -->
<g id="node27" class="node">
<title>rapidfuzz_distance_Jaro</title><style>.edge>path:hover{stroke-width:8}</style>
<polygon fill="blue" stroke="black" points="1475.87,-424.88 1410.87,-424.88 1410.87,-383.88 1475.87,-383.88 1475.87,-424.88"/>
<text text-anchor="middle" x="1443.37" y="-412.88" font-family="Helvetica,sans-Serif" font-size="10.00" fill="white">rapidfuzz.</text>
<text text-anchor="middle" x="1443.37" y="-401.88" font-family="Helvetica,sans-Serif" font-size="10.00" fill="white">distance.</text>
<text text-anchor="middle" x="1443.37" y="-390.88" font-family="Helvetica,sans-Serif" font-size="10.00" fill="white">Jaro</text>
</g>
<!-- rapidfuzz_distance_Jaro&#45;&gt;Levenshtein -->
<g id="edge56" class="edge">
<title>rapidfuzz_distance_Jaro&#45;&gt;Levenshtein</title><style>.edge>path:hover{stroke-width:8}</style>
<path fill="none" stroke="black" d="M1439.67,-383.72C1436.92,-364.65 1434.95,-335.18 1443.37,-311.4"/>
</g>
<!-- rapidfuzz_distance_Jaro&#45;&gt;rapidfuzz_distance -->
<g id="edge57" class="edge">
<title>rapidfuzz_distance_Jaro&#45;&gt;rapidfuzz_distance</title><style>.edge>path:hover{stroke-width:8}</style>
<path fill="none" stroke="black" d="M1415.98,-383.78C1411.51,-380.84 1406.87,-377.95 1402.37,-375.39 1371.15,-357.66 1334.16,-340.71 1306.35,-328.71"/>
<polygon fill="blue" stroke="black" points="1307.48,-325.39 1296.91,-324.69 1304.73,-331.83 1307.48,-325.39"/>
</g>
<!-- rapidfuzz_distance_JaroWinkler -->
<g id="node28" class="node">
<title>rapidfuzz_distance_JaroWinkler</title><style>.edge>path:hover{stroke-width:8}</style>
<polygon fill="blue" stroke="black" points="1131.87,-424.88 1058.87,-424.88 1058.87,-383.88 1131.87,-383.88 1131.87,-424.88"/>
<text text-anchor="middle" x="1095.37" y="-412.88" font-family="Helvetica,sans-Serif" font-size="10.00" fill="white">rapidfuzz.</text>
<text text-anchor="middle" x="1095.37" y="-401.88" font-family="Helvetica,sans-Serif" font-size="10.00" fill="white">distance.</text>
<text text-anchor="middle" x="1095.37" y="-390.88" font-family="Helvetica,sans-Serif" font-size="10.00" fill="white">JaroWinkler</text>
</g>
<!-- rapidfuzz_distance_JaroWinkler&#45;&gt;Levenshtein -->
<g id="edge58" class="edge">
<title>rapidfuzz_distance_JaroWinkler&#45;&gt;Levenshtein</title><style>.edge>path:hover{stroke-width:8}</style>
<path fill="none" stroke="black" d="M1122.52,-383.88C1150.2,-362.92 1189.03,-330.12 1188.37,-311.4"/>
<path fill="none" stroke="black" d="M1188.37,-309.4C1187.23,-276.79 1160.64,-276.98 1152.37,-245.41 1144.72,-216.19 1149.65,-181.49 1154.94,-158.06"/>
<polygon fill="blue" stroke="black" points="1158.39,-158.7 1157.35,-148.16 1151.59,-157.05 1158.39,-158.7"/>
</g>
<!-- rapidfuzz_distance_JaroWinkler&#45;&gt;rapidfuzz_distance -->
<g id="edge59" class="edge">
<title>rapidfuzz_distance_JaroWinkler&#45;&gt;rapidfuzz_distance</title><style>.edge>path:hover{stroke-width:8}</style>
<path fill="none" stroke="black" d="M1126.88,-383.83C1131.7,-380.95 1136.65,-378.05 1141.37,-375.39 1168.03,-360.37 1198.54,-344.49 1222.51,-332.3"/>
<polygon fill="blue" stroke="black" points="1224.34,-335.3 1231.68,-327.66 1221.18,-329.05 1224.34,-335.3"/>
</g>
<!-- rapidfuzz_distance_Levenshtein -->
<g id="node29" class="node">
<title>rapidfuzz_distance_Levenshtein</title><style>.edge>path:hover{stroke-width:8}</style>
<polygon fill="blue" stroke="black" points="1226.37,-424.88 1150.37,-424.88 1150.37,-383.88 1226.37,-383.88 1226.37,-424.88"/>
<text text-anchor="middle" x="1188.37" y="-412.88" font-family="Helvetica,sans-Serif" font-size="10.00" fill="white">rapidfuzz.</text>
<text text-anchor="middle" x="1188.37" y="-401.88" font-family="Helvetica,sans-Serif" font-size="10.00" fill="white">distance.</text>
<text text-anchor="middle" x="1188.37" y="-390.88" font-family="Helvetica,sans-Serif" font-size="10.00" fill="white">Levenshtein</text>
</g>
<!-- rapidfuzz_distance_Levenshtein&#45;&gt;Levenshtein -->
<g id="edge60" class="edge">
<title>rapidfuzz_distance_Levenshtein&#45;&gt;Levenshtein</title><style>.edge>path:hover{stroke-width:8}</style>
<path fill="none" stroke="black" d="M1188.77,-383.64C1189.05,-365.01 1189.24,-336.3 1188.37,-311.4"/>
</g>
<!-- rapidfuzz_distance_Levenshtein&#45;&gt;rapidfuzz_distance -->
<g id="edge61" class="edge">
<title>rapidfuzz_distance_Levenshtein&#45;&gt;rapidfuzz_distance</title><style>.edge>path:hover{stroke-width:8}</style>
<path fill="none" stroke="black" d="M1204.49,-383.88C1215.96,-369.99 1231.47,-351.23 1243.82,-336.27"/>
<polygon fill="blue" stroke="black" points="1246.65,-338.34 1250.32,-328.41 1241.25,-333.89 1246.65,-338.34"/>
</g>
</g>
</svg>
