<?xml version="1.0" encoding="UTF-8" standalone="no"?>
<!DOCTYPE svg PUBLIC "-//W3C//DTD SVG 1.1//EN"
 "http://www.w3.org/Graphics/SVG/1.1/DTD/svg11.dtd">
<!-- Generated by graphviz version 2.43.0 (0)
 -->
<!-- Title: G Pages: 1 -->
<svg width="601pt" height="747pt"
 viewBox="0.00 0.00 600.54 746.93" xmlns="http://www.w3.org/2000/svg" xmlns:xlink="http://www.w3.org/1999/xlink">
<g id="graph0" class="graph" transform="scale(1 1) rotate(0) translate(4 742.93)">
<title>G</title><style>.edge>path:hover{stroke-width:8}</style>
<polygon fill="white" stroke="transparent" points="-4,4 -4,-742.93 596.54,-742.93 596.54,4 -4,4"/>
<!-- dotenv -->
<g id="node1" class="node">
<title>dotenv</title><style>.edge>path:hover{stroke-width:8}</style>
<ellipse fill="#b65353" stroke="black" cx="365.73" cy="-720.93" rx="29.37" ry="18"/>
<text text-anchor="middle" x="365.73" y="-718.43" font-family="Helvetica,sans-Serif" font-size="10.00" fill="#ffffff">dotenv</text>
</g>
<!-- logger_setup -->
<g id="node14" class="node">
<title>logger_setup</title><style>.edge>path:hover{stroke-width:8}</style>
<ellipse fill="#7f06f9" stroke="black" cx="365.73" cy="-648.93" rx="47.19" ry="18"/>
<text text-anchor="middle" x="365.73" y="-646.43" font-family="Helvetica,sans-Serif" font-size="10.00" fill="#ffffff">logger_setup</text>
</g>
<!-- dotenv&#45;&gt;logger_setup -->
<g id="edge1" class="edge">
<title>dotenv&#45;&gt;logger_setup</title><style>.edge>path:hover{stroke-width:8}</style>
<path fill="none" stroke="black" d="M365.73,-702.63C365.73,-694.91 365.73,-685.64 365.73,-677.04"/>
<polygon fill="#b65353" stroke="black" points="369.23,-677.04 365.73,-667.04 362.23,-677.04 369.23,-677.04"/>
</g>
<!-- folders_py -->
<g id="node2" class="node">
<title>folders_py</title><style>.edge>path:hover{stroke-width:8}</style>
<ellipse fill="#516a39" stroke="black" cx="204.73" cy="-18" rx="38.03" ry="18"/>
<text text-anchor="middle" x="204.73" y="-15.5" font-family="Helvetica,sans-Serif" font-size="10.00" fill="#ffffff">folders.py</text>
</g>
<!-- handlers -->
<g id="node3" class="node">
<title>handlers</title><style>.edge>path:hover{stroke-width:8}</style>
<ellipse fill="#16f3f3" stroke="black" cx="34.73" cy="-127" rx="34.96" ry="18"/>
<text text-anchor="middle" x="34.73" y="-124.5" font-family="Helvetica,sans-Serif" font-size="10.00" fill="#000000">handlers</text>
</g>
<!-- handlers&#45;&gt;folders_py -->
<g id="edge2" class="edge">
<title>handlers&#45;&gt;folders_py</title><style>.edge>path:hover{stroke-width:8}</style>
<path fill="none" stroke="black" d="M60.96,-115.15C66.46,-113.01 72.26,-110.85 77.73,-109 133.3,-90.19 223.39,-128.62 204.73,-73"/>
<path fill="none" stroke="black" d="M204.73,-72C202.02,-63.9 201.27,-54.71 201.42,-46.28"/>
<polygon fill="#16f3f3" stroke="black" points="204.92,-46.34 202.01,-36.15 197.93,-45.93 204.92,-46.34"/>
</g>
<!-- handlers_sql -->
<g id="node4" class="node">
<title>handlers_sql</title><style>.edge>path:hover{stroke-width:8}</style>
<ellipse fill="#16f3f3" stroke="black" cx="131.73" cy="-127" rx="44.98" ry="18"/>
<text text-anchor="middle" x="131.73" y="-124.5" font-family="Helvetica,sans-Serif" font-size="10.00" fill="#000000">handlers.sql</text>
</g>
<!-- handlers_sql&#45;&gt;folders_py -->
<g id="edge3" class="edge">
<title>handlers_sql&#45;&gt;folders_py</title><style>.edge>path:hover{stroke-width:8}</style>
<path fill="none" stroke="black" d="M167.41,-116.02C189.22,-107.69 211.7,-93.79 204.73,-73"/>
</g>
<!-- handlers_sql_db_categs_utils -->
<g id="node5" class="node">
<title>handlers_sql_db_categs_utils</title><style>.edge>path:hover{stroke-width:8}</style>
<ellipse fill="#35a1a1" stroke="black" cx="128.73" cy="-303.97" rx="65.11" ry="28.98"/>
<text text-anchor="middle" x="128.73" y="-312.47" font-family="Helvetica,sans-Serif" font-size="10.00" fill="#000000">handlers.</text>
<text text-anchor="middle" x="128.73" y="-301.47" font-family="Helvetica,sans-Serif" font-size="10.00" fill="#000000">sql.</text>
<text text-anchor="middle" x="128.73" y="-290.47" font-family="Helvetica,sans-Serif" font-size="10.00" fill="#000000">db_categs_utils</text>
</g>
<!-- handlers_sql_db_categs_utils&#45;&gt;folders_py -->
<g id="edge4" class="edge">
<title>handlers_sql_db_categs_utils&#45;&gt;folders_py</title><style>.edge>path:hover{stroke-width:8}</style>
<path fill="none" stroke="black" d="M98.74,-277.99C88.08,-267.23 77.34,-253.72 71.73,-238.98 62.56,-214.9 56.5,-201.79 71.73,-181 109.35,-129.68 195.89,-191.01 204.73,-128"/>
<path fill="none" stroke="black" d="M204.73,-126C207.51,-102.61 212.22,-95.33 204.73,-73"/>
</g>
<!-- handlers_sql_db_folders -->
<g id="node7" class="node">
<title>handlers_sql_db_folders</title><style>.edge>path:hover{stroke-width:8}</style>
<ellipse fill="#3d8f8f" stroke="black" cx="128.73" cy="-209.99" rx="48.17" ry="28.98"/>
<text text-anchor="middle" x="128.73" y="-218.49" font-family="Helvetica,sans-Serif" font-size="10.00" fill="#ffffff">handlers.</text>
<text text-anchor="middle" x="128.73" y="-207.49" font-family="Helvetica,sans-Serif" font-size="10.00" fill="#ffffff">sql.</text>
<text text-anchor="middle" x="128.73" y="-196.49" font-family="Helvetica,sans-Serif" font-size="10.00" fill="#ffffff">db_folders</text>
</g>
<!-- handlers_sql_db_categs_utils&#45;&gt;handlers_sql_db_folders -->
<g id="edge5" class="edge">
<title>handlers_sql_db_categs_utils&#45;&gt;handlers_sql_db_folders</title><style>.edge>path:hover{stroke-width:8}</style>
<path fill="none" stroke="black" d="M128.73,-274.88C128.73,-266.84 128.73,-257.94 128.73,-249.39"/>
<polygon fill="#35a1a1" stroke="black" points="132.23,-249.23 128.73,-239.23 125.23,-249.23 132.23,-249.23"/>
</g>
<!-- handlers_sql_db_connection -->
<g id="node6" class="node">
<title>handlers_sql_db_connection</title><style>.edge>path:hover{stroke-width:8}</style>
<ellipse fill="#26d9d9" stroke="black" cx="365.73" cy="-491.94" rx="61.54" ry="28.98"/>
<text text-anchor="middle" x="365.73" y="-500.44" font-family="Helvetica,sans-Serif" font-size="10.00" fill="#000000">handlers.</text>
<text text-anchor="middle" x="365.73" y="-489.44" font-family="Helvetica,sans-Serif" font-size="10.00" fill="#000000">sql.</text>
<text text-anchor="middle" x="365.73" y="-478.44" font-family="Helvetica,sans-Serif" font-size="10.00" fill="#000000">db_connection</text>
</g>
<!-- handlers_sql_db_connection&#45;&gt;handlers_sql_db_categs_utils -->
<g id="edge6" class="edge">
<title>handlers_sql_db_connection&#45;&gt;handlers_sql_db_categs_utils</title><style>.edge>path:hover{stroke-width:8}</style>
<path fill="none" stroke="black" d="M318.37,-473.41C293.42,-462.61 263.38,-446.97 240.73,-426.95 229.46,-416.99 231.71,-410.2 221.73,-398.96"/>
<path fill="none" stroke="black" d="M221.73,-396.96C210.85,-384.7 209.09,-380.78 197.73,-368.97 187.43,-358.26 175.75,-347.08 164.95,-337.13"/>
<polygon fill="#26d9d9" stroke="black" points="167.03,-334.28 157.29,-330.11 162.3,-339.44 167.03,-334.28"/>
</g>
<!-- handlers_sql_db_connection&#45;&gt;handlers_sql_db_folders -->
<g id="edge7" class="edge">
<title>handlers_sql_db_connection&#45;&gt;handlers_sql_db_folders</title><style>.edge>path:hover{stroke-width:8}</style>
<path fill="none" stroke="black" d="M221.73,-396.96C194.59,-366.38 249.8,-334.7 221.73,-304.97"/>
<path fill="none" stroke="black" d="M221.73,-302.97C211.41,-292.04 212.73,-286.22 202.73,-274.98 191.71,-262.6 178.34,-250.35 166,-239.94"/>
<polygon fill="#26d9d9" stroke="black" points="168.02,-237.07 158.08,-233.38 163.55,-242.46 168.02,-237.07"/>
</g>
<!-- handlers_sql_db_get_linked_data -->
<g id="node8" class="node">
<title>handlers_sql_db_get_linked_data</title><style>.edge>path:hover{stroke-width:8}</style>
<ellipse fill="#35a1a1" stroke="black" cx="327.73" cy="-303.97" rx="78.48" ry="28.98"/>
<text text-anchor="middle" x="327.73" y="-312.47" font-family="Helvetica,sans-Serif" font-size="10.00" fill="#000000">handlers.</text>
<text text-anchor="middle" x="327.73" y="-301.47" font-family="Helvetica,sans-Serif" font-size="10.00" fill="#000000">sql.</text>
<text text-anchor="middle" x="327.73" y="-290.47" font-family="Helvetica,sans-Serif" font-size="10.00" fill="#000000">db_get_linked_data</text>
</g>
<!-- handlers_sql_db_connection&#45;&gt;handlers_sql_db_get_linked_data -->
<g id="edge8" class="edge">
<title>handlers_sql_db_connection&#45;&gt;handlers_sql_db_get_linked_data</title><style>.edge>path:hover{stroke-width:8}</style>
<path fill="none" stroke="black" d="M362.42,-462.64C359.25,-437.79 353.89,-400.74 346.73,-368.97 344.79,-360.35 342.32,-351.2 339.81,-342.59"/>
<polygon fill="#26d9d9" stroke="black" points="343.1,-341.37 336.88,-332.79 336.4,-343.38 343.1,-341.37"/>
</g>
<!-- handlers_sql_db_utils -->
<g id="node10" class="node">
<title>handlers_sql_db_utils</title><style>.edge>path:hover{stroke-width:8}</style>
<ellipse fill="#2db4b4" stroke="black" cx="293.73" cy="-397.96" rx="43.68" ry="28.98"/>
<text text-anchor="middle" x="293.73" y="-406.46" font-family="Helvetica,sans-Serif" font-size="10.00" fill="#000000">handlers.</text>
<text text-anchor="middle" x="293.73" y="-395.46" font-family="Helvetica,sans-Serif" font-size="10.00" fill="#000000">sql.</text>
<text text-anchor="middle" x="293.73" y="-384.46" font-family="Helvetica,sans-Serif" font-size="10.00" fill="#000000">db_utils</text>
</g>
<!-- handlers_sql_db_connection&#45;&gt;handlers_sql_db_utils -->
<g id="edge9" class="edge">
<title>handlers_sql_db_connection&#45;&gt;handlers_sql_db_utils</title><style>.edge>path:hover{stroke-width:8}</style>
<path fill="none" stroke="black" d="M344.91,-464.33C336.96,-454.19 327.81,-442.5 319.47,-431.84"/>
<polygon fill="#26d9d9" stroke="black" points="322.19,-429.64 313.27,-423.92 316.68,-433.96 322.19,-429.64"/>
</g>
<!-- handlers_sql_db_folders&#45;&gt;folders_py -->
<g id="edge10" class="edge">
<title>handlers_sql_db_folders&#45;&gt;folders_py</title><style>.edge>path:hover{stroke-width:8}</style>
<path fill="none" stroke="black" d="M161.62,-188.77C180.49,-174.58 201.14,-153.59 204.73,-128"/>
</g>
<!-- handlers_sql_db_get_linked_data&#45;&gt;folders_py -->
<g id="edge11" class="edge">
<title>handlers_sql_db_get_linked_data&#45;&gt;folders_py</title><style>.edge>path:hover{stroke-width:8}</style>
<path fill="none" stroke="black" d="M275.69,-282.13C256.5,-271.91 236.37,-257.69 223.73,-238.98 195.71,-197.52 198.83,-177.69 204.73,-128"/>
</g>
<!-- handlers_sql_db_get_linked_folders_utils -->
<g id="node9" class="node">
<title>handlers_sql_db_get_linked_folders_utils</title><style>.edge>path:hover{stroke-width:8}</style>
<ellipse fill="#439d9d" stroke="black" cx="337.73" cy="-209.99" rx="105.22" ry="28.98"/>
<text text-anchor="middle" x="337.73" y="-218.49" font-family="Helvetica,sans-Serif" font-size="10.00" fill="#000000">handlers.</text>
<text text-anchor="middle" x="337.73" y="-207.49" font-family="Helvetica,sans-Serif" font-size="10.00" fill="#000000">sql.</text>
<text text-anchor="middle" x="337.73" y="-196.49" font-family="Helvetica,sans-Serif" font-size="10.00" fill="#000000">db_get_linked_folders_utils</text>
</g>
<!-- handlers_sql_db_get_linked_data&#45;&gt;handlers_sql_db_get_linked_folders_utils -->
<g id="edge12" class="edge">
<title>handlers_sql_db_get_linked_data&#45;&gt;handlers_sql_db_get_linked_folders_utils</title><style>.edge>path:hover{stroke-width:8}</style>
<path fill="none" stroke="black" d="M330.79,-274.88C331.66,-266.84 332.63,-257.94 333.56,-249.39"/>
<polygon fill="#35a1a1" stroke="black" points="337.06,-249.55 334.66,-239.23 330.1,-248.8 337.06,-249.55"/>
</g>
<!-- handlers_sql_db_get_linked_folders_utils&#45;&gt;folders_py -->
<g id="edge13" class="edge">
<title>handlers_sql_db_get_linked_folders_utils&#45;&gt;folders_py</title><style>.edge>path:hover{stroke-width:8}</style>
<path fill="none" stroke="black" d="M258.4,-190.84C227.51,-178.77 200.36,-159.19 204.73,-128"/>
</g>
<!-- handlers_sql_db_utils&#45;&gt;handlers_sql_db_categs_utils -->
<g id="edge14" class="edge">
<title>handlers_sql_db_utils&#45;&gt;handlers_sql_db_categs_utils</title><style>.edge>path:hover{stroke-width:8}</style>
<path fill="none" stroke="black" d="M260.74,-378.56C236.83,-365.23 204.11,-347 177.23,-332.01"/>
<polygon fill="#2db4b4" stroke="black" points="178.8,-328.88 168.36,-327.07 175.39,-334.99 178.8,-328.88"/>
</g>
<!-- handlers_sql_db_utils&#45;&gt;handlers_sql_db_folders -->
<g id="edge15" class="edge">
<title>handlers_sql_db_utils&#45;&gt;handlers_sql_db_folders</title><style>.edge>path:hover{stroke-width:8}</style>
<path fill="none" stroke="black" d="M272.53,-372.48C262.6,-360.74 250.78,-346.35 240.73,-332.97 231.7,-320.94 232.05,-315.91 221.73,-304.97"/>
</g>
<!-- handlers_sql_db_utils&#45;&gt;handlers_sql_db_get_linked_data -->
<g id="edge16" class="edge">
<title>handlers_sql_db_utils&#45;&gt;handlers_sql_db_get_linked_data</title><style>.edge>path:hover{stroke-width:8}</style>
<path fill="none" stroke="black" d="M303.93,-369.36C307.06,-360.89 310.56,-351.42 313.9,-342.4"/>
<polygon fill="#2db4b4" stroke="black" points="317.24,-343.46 317.42,-332.87 310.67,-341.04 317.24,-343.46"/>
</g>
<!-- handlers_utils -->
<g id="node11" class="node">
<title>handlers_utils</title><style>.edge>path:hover{stroke-width:8}</style>
<ellipse fill="#53b6b6" stroke="black" cx="281.73" cy="-127" rx="48.72" ry="18"/>
<text text-anchor="middle" x="281.73" y="-124.5" font-family="Helvetica,sans-Serif" font-size="10.00" fill="#000000">handlers.utils</text>
</g>
<!-- handlers_utils&#45;&gt;folders_py -->
<g id="edge17" class="edge">
<title>handlers_utils&#45;&gt;folders_py</title><style>.edge>path:hover{stroke-width:8}</style>
<path fill="none" stroke="black" d="M247.36,-113.88C229.99,-105.53 211.23,-92.39 204.73,-73"/>
</g>
<!-- handlers_utils_config -->
<g id="node12" class="node">
<title>handlers_utils_config</title><style>.edge>path:hover{stroke-width:8}</style>
<ellipse fill="#53b6b6" stroke="black" cx="504.73" cy="-209.99" rx="43.68" ry="28.98"/>
<text text-anchor="middle" x="504.73" y="-218.49" font-family="Helvetica,sans-Serif" font-size="10.00" fill="#000000">handlers.</text>
<text text-anchor="middle" x="504.73" y="-207.49" font-family="Helvetica,sans-Serif" font-size="10.00" fill="#000000">utils.</text>
<text text-anchor="middle" x="504.73" y="-196.49" font-family="Helvetica,sans-Serif" font-size="10.00" fill="#000000">config</text>
</g>
<!-- handlers_utils_config&#45;&gt;folders_py -->
<g id="edge18" class="edge">
<title>handlers_utils_config&#45;&gt;folders_py</title><style>.edge>path:hover{stroke-width:8}</style>
<path fill="none" stroke="black" d="M538.6,-191.52C563.38,-176.23 590.46,-152.66 576.73,-128"/>
<path fill="none" stroke="black" d="M576.73,-126C536.11,-53.04 231.29,-152.17 204.73,-73"/>
</g>
<!-- handlers_utils_paths -->
<g id="node13" class="node">
<title>handlers_utils_paths</title><style>.edge>path:hover{stroke-width:8}</style>
<ellipse fill="#4cb3b3" stroke="black" cx="475.73" cy="-397.96" rx="43.68" ry="28.98"/>
<text text-anchor="middle" x="475.73" y="-406.46" font-family="Helvetica,sans-Serif" font-size="10.00" fill="#000000">handlers.</text>
<text text-anchor="middle" x="475.73" y="-395.46" font-family="Helvetica,sans-Serif" font-size="10.00" fill="#000000">utils.</text>
<text text-anchor="middle" x="475.73" y="-384.46" font-family="Helvetica,sans-Serif" font-size="10.00" fill="#000000">paths</text>
</g>
<!-- handlers_utils_paths&#45;&gt;folders_py -->
<g id="edge19" class="edge">
<title>handlers_utils_paths&#45;&gt;folders_py</title><style>.edge>path:hover{stroke-width:8}</style>
<path fill="none" stroke="black" d="M500.97,-373.94C517.8,-356.8 538.46,-331.81 547.73,-304.97"/>
<path fill="none" stroke="black" d="M547.73,-302.97C573.46,-228.47 615.08,-196.87 576.73,-128"/>
</g>
<!-- logger_setup&#45;&gt;folders_py -->
<g id="edge20" class="edge">
<title>logger_setup&#45;&gt;folders_py</title><style>.edge>path:hover{stroke-width:8}</style>
<path fill="none" stroke="black" d="M465.73,-490.94C478.09,-452.99 510.8,-462.6 528.73,-426.95 553.39,-377.94 528.11,-356.21 547.73,-304.97"/>
</g>
<!-- logger_setup&#45;&gt;handlers_sql_db_categs_utils -->
<g id="edge21" class="edge">
<title>logger_setup&#45;&gt;handlers_sql_db_categs_utils</title><style>.edge>path:hover{stroke-width:8}</style>
<path fill="none" stroke="black" d="M366.66,-630.64C367.41,-612.48 368.02,-583.14 365.73,-557.93"/>
<path fill="none" stroke="black" d="M365.73,-556.93C361.58,-521.8 322.97,-542.25 294.73,-520.93 249.3,-486.64 242.66,-471.89 207.73,-426.95 186.36,-399.45 165.06,-366.14 149.98,-341.28"/>
<polygon fill="#7f06f9" stroke="black" points="152.87,-339.3 144.71,-332.53 146.87,-342.91 152.87,-339.3"/>
</g>
<!-- logger_setup&#45;&gt;handlers_sql_db_connection -->
<g id="edge22" class="edge">
<title>logger_setup&#45;&gt;handlers_sql_db_connection</title><style>.edge>path:hover{stroke-width:8}</style>
<path fill="none" stroke="black" d="M365.73,-556.93C364.97,-548.59 364.66,-539.62 364.6,-531.11"/>
<polygon fill="#7f06f9" stroke="black" points="368.1,-531.04 364.63,-521.02 361.1,-531.01 368.1,-531.04"/>
</g>
<!-- logger_setup&#45;&gt;handlers_sql_db_folders -->
<g id="edge23" class="edge">
<title>logger_setup&#45;&gt;handlers_sql_db_folders</title><style>.edge>path:hover{stroke-width:8}</style>
<path fill="none" stroke="black" d="M465.73,-490.94C465.85,-490.57 403.96,-399.26 403.73,-398.96"/>
<path fill="none" stroke="black" d="M403.73,-396.96C386.69,-374.46 372.81,-379.75 346.73,-368.97 300.75,-349.96 280.31,-363.11 240.73,-332.97 228.77,-323.85 232.05,-315.91 221.73,-304.97"/>
</g>
<!-- logger_setup&#45;&gt;handlers_sql_db_get_linked_data -->
<g id="edge24" class="edge">
<title>logger_setup&#45;&gt;handlers_sql_db_get_linked_data</title><style>.edge>path:hover{stroke-width:8}</style>
<path fill="none" stroke="black" d="M403.73,-396.96C389.44,-377.42 372.35,-356.55 358.01,-339.63"/>
<polygon fill="#7f06f9" stroke="black" points="360.36,-337 351.21,-331.67 355.04,-341.55 360.36,-337"/>
</g>
<!-- logger_setup&#45;&gt;handlers_sql_db_get_linked_folders_utils -->
<g id="edge25" class="edge">
<title>logger_setup&#45;&gt;handlers_sql_db_get_linked_folders_utils</title><style>.edge>path:hover{stroke-width:8}</style>
<path fill="none" stroke="black" d="M403.73,-396.96C386.69,-373.67 412.28,-361.72 414.73,-332.97 416.92,-307.29 425.68,-298.31 414.73,-274.98 408.97,-262.69 399.55,-251.95 389.25,-242.95"/>
<polygon fill="#7f06f9" stroke="black" points="391.21,-240.02 381.25,-236.41 386.78,-245.44 391.21,-240.02"/>
</g>
<!-- logger_setup&#45;&gt;handlers_sql_db_utils -->
<g id="edge26" class="edge">
<title>logger_setup&#45;&gt;handlers_sql_db_utils</title><style>.edge>path:hover{stroke-width:8}</style>
<path fill="none" stroke="black" d="M365.73,-556.93C362.53,-521.7 407.9,-541.44 436.73,-520.93 451.33,-510.54 460.18,-509.97 465.73,-492.94"/>
<path fill="none" stroke="black" d="M465.73,-490.94C474.59,-463.74 396.81,-432.37 342.91,-414.19"/>
<polygon fill="#7f06f9" stroke="black" points="343.74,-410.77 333.15,-410.95 341.54,-417.42 343.74,-410.77"/>
</g>
<!-- logger_setup&#45;&gt;handlers_utils_paths -->
<g id="edge27" class="edge">
<title>logger_setup&#45;&gt;handlers_utils_paths</title><style>.edge>path:hover{stroke-width:8}</style>
<path fill="none" stroke="black" d="M465.73,-490.94C471.33,-473.74 473.94,-453.87 475.11,-437.01"/>
<polygon fill="#7f06f9" stroke="black" points="478.61,-437.13 475.66,-426.95 471.62,-436.74 478.61,-437.13"/>
</g>
</g>
</svg>
