<?xml version="1.0" encoding="UTF-8" standalone="no"?>
<!DOCTYPE svg PUBLIC "-//W3C//DTD SVG 1.1//EN"
 "http://www.w3.org/Graphics/SVG/1.1/DTD/svg11.dtd">
<!-- Generated by graphviz version 2.43.0 (0)
 -->
<!-- Title: G Pages: 1 -->
<svg width="677pt" height="788pt"
 viewBox="0.00 0.00 676.53 788.19" xmlns="http://www.w3.org/2000/svg" xmlns:xlink="http://www.w3.org/1999/xlink">
<g id="graph0" class="graph" transform="scale(1 1) rotate(0) translate(4 784.19)">
<title>G</title><style>.edge>path:hover{stroke-width:8}</style>
<polygon fill="white" stroke="transparent" points="-4,4 -4,-784.19 672.53,-784.19 672.53,4 -4,4"/>
<!-- dotenv -->
<g id="node1" class="node">
<title>dotenv</title><style>.edge>path:hover{stroke-width:8}</style>
<ellipse fill="#b65353" stroke="black" cx="400.73" cy="-751.2" rx="29.37" ry="18"/>
<text text-anchor="middle" x="400.73" y="-748.7" font-family="Helvetica,sans-Serif" font-size="10.00" fill="#ffffff">dotenv</text>
</g>
<!-- logger_setup -->
<g id="node11" class="node">
<title>logger_setup</title><style>.edge>path:hover{stroke-width:8}</style>
<ellipse fill="#0cf368" stroke="black" cx="400.73" cy="-665" rx="47.19" ry="18"/>
<text text-anchor="middle" x="400.73" y="-662.5" font-family="Helvetica,sans-Serif" font-size="10.00" fill="#000000">logger_setup</text>
</g>
<!-- dotenv&#45;&gt;logger_setup -->
<g id="edge1" class="edge">
<title>dotenv&#45;&gt;logger_setup</title><style>.edge>path:hover{stroke-width:8}</style>
<path fill="none" stroke="black" d="M400.73,-733.16C400.73,-721.75 400.73,-706.47 400.73,-693.37"/>
<polygon fill="#b65353" stroke="black" points="404.23,-693.01 400.73,-683.01 397.23,-693.01 404.23,-693.01"/>
</g>
<!-- handlers -->
<g id="node2" class="node">
<title>handlers</title><style>.edge>path:hover{stroke-width:8}</style>
<ellipse fill="#b8db2f" stroke="black" cx="34.73" cy="-136.64" rx="34.96" ry="18"/>
<text text-anchor="middle" x="34.73" y="-134.14" font-family="Helvetica,sans-Serif" font-size="10.00" fill="#000000">handlers</text>
</g>
<!-- standard_note_py -->
<g id="node15" class="node">
<title>standard_note_py</title><style>.edge>path:hover{stroke-width:8}</style>
<ellipse fill="#784785" stroke="black" cx="203.73" cy="-21.21" rx="62.87" ry="21.43"/>
<text text-anchor="middle" x="203.73" y="-24.21" font-family="Helvetica,sans-Serif" font-size="10.00" fill="#ffffff">standard_note.</text>
<text text-anchor="middle" x="203.73" y="-13.21" font-family="Helvetica,sans-Serif" font-size="10.00" fill="#ffffff">py</text>
</g>
<!-- handlers&#45;&gt;standard_note_py -->
<g id="edge2" class="edge">
<title>handlers&#45;&gt;standard_note_py</title><style>.edge>path:hover{stroke-width:8}</style>
<path fill="none" stroke="black" d="M59.12,-123.64C65.43,-120.76 72.27,-117.83 78.73,-115.43 132.93,-95.3 201.53,-137.2 203.73,-79.43"/>
<path fill="none" stroke="black" d="M203.73,-78.43C204.05,-70.06 204.15,-60.99 204.15,-52.63"/>
<polygon fill="#b8db2f" stroke="black" points="207.65,-52.5 204.1,-42.52 200.65,-52.53 207.65,-52.5"/>
</g>
<!-- handlers_header -->
<g id="node3" class="node">
<title>handlers_header</title><style>.edge>path:hover{stroke-width:8}</style>
<ellipse fill="#a9c247" stroke="black" cx="131.73" cy="-136.64" rx="43.68" ry="21.43"/>
<text text-anchor="middle" x="131.73" y="-139.64" font-family="Helvetica,sans-Serif" font-size="10.00" fill="#000000">handlers.</text>
<text text-anchor="middle" x="131.73" y="-128.64" font-family="Helvetica,sans-Serif" font-size="10.00" fill="#000000">header</text>
</g>
<!-- handlers_header&#45;&gt;standard_note_py -->
<g id="edge3" class="edge">
<title>handlers_header&#45;&gt;standard_note_py</title><style>.edge>path:hover{stroke-width:8}</style>
<path fill="none" stroke="black" d="M166.32,-123.16C184.39,-114.2 202.95,-100.03 203.73,-79.43"/>
</g>
<!-- handlers_header_extract_yaml_header -->
<g id="node4" class="node">
<title>handlers_header_extract_yaml_header</title><style>.edge>path:hover{stroke-width:8}</style>
<ellipse fill="#7e8f3d" stroke="black" cx="229.73" cy="-222.84" rx="84.71" ry="28.98"/>
<text text-anchor="middle" x="229.73" y="-231.34" font-family="Helvetica,sans-Serif" font-size="10.00" fill="#000000">handlers.</text>
<text text-anchor="middle" x="229.73" y="-220.34" font-family="Helvetica,sans-Serif" font-size="10.00" fill="#000000">header.</text>
<text text-anchor="middle" x="229.73" y="-209.34" font-family="Helvetica,sans-Serif" font-size="10.00" fill="#000000">extract_yaml_header</text>
</g>
<!-- handlers_header_extract_yaml_header&#45;&gt;standard_note_py -->
<g id="edge4" class="edge">
<title>handlers_header_extract_yaml_header&#45;&gt;standard_note_py</title><style>.edge>path:hover{stroke-width:8}</style>
<path fill="none" stroke="black" d="M220.94,-194C212.81,-165.48 202.2,-119.74 203.73,-79.43"/>
</g>
<!-- handlers_header_header_utils -->
<g id="node5" class="node">
<title>handlers_header_header_utils</title><style>.edge>path:hover{stroke-width:8}</style>
<ellipse fill="#8b9d43" stroke="black" cx="229.73" cy="-316.83" rx="54.39" ry="28.98"/>
<text text-anchor="middle" x="229.73" y="-325.33" font-family="Helvetica,sans-Serif" font-size="10.00" fill="#000000">handlers.</text>
<text text-anchor="middle" x="229.73" y="-314.33" font-family="Helvetica,sans-Serif" font-size="10.00" fill="#000000">header.</text>
<text text-anchor="middle" x="229.73" y="-303.33" font-family="Helvetica,sans-Serif" font-size="10.00" fill="#000000">header_utils</text>
</g>
<!-- handlers_header_header_utils&#45;&gt;handlers_header_extract_yaml_header -->
<g id="edge5" class="edge">
<title>handlers_header_header_utils&#45;&gt;handlers_header_extract_yaml_header</title><style>.edge>path:hover{stroke-width:8}</style>
<path fill="none" stroke="black" d="M229.73,-287.73C229.73,-279.69 229.73,-270.79 229.73,-262.25"/>
<polygon fill="#8b9d43" stroke="black" points="233.23,-262.09 229.73,-252.09 226.23,-262.09 233.23,-262.09"/>
</g>
<!-- handlers_sql -->
<g id="node6" class="node">
<title>handlers_sql</title><style>.edge>path:hover{stroke-width:8}</style>
<ellipse fill="#a9c247" stroke="black" cx="276.73" cy="-136.64" rx="44.98" ry="18"/>
<text text-anchor="middle" x="276.73" y="-134.14" font-family="Helvetica,sans-Serif" font-size="10.00" fill="#000000">handlers.sql</text>
</g>
<!-- handlers_sql&#45;&gt;standard_note_py -->
<g id="edge6" class="edge">
<title>handlers_sql&#45;&gt;standard_note_py</title><style>.edge>path:hover{stroke-width:8}</style>
<path fill="none" stroke="black" d="M243.1,-124.49C223.56,-115.67 202.9,-101.16 203.73,-79.43"/>
</g>
<!-- handlers_sql_db_connection -->
<g id="node7" class="node">
<title>handlers_sql_db_connection</title><style>.edge>path:hover{stroke-width:8}</style>
<ellipse fill="#92a446" stroke="black" cx="538.73" cy="-504.79" rx="61.54" ry="28.98"/>
<text text-anchor="middle" x="538.73" y="-513.29" font-family="Helvetica,sans-Serif" font-size="10.00" fill="#000000">handlers.</text>
<text text-anchor="middle" x="538.73" y="-502.29" font-family="Helvetica,sans-Serif" font-size="10.00" fill="#000000">sql.</text>
<text text-anchor="middle" x="538.73" y="-491.29" font-family="Helvetica,sans-Serif" font-size="10.00" fill="#000000">db_connection</text>
</g>
<!-- handlers_sql_db_temp_blocs -->
<g id="node8" class="node">
<title>handlers_sql_db_temp_blocs</title><style>.edge>path:hover{stroke-width:8}</style>
<ellipse fill="#78883a" stroke="black" cx="441.73" cy="-410.81" rx="63.78" ry="28.98"/>
<text text-anchor="middle" x="441.73" y="-419.31" font-family="Helvetica,sans-Serif" font-size="10.00" fill="#ffffff">handlers.</text>
<text text-anchor="middle" x="441.73" y="-408.31" font-family="Helvetica,sans-Serif" font-size="10.00" fill="#ffffff">sql.</text>
<text text-anchor="middle" x="441.73" y="-397.31" font-family="Helvetica,sans-Serif" font-size="10.00" fill="#ffffff">db_temp_blocs</text>
</g>
<!-- handlers_sql_db_connection&#45;&gt;handlers_sql_db_temp_blocs -->
<g id="edge7" class="edge">
<title>handlers_sql_db_connection&#45;&gt;handlers_sql_db_temp_blocs</title><style>.edge>path:hover{stroke-width:8}</style>
<path fill="none" stroke="black" d="M511.97,-478.41C500.93,-467.95 487.99,-455.68 476.25,-444.55"/>
<polygon fill="#92a446" stroke="black" points="478.41,-441.77 468.74,-437.42 473.59,-446.85 478.41,-441.77"/>
</g>
<!-- handlers_sql_db_temp_blocs&#45;&gt;standard_note_py -->
<g id="edge8" class="edge">
<title>handlers_sql_db_temp_blocs&#45;&gt;standard_note_py</title><style>.edge>path:hover{stroke-width:8}</style>
<path fill="none" stroke="black" d="M420.95,-383.39C395.77,-348.98 355.94,-285.85 349.73,-223.84"/>
</g>
<!-- handlers_utils -->
<g id="node9" class="node">
<title>handlers_utils</title><style>.edge>path:hover{stroke-width:8}</style>
<ellipse fill="#a9c247" stroke="black" cx="147.73" cy="-504.79" rx="48.72" ry="18"/>
<text text-anchor="middle" x="147.73" y="-502.29" font-family="Helvetica,sans-Serif" font-size="10.00" fill="#000000">handlers.utils</text>
</g>
<!-- handlers_utils&#45;&gt;handlers_header_extract_yaml_header -->
<g id="edge9" class="edge">
<title>handlers_utils&#45;&gt;handlers_header_extract_yaml_header</title><style>.edge>path:hover{stroke-width:8}</style>
<path fill="none" stroke="black" d="M145.66,-486.63C143.89,-467.99 142.38,-437.45 147.73,-411.81"/>
<path fill="none" stroke="black" d="M147.73,-409.81C158.94,-356.1 142.08,-336.85 166.73,-287.84 172.42,-276.52 180.85,-265.93 189.71,-256.76"/>
<polygon fill="#a9c247" stroke="black" points="192.18,-259.23 196.85,-249.72 187.27,-254.25 192.18,-259.23"/>
</g>
<!-- handlers_utils&#45;&gt;handlers_header_header_utils -->
<g id="edge10" class="edge">
<title>handlers_utils&#45;&gt;handlers_header_header_utils</title><style>.edge>path:hover{stroke-width:8}</style>
<path fill="none" stroke="black" d="M147.73,-409.81C152.97,-384.7 171.28,-362.94 189.28,-346.9"/>
<polygon fill="#a9c247" stroke="black" points="191.59,-349.53 196.93,-340.38 187.05,-344.2 191.59,-349.53"/>
</g>
<!-- handlers_utils_files -->
<g id="node10" class="node">
<title>handlers_utils_files</title><style>.edge>path:hover{stroke-width:8}</style>
<ellipse fill="#a6c040" stroke="black" cx="338.73" cy="-504.79" rx="43.68" ry="28.98"/>
<text text-anchor="middle" x="338.73" y="-513.29" font-family="Helvetica,sans-Serif" font-size="10.00" fill="#000000">handlers.</text>
<text text-anchor="middle" x="338.73" y="-502.29" font-family="Helvetica,sans-Serif" font-size="10.00" fill="#000000">utils.</text>
<text text-anchor="middle" x="338.73" y="-491.29" font-family="Helvetica,sans-Serif" font-size="10.00" fill="#000000">files</text>
</g>
<!-- handlers_utils_files&#45;&gt;handlers_header_extract_yaml_header -->
<g id="edge11" class="edge">
<title>handlers_utils_files&#45;&gt;handlers_header_extract_yaml_header</title><style>.edge>path:hover{stroke-width:8}</style>
<path fill="none" stroke="black" d="M311.73,-409.81C293.15,-358.19 317.39,-336.85 292.73,-287.84 287.04,-276.52 278.61,-265.93 269.76,-256.76"/>
<polygon fill="#a6c040" stroke="black" points="272.19,-254.25 262.61,-249.72 267.28,-259.23 272.19,-254.25"/>
</g>
<!-- handlers_utils_files&#45;&gt;handlers_header_header_utils -->
<g id="edge12" class="edge">
<title>handlers_utils_files&#45;&gt;handlers_header_header_utils</title><style>.edge>path:hover{stroke-width:8}</style>
<path fill="none" stroke="black" d="M331.55,-476.15C326.54,-457.74 319.4,-433.11 311.73,-411.81"/>
<path fill="none" stroke="black" d="M311.73,-409.81C303.12,-385.9 284.84,-364.37 267.72,-348.16"/>
<polygon fill="#a6c040" stroke="black" points="269.73,-345.25 259.98,-341.1 265.01,-350.42 269.73,-345.25"/>
</g>
<!-- logger_setup&#45;&gt;handlers_header_extract_yaml_header -->
<g id="edge13" class="edge">
<title>logger_setup&#45;&gt;handlers_header_extract_yaml_header</title><style>.edge>path:hover{stroke-width:8}</style>
<path fill="none" stroke="black" d="M410.73,-569.78C393.49,-547.16 412.98,-534.14 410.73,-505.79"/>
<path fill="none" stroke="black" d="M410.73,-503.79C408.04,-469.88 380.96,-471.55 368.73,-439.8 349.01,-388.6 365.11,-370.49 349.73,-317.83"/>
<path fill="none" stroke="black" d="M349.73,-315.83C339.16,-287.57 313.89,-266.14 289.25,-251.11"/>
<polygon fill="#0cf368" stroke="black" points="290.99,-248.07 280.58,-246.06 287.46,-254.12 290.99,-248.07"/>
</g>
<!-- logger_setup&#45;&gt;handlers_header_header_utils -->
<g id="edge14" class="edge">
<title>logger_setup&#45;&gt;handlers_header_header_utils</title><style>.edge>path:hover{stroke-width:8}</style>
<path fill="none" stroke="black" d="M409.41,-647.3C415.21,-636.13 422.97,-621.1 429.73,-607.78"/>
<path fill="none" stroke="black" d="M429.73,-606.78C437.92,-590.65 421.73,-585.15 410.73,-570.78"/>
<path fill="none" stroke="black" d="M410.73,-569.78C375.58,-523.88 326.06,-575.21 285.73,-533.78 239.01,-485.8 229.85,-404.1 228.83,-356.13"/>
<polygon fill="#0cf368" stroke="black" points="232.33,-355.82 228.73,-345.86 225.33,-355.89 232.33,-355.82"/>
</g>
<!-- logger_setup&#45;&gt;handlers_sql_db_connection -->
<g id="edge15" class="edge">
<title>logger_setup&#45;&gt;handlers_sql_db_connection</title><style>.edge>path:hover{stroke-width:8}</style>
<path fill="none" stroke="black" d="M429.73,-606.78C443.3,-580.07 468.27,-594.39 486.73,-570.78"/>
<path fill="none" stroke="black" d="M486.73,-569.78C494.38,-560.01 502.81,-549.51 510.62,-539.9"/>
<polygon fill="#0cf368" stroke="black" points="513.39,-542.04 517,-532.08 507.97,-537.62 513.39,-542.04"/>
</g>
<!-- logger_setup&#45;&gt;handlers_sql_db_temp_blocs -->
<g id="edge16" class="edge">
<title>logger_setup&#45;&gt;handlers_sql_db_temp_blocs</title><style>.edge>path:hover{stroke-width:8}</style>
<path fill="none" stroke="black" d="M410.73,-503.79C409.24,-484.97 414.99,-465.01 421.93,-448.51"/>
<polygon fill="#0cf368" stroke="black" points="425.19,-449.79 426.1,-439.23 418.81,-446.91 425.19,-449.79"/>
</g>
<!-- logger_setup&#45;&gt;handlers_utils_files -->
<g id="edge17" class="edge">
<title>logger_setup&#45;&gt;handlers_utils_files</title><style>.edge>path:hover{stroke-width:8}</style>
<path fill="none" stroke="black" d="M410.73,-569.78C400.64,-556.61 387.55,-544.03 375.3,-533.56"/>
<polygon fill="#0cf368" stroke="black" points="377.34,-530.71 367.42,-527.01 372.87,-536.09 377.34,-530.71"/>
</g>
<!-- logger_setup&#45;&gt;standard_note_py -->
<g id="edge18" class="edge">
<title>logger_setup&#45;&gt;standard_note_py</title><style>.edge>path:hover{stroke-width:8}</style>
<path fill="none" stroke="black" d="M349.73,-315.83C335.41,-277.54 353.07,-264.59 349.73,-223.84"/>
<path fill="none" stroke="black" d="M349.73,-221.84C345.81,-173.96 362.97,-151.05 330.73,-115.43 291.36,-71.93 202.01,-138.07 203.73,-79.43"/>
</g>
<!-- mysql -->
<g id="node12" class="node">
<title>mysql</title><style>.edge>path:hover{stroke-width:8}</style>
<ellipse fill="#3b76ce" stroke="black" cx="493.73" cy="-665" rx="27.84" ry="18"/>
<text text-anchor="middle" x="493.73" y="-662.5" font-family="Helvetica,sans-Serif" font-size="10.00" fill="#ffffff">mysql</text>
</g>
<!-- mysql&#45;&gt;handlers_sql_db_connection -->
<g id="edge19" class="edge">
<title>mysql&#45;&gt;handlers_sql_db_connection</title><style>.edge>path:hover{stroke-width:8}</style>
<path fill="none" stroke="black" d="M486.73,-606.78C482.04,-591.49 476.87,-583.39 486.73,-570.78"/>
</g>
<!-- mysql&#45;&gt;handlers_sql_db_temp_blocs -->
<g id="edge20" class="edge">
<title>mysql&#45;&gt;handlers_sql_db_temp_blocs</title><style>.edge>path:hover{stroke-width:8}</style>
<path fill="none" stroke="black" d="M493.14,-646.95C492.38,-635.64 490.65,-620.57 486.73,-607.78"/>
<path fill="none" stroke="black" d="M486.73,-606.78C481.7,-590.37 477.5,-587.27 472.73,-570.78 460.99,-530.2 452.35,-482.5 447.22,-450.01"/>
<polygon fill="#3b76ce" stroke="black" points="450.66,-449.37 445.68,-440.03 443.74,-450.44 450.66,-449.37"/>
</g>
<!-- mysql_connector -->
<g id="node13" class="node">
<title>mysql_connector</title><style>.edge>path:hover{stroke-width:8}</style>
<ellipse fill="#2f67bc" stroke="black" cx="592.73" cy="-665" rx="45.92" ry="21.43"/>
<text text-anchor="middle" x="592.73" y="-668" font-family="Helvetica,sans-Serif" font-size="10.00" fill="#ffffff">mysql.</text>
<text text-anchor="middle" x="592.73" y="-657" font-family="Helvetica,sans-Serif" font-size="10.00" fill="#ffffff">connector</text>
</g>
<!-- mysql_connector&#45;&gt;handlers_sql_db_connection -->
<g id="edge21" class="edge">
<title>mysql_connector&#45;&gt;handlers_sql_db_connection</title><style>.edge>path:hover{stroke-width:8}</style>
<path fill="none" stroke="black" d="M608.09,-644.98C621.24,-626.33 636.86,-596.96 628.73,-570.78"/>
<path fill="none" stroke="black" d="M628.73,-569.78C623.74,-552.03 609.8,-538.58 594.33,-528.72"/>
<polygon fill="#2f67bc" stroke="black" points="596.02,-525.65 585.63,-523.6 592.47,-531.68 596.02,-525.65"/>
</g>
<!-- mysql_connector&#45;&gt;handlers_sql_db_temp_blocs -->
<g id="edge22" class="edge">
<title>mysql_connector&#45;&gt;handlers_sql_db_temp_blocs</title><style>.edge>path:hover{stroke-width:8}</style>
<path fill="none" stroke="black" d="M628.73,-569.78C621.04,-542.4 646.92,-527.66 628.73,-505.79"/>
<path fill="none" stroke="black" d="M628.73,-503.79C619.12,-492.23 621.52,-485.13 609.73,-475.8 580.34,-452.55 541.56,-437.03 508.66,-427.11"/>
<polygon fill="#2f67bc" stroke="black" points="509.24,-423.63 498.66,-424.21 507.29,-430.36 509.24,-423.63"/>
</g>
<!-- mysql_connector_errors -->
<g id="node14" class="node">
<title>mysql_connector_errors</title><style>.edge>path:hover{stroke-width:8}</style>
<ellipse fill="#4778c2" stroke="black" cx="592.73" cy="-751.2" rx="47.25" ry="28.98"/>
<text text-anchor="middle" x="592.73" y="-759.7" font-family="Helvetica,sans-Serif" font-size="10.00" fill="#ffffff">mysql.</text>
<text text-anchor="middle" x="592.73" y="-748.7" font-family="Helvetica,sans-Serif" font-size="10.00" fill="#ffffff">connector.</text>
<text text-anchor="middle" x="592.73" y="-737.7" font-family="Helvetica,sans-Serif" font-size="10.00" fill="#ffffff">errors</text>
</g>
<!-- mysql_connector_errors&#45;&gt;handlers_sql_db_temp_blocs -->
<g id="edge23" class="edge">
<title>mysql_connector_errors&#45;&gt;handlers_sql_db_temp_blocs</title><style>.edge>path:hover{stroke-width:8}</style>
<path fill="none" stroke="black" d="M619.66,-727.14C630.59,-716.02 641.98,-701.73 647.73,-686.21 675.76,-610.61 680.29,-567.79 628.73,-505.79"/>
</g>
<!-- mysql_connector_errors&#45;&gt;mysql_connector -->
<g id="edge24" class="edge">
<title>mysql_connector_errors&#45;&gt;mysql_connector</title><style>.edge>path:hover{stroke-width:8}</style>
<path fill="none" stroke="black" d="M592.73,-722.16C592.73,-713.95 592.73,-704.94 592.73,-696.58"/>
<polygon fill="#4778c2" stroke="black" points="596.23,-696.46 592.73,-686.46 589.23,-696.46 596.23,-696.46"/>
</g>
</g>
</svg>
