<?xml version="1.0" encoding="UTF-8" standalone="no"?>
<!DOCTYPE svg PUBLIC "-//W3C//DTD SVG 1.1//EN"
 "http://www.w3.org/Graphics/SVG/1.1/DTD/svg11.dtd">
<!-- Generated by graphviz version 2.43.0 (0)
 -->
<!-- Title: G Pages: 1 -->
<svg width="795pt" height="766pt"
 viewBox="0.00 0.00 794.54 766.37" xmlns="http://www.w3.org/2000/svg" xmlns:xlink="http://www.w3.org/1999/xlink">
<g id="graph0" class="graph" transform="scale(1 1) rotate(0) translate(4 762.37)">
<title>G</title><style>.edge>path:hover{stroke-width:8}</style>
<polygon fill="white" stroke="transparent" points="-4,4 -4,-762.37 790.54,-762.37 790.54,4 -4,4"/>
<!-- dotenv -->
<g id="node1" class="node">
<title>dotenv</title><style>.edge>path:hover{stroke-width:8}</style>
<ellipse fill="#b65353" stroke="black" cx="390.73" cy="-740.37" rx="29.37" ry="18"/>
<text text-anchor="middle" x="390.73" y="-737.87" font-family="Helvetica,sans-Serif" font-size="10.00" fill="#ffffff">dotenv</text>
</g>
<!-- logger_setup -->
<g id="node9" class="node">
<title>logger_setup</title><style>.edge>path:hover{stroke-width:8}</style>
<ellipse fill="#266ed9" stroke="black" cx="390.73" cy="-668.37" rx="47.19" ry="18"/>
<text text-anchor="middle" x="390.73" y="-665.87" font-family="Helvetica,sans-Serif" font-size="10.00" fill="#ffffff">logger_setup</text>
</g>
<!-- dotenv&#45;&gt;logger_setup -->
<g id="edge1" class="edge">
<title>dotenv&#45;&gt;logger_setup</title><style>.edge>path:hover{stroke-width:8}</style>
<path fill="none" stroke="black" d="M390.73,-722.07C390.73,-714.36 390.73,-705.09 390.73,-696.49"/>
<polygon fill="#b65353" stroke="black" points="394.23,-696.48 390.73,-686.48 387.23,-696.48 394.23,-696.48"/>
</g>
<!-- handlers -->
<g id="node2" class="node">
<title>handlers</title><style>.edge>path:hover{stroke-width:8}</style>
<ellipse fill="#b1ce3b" stroke="black" cx="34.73" cy="-130.21" rx="34.96" ry="18"/>
<text text-anchor="middle" x="34.73" y="-127.71" font-family="Helvetica,sans-Serif" font-size="10.00" fill="#000000">handlers</text>
</g>
<!-- keywords_py -->
<g id="node8" class="node">
<title>keywords_py</title><style>.edge>path:hover{stroke-width:8}</style>
<ellipse fill="#4b8b65" stroke="black" cx="167.73" cy="-18" rx="45.83" ry="18"/>
<text text-anchor="middle" x="167.73" y="-15.5" font-family="Helvetica,sans-Serif" font-size="10.00" fill="#ffffff">keywords.py</text>
</g>
<!-- handlers&#45;&gt;keywords_py -->
<g id="edge2" class="edge">
<title>handlers&#45;&gt;keywords_py</title><style>.edge>path:hover{stroke-width:8}</style>
<path fill="none" stroke="black" d="M59.77,-117.47C65.94,-114.64 72.56,-111.67 78.73,-109 117.91,-92.09 154,-113.4 167.73,-73"/>
<path fill="none" stroke="black" d="M167.73,-72C170.48,-63.91 171.23,-54.72 171.08,-46.29"/>
<polygon fill="#b1ce3b" stroke="black" points="174.57,-45.94 170.48,-36.16 167.58,-46.35 174.57,-45.94"/>
</g>
<!-- handlers_header -->
<g id="node3" class="node">
<title>handlers_header</title><style>.edge>path:hover{stroke-width:8}</style>
<ellipse fill="#a9c247" stroke="black" cx="131.73" cy="-130.21" rx="43.68" ry="21.43"/>
<text text-anchor="middle" x="131.73" y="-133.21" font-family="Helvetica,sans-Serif" font-size="10.00" fill="#000000">handlers.</text>
<text text-anchor="middle" x="131.73" y="-122.21" font-family="Helvetica,sans-Serif" font-size="10.00" fill="#000000">header</text>
</g>
<!-- handlers_header&#45;&gt;keywords_py -->
<g id="edge3" class="edge">
<title>handlers_header&#45;&gt;keywords_py</title><style>.edge>path:hover{stroke-width:8}</style>
<path fill="none" stroke="black" d="M147.26,-110.14C154.79,-99.78 163.18,-86.39 167.73,-73"/>
</g>
<!-- handlers_header_extract_yaml_header -->
<g id="node4" class="node">
<title>handlers_header_extract_yaml_header</title><style>.edge>path:hover{stroke-width:8}</style>
<ellipse fill="#7e8f3d" stroke="black" cx="203.73" cy="-216.42" rx="84.71" ry="28.98"/>
<text text-anchor="middle" x="203.73" y="-224.92" font-family="Helvetica,sans-Serif" font-size="10.00" fill="#000000">handlers.</text>
<text text-anchor="middle" x="203.73" y="-213.92" font-family="Helvetica,sans-Serif" font-size="10.00" fill="#000000">header.</text>
<text text-anchor="middle" x="203.73" y="-202.92" font-family="Helvetica,sans-Serif" font-size="10.00" fill="#000000">extract_yaml_header</text>
</g>
<!-- handlers_header_extract_yaml_header&#45;&gt;keywords_py -->
<g id="edge4" class="edge">
<title>handlers_header_extract_yaml_header&#45;&gt;keywords_py</title><style>.edge>path:hover{stroke-width:8}</style>
<path fill="none" stroke="black" d="M203.57,-187.35C203.52,-170.98 203.52,-149.92 203.73,-131.21"/>
</g>
<!-- handlers_header_header_utils -->
<g id="node5" class="node">
<title>handlers_header_header_utils</title><style>.edge>path:hover{stroke-width:8}</style>
<ellipse fill="#859640" stroke="black" cx="235.73" cy="-310.4" rx="54.39" ry="28.98"/>
<text text-anchor="middle" x="235.73" y="-318.9" font-family="Helvetica,sans-Serif" font-size="10.00" fill="#000000">handlers.</text>
<text text-anchor="middle" x="235.73" y="-307.9" font-family="Helvetica,sans-Serif" font-size="10.00" fill="#000000">header.</text>
<text text-anchor="middle" x="235.73" y="-296.9" font-family="Helvetica,sans-Serif" font-size="10.00" fill="#000000">header_utils</text>
</g>
<!-- handlers_header_header_utils&#45;&gt;handlers_header_extract_yaml_header -->
<g id="edge5" class="edge">
<title>handlers_header_header_utils&#45;&gt;handlers_header_extract_yaml_header</title><style>.edge>path:hover{stroke-width:8}</style>
<path fill="none" stroke="black" d="M226.13,-281.8C223.18,-273.33 219.89,-263.86 216.75,-254.85"/>
<polygon fill="#859640" stroke="black" points="220.03,-253.61 213.44,-245.31 213.42,-255.91 220.03,-253.61"/>
</g>
<!-- handlers_utils -->
<g id="node6" class="node">
<title>handlers_utils</title><style>.edge>path:hover{stroke-width:8}</style>
<ellipse fill="#a9c247" stroke="black" cx="167.73" cy="-441.38" rx="48.72" ry="18"/>
<text text-anchor="middle" x="167.73" y="-438.88" font-family="Helvetica,sans-Serif" font-size="10.00" fill="#000000">handlers.utils</text>
</g>
<!-- handlers_utils&#45;&gt;handlers_header_extract_yaml_header -->
<g id="edge6" class="edge">
<title>handlers_utils&#45;&gt;handlers_header_extract_yaml_header</title><style>.edge>path:hover{stroke-width:8}</style>
<path fill="none" stroke="black" d="M165.55,-423.37C164.34,-410.38 163.64,-392.09 166.73,-376.39"/>
<path fill="none" stroke="black" d="M166.73,-375.39C172.34,-346.92 145.43,-339.21 153.73,-311.4"/>
</g>
<!-- handlers_utils&#45;&gt;handlers_header_header_utils -->
<g id="edge7" class="edge">
<title>handlers_utils&#45;&gt;handlers_header_header_utils</title><style>.edge>path:hover{stroke-width:8}</style>
<path fill="none" stroke="black" d="M166.73,-375.39C169.63,-360.67 179.32,-348.28 190.57,-338.44"/>
<polygon fill="#a9c247" stroke="black" points="192.93,-341.03 198.53,-332.04 188.55,-335.57 192.93,-341.03"/>
</g>
<!-- handlers_utils_files -->
<g id="node7" class="node">
<title>handlers_utils_files</title><style>.edge>path:hover{stroke-width:8}</style>
<ellipse fill="#a6c040" stroke="black" cx="516.73" cy="-441.38" rx="43.68" ry="28.98"/>
<text text-anchor="middle" x="516.73" y="-449.88" font-family="Helvetica,sans-Serif" font-size="10.00" fill="#000000">handlers.</text>
<text text-anchor="middle" x="516.73" y="-438.88" font-family="Helvetica,sans-Serif" font-size="10.00" fill="#000000">utils.</text>
<text text-anchor="middle" x="516.73" y="-427.88" font-family="Helvetica,sans-Serif" font-size="10.00" fill="#000000">files</text>
</g>
<!-- handlers_utils_files&#45;&gt;handlers_header_extract_yaml_header -->
<g id="edge8" class="edge">
<title>handlers_utils_files&#45;&gt;handlers_header_extract_yaml_header</title><style>.edge>path:hover{stroke-width:8}</style>
<path fill="none" stroke="black" d="M317.73,-375.39C284.19,-349.11 322.4,-316.85 298.73,-281.41 289.31,-267.3 275.62,-255.49 261.56,-246.01"/>
<polygon fill="#a6c040" stroke="black" points="263.09,-242.84 252.78,-240.41 259.33,-248.75 263.09,-242.84"/>
</g>
<!-- handlers_utils_files&#45;&gt;handlers_header_header_utils -->
<g id="edge9" class="edge">
<title>handlers_utils_files&#45;&gt;handlers_header_header_utils</title><style>.edge>path:hover{stroke-width:8}</style>
<path fill="none" stroke="black" d="M473.45,-435.31C430.16,-428.35 363.58,-412.32 317.73,-376.39"/>
<path fill="none" stroke="black" d="M317.73,-375.39C303.35,-364.13 287.54,-351.77 273.66,-340.95"/>
<polygon fill="#a6c040" stroke="black" points="275.78,-338.16 265.74,-334.77 271.48,-343.68 275.78,-338.16"/>
</g>
<!-- logger_setup&#45;&gt;handlers_header_extract_yaml_header -->
<g id="edge10" class="edge">
<title>logger_setup&#45;&gt;handlers_header_extract_yaml_header</title><style>.edge>path:hover{stroke-width:8}</style>
<path fill="none" stroke="black" d="M52.73,-440.38C89.63,-377.62 132.9,-381.17 153.73,-311.4"/>
<path fill="none" stroke="black" d="M153.73,-309.4C160.72,-290.24 171.19,-270.2 180.75,-253.74"/>
<polygon fill="#266ed9" stroke="black" points="183.84,-255.37 185.93,-244.99 177.82,-251.81 183.84,-255.37"/>
</g>
<!-- logger_setup&#45;&gt;handlers_header_header_utils -->
<g id="edge11" class="edge">
<title>logger_setup&#45;&gt;handlers_header_header_utils</title><style>.edge>path:hover{stroke-width:8}</style>
<path fill="none" stroke="black" d="M775.73,-523.37C690.38,-347.57 424.16,-316.49 300.31,-311.75"/>
<polygon fill="#266ed9" stroke="black" points="300.32,-308.24 290.21,-311.41 300.08,-315.24 300.32,-308.24"/>
</g>
<!-- logger_setup&#45;&gt;handlers_utils_files -->
<g id="edge12" class="edge">
<title>logger_setup&#45;&gt;handlers_utils_files</title><style>.edge>path:hover{stroke-width:8}</style>
<path fill="none" stroke="black" d="M437.76,-667.02C525.96,-665.35 711.43,-656.76 756.73,-614.37 786.27,-586.74 795.14,-560.86 775.73,-525.37"/>
<path fill="none" stroke="black" d="M775.73,-523.37C757.44,-485.71 639.68,-461.3 569.4,-449.9"/>
<polygon fill="#266ed9" stroke="black" points="569.82,-446.42 559.39,-448.31 568.72,-453.34 569.82,-446.42"/>
</g>
<!-- logger_setup&#45;&gt;keywords_py -->
<g id="edge13" class="edge">
<title>logger_setup&#45;&gt;keywords_py</title><style>.edge>path:hover{stroke-width:8}</style>
<path fill="none" stroke="black" d="M343.55,-667.84C254.17,-667.6 65.44,-661.4 24.73,-614.37 -1.23,-584.38 -6.84,-552.84 52.73,-442.38"/>
<path fill="none" stroke="black" d="M52.73,-440.38C69.48,-411.86 87.02,-409.26 90.73,-376.39"/>
<path fill="none" stroke="black" d="M90.73,-375.39C100.16,-291.96 61.49,-256.15 109.73,-187.43 137.7,-147.58 203.18,-179.89 203.73,-131.21"/>
<path fill="none" stroke="black" d="M203.73,-129.21C203.57,-99.55 158.19,-101.09 167.73,-73"/>
</g>
<!-- yaml -->
<g id="node10" class="node">
<title>yaml</title><style>.edge>path:hover{stroke-width:8}</style>
<polygon fill="blue" stroke="black" points="318.73,-542.37 264.73,-542.37 264.73,-506.37 318.73,-506.37 318.73,-542.37"/>
<text text-anchor="middle" x="291.73" y="-521.87" font-family="Helvetica,sans-Serif" font-size="10.00" fill="white">yaml</text>
</g>
<!-- yaml&#45;&gt;handlers_header_header_utils -->
<g id="edge14" class="edge">
<title>yaml&#45;&gt;handlers_header_header_utils</title><style>.edge>path:hover{stroke-width:8}</style>
<path fill="none" stroke="black" d="M287.15,-506.03C278.14,-471.92 257.93,-395.44 245.71,-349.16"/>
<polygon fill="blue" stroke="black" points="249.02,-347.98 243.08,-339.21 242.25,-349.77 249.02,-347.98"/>
</g>
<!-- yaml&#45;&gt;keywords_py -->
<g id="edge15" class="edge">
<title>yaml&#45;&gt;keywords_py</title><style>.edge>path:hover{stroke-width:8}</style>
<path fill="none" stroke="black" d="M264.4,-523.68C224.33,-522.56 150.05,-514.22 109.73,-470.37 80.89,-439 84.73,-418.58 90.73,-376.39"/>
</g>
<!-- yaml_cyaml -->
<g id="node11" class="node">
<title>yaml_cyaml</title><style>.edge>path:hover{stroke-width:8}</style>
<polygon fill="blue" stroke="black" points="535.73,-614.37 461.73,-614.37 461.73,-578.37 535.73,-578.37 535.73,-614.37"/>
<text text-anchor="middle" x="498.73" y="-593.87" font-family="Helvetica,sans-Serif" font-size="10.00" fill="white">yaml.cyaml</text>
</g>
<!-- yaml_cyaml&#45;&gt;yaml -->
<g id="edge16" class="edge">
<title>yaml_cyaml&#45;&gt;yaml</title><style>.edge>path:hover{stroke-width:8}</style>
<path fill="none" stroke="black" d="M461.62,-581.53C458.61,-580.45 455.62,-579.39 452.73,-578.37 410.31,-563.56 361.21,-547.56 328.5,-537.06"/>
<polygon fill="blue" stroke="black" points="329.48,-533.7 318.89,-533.99 327.35,-540.37 329.48,-533.7"/>
</g>
<!-- yaml_dumper -->
<g id="node12" class="node">
<title>yaml_dumper</title><style>.edge>path:hover{stroke-width:8}</style>
<ellipse fill="#a253b6" stroke="black" cx="601.73" cy="-596.37" rx="48.04" ry="18"/>
<text text-anchor="middle" x="601.73" y="-593.87" font-family="Helvetica,sans-Serif" font-size="10.00" fill="#ffffff">yaml.dumper</text>
</g>
<!-- yaml_dumper&#45;&gt;yaml -->
<g id="edge17" class="edge">
<title>yaml_dumper&#45;&gt;yaml</title><style>.edge>path:hover{stroke-width:8}</style>
<path fill="none" stroke="black" d="M565.98,-584.22C558.96,-582.17 551.64,-580.12 544.73,-578.37 468.58,-559.08 378.28,-541.39 328.78,-532.13"/>
<polygon fill="#a253b6" stroke="black" points="329.33,-528.68 318.86,-530.29 328.05,-535.56 329.33,-528.68"/>
</g>
<!-- yaml_error -->
<g id="node13" class="node">
<title>yaml_error</title><style>.edge>path:hover{stroke-width:8}</style>
<ellipse fill="#a253b6" stroke="black" cx="707.73" cy="-596.37" rx="40.06" ry="18"/>
<text text-anchor="middle" x="707.73" y="-593.87" font-family="Helvetica,sans-Serif" font-size="10.00" fill="#ffffff">yaml.error</text>
</g>
<!-- yaml_error&#45;&gt;yaml -->
<g id="edge18" class="edge">
<title>yaml_error&#45;&gt;yaml</title><style>.edge>path:hover{stroke-width:8}</style>
<path fill="none" stroke="black" d="M678.2,-584.12C671.85,-581.98 665.12,-579.93 658.73,-578.37 539.98,-549.48 395.53,-534.29 328.8,-528.37"/>
<polygon fill="#a253b6" stroke="black" points="329.04,-524.88 318.77,-527.5 328.43,-531.86 329.04,-524.88"/>
</g>
<!-- yaml_events -->
<g id="node14" class="node">
<title>yaml_events</title><style>.edge>path:hover{stroke-width:8}</style>
<ellipse fill="#a253b6" stroke="black" cx="78.73" cy="-596.37" rx="45.15" ry="18"/>
<text text-anchor="middle" x="78.73" y="-593.87" font-family="Helvetica,sans-Serif" font-size="10.00" fill="#ffffff">yaml.events</text>
</g>
<!-- yaml_events&#45;&gt;yaml -->
<g id="edge19" class="edge">
<title>yaml_events&#45;&gt;yaml</title><style>.edge>path:hover{stroke-width:8}</style>
<path fill="none" stroke="black" d="M112.48,-584.28C151.3,-571.52 214.83,-550.65 254.91,-537.48"/>
<polygon fill="#a253b6" stroke="black" points="256.15,-540.75 264.56,-534.3 253.97,-534.1 256.15,-540.75"/>
</g>
<!-- yaml_loader -->
<g id="node15" class="node">
<title>yaml_loader</title><style>.edge>path:hover{stroke-width:8}</style>
<ellipse fill="#a253b6" stroke="black" cx="185.73" cy="-596.37" rx="44.3" ry="18"/>
<text text-anchor="middle" x="185.73" y="-593.87" font-family="Helvetica,sans-Serif" font-size="10.00" fill="#ffffff">yaml.loader</text>
</g>
<!-- yaml_loader&#45;&gt;yaml -->
<g id="edge20" class="edge">
<title>yaml_loader&#45;&gt;yaml</title><style>.edge>path:hover{stroke-width:8}</style>
<path fill="none" stroke="black" d="M207.95,-580.7C222.19,-571.3 240.97,-558.9 257.14,-548.22"/>
<polygon fill="#a253b6" stroke="black" points="259.39,-550.93 265.8,-542.5 255.53,-545.09 259.39,-550.93"/>
</g>
<!-- yaml_nodes -->
<g id="node16" class="node">
<title>yaml_nodes</title><style>.edge>path:hover{stroke-width:8}</style>
<ellipse fill="#a253b6" stroke="black" cx="291.73" cy="-596.37" rx="43.62" ry="18"/>
<text text-anchor="middle" x="291.73" y="-593.87" font-family="Helvetica,sans-Serif" font-size="10.00" fill="#ffffff">yaml.nodes</text>
</g>
<!-- yaml_nodes&#45;&gt;yaml -->
<g id="edge21" class="edge">
<title>yaml_nodes&#45;&gt;yaml</title><style>.edge>path:hover{stroke-width:8}</style>
<path fill="none" stroke="black" d="M291.73,-578.07C291.73,-570.36 291.73,-561.09 291.73,-552.49"/>
<polygon fill="#a253b6" stroke="black" points="295.23,-552.48 291.73,-542.48 288.23,-552.48 295.23,-552.48"/>
</g>
<!-- yaml_tokens -->
<g id="node17" class="node">
<title>yaml_tokens</title><style>.edge>path:hover{stroke-width:8}</style>
<ellipse fill="#a253b6" stroke="black" cx="398.73" cy="-596.37" rx="45.15" ry="18"/>
<text text-anchor="middle" x="398.73" y="-593.87" font-family="Helvetica,sans-Serif" font-size="10.00" fill="#ffffff">yaml.tokens</text>
</g>
<!-- yaml_tokens&#45;&gt;yaml -->
<g id="edge22" class="edge">
<title>yaml_tokens&#45;&gt;yaml</title><style>.edge>path:hover{stroke-width:8}</style>
<path fill="none" stroke="black" d="M376.3,-580.7C361.93,-571.3 342.97,-558.9 326.65,-548.22"/>
<polygon fill="#a253b6" stroke="black" points="328.19,-545.04 317.9,-542.5 324.36,-550.9 328.19,-545.04"/>
</g>
</g>
</svg>
