<?xml version="1.0" encoding="UTF-8" standalone="no"?>
<!DOCTYPE svg PUBLIC "-//W3C//DTD SVG 1.1//EN"
 "http://www.w3.org/Graphics/SVG/1.1/DTD/svg11.dtd">
<!-- Generated by graphviz version 2.43.0 (0)
 -->
<!-- Title: G Pages: 1 -->
<svg width="862pt" height="788pt"
 viewBox="0.00 0.00 861.58 788.36" xmlns="http://www.w3.org/2000/svg" xmlns:xlink="http://www.w3.org/1999/xlink">
<g id="graph0" class="graph" transform="scale(1 1) rotate(0) translate(4 784.36)">
<title>G</title><style>.edge>path:hover{stroke-width:8}</style>
<polygon fill="white" stroke="transparent" points="-4,4 -4,-784.36 857.58,-784.36 857.58,4 -4,4"/>
<!-- dotenv -->
<g id="node1" class="node">
<title>dotenv</title><style>.edge>path:hover{stroke-width:8}</style>
<ellipse fill="#b65353" stroke="black" cx="580.84" cy="-762.36" rx="29.37" ry="18"/>
<text text-anchor="middle" x="580.84" y="-759.86" font-family="Helvetica,sans-Serif" font-size="10.00" fill="#ffffff">dotenv</text>
</g>
<!-- logger_setup -->
<g id="node16" class="node">
<title>logger_setup</title><style>.edge>path:hover{stroke-width:8}</style>
<ellipse fill="#0667f9" stroke="black" cx="580.84" cy="-690.36" rx="47.19" ry="18"/>
<text text-anchor="middle" x="580.84" y="-687.86" font-family="Helvetica,sans-Serif" font-size="10.00" fill="#ffffff">logger_setup</text>
</g>
<!-- dotenv&#45;&gt;logger_setup -->
<g id="edge1" class="edge">
<title>dotenv&#45;&gt;logger_setup</title><style>.edge>path:hover{stroke-width:8}</style>
<path fill="none" stroke="black" d="M580.84,-744.05C580.84,-736.34 580.84,-727.07 580.84,-718.47"/>
<polygon fill="#b65353" stroke="black" points="584.34,-718.46 580.84,-708.46 577.34,-718.46 584.34,-718.46"/>
</g>
<!-- handlers -->
<g id="node2" class="node">
<title>handlers</title><style>.edge>path:hover{stroke-width:8}</style>
<ellipse fill="#cbf910" stroke="black" cx="566.84" cy="-130.21" rx="34.96" ry="18"/>
<text text-anchor="middle" x="566.84" y="-127.71" font-family="Helvetica,sans-Serif" font-size="10.00" fill="#000000">handlers</text>
</g>
<!-- headers_py -->
<g id="node15" class="node">
<title>headers_py</title><style>.edge>path:hover{stroke-width:8}</style>
<ellipse fill="#356348" stroke="black" cx="663.84" cy="-18" rx="41.59" ry="18"/>
<text text-anchor="middle" x="663.84" y="-15.5" font-family="Helvetica,sans-Serif" font-size="10.00" fill="#ffffff">headers.py</text>
</g>
<!-- handlers&#45;&gt;headers_py -->
<g id="edge2" class="edge">
<title>handlers&#45;&gt;headers_py</title><style>.edge>path:hover{stroke-width:8}</style>
<path fill="none" stroke="black" d="M591.59,-117.48C620.11,-103.59 663.16,-81.29 663.84,-73"/>
</g>
<!-- handlers_header -->
<g id="node3" class="node">
<title>handlers_header</title><style>.edge>path:hover{stroke-width:8}</style>
<ellipse fill="#a9c247" stroke="black" cx="663.84" cy="-130.21" rx="43.68" ry="21.43"/>
<text text-anchor="middle" x="663.84" y="-133.21" font-family="Helvetica,sans-Serif" font-size="10.00" fill="#000000">handlers.</text>
<text text-anchor="middle" x="663.84" y="-122.21" font-family="Helvetica,sans-Serif" font-size="10.00" fill="#000000">header</text>
</g>
<!-- handlers_header&#45;&gt;headers_py -->
<g id="edge3" class="edge">
<title>handlers_header&#45;&gt;headers_py</title><style>.edge>path:hover{stroke-width:8}</style>
<path fill="none" stroke="black" d="M663.03,-108.89C662.81,-98.19 662.86,-84.87 663.84,-73"/>
</g>
<!-- handlers_header_extract_yaml_header -->
<g id="node4" class="node">
<title>handlers_header_extract_yaml_header</title><style>.edge>path:hover{stroke-width:8}</style>
<ellipse fill="#7e8f3d" stroke="black" cx="592.84" cy="-216.42" rx="84.71" ry="28.98"/>
<text text-anchor="middle" x="592.84" y="-224.92" font-family="Helvetica,sans-Serif" font-size="10.00" fill="#000000">handlers.</text>
<text text-anchor="middle" x="592.84" y="-213.92" font-family="Helvetica,sans-Serif" font-size="10.00" fill="#000000">header.</text>
<text text-anchor="middle" x="592.84" y="-202.92" font-family="Helvetica,sans-Serif" font-size="10.00" fill="#000000">extract_yaml_header</text>
</g>
<!-- handlers_header_extract_yaml_header&#45;&gt;headers_py -->
<g id="edge4" class="edge">
<title>handlers_header_extract_yaml_header&#45;&gt;headers_py</title><style>.edge>path:hover{stroke-width:8}</style>
<path fill="none" stroke="black" d="M539.23,-193.79C506.17,-177.48 473.93,-154.07 495.84,-131.21"/>
</g>
<!-- handlers_header_header_utils -->
<g id="node5" class="node">
<title>handlers_header_header_utils</title><style>.edge>path:hover{stroke-width:8}</style>
<ellipse fill="#8ba135" stroke="black" cx="607.84" cy="-310.4" rx="54.39" ry="28.98"/>
<text text-anchor="middle" x="607.84" y="-318.9" font-family="Helvetica,sans-Serif" font-size="10.00" fill="#000000">handlers.</text>
<text text-anchor="middle" x="607.84" y="-307.9" font-family="Helvetica,sans-Serif" font-size="10.00" fill="#000000">header.</text>
<text text-anchor="middle" x="607.84" y="-296.9" font-family="Helvetica,sans-Serif" font-size="10.00" fill="#000000">header_utils</text>
</g>
<!-- handlers_header_header_utils&#45;&gt;handlers_header_extract_yaml_header -->
<g id="edge5" class="edge">
<title>handlers_header_header_utils&#45;&gt;handlers_header_extract_yaml_header</title><style>.edge>path:hover{stroke-width:8}</style>
<path fill="none" stroke="black" d="M603.26,-281.3C601.93,-273.18 600.46,-264.17 599.06,-255.54"/>
<polygon fill="#8ba135" stroke="black" points="602.51,-254.97 597.45,-245.66 595.6,-256.09 602.51,-254.97"/>
</g>
<!-- handlers_header_header_utils&#45;&gt;headers_py -->
<g id="edge6" class="edge">
<title>handlers_header_header_utils&#45;&gt;headers_py</title><style>.edge>path:hover{stroke-width:8}</style>
<path fill="none" stroke="black" d="M645.39,-289.22C661.27,-278.5 678.1,-263.73 686.84,-245.41 697.93,-222.15 702.99,-207.51 686.84,-187.43 631.38,-118.47 434.6,-195.09 495.84,-131.21"/>
</g>
<!-- handlers_sql -->
<g id="node6" class="node">
<title>handlers_sql</title><style>.edge>path:hover{stroke-width:8}</style>
<ellipse fill="#c0e722" stroke="black" cx="808.84" cy="-130.21" rx="44.98" ry="18"/>
<text text-anchor="middle" x="808.84" y="-127.71" font-family="Helvetica,sans-Serif" font-size="10.00" fill="#000000">handlers.sql</text>
</g>
<!-- handlers_sql&#45;&gt;headers_py -->
<g id="edge7" class="edge">
<title>handlers_sql&#45;&gt;headers_py</title><style>.edge>path:hover{stroke-width:8}</style>
<path fill="none" stroke="black" d="M776.59,-117.57C733.79,-102 663.59,-75.99 663.84,-73"/>
</g>
<!-- handlers_sql_db_connection -->
<g id="node7" class="node">
<title>handlers_sql_db_connection</title><style>.edge>path:hover{stroke-width:8}</style>
<ellipse fill="#aecc33" stroke="black" cx="310.84" cy="-498.37" rx="61.54" ry="28.98"/>
<text text-anchor="middle" x="310.84" y="-506.87" font-family="Helvetica,sans-Serif" font-size="10.00" fill="#000000">handlers.</text>
<text text-anchor="middle" x="310.84" y="-495.87" font-family="Helvetica,sans-Serif" font-size="10.00" fill="#000000">sql.</text>
<text text-anchor="middle" x="310.84" y="-484.87" font-family="Helvetica,sans-Serif" font-size="10.00" fill="#000000">db_connection</text>
</g>
<!-- handlers_sql_db_get_linked_data -->
<g id="node8" class="node">
<title>handlers_sql_db_get_linked_data</title><style>.edge>path:hover{stroke-width:8}</style>
<ellipse fill="#8ba135" stroke="black" cx="115.84" cy="-310.4" rx="78.48" ry="28.98"/>
<text text-anchor="middle" x="115.84" y="-318.9" font-family="Helvetica,sans-Serif" font-size="10.00" fill="#000000">handlers.</text>
<text text-anchor="middle" x="115.84" y="-307.9" font-family="Helvetica,sans-Serif" font-size="10.00" fill="#000000">sql.</text>
<text text-anchor="middle" x="115.84" y="-296.9" font-family="Helvetica,sans-Serif" font-size="10.00" fill="#000000">db_get_linked_data</text>
</g>
<!-- handlers_sql_db_connection&#45;&gt;handlers_sql_db_get_linked_data -->
<g id="edge8" class="edge">
<title>handlers_sql_db_connection&#45;&gt;handlers_sql_db_get_linked_data</title><style>.edge>path:hover{stroke-width:8}</style>
<path fill="none" stroke="black" d="M263.43,-479.84C253.96,-476.36 244.09,-472.74 234.84,-469.37 190.46,-453.21 172.16,-462.34 134.84,-433.37 122.96,-424.16 124.32,-417.8 115.84,-405.38"/>
<path fill="none" stroke="black" d="M115.84,-403.38C105.31,-387.95 104.4,-367.4 106.53,-349.64"/>
<polygon fill="#aecc33" stroke="black" points="110.02,-349.98 108.08,-339.57 103.1,-348.92 110.02,-349.98"/>
</g>
<!-- handlers_sql_db_update_notes -->
<g id="node10" class="node">
<title>handlers_sql_db_update_notes</title><style>.edge>path:hover{stroke-width:8}</style>
<ellipse fill="#8b9d43" stroke="black" cx="214.84" cy="-404.38" rx="70.92" ry="28.98"/>
<text text-anchor="middle" x="214.84" y="-412.88" font-family="Helvetica,sans-Serif" font-size="10.00" fill="#000000">handlers.</text>
<text text-anchor="middle" x="214.84" y="-401.88" font-family="Helvetica,sans-Serif" font-size="10.00" fill="#000000">sql.</text>
<text text-anchor="middle" x="214.84" y="-390.88" font-family="Helvetica,sans-Serif" font-size="10.00" fill="#000000">db_update_notes</text>
</g>
<!-- handlers_sql_db_connection&#45;&gt;handlers_sql_db_update_notes -->
<g id="edge9" class="edge">
<title>handlers_sql_db_connection&#45;&gt;handlers_sql_db_update_notes</title><style>.edge>path:hover{stroke-width:8}</style>
<path fill="none" stroke="black" d="M284.35,-471.99C273.52,-461.61 260.84,-449.46 249.3,-438.4"/>
<polygon fill="#aecc33" stroke="black" points="251.55,-435.71 241.91,-431.32 246.71,-440.76 251.55,-435.71"/>
</g>
<!-- handlers_sql_db_utils -->
<g id="node11" class="node">
<title>handlers_sql_db_utils</title><style>.edge>path:hover{stroke-width:8}</style>
<ellipse fill="#8b9d43" stroke="black" cx="43.84" cy="-404.38" rx="43.68" ry="28.98"/>
<text text-anchor="middle" x="43.84" y="-412.88" font-family="Helvetica,sans-Serif" font-size="10.00" fill="#000000">handlers.</text>
<text text-anchor="middle" x="43.84" y="-401.88" font-family="Helvetica,sans-Serif" font-size="10.00" fill="#000000">sql.</text>
<text text-anchor="middle" x="43.84" y="-390.88" font-family="Helvetica,sans-Serif" font-size="10.00" fill="#000000">db_utils</text>
</g>
<!-- handlers_sql_db_connection&#45;&gt;handlers_sql_db_utils -->
<g id="edge10" class="edge">
<title>handlers_sql_db_connection&#45;&gt;handlers_sql_db_utils</title><style>.edge>path:hover{stroke-width:8}</style>
<path fill="none" stroke="black" d="M264.04,-479.39C254.43,-475.91 244.35,-472.41 234.84,-469.37 176.5,-450.77 159.22,-454.77 101.84,-433.37 96.99,-431.57 91.99,-429.49 87.07,-427.32"/>
<polygon fill="#aecc33" stroke="black" points="88.28,-424.02 77.73,-423.03 85.36,-430.38 88.28,-424.02"/>
</g>
<!-- handlers_sql_db_get_linked_notes_utils -->
<g id="node9" class="node">
<title>handlers_sql_db_get_linked_notes_utils</title><style>.edge>path:hover{stroke-width:8}</style>
<ellipse fill="#8b9d43" stroke="black" cx="350.84" cy="-216.42" rx="101.23" ry="28.98"/>
<text text-anchor="middle" x="350.84" y="-224.92" font-family="Helvetica,sans-Serif" font-size="10.00" fill="#000000">handlers.</text>
<text text-anchor="middle" x="350.84" y="-213.92" font-family="Helvetica,sans-Serif" font-size="10.00" fill="#000000">sql.</text>
<text text-anchor="middle" x="350.84" y="-202.92" font-family="Helvetica,sans-Serif" font-size="10.00" fill="#000000">db_get_linked_notes_utils</text>
</g>
<!-- handlers_sql_db_get_linked_data&#45;&gt;handlers_sql_db_get_linked_notes_utils -->
<g id="edge11" class="edge">
<title>handlers_sql_db_get_linked_data&#45;&gt;handlers_sql_db_get_linked_notes_utils</title><style>.edge>path:hover{stroke-width:8}</style>
<path fill="none" stroke="black" d="M168.58,-288.76C202.37,-275.53 246.55,-258.24 282.95,-243.99"/>
<polygon fill="#8ba135" stroke="black" points="284.47,-247.16 292.51,-240.25 281.92,-240.64 284.47,-247.16"/>
</g>
<!-- handlers_sql_db_get_linked_data&#45;&gt;headers_py -->
<g id="edge12" class="edge">
<title>handlers_sql_db_get_linked_data&#45;&gt;headers_py</title><style>.edge>path:hover{stroke-width:8}</style>
<path fill="none" stroke="black" d="M145.09,-283.09C166.12,-264.39 195.34,-238.9 221.84,-217.42"/>
<path fill="none" stroke="black" d="M221.84,-215.42C233.52,-205.95 228.39,-195.86 240.84,-187.43 336.9,-122.31 414.3,-213.79 495.84,-131.21"/>
<path fill="none" stroke="black" d="M495.84,-129.21C506.37,-118.55 509.32,-115.47 522.84,-109 581.18,-81.08 658.52,-137.46 663.84,-73"/>
<path fill="none" stroke="black" d="M663.84,-72C664.53,-63.71 664.73,-54.67 664.7,-46.44"/>
<polygon fill="#8ba135" stroke="black" points="668.2,-46.16 664.56,-36.22 661.2,-46.26 668.2,-46.16"/>
</g>
<!-- handlers_sql_db_get_linked_notes_utils&#45;&gt;headers_py -->
<g id="edge13" class="edge">
<title>handlers_sql_db_get_linked_notes_utils&#45;&gt;headers_py</title><style>.edge>path:hover{stroke-width:8}</style>
<path fill="none" stroke="black" d="M406.81,-192.13C436.06,-177.84 470.86,-157.27 495.84,-131.21"/>
</g>
<!-- handlers_sql_db_update_notes&#45;&gt;headers_py -->
<g id="edge14" class="edge">
<title>handlers_sql_db_update_notes&#45;&gt;headers_py</title><style>.edge>path:hover{stroke-width:8}</style>
<path fill="none" stroke="black" d="M211.11,-375.41C205.57,-328.35 198.18,-236.59 221.84,-217.42"/>
</g>
<!-- handlers_sql_db_utils&#45;&gt;handlers_sql_db_get_linked_data -->
<g id="edge15" class="edge">
<title>handlers_sql_db_utils&#45;&gt;handlers_sql_db_get_linked_data</title><style>.edge>path:hover{stroke-width:8}</style>
<path fill="none" stroke="black" d="M63.51,-378.25C71.21,-368.41 80.17,-356.97 88.48,-346.35"/>
<polygon fill="#8b9d43" stroke="black" points="91.27,-348.47 94.68,-338.44 85.76,-344.16 91.27,-348.47"/>
</g>
<!-- handlers_utils -->
<g id="node12" class="node">
<title>handlers_utils</title><style>.edge>path:hover{stroke-width:8}</style>
<ellipse fill="#b1ce3b" stroke="black" cx="743.84" cy="-498.37" rx="48.72" ry="18"/>
<text text-anchor="middle" x="743.84" y="-495.87" font-family="Helvetica,sans-Serif" font-size="10.00" fill="#000000">handlers.utils</text>
</g>
<!-- handlers_utils&#45;&gt;handlers_header_extract_yaml_header -->
<g id="edge16" class="edge">
<title>handlers_utils&#45;&gt;handlers_header_extract_yaml_header</title><style>.edge>path:hover{stroke-width:8}</style>
<path fill="none" stroke="black" d="M743.84,-403.38C731.25,-364.49 757.41,-349.96 743.84,-311.4"/>
<path fill="none" stroke="black" d="M743.84,-309.4C731.88,-275.4 699.12,-253.24 667.17,-239.21"/>
<polygon fill="#b1ce3b" stroke="black" points="668.33,-235.9 657.75,-235.29 665.64,-242.37 668.33,-235.9"/>
</g>
<!-- handlers_utils&#45;&gt;handlers_header_header_utils -->
<g id="edge17" class="edge">
<title>handlers_utils&#45;&gt;handlers_header_header_utils</title><style>.edge>path:hover{stroke-width:8}</style>
<path fill="none" stroke="black" d="M746.92,-480.26C749.61,-461.42 751.96,-430.45 743.84,-405.38"/>
<path fill="none" stroke="black" d="M743.84,-403.38C732.13,-367.22 695.72,-343.78 663.52,-329.61"/>
<polygon fill="#b1ce3b" stroke="black" points="664.72,-326.32 654.14,-325.69 662.01,-332.77 664.72,-326.32"/>
</g>
<!-- handlers_utils&#45;&gt;headers_py -->
<g id="edge18" class="edge">
<title>handlers_utils&#45;&gt;headers_py</title><style>.edge>path:hover{stroke-width:8}</style>
<path fill="none" stroke="black" d="M743.84,-309.4C714.01,-224.63 764.12,-185.43 716.84,-109 701.86,-84.78 661.5,-101.38 663.84,-73"/>
</g>
<!-- handlers_utils_files -->
<g id="node13" class="node">
<title>handlers_utils_files</title><style>.edge>path:hover{stroke-width:8}</style>
<ellipse fill="#aecc33" stroke="black" cx="487.84" cy="-498.37" rx="43.68" ry="28.98"/>
<text text-anchor="middle" x="487.84" y="-506.87" font-family="Helvetica,sans-Serif" font-size="10.00" fill="#000000">handlers.</text>
<text text-anchor="middle" x="487.84" y="-495.87" font-family="Helvetica,sans-Serif" font-size="10.00" fill="#000000">utils.</text>
<text text-anchor="middle" x="487.84" y="-484.87" font-family="Helvetica,sans-Serif" font-size="10.00" fill="#000000">files</text>
</g>
<!-- handlers_utils_files&#45;&gt;handlers_header_extract_yaml_header -->
<g id="edge19" class="edge">
<title>handlers_utils_files&#45;&gt;handlers_header_extract_yaml_header</title><style>.edge>path:hover{stroke-width:8}</style>
<path fill="none" stroke="black" d="M513.91,-474.93C531.64,-457.88 553.66,-432.76 563.84,-405.38"/>
<path fill="none" stroke="black" d="M563.84,-403.38C579.25,-361.92 516.62,-354.66 525.84,-311.4"/>
</g>
<!-- handlers_utils_files&#45;&gt;handlers_header_header_utils -->
<g id="edge20" class="edge">
<title>handlers_utils_files&#45;&gt;handlers_header_header_utils</title><style>.edge>path:hover{stroke-width:8}</style>
<path fill="none" stroke="black" d="M563.84,-403.38C570.8,-384.66 580.18,-364.57 588.48,-347.95"/>
<polygon fill="#aecc33" stroke="black" points="591.82,-349.11 593.23,-338.61 585.58,-345.94 591.82,-349.11"/>
</g>
<!-- handlers_utils_files&#45;&gt;headers_py -->
<g id="edge21" class="edge">
<title>handlers_utils_files&#45;&gt;headers_py</title><style>.edge>path:hover{stroke-width:8}</style>
<path fill="none" stroke="black" d="M484.73,-469.25C483.46,-450.87 483.2,-426.44 487.84,-405.38"/>
</g>
<!-- handlers_utils_normalization -->
<g id="node14" class="node">
<title>handlers_utils_normalization</title><style>.edge>path:hover{stroke-width:8}</style>
<ellipse fill="#9eb34c" stroke="black" cx="400.84" cy="-404.38" rx="59.29" ry="28.98"/>
<text text-anchor="middle" x="400.84" y="-412.88" font-family="Helvetica,sans-Serif" font-size="10.00" fill="#000000">handlers.</text>
<text text-anchor="middle" x="400.84" y="-401.88" font-family="Helvetica,sans-Serif" font-size="10.00" fill="#000000">utils.</text>
<text text-anchor="middle" x="400.84" y="-390.88" font-family="Helvetica,sans-Serif" font-size="10.00" fill="#000000">normalization</text>
</g>
<!-- handlers_utils_normalization&#45;&gt;headers_py -->
<g id="edge22" class="edge">
<title>handlers_utils_normalization&#45;&gt;headers_py</title><style>.edge>path:hover{stroke-width:8}</style>
<path fill="none" stroke="black" d="M436.85,-381.1C458.43,-364.96 482.66,-340.84 487.84,-311.4"/>
<path fill="none" stroke="black" d="M487.84,-309.4C501.59,-231.33 440.14,-187.62 495.84,-131.21"/>
</g>
<!-- logger_setup&#45;&gt;handlers_header_extract_yaml_header -->
<g id="edge23" class="edge">
<title>logger_setup&#45;&gt;handlers_header_extract_yaml_header</title><style>.edge>path:hover{stroke-width:8}</style>
<path fill="none" stroke="black" d="M400.84,-497.37C395.52,-478.53 418.59,-480.28 434.84,-469.37 462.91,-450.54 481.76,-460.57 501.84,-433.37 534.66,-388.93 514.33,-365.44 525.84,-311.4"/>
<path fill="none" stroke="black" d="M525.84,-309.4C531.32,-287.84 544.93,-267.46 558.47,-251.38"/>
<polygon fill="#0667f9" stroke="black" points="561.12,-253.68 565.08,-243.85 555.85,-249.06 561.12,-253.68"/>
</g>
<!-- logger_setup&#45;&gt;handlers_header_header_utils -->
<g id="edge24" class="edge">
<title>logger_setup&#45;&gt;handlers_header_header_utils</title><style>.edge>path:hover{stroke-width:8}</style>
<path fill="none" stroke="black" d="M580.84,-635.36C551.17,-582.7 565.92,-557.94 580.84,-499.37"/>
</g>
<!-- logger_setup&#45;&gt;handlers_sql_db_connection -->
<g id="edge25" class="edge">
<title>logger_setup&#45;&gt;handlers_sql_db_connection</title><style>.edge>path:hover{stroke-width:8}</style>
<path fill="none" stroke="black" d="M400.84,-580.36C381.89,-565.01 361.63,-546.94 345.14,-531.77"/>
<polygon fill="#0667f9" stroke="black" points="347.09,-528.8 337.37,-524.58 342.33,-533.94 347.09,-528.8"/>
</g>
<!-- logger_setup&#45;&gt;handlers_sql_db_get_linked_data -->
<g id="edge26" class="edge">
<title>logger_setup&#45;&gt;handlers_sql_db_get_linked_data</title><style>.edge>path:hover{stroke-width:8}</style>
<path fill="none" stroke="black" d="M400.84,-580.36C372.12,-558.65 410.62,-534.01 400.84,-499.37"/>
<path fill="none" stroke="black" d="M400.84,-497.37C367.69,-379.96 192.68,-469.6 134.84,-433.37 122.1,-425.39 124.32,-417.8 115.84,-405.38"/>
</g>
<!-- logger_setup&#45;&gt;handlers_sql_db_get_linked_notes_utils -->
<g id="edge27" class="edge">
<title>logger_setup&#45;&gt;handlers_sql_db_get_linked_notes_utils</title><style>.edge>path:hover{stroke-width:8}</style>
<path fill="none" stroke="black" d="M400.84,-497.37C396.62,-482.94 392.27,-480.2 381.84,-469.37 363.09,-449.91 345.05,-457.49 332.84,-433.37 304.01,-376.42 321.3,-300.1 336.24,-255.1"/>
<polygon fill="#0667f9" stroke="black" points="339.62,-256.05 339.57,-245.45 333,-253.76 339.62,-256.05"/>
</g>
<!-- logger_setup&#45;&gt;handlers_sql_db_update_notes -->
<g id="edge28" class="edge">
<title>logger_setup&#45;&gt;handlers_sql_db_update_notes</title><style>.edge>path:hover{stroke-width:8}</style>
<path fill="none" stroke="black" d="M400.84,-497.37C396.76,-482.9 393.62,-478.71 381.84,-469.37 373.03,-462.39 320.71,-442.82 276.95,-427.14"/>
<polygon fill="#0667f9" stroke="black" points="278.07,-423.83 267.47,-423.76 275.71,-430.42 278.07,-423.83"/>
</g>
<!-- logger_setup&#45;&gt;handlers_sql_db_utils -->
<g id="edge29" class="edge">
<title>logger_setup&#45;&gt;handlers_sql_db_utils</title><style>.edge>path:hover{stroke-width:8}</style>
<path fill="none" stroke="black" d="M584.96,-672.04C586.61,-661.12 586.89,-647.1 580.84,-636.36"/>
<path fill="none" stroke="black" d="M580.84,-635.36C539.9,-562.7 465.66,-634.83 400.84,-582.36"/>
<path fill="none" stroke="black" d="M400.84,-580.36C342.29,-532.96 308.08,-559.26 239.84,-527.36 181.62,-500.13 119.42,-459.15 81.08,-432.33"/>
<polygon fill="#0667f9" stroke="black" points="83,-429.4 72.81,-426.5 78.97,-435.12 83,-429.4"/>
</g>
<!-- logger_setup&#45;&gt;handlers_utils_files -->
<g id="edge30" class="edge">
<title>logger_setup&#45;&gt;handlers_utils_files</title><style>.edge>path:hover{stroke-width:8}</style>
<path fill="none" stroke="black" d="M400.84,-580.36C376.87,-560.95 410.54,-536.6 442.71,-519.69"/>
<polygon fill="#0667f9" stroke="black" points="444.37,-522.78 451.7,-515.13 441.2,-516.54 444.37,-522.78"/>
</g>
<!-- logger_setup&#45;&gt;handlers_utils_normalization -->
<g id="edge31" class="edge">
<title>logger_setup&#45;&gt;handlers_utils_normalization</title><style>.edge>path:hover{stroke-width:8}</style>
<path fill="none" stroke="black" d="M400.84,-497.37C395.99,-480.18 395.38,-460.47 396.22,-443.71"/>
<polygon fill="#0667f9" stroke="black" points="399.72,-443.92 396.91,-433.7 392.73,-443.44 399.72,-443.92"/>
</g>
<!-- logger_setup&#45;&gt;headers_py -->
<g id="edge32" class="edge">
<title>logger_setup&#45;&gt;headers_py</title><style>.edge>path:hover{stroke-width:8}</style>
<path fill="none" stroke="black" d="M400.84,-497.37C385.45,-443.24 475.74,-460.34 487.84,-405.38"/>
<path fill="none" stroke="black" d="M487.84,-403.38C496.63,-363.46 480.96,-351.7 487.84,-311.4"/>
</g>
<!-- yaml -->
<g id="node17" class="node">
<title>yaml</title><style>.edge>path:hover{stroke-width:8}</style>
<ellipse fill="#a253b6" stroke="black" cx="525.84" cy="-581.36" rx="27" ry="18"/>
<text text-anchor="middle" x="525.84" y="-578.86" font-family="Helvetica,sans-Serif" font-size="10.00" fill="#ffffff">yaml</text>
</g>
<!-- yaml&#45;&gt;handlers_header_header_utils -->
<g id="edge33" class="edge">
<title>yaml&#45;&gt;handlers_header_header_utils</title><style>.edge>path:hover{stroke-width:8}</style>
<path fill="none" stroke="black" d="M540.18,-565.79C553.92,-550.66 573.59,-525.58 580.84,-499.37"/>
<path fill="none" stroke="black" d="M580.84,-497.37C594.68,-447.36 601.74,-387.71 605.11,-349.7"/>
<polygon fill="#a253b6" stroke="black" points="608.61,-349.84 605.96,-339.58 601.63,-349.25 608.61,-349.84"/>
</g>
</g>
</svg>
