<?xml version="1.0" encoding="UTF-8" standalone="no"?>
<!DOCTYPE svg PUBLIC "-//W3C//DTD SVG 1.1//EN"
 "http://www.w3.org/Graphics/SVG/1.1/DTD/svg11.dtd">
<!-- Generated by graphviz version 2.43.0 (0)
 -->
<!-- Title: G Pages: 1 -->
<svg width="376pt" height="644pt"
 viewBox="0.00 0.00 375.95 643.82" xmlns="http://www.w3.org/2000/svg" xmlns:xlink="http://www.w3.org/1999/xlink">
<g id="graph0" class="graph" transform="scale(1 1) rotate(0) translate(4 639.82)">
<title>G</title><style>.edge>path:hover{stroke-width:8}</style>
<polygon fill="white" stroke="transparent" points="-4,4 -4,-639.82 371.95,-639.82 371.95,4 -4,4"/>
<!-- dotenv -->
<g id="node1" class="node">
<title>dotenv</title><style>.edge>path:hover{stroke-width:8}</style>
<ellipse fill="#b65353" stroke="black" cx="320.86" cy="-617.82" rx="29.37" ry="18"/>
<text text-anchor="middle" x="320.86" y="-615.32" font-family="Helvetica,sans-Serif" font-size="10.00" fill="#ffffff">dotenv</text>
</g>
<!-- logger_setup -->
<g id="node8" class="node">
<title>logger_setup</title><style>.edge>path:hover{stroke-width:8}</style>
<ellipse fill="#3370cc" stroke="black" cx="320.86" cy="-545.82" rx="47.19" ry="18"/>
<text text-anchor="middle" x="320.86" y="-543.32" font-family="Helvetica,sans-Serif" font-size="10.00" fill="#ffffff">logger_setup</text>
</g>
<!-- dotenv&#45;&gt;logger_setup -->
<g id="edge1" class="edge">
<title>dotenv&#45;&gt;logger_setup</title><style>.edge>path:hover{stroke-width:8}</style>
<path fill="none" stroke="black" d="M320.86,-599.51C320.86,-591.8 320.86,-582.53 320.86,-573.93"/>
<polygon fill="#b65353" stroke="black" points="324.36,-573.92 320.86,-563.92 317.36,-573.92 324.36,-573.92"/>
</g>
<!-- extract_yaml_header_py -->
<g id="node2" class="node">
<title>extract_yaml_header_py</title><style>.edge>path:hover{stroke-width:8}</style>
<ellipse fill="#788547" stroke="black" cx="202.86" cy="-21.21" rx="86.03" ry="21.43"/>
<text text-anchor="middle" x="202.86" y="-24.21" font-family="Helvetica,sans-Serif" font-size="10.00" fill="#ffffff">extract_yaml_header.</text>
<text text-anchor="middle" x="202.86" y="-13.21" font-family="Helvetica,sans-Serif" font-size="10.00" fill="#ffffff">py</text>
</g>
<!-- handlers -->
<g id="node3" class="node">
<title>handlers</title><style>.edge>path:hover{stroke-width:8}</style>
<ellipse fill="#47c278" stroke="black" cx="69.86" cy="-136.64" rx="34.96" ry="18"/>
<text text-anchor="middle" x="69.86" y="-134.14" font-family="Helvetica,sans-Serif" font-size="10.00" fill="#000000">handlers</text>
</g>
<!-- handlers&#45;&gt;extract_yaml_header_py -->
<g id="edge2" class="edge">
<title>handlers&#45;&gt;extract_yaml_header_py</title><style>.edge>path:hover{stroke-width:8}</style>
<path fill="none" stroke="black" d="M94.9,-123.89C101.07,-121.07 107.68,-118.09 113.86,-115.43 153.03,-98.52 189.13,-119.83 202.86,-79.43"/>
<path fill="none" stroke="black" d="M202.86,-78.43C205.63,-70.28 206.49,-61.08 206.43,-52.51"/>
<polygon fill="#47c278" stroke="black" points="209.92,-52.32 205.96,-42.5 202.93,-52.65 209.92,-52.32"/>
</g>
<!-- handlers_header -->
<g id="node4" class="node">
<title>handlers_header</title><style>.edge>path:hover{stroke-width:8}</style>
<ellipse fill="#53b67b" stroke="black" cx="166.86" cy="-136.64" rx="43.68" ry="21.43"/>
<text text-anchor="middle" x="166.86" y="-139.64" font-family="Helvetica,sans-Serif" font-size="10.00" fill="#000000">handlers.</text>
<text text-anchor="middle" x="166.86" y="-128.64" font-family="Helvetica,sans-Serif" font-size="10.00" fill="#000000">header</text>
</g>
<!-- handlers_header&#45;&gt;extract_yaml_header_py -->
<g id="edge3" class="edge">
<title>handlers_header&#45;&gt;extract_yaml_header_py</title><style>.edge>path:hover{stroke-width:8}</style>
<path fill="none" stroke="black" d="M182.39,-116.56C189.92,-106.21 198.31,-92.81 202.86,-79.43"/>
</g>
<!-- handlers_header_header_utils -->
<g id="node5" class="node">
<title>handlers_header_header_utils</title><style>.edge>path:hover{stroke-width:8}</style>
<ellipse fill="#409662" stroke="black" cx="238.86" cy="-222.84" rx="54.39" ry="28.98"/>
<text text-anchor="middle" x="238.86" y="-231.34" font-family="Helvetica,sans-Serif" font-size="10.00" fill="#ffffff">handlers.</text>
<text text-anchor="middle" x="238.86" y="-220.34" font-family="Helvetica,sans-Serif" font-size="10.00" fill="#ffffff">header.</text>
<text text-anchor="middle" x="238.86" y="-209.34" font-family="Helvetica,sans-Serif" font-size="10.00" fill="#ffffff">header_utils</text>
</g>
<!-- handlers_header_header_utils&#45;&gt;extract_yaml_header_py -->
<g id="edge4" class="edge">
<title>handlers_header_header_utils&#45;&gt;extract_yaml_header_py</title><style>.edge>path:hover{stroke-width:8}</style>
<path fill="none" stroke="black" d="M242.69,-193.62C244.01,-177.01 244.05,-155.77 238.86,-137.64"/>
</g>
<!-- handlers_utils -->
<g id="node6" class="node">
<title>handlers_utils</title><style>.edge>path:hover{stroke-width:8}</style>
<ellipse fill="#47c278" stroke="black" cx="48.86" cy="-353.83" rx="48.72" ry="18"/>
<text text-anchor="middle" x="48.86" y="-351.33" font-family="Helvetica,sans-Serif" font-size="10.00" fill="#000000">handlers.utils</text>
</g>
<!-- handlers_utils&#45;&gt;extract_yaml_header_py -->
<g id="edge5" class="edge">
<title>handlers_utils&#45;&gt;extract_yaml_header_py</title><style>.edge>path:hover{stroke-width:8}</style>
<path fill="none" stroke="black" d="M76.99,-339.04C108.86,-323.07 156.81,-297.78 159.86,-288.84"/>
<path fill="none" stroke="black" d="M159.86,-287.84C173.53,-247.73 154.55,-230.48 175.86,-193.85 194.73,-161.42 249.19,-173.72 238.86,-137.64"/>
<path fill="none" stroke="black" d="M238.86,-135.64C229.98,-107.33 193.32,-107.52 202.86,-79.43"/>
</g>
<!-- handlers_utils&#45;&gt;handlers_header_header_utils -->
<g id="edge6" class="edge">
<title>handlers_utils&#45;&gt;handlers_header_header_utils</title><style>.edge>path:hover{stroke-width:8}</style>
<path fill="none" stroke="black" d="M75.57,-338.7C85.26,-333.91 96.39,-328.77 106.86,-324.84 162.97,-303.72 209.09,-341.97 236.86,-288.84"/>
<path fill="none" stroke="black" d="M236.86,-287.84C240.93,-280.05 242.68,-270.97 243.15,-262.13"/>
<polygon fill="#47c278" stroke="black" points="246.65,-261.98 243.18,-251.97 239.65,-261.96 246.65,-261.98"/>
</g>
<!-- handlers_utils_files -->
<g id="node7" class="node">
<title>handlers_utils_files</title><style>.edge>path:hover{stroke-width:8}</style>
<ellipse fill="#40c073" stroke="black" cx="159.86" cy="-353.83" rx="43.68" ry="28.98"/>
<text text-anchor="middle" x="159.86" y="-362.33" font-family="Helvetica,sans-Serif" font-size="10.00" fill="#000000">handlers.</text>
<text text-anchor="middle" x="159.86" y="-351.33" font-family="Helvetica,sans-Serif" font-size="10.00" fill="#000000">utils.</text>
<text text-anchor="middle" x="159.86" y="-340.33" font-family="Helvetica,sans-Serif" font-size="10.00" fill="#000000">files</text>
</g>
<!-- handlers_utils_files&#45;&gt;extract_yaml_header_py -->
<g id="edge7" class="edge">
<title>handlers_utils_files&#45;&gt;extract_yaml_header_py</title><style>.edge>path:hover{stroke-width:8}</style>
<path fill="none" stroke="black" d="M155.98,-324.78C155.38,-313.36 155.99,-300.19 159.86,-288.84"/>
</g>
<!-- handlers_utils_files&#45;&gt;handlers_header_header_utils -->
<g id="edge8" class="edge">
<title>handlers_utils_files&#45;&gt;handlers_header_header_utils</title><style>.edge>path:hover{stroke-width:8}</style>
<path fill="none" stroke="black" d="M192.59,-334.3C208.79,-323.3 226.95,-307.78 236.86,-288.84"/>
</g>
<!-- logger_setup&#45;&gt;extract_yaml_header_py -->
<g id="edge9" class="edge">
<title>logger_setup&#45;&gt;extract_yaml_header_py</title><style>.edge>path:hover{stroke-width:8}</style>
<path fill="none" stroke="black" d="M320.86,-287.84C308.47,-247.06 323.07,-230.82 301.86,-193.85 283.18,-161.3 250.09,-173.45 238.86,-137.64"/>
</g>
<!-- logger_setup&#45;&gt;handlers_header_header_utils -->
<g id="edge10" class="edge">
<title>logger_setup&#45;&gt;handlers_header_header_utils</title><style>.edge>path:hover{stroke-width:8}</style>
<path fill="none" stroke="black" d="M320.86,-490.82C286.89,-407.72 345.64,-375.12 320.86,-288.84"/>
<path fill="none" stroke="black" d="M320.86,-287.84C315.73,-270.94 302.55,-257.61 288.22,-247.59"/>
<polygon fill="#3370cc" stroke="black" points="290,-244.57 279.7,-242.07 286.19,-250.45 290,-244.57"/>
</g>
<!-- logger_setup&#45;&gt;handlers_utils_files -->
<g id="edge11" class="edge">
<title>logger_setup&#45;&gt;handlers_utils_files</title><style>.edge>path:hover{stroke-width:8}</style>
<path fill="none" stroke="black" d="M324.15,-527.45C325.39,-516.77 325.53,-503.03 320.86,-491.82"/>
<path fill="none" stroke="black" d="M320.86,-490.82C304.12,-450.67 263.99,-481.77 229.86,-454.82 208.13,-437.66 190.34,-411.97 178.14,-390.92"/>
<polygon fill="#3370cc" stroke="black" points="181.04,-388.94 173.09,-381.93 174.93,-392.36 181.04,-388.94"/>
</g>
<!-- yaml -->
<g id="node9" class="node">
<title>yaml</title><style>.edge>path:hover{stroke-width:8}</style>
<ellipse fill="#a253b6" stroke="black" cx="265.86" cy="-436.82" rx="27" ry="18"/>
<text text-anchor="middle" x="265.86" y="-434.32" font-family="Helvetica,sans-Serif" font-size="10.00" fill="#ffffff">yaml</text>
</g>
<!-- yaml&#45;&gt;handlers_header_header_utils -->
<g id="edge12" class="edge">
<title>yaml&#45;&gt;handlers_header_header_utils</title><style>.edge>path:hover{stroke-width:8}</style>
<path fill="none" stroke="black" d="M256.26,-419.84C240.75,-391.75 214.09,-332.4 236.86,-288.84"/>
</g>
</g>
</svg>
