<?xml version="1.0" encoding="UTF-8" standalone="no"?>
<!DOCTYPE svg PUBLIC "-//W3C//DTD SVG 1.1//EN"
 "http://www.w3.org/Graphics/SVG/1.1/DTD/svg11.dtd">
<!-- Generated by graphviz version 2.43.0 (0)
 -->
<!-- Title: G Pages: 1 -->
<svg width="461pt" height="788pt"
 viewBox="0.00 0.00 460.92 788.36" xmlns="http://www.w3.org/2000/svg" xmlns:xlink="http://www.w3.org/1999/xlink">
<g id="graph0" class="graph" transform="scale(1 1) rotate(0) translate(4 784.36)">
<title>G</title><style>.edge>path:hover{stroke-width:8}</style>
<polygon fill="white" stroke="transparent" points="-4,4 -4,-784.36 456.92,-784.36 456.92,4 -4,4"/>
<!-- dotenv -->
<g id="node1" class="node">
<title>dotenv</title><style>.edge>path:hover{stroke-width:8}</style>
<ellipse fill="#b65353" stroke="black" cx="352.86" cy="-762.36" rx="29.37" ry="18"/>
<text text-anchor="middle" x="352.86" y="-759.86" font-family="Helvetica,sans-Serif" font-size="10.00" fill="#ffffff">dotenv</text>
</g>
<!-- logger_setup -->
<g id="node9" class="node">
<title>logger_setup</title><style>.edge>path:hover{stroke-width:8}</style>
<ellipse fill="#19e66b" stroke="black" cx="352.86" cy="-690.36" rx="47.19" ry="18"/>
<text text-anchor="middle" x="352.86" y="-687.86" font-family="Helvetica,sans-Serif" font-size="10.00" fill="#000000">logger_setup</text>
</g>
<!-- dotenv&#45;&gt;logger_setup -->
<g id="edge1" class="edge">
<title>dotenv&#45;&gt;logger_setup</title><style>.edge>path:hover{stroke-width:8}</style>
<path fill="none" stroke="black" d="M352.86,-744.05C352.86,-736.34 352.86,-727.07 352.86,-718.47"/>
<polygon fill="#b65353" stroke="black" points="356.36,-718.46 352.86,-708.46 349.36,-718.46 356.36,-718.46"/>
</g>
<!-- handlers -->
<g id="node2" class="node">
<title>handlers</title><style>.edge>path:hover{stroke-width:8}</style>
<ellipse fill="#b1ce3b" stroke="black" cx="165.86" cy="-130.21" rx="34.96" ry="18"/>
<text text-anchor="middle" x="165.86" y="-127.71" font-family="Helvetica,sans-Serif" font-size="10.00" fill="#000000">handlers</text>
</g>
<!-- yaml_read_py -->
<g id="node11" class="node">
<title>yaml_read_py</title><style>.edge>path:hover{stroke-width:8}</style>
<ellipse fill="#6c4077" stroke="black" cx="298.86" cy="-18" rx="48.72" ry="18"/>
<text text-anchor="middle" x="298.86" y="-15.5" font-family="Helvetica,sans-Serif" font-size="10.00" fill="#ffffff">yaml_read.py</text>
</g>
<!-- handlers&#45;&gt;yaml_read_py -->
<g id="edge2" class="edge">
<title>handlers&#45;&gt;yaml_read_py</title><style>.edge>path:hover{stroke-width:8}</style>
<path fill="none" stroke="black" d="M190.9,-117.47C197.07,-114.64 203.68,-111.67 209.86,-109 249.03,-92.09 285.13,-113.4 298.86,-73"/>
<path fill="none" stroke="black" d="M298.86,-72C301.61,-63.91 302.36,-54.72 302.21,-46.29"/>
<polygon fill="#b1ce3b" stroke="black" points="305.69,-45.94 301.61,-36.16 298.71,-46.35 305.69,-45.94"/>
</g>
<!-- handlers_header -->
<g id="node3" class="node">
<title>handlers_header</title><style>.edge>path:hover{stroke-width:8}</style>
<ellipse fill="#a9c247" stroke="black" cx="262.86" cy="-130.21" rx="43.68" ry="21.43"/>
<text text-anchor="middle" x="262.86" y="-133.21" font-family="Helvetica,sans-Serif" font-size="10.00" fill="#000000">handlers.</text>
<text text-anchor="middle" x="262.86" y="-122.21" font-family="Helvetica,sans-Serif" font-size="10.00" fill="#000000">header</text>
</g>
<!-- handlers_header&#45;&gt;yaml_read_py -->
<g id="edge3" class="edge">
<title>handlers_header&#45;&gt;yaml_read_py</title><style>.edge>path:hover{stroke-width:8}</style>
<path fill="none" stroke="black" d="M278.39,-110.14C285.92,-99.78 294.31,-86.39 298.86,-73"/>
</g>
<!-- handlers_header_extract_yaml_header -->
<g id="node4" class="node">
<title>handlers_header_extract_yaml_header</title><style>.edge>path:hover{stroke-width:8}</style>
<ellipse fill="#7e8f3d" stroke="black" cx="334.86" cy="-216.42" rx="84.71" ry="28.98"/>
<text text-anchor="middle" x="334.86" y="-224.92" font-family="Helvetica,sans-Serif" font-size="10.00" fill="#000000">handlers.</text>
<text text-anchor="middle" x="334.86" y="-213.92" font-family="Helvetica,sans-Serif" font-size="10.00" fill="#000000">header.</text>
<text text-anchor="middle" x="334.86" y="-202.92" font-family="Helvetica,sans-Serif" font-size="10.00" fill="#000000">extract_yaml_header</text>
</g>
<!-- handlers_header_extract_yaml_header&#45;&gt;yaml_read_py -->
<g id="edge4" class="edge">
<title>handlers_header_extract_yaml_header&#45;&gt;yaml_read_py</title><style>.edge>path:hover{stroke-width:8}</style>
<path fill="none" stroke="black" d="M337.89,-187.4C338.93,-170.86 338.96,-149.62 334.86,-131.21"/>
</g>
<!-- handlers_header_header_utils -->
<g id="node5" class="node">
<title>handlers_header_header_utils</title><style>.edge>path:hover{stroke-width:8}</style>
<ellipse fill="#8ba135" stroke="black" cx="279.86" cy="-310.4" rx="54.39" ry="28.98"/>
<text text-anchor="middle" x="279.86" y="-318.9" font-family="Helvetica,sans-Serif" font-size="10.00" fill="#000000">handlers.</text>
<text text-anchor="middle" x="279.86" y="-307.9" font-family="Helvetica,sans-Serif" font-size="10.00" fill="#000000">header.</text>
<text text-anchor="middle" x="279.86" y="-296.9" font-family="Helvetica,sans-Serif" font-size="10.00" fill="#000000">header_utils</text>
</g>
<!-- handlers_header_header_utils&#45;&gt;handlers_header_extract_yaml_header -->
<g id="edge5" class="edge">
<title>handlers_header_header_utils&#45;&gt;handlers_header_extract_yaml_header</title><style>.edge>path:hover{stroke-width:8}</style>
<path fill="none" stroke="black" d="M296.06,-282.3C301.39,-273.38 307.41,-263.32 313.09,-253.83"/>
<polygon fill="#8ba135" stroke="black" points="316.26,-255.34 318.39,-244.96 310.25,-251.75 316.26,-255.34"/>
</g>
<!-- handlers_header_header_utils&#45;&gt;yaml_read_py -->
<g id="edge6" class="edge">
<title>handlers_header_header_utils&#45;&gt;yaml_read_py</title><style>.edge>path:hover{stroke-width:8}</style>
<path fill="none" stroke="black" d="M332.77,-303.08C383.91,-293.77 452.98,-271.21 447.86,-217.42"/>
<path fill="none" stroke="black" d="M447.86,-215.42C446.43,-200.45 439.79,-197.75 428.86,-187.43 393.47,-154.01 345.44,-178.73 334.86,-131.21"/>
</g>
<!-- handlers_utils -->
<g id="node6" class="node">
<title>handlers_utils</title><style>.edge>path:hover{stroke-width:8}</style>
<ellipse fill="#b1ce3b" stroke="black" cx="48.86" cy="-498.37" rx="48.72" ry="18"/>
<text text-anchor="middle" x="48.86" y="-495.87" font-family="Helvetica,sans-Serif" font-size="10.00" fill="#000000">handlers.utils</text>
</g>
<!-- handlers_utils&#45;&gt;handlers_header_extract_yaml_header -->
<g id="edge7" class="edge">
<title>handlers_utils&#45;&gt;handlers_header_extract_yaml_header</title><style>.edge>path:hover{stroke-width:8}</style>
<path fill="none" stroke="black" d="M77.15,-483.61C111.4,-466.83 165.58,-439.9 173.86,-433.37 186.73,-423.23 191.61,-420.53 197.86,-405.38"/>
<path fill="none" stroke="black" d="M197.86,-403.38C218.79,-352.67 185.24,-326.25 216.86,-281.41 228.98,-264.22 247.21,-251.2 265.75,-241.55"/>
<polygon fill="#b1ce3b" stroke="black" points="267.42,-244.63 274.85,-237.07 264.33,-238.34 267.42,-244.63"/>
</g>
<!-- handlers_utils&#45;&gt;handlers_header_header_utils -->
<g id="edge8" class="edge">
<title>handlers_utils&#45;&gt;handlers_header_header_utils</title><style>.edge>path:hover{stroke-width:8}</style>
<path fill="none" stroke="black" d="M76.29,-483.3C85.85,-478.62 96.72,-473.54 106.86,-469.37 152.49,-450.62 171.04,-461.07 211.86,-433.37 225.42,-424.17 226.68,-418.96 235.86,-405.38"/>
<path fill="none" stroke="black" d="M235.86,-403.38C247.4,-386.3 257.54,-365.73 265.18,-348.38"/>
<polygon fill="#b1ce3b" stroke="black" points="268.43,-349.68 269.15,-339.11 261.99,-346.92 268.43,-349.68"/>
</g>
<!-- handlers_utils&#45;&gt;yaml_read_py -->
<g id="edge9" class="edge">
<title>handlers_utils&#45;&gt;yaml_read_py</title><style>.edge>path:hover{stroke-width:8}</style>
<path fill="none" stroke="black" d="M79.8,-484.42C108.84,-470.12 149.34,-443.89 159.86,-405.38"/>
<path fill="none" stroke="black" d="M159.86,-403.38C186.88,-304.5 169.37,-260.89 240.86,-187.43 274.81,-152.54 345.44,-178.73 334.86,-131.21"/>
<path fill="none" stroke="black" d="M334.86,-129.21C326.8,-100.66 289.32,-101.09 298.86,-73"/>
</g>
<!-- handlers_utils_files -->
<g id="node7" class="node">
<title>handlers_utils_files</title><style>.edge>path:hover{stroke-width:8}</style>
<ellipse fill="#aecc33" stroke="black" cx="159.86" cy="-498.37" rx="43.68" ry="28.98"/>
<text text-anchor="middle" x="159.86" y="-506.87" font-family="Helvetica,sans-Serif" font-size="10.00" fill="#000000">handlers.</text>
<text text-anchor="middle" x="159.86" y="-495.87" font-family="Helvetica,sans-Serif" font-size="10.00" fill="#000000">utils.</text>
<text text-anchor="middle" x="159.86" y="-484.87" font-family="Helvetica,sans-Serif" font-size="10.00" fill="#000000">files</text>
</g>
<!-- handlers_utils_files&#45;&gt;handlers_header_extract_yaml_header -->
<g id="edge10" class="edge">
<title>handlers_utils_files&#45;&gt;handlers_header_extract_yaml_header</title><style>.edge>path:hover{stroke-width:8}</style>
<path fill="none" stroke="black" d="M171.17,-470C178.73,-451.71 188.89,-427.1 197.86,-405.38"/>
</g>
<!-- handlers_utils_files&#45;&gt;handlers_header_header_utils -->
<g id="edge11" class="edge">
<title>handlers_utils_files&#45;&gt;handlers_header_header_utils</title><style>.edge>path:hover{stroke-width:8}</style>
<path fill="none" stroke="black" d="M182.19,-473.01C198.11,-455.03 219.51,-429.58 235.86,-405.38"/>
</g>
<!-- handlers_utils_files&#45;&gt;yaml_read_py -->
<g id="edge12" class="edge">
<title>handlers_utils_files&#45;&gt;yaml_read_py</title><style>.edge>path:hover{stroke-width:8}</style>
<path fill="none" stroke="black" d="M156.05,-469.08C154.49,-450.62 154.18,-426.18 159.86,-405.38"/>
</g>
<!-- handlers_utils_normalization -->
<g id="node8" class="node">
<title>handlers_utils_normalization</title><style>.edge>path:hover{stroke-width:8}</style>
<ellipse fill="#9eb34c" stroke="black" cx="360.86" cy="-404.38" rx="59.29" ry="28.98"/>
<text text-anchor="middle" x="360.86" y="-412.88" font-family="Helvetica,sans-Serif" font-size="10.00" fill="#000000">handlers.</text>
<text text-anchor="middle" x="360.86" y="-401.88" font-family="Helvetica,sans-Serif" font-size="10.00" fill="#000000">utils.</text>
<text text-anchor="middle" x="360.86" y="-390.88" font-family="Helvetica,sans-Serif" font-size="10.00" fill="#000000">normalization</text>
</g>
<!-- handlers_utils_normalization&#45;&gt;yaml_read_py -->
<g id="edge13" class="edge">
<title>handlers_utils_normalization&#45;&gt;yaml_read_py</title><style>.edge>path:hover{stroke-width:8}</style>
<path fill="none" stroke="black" d="M396.05,-380.94C417.28,-364.73 441.43,-340.59 447.86,-311.4"/>
<path fill="none" stroke="black" d="M447.86,-309.4C456.65,-269.48 451.73,-258.12 447.86,-217.42"/>
</g>
<!-- logger_setup&#45;&gt;handlers_header_extract_yaml_header -->
<g id="edge14" class="edge">
<title>logger_setup&#45;&gt;handlers_header_extract_yaml_header</title><style>.edge>path:hover{stroke-width:8}</style>
<path fill="none" stroke="black" d="M352.86,-635.36C328.7,-579.84 357.95,-559.84 360.86,-499.37"/>
<path fill="none" stroke="black" d="M360.86,-497.37C364.56,-456.03 309.32,-471.47 292.86,-433.37 282.64,-409.72 281.11,-398.33 292.86,-375.39 305.34,-351.02 330.38,-363.76 342.86,-339.39 356.12,-313.49 352.89,-280.35 347.02,-255.15"/>
<polygon fill="#19e66b" stroke="black" points="350.35,-254.04 344.48,-245.22 343.56,-255.78 350.35,-254.04"/>
</g>
<!-- logger_setup&#45;&gt;handlers_header_header_utils -->
<g id="edge15" class="edge">
<title>logger_setup&#45;&gt;handlers_header_header_utils</title><style>.edge>path:hover{stroke-width:8}</style>
<path fill="none" stroke="black" d="M235.86,-580.36C210.49,-554.82 241.59,-534.9 235.86,-499.37"/>
<path fill="none" stroke="black" d="M235.86,-497.37C229.35,-457.01 212.97,-439.26 235.86,-405.38"/>
</g>
<!-- logger_setup&#45;&gt;handlers_utils_files -->
<g id="edge16" class="edge">
<title>logger_setup&#45;&gt;handlers_utils_files</title><style>.edge>path:hover{stroke-width:8}</style>
<path fill="none" stroke="black" d="M356.27,-671.94C357.55,-661.24 357.7,-647.49 352.86,-636.36"/>
<path fill="none" stroke="black" d="M352.86,-635.36C334.35,-592.81 294.63,-623.25 254.86,-599.36 245.15,-593.52 243.85,-590.4 235.86,-582.36"/>
<path fill="none" stroke="black" d="M235.86,-580.36C220.12,-564.52 203.07,-546.43 189.11,-531.38"/>
<polygon fill="#19e66b" stroke="black" points="191.47,-528.78 182.12,-523.81 186.33,-533.53 191.47,-528.78"/>
</g>
<!-- logger_setup&#45;&gt;handlers_utils_normalization -->
<g id="edge17" class="edge">
<title>logger_setup&#45;&gt;handlers_utils_normalization</title><style>.edge>path:hover{stroke-width:8}</style>
<path fill="none" stroke="black" d="M360.86,-497.37C361.7,-479.83 361.82,-460.4 361.68,-443.93"/>
<polygon fill="#19e66b" stroke="black" points="365.18,-443.54 361.56,-433.58 358.18,-443.62 365.18,-443.54"/>
</g>
<!-- logger_setup&#45;&gt;yaml_read_py -->
<g id="edge18" class="edge">
<title>logger_setup&#45;&gt;yaml_read_py</title><style>.edge>path:hover{stroke-width:8}</style>
<path fill="none" stroke="black" d="M360.86,-497.37C365.66,-456.14 409.51,-470.09 428.86,-433.37 454.44,-384.84 436.06,-364.98 447.86,-311.4"/>
</g>
<!-- yaml -->
<g id="node10" class="node">
<title>yaml</title><style>.edge>path:hover{stroke-width:8}</style>
<ellipse fill="#537bb6" stroke="black" cx="290.86" cy="-581.36" rx="27" ry="18"/>
<text text-anchor="middle" x="290.86" y="-578.86" font-family="Helvetica,sans-Serif" font-size="10.00" fill="#ffffff">yaml</text>
</g>
<!-- yaml&#45;&gt;handlers_header_header_utils -->
<g id="edge19" class="edge">
<title>yaml&#45;&gt;handlers_header_header_utils</title><style>.edge>path:hover{stroke-width:8}</style>
<path fill="none" stroke="black" d="M275.56,-566.34C260.85,-551.45 240.22,-526.38 235.86,-499.37"/>
</g>
</g>
</svg>
