<?xml version="1.0" encoding="UTF-8" standalone="no"?>
<!DOCTYPE svg PUBLIC "-//W3C//DTD SVG 1.1//EN"
 "http://www.w3.org/Graphics/SVG/1.1/DTD/svg11.dtd">
<!-- Generated by graphviz version 2.43.0 (0)
 -->
<!-- Title: G Pages: 1 -->
<svg width="866pt" height="471pt"
 viewBox="0.00 0.00 866.17 471.41" xmlns="http://www.w3.org/2000/svg" xmlns:xlink="http://www.w3.org/1999/xlink">
<g id="graph0" class="graph" transform="scale(1 1) rotate(0) translate(4 467.41)">
<title>G</title><style>.edge>path:hover{stroke-width:8}</style>
<polygon fill="white" stroke="transparent" points="-4,4 -4,-467.41 862.17,-467.41 862.17,4 -4,4"/>
<!-- dotenv -->
<g id="node1" class="node">
<title>dotenv</title><style>.edge>path:hover{stroke-width:8}</style>
<ellipse fill="#b65353" stroke="black" cx="115.84" cy="-445.41" rx="29.37" ry="18"/>
<text text-anchor="middle" x="115.84" y="-442.91" font-family="Helvetica,sans-Serif" font-size="10.00" fill="#ffffff">dotenv</text>
</g>
<!-- logger_setup -->
<g id="node6" class="node">
<title>logger_setup</title><style>.edge>path:hover{stroke-width:8}</style>
<ellipse fill="#4073c0" stroke="black" cx="115.84" cy="-373.41" rx="47.19" ry="18"/>
<text text-anchor="middle" x="115.84" y="-370.91" font-family="Helvetica,sans-Serif" font-size="10.00" fill="#ffffff">logger_setup</text>
</g>
<!-- dotenv&#45;&gt;logger_setup -->
<g id="edge1" class="edge">
<title>dotenv&#45;&gt;logger_setup</title><style>.edge>path:hover{stroke-width:8}</style>
<path fill="none" stroke="black" d="M115.84,-427.11C115.84,-419.39 115.84,-410.12 115.84,-401.52"/>
<polygon fill="#b65353" stroke="black" points="119.34,-401.51 115.84,-391.51 112.34,-401.51 119.34,-401.51"/>
</g>
<!-- handlers -->
<g id="node2" class="node">
<title>handlers</title><style>.edge>path:hover{stroke-width:8}</style>
<ellipse fill="#a2b653" stroke="black" cx="178.84" cy="-133.43" rx="34.96" ry="18"/>
<text text-anchor="middle" x="178.84" y="-130.93" font-family="Helvetica,sans-Serif" font-size="10.00" fill="#000000">handlers</text>
</g>
<!-- header_utils_py -->
<g id="node5" class="node">
<title>header_utils_py</title><style>.edge>path:hover{stroke-width:8}</style>
<ellipse fill="#4b8b65" stroke="black" cx="178.84" cy="-21.21" rx="56.64" ry="21.43"/>
<text text-anchor="middle" x="178.84" y="-24.21" font-family="Helvetica,sans-Serif" font-size="10.00" fill="#ffffff">header_utils.</text>
<text text-anchor="middle" x="178.84" y="-13.21" font-family="Helvetica,sans-Serif" font-size="10.00" fill="#ffffff">py</text>
</g>
<!-- handlers&#45;&gt;header_utils_py -->
<g id="edge2" class="edge">
<title>handlers&#45;&gt;header_utils_py</title><style>.edge>path:hover{stroke-width:8}</style>
<path fill="none" stroke="black" d="M182.32,-115.44C183.71,-104.65 183.95,-90.65 178.84,-79.43"/>
</g>
<!-- handlers_utils -->
<g id="node3" class="node">
<title>handlers_utils</title><style>.edge>path:hover{stroke-width:8}</style>
<ellipse fill="#a2b653" stroke="black" cx="280.84" cy="-133.43" rx="48.72" ry="18"/>
<text text-anchor="middle" x="280.84" y="-130.93" font-family="Helvetica,sans-Serif" font-size="10.00" fill="#000000">handlers.utils</text>
</g>
<!-- handlers_utils&#45;&gt;header_utils_py -->
<g id="edge3" class="edge">
<title>handlers_utils&#45;&gt;header_utils_py</title><style>.edge>path:hover{stroke-width:8}</style>
<path fill="none" stroke="black" d="M247.39,-120.23C220.13,-109.43 185.14,-93.28 178.84,-79.43"/>
</g>
<!-- handlers_utils_files -->
<g id="node4" class="node">
<title>handlers_utils_files</title><style>.edge>path:hover{stroke-width:8}</style>
<ellipse fill="#9eb34c" stroke="black" cx="43.84" cy="-216.42" rx="43.68" ry="28.98"/>
<text text-anchor="middle" x="43.84" y="-224.92" font-family="Helvetica,sans-Serif" font-size="10.00" fill="#000000">handlers.</text>
<text text-anchor="middle" x="43.84" y="-213.92" font-family="Helvetica,sans-Serif" font-size="10.00" fill="#000000">utils.</text>
<text text-anchor="middle" x="43.84" y="-202.92" font-family="Helvetica,sans-Serif" font-size="10.00" fill="#000000">files</text>
</g>
<!-- handlers_utils_files&#45;&gt;header_utils_py -->
<g id="edge4" class="edge">
<title>handlers_utils_files&#45;&gt;header_utils_py</title><style>.edge>path:hover{stroke-width:8}</style>
<path fill="none" stroke="black" d="M67.14,-191.61C81.89,-175.98 100.92,-154.75 115.84,-134.43"/>
<path fill="none" stroke="black" d="M115.84,-132.43C122.55,-123.29 126.23,-122.79 134.84,-115.43 154.04,-99 189.3,-102.43 178.84,-79.43"/>
<path fill="none" stroke="black" d="M178.84,-78.43C175.25,-70.53 174.15,-61.34 174.25,-52.71"/>
<polygon fill="#9eb34c" stroke="black" points="177.75,-52.78 174.87,-42.58 170.77,-52.35 177.75,-52.78"/>
</g>
<!-- logger_setup&#45;&gt;handlers_utils_files -->
<g id="edge5" class="edge">
<title>logger_setup&#45;&gt;handlers_utils_files</title><style>.edge>path:hover{stroke-width:8}</style>
<path fill="none" stroke="black" d="M118.35,-355.17C120.44,-336.82 122.17,-307.08 115.84,-282.41"/>
<path fill="none" stroke="black" d="M115.84,-281.41C110.55,-265.36 98.22,-252.02 85.23,-241.74"/>
<polygon fill="#4073c0" stroke="black" points="87.24,-238.87 77.12,-235.73 83.08,-244.49 87.24,-238.87"/>
</g>
<!-- logger_setup&#45;&gt;header_utils_py -->
<g id="edge6" class="edge">
<title>logger_setup&#45;&gt;header_utils_py</title><style>.edge>path:hover{stroke-width:8}</style>
<path fill="none" stroke="black" d="M115.84,-281.41C105.61,-250.39 96.51,-160.75 115.84,-134.43"/>
</g>
<!-- yaml -->
<g id="node7" class="node">
<title>yaml</title><style>.edge>path:hover{stroke-width:8}</style>
<polygon fill="blue" stroke="black" points="416.84,-151.43 362.84,-151.43 362.84,-115.43 416.84,-115.43 416.84,-151.43"/>
<text text-anchor="middle" x="389.84" y="-130.93" font-family="Helvetica,sans-Serif" font-size="10.00" fill="white">yaml</text>
</g>
<!-- yaml&#45;&gt;header_utils_py -->
<g id="edge7" class="edge">
<title>yaml&#45;&gt;header_utils_py</title><style>.edge>path:hover{stroke-width:8}</style>
<path fill="none" stroke="black" d="M362.73,-122.83C355.06,-120.27 346.66,-117.6 338.84,-115.43 268.62,-95.88 209.02,-145.78 178.84,-79.43"/>
</g>
<!-- yaml_cyaml -->
<g id="node8" class="node">
<title>yaml_cyaml</title><style>.edge>path:hover{stroke-width:8}</style>
<polygon fill="blue" stroke="black" points="217.84,-234.42 143.84,-234.42 143.84,-198.42 217.84,-198.42 217.84,-234.42"/>
<text text-anchor="middle" x="180.84" y="-213.92" font-family="Helvetica,sans-Serif" font-size="10.00" fill="white">yaml.cyaml</text>
</g>
<!-- yaml_cyaml&#45;&gt;yaml -->
<g id="edge8" class="edge">
<title>yaml_cyaml&#45;&gt;yaml</title><style>.edge>path:hover{stroke-width:8}</style>
<path fill="none" stroke="black" d="M206.53,-198.33C213,-194.44 220.04,-190.54 226.84,-187.43 274.39,-165.69 289.15,-167.69 338.84,-151.43 343.42,-149.93 348.23,-148.34 352.99,-146.76"/>
<polygon fill="blue" stroke="black" points="354.21,-150.04 362.6,-143.57 352,-143.4 354.21,-150.04"/>
</g>
<!-- yaml_dumper -->
<g id="node9" class="node">
<title>yaml_dumper</title><style>.edge>path:hover{stroke-width:8}</style>
<ellipse fill="#a253b6" stroke="black" cx="283.84" cy="-216.42" rx="48.04" ry="18"/>
<text text-anchor="middle" x="283.84" y="-213.92" font-family="Helvetica,sans-Serif" font-size="10.00" fill="#ffffff">yaml.dumper</text>
</g>
<!-- yaml_dumper&#45;&gt;yaml -->
<g id="edge9" class="edge">
<title>yaml_dumper&#45;&gt;yaml</title><style>.edge>path:hover{stroke-width:8}</style>
<path fill="none" stroke="black" d="M304.28,-199.8C319.79,-187.95 341.37,-171.46 358.98,-158"/>
<polygon fill="#a253b6" stroke="black" points="361.44,-160.53 367.26,-151.68 357.19,-154.97 361.44,-160.53"/>
</g>
<!-- yaml_error -->
<g id="node10" class="node">
<title>yaml_error</title><style>.edge>path:hover{stroke-width:8}</style>
<ellipse fill="#a253b6" stroke="black" cx="389.84" cy="-216.42" rx="40.06" ry="18"/>
<text text-anchor="middle" x="389.84" y="-213.92" font-family="Helvetica,sans-Serif" font-size="10.00" fill="#ffffff">yaml.error</text>
</g>
<!-- yaml_error&#45;&gt;yaml -->
<g id="edge10" class="edge">
<title>yaml_error&#45;&gt;yaml</title><style>.edge>path:hover{stroke-width:8}</style>
<path fill="none" stroke="black" d="M389.84,-198.24C389.84,-187.61 389.84,-173.73 389.84,-161.63"/>
<polygon fill="#a253b6" stroke="black" points="393.34,-161.58 389.84,-151.58 386.34,-161.58 393.34,-161.58"/>
</g>
<!-- yaml_events -->
<g id="node11" class="node">
<title>yaml_events</title><style>.edge>path:hover{stroke-width:8}</style>
<ellipse fill="#a253b6" stroke="black" cx="492.84" cy="-216.42" rx="45.15" ry="18"/>
<text text-anchor="middle" x="492.84" y="-213.92" font-family="Helvetica,sans-Serif" font-size="10.00" fill="#ffffff">yaml.events</text>
</g>
<!-- yaml_events&#45;&gt;yaml -->
<g id="edge11" class="edge">
<title>yaml_events&#45;&gt;yaml</title><style>.edge>path:hover{stroke-width:8}</style>
<path fill="none" stroke="black" d="M472.98,-199.8C457.91,-187.95 436.94,-171.46 419.83,-158"/>
<polygon fill="#a253b6" stroke="black" points="421.8,-155.11 411.78,-151.68 417.48,-160.61 421.8,-155.11"/>
</g>
<!-- yaml_loader -->
<g id="node12" class="node">
<title>yaml_loader</title><style>.edge>path:hover{stroke-width:8}</style>
<ellipse fill="#a253b6" stroke="black" cx="599.84" cy="-216.42" rx="44.3" ry="18"/>
<text text-anchor="middle" x="599.84" y="-213.92" font-family="Helvetica,sans-Serif" font-size="10.00" fill="#ffffff">yaml.loader</text>
</g>
<!-- yaml_loader&#45;&gt;yaml -->
<g id="edge12" class="edge">
<title>yaml_loader&#45;&gt;yaml</title><style>.edge>path:hover{stroke-width:8}</style>
<path fill="none" stroke="black" d="M575.17,-201.34C566.38,-196.6 556.31,-191.49 546.84,-187.43 506.77,-170.21 459.1,-154.8 426.89,-145.09"/>
<polygon fill="#a253b6" stroke="black" points="427.58,-141.65 417,-142.15 425.58,-148.36 427.58,-141.65"/>
</g>
<!-- yaml_nodes -->
<g id="node13" class="node">
<title>yaml_nodes</title><style>.edge>path:hover{stroke-width:8}</style>
<ellipse fill="#a253b6" stroke="black" cx="705.84" cy="-216.42" rx="43.62" ry="18"/>
<text text-anchor="middle" x="705.84" y="-213.92" font-family="Helvetica,sans-Serif" font-size="10.00" fill="#ffffff">yaml.nodes</text>
</g>
<!-- yaml_nodes&#45;&gt;yaml -->
<g id="edge13" class="edge">
<title>yaml_nodes&#45;&gt;yaml</title><style>.edge>path:hover{stroke-width:8}</style>
<path fill="none" stroke="black" d="M682.23,-201.09C673.28,-196.16 662.84,-190.99 652.84,-187.43 575.06,-159.7 478.88,-144.96 427.08,-138.51"/>
<polygon fill="#a253b6" stroke="black" points="427.38,-135.02 417.03,-137.3 426.54,-141.97 427.38,-135.02"/>
</g>
<!-- yaml_tokens -->
<g id="node14" class="node">
<title>yaml_tokens</title><style>.edge>path:hover{stroke-width:8}</style>
<ellipse fill="#a253b6" stroke="black" cx="812.84" cy="-216.42" rx="45.15" ry="18"/>
<text text-anchor="middle" x="812.84" y="-213.92" font-family="Helvetica,sans-Serif" font-size="10.00" fill="#ffffff">yaml.tokens</text>
</g>
<!-- yaml_tokens&#45;&gt;yaml -->
<g id="edge14" class="edge">
<title>yaml_tokens&#45;&gt;yaml</title><style>.edge>path:hover{stroke-width:8}</style>
<path fill="none" stroke="black" d="M789.13,-200.93C779.96,-195.93 769.2,-190.75 758.84,-187.43 641.55,-149.8 494.71,-138.83 427.09,-135.67"/>
<polygon fill="#a253b6" stroke="black" points="427.07,-132.17 416.93,-135.23 426.77,-139.16 427.07,-132.17"/>
</g>
</g>
</svg>
