<?xml version="1.0" encoding="UTF-8" standalone="no"?>
<!DOCTYPE svg PUBLIC "-//W3C//DTD SVG 1.1//EN"
 "http://www.w3.org/Graphics/SVG/1.1/DTD/svg11.dtd">
<!-- Generated by graphviz version 2.43.0 (0)
 -->
<!-- Title: G Pages: 1 -->
<svg width="850pt" height="891pt"
 viewBox="0.00 0.00 849.85 890.77" xmlns="http://www.w3.org/2000/svg" xmlns:xlink="http://www.w3.org/1999/xlink">
<g id="graph0" class="graph" transform="scale(1 1) rotate(0) translate(4 886.77)">
<title>G</title><style>.edge>path:hover{stroke-width:8}</style>
<polygon fill="white" stroke="transparent" points="-4,4 -4,-886.77 845.85,-886.77 845.85,4 -4,4"/>
<!-- dotenv -->
<g id="node1" class="node">
<title>dotenv</title><style>.edge>path:hover{stroke-width:8}</style>
<ellipse fill="#b65353" stroke="black" cx="239.17" cy="-864.77" rx="29.37" ry="18"/>
<text text-anchor="middle" x="239.17" y="-862.27" font-family="Helvetica,sans-Serif" font-size="10.00" fill="#ffffff">dotenv</text>
</g>
<!-- logger_setup -->
<g id="node15" class="node">
<title>logger_setup</title><style>.edge>path:hover{stroke-width:8}</style>
<ellipse fill="#06f9f9" stroke="black" cx="239.17" cy="-792.77" rx="47.19" ry="18"/>
<text text-anchor="middle" x="239.17" y="-790.27" font-family="Helvetica,sans-Serif" font-size="10.00" fill="#000000">logger_setup</text>
</g>
<!-- dotenv&#45;&gt;logger_setup -->
<g id="edge1" class="edge">
<title>dotenv&#45;&gt;logger_setup</title><style>.edge>path:hover{stroke-width:8}</style>
<path fill="none" stroke="black" d="M239.17,-846.46C239.17,-838.75 239.17,-829.48 239.17,-820.88"/>
<polygon fill="#b65353" stroke="black" points="242.67,-820.87 239.17,-810.87 235.67,-820.87 242.67,-820.87"/>
</g>
<!-- handlers -->
<g id="node2" class="node">
<title>handlers</title><style>.edge>path:hover{stroke-width:8}</style>
<ellipse fill="#85f910" stroke="black" cx="657.17" cy="-136.64" rx="34.96" ry="18"/>
<text text-anchor="middle" x="657.17" y="-134.14" font-family="Helvetica,sans-Serif" font-size="10.00" fill="#000000">handlers</text>
</g>
<!-- process_folder_event_py -->
<g id="node16" class="node">
<title>process_folder_event_py</title><style>.edge>path:hover{stroke-width:8}</style>
<ellipse fill="#664785" stroke="black" cx="754.17" cy="-21.21" rx="87.86" ry="21.43"/>
<text text-anchor="middle" x="754.17" y="-24.21" font-family="Helvetica,sans-Serif" font-size="10.00" fill="#ffffff">process_folder_event.</text>
<text text-anchor="middle" x="754.17" y="-13.21" font-family="Helvetica,sans-Serif" font-size="10.00" fill="#ffffff">py</text>
</g>
<!-- handlers&#45;&gt;process_folder_event_py -->
<g id="edge2" class="edge">
<title>handlers&#45;&gt;process_folder_event_py</title><style>.edge>path:hover{stroke-width:8}</style>
<path fill="none" stroke="black" d="M681.73,-123.51C709.55,-109.46 751.43,-87.23 754.17,-79.43"/>
</g>
<!-- handlers_process -->
<g id="node3" class="node">
<title>handlers_process</title><style>.edge>path:hover{stroke-width:8}</style>
<ellipse fill="#85b653" stroke="black" cx="754.17" cy="-136.64" rx="43.68" ry="21.43"/>
<text text-anchor="middle" x="754.17" y="-139.64" font-family="Helvetica,sans-Serif" font-size="10.00" fill="#000000">handlers.</text>
<text text-anchor="middle" x="754.17" y="-128.64" font-family="Helvetica,sans-Serif" font-size="10.00" fill="#000000">process</text>
</g>
<!-- handlers_process&#45;&gt;process_folder_event_py -->
<g id="edge3" class="edge">
<title>handlers_process&#45;&gt;process_folder_event_py</title><style>.edge>path:hover{stroke-width:8}</style>
<path fill="none" stroke="black" d="M750.97,-115.32C750.03,-104.39 750.16,-90.84 754.17,-79.43"/>
</g>
<!-- handlers_process_folders -->
<g id="node4" class="node">
<title>handlers_process_folders</title><style>.edge>path:hover{stroke-width:8}</style>
<ellipse fill="#517231" stroke="black" cx="526.17" cy="-222.84" rx="43.68" ry="28.98"/>
<text text-anchor="middle" x="526.17" y="-231.34" font-family="Helvetica,sans-Serif" font-size="10.00" fill="#ffffff">handlers.</text>
<text text-anchor="middle" x="526.17" y="-220.34" font-family="Helvetica,sans-Serif" font-size="10.00" fill="#ffffff">process.</text>
<text text-anchor="middle" x="526.17" y="-209.34" font-family="Helvetica,sans-Serif" font-size="10.00" fill="#ffffff">folders</text>
</g>
<!-- handlers_process_folders&#45;&gt;process_folder_event_py -->
<g id="edge4" class="edge">
<title>handlers_process_folders&#45;&gt;process_folder_event_py</title><style>.edge>path:hover{stroke-width:8}</style>
<path fill="none" stroke="black" d="M541.99,-195.51C554.23,-177.1 572.68,-153.13 594.17,-137.64"/>
</g>
<!-- handlers_sql -->
<g id="node5" class="node">
<title>handlers_sql</title><style>.edge>path:hover{stroke-width:8}</style>
<ellipse fill="#85f910" stroke="black" cx="753.17" cy="-353.83" rx="44.98" ry="18"/>
<text text-anchor="middle" x="753.17" y="-351.33" font-family="Helvetica,sans-Serif" font-size="10.00" fill="#000000">handlers.sql</text>
</g>
<!-- handlers_sql&#45;&gt;handlers_process_folders -->
<g id="edge5" class="edge">
<title>handlers_sql&#45;&gt;handlers_process_folders</title><style>.edge>path:hover{stroke-width:8}</style>
<path fill="none" stroke="black" d="M726.07,-339.38C716.12,-334.6 704.71,-329.3 694.17,-324.84 652.21,-307.05 632,-319.36 598.17,-288.84"/>
<path fill="none" stroke="black" d="M598.17,-287.84C585.64,-276.53 571.8,-264.2 559.63,-253.4"/>
<polygon fill="#85f910" stroke="black" points="561.71,-250.57 551.91,-246.56 557.07,-255.81 561.71,-250.57"/>
</g>
<!-- handlers_sql&#45;&gt;process_folder_event_py -->
<g id="edge6" class="edge">
<title>handlers_sql&#45;&gt;process_folder_event_py</title><style>.edge>path:hover{stroke-width:8}</style>
<path fill="none" stroke="black" d="M598.17,-287.84C585.77,-276.65 580.63,-147.4 594.17,-137.64"/>
</g>
<!-- handlers_sql_db_categs_utils -->
<g id="node6" class="node">
<title>handlers_sql_db_categs_utils</title><style>.edge>path:hover{stroke-width:8}</style>
<ellipse fill="#6ba135" stroke="black" cx="96.17" cy="-447.81" rx="65.11" ry="28.98"/>
<text text-anchor="middle" x="96.17" y="-456.31" font-family="Helvetica,sans-Serif" font-size="10.00" fill="#000000">handlers.</text>
<text text-anchor="middle" x="96.17" y="-445.31" font-family="Helvetica,sans-Serif" font-size="10.00" fill="#000000">sql.</text>
<text text-anchor="middle" x="96.17" y="-434.31" font-family="Helvetica,sans-Serif" font-size="10.00" fill="#000000">db_categs_utils</text>
</g>
<!-- handlers_sql_db_categs_utils&#45;&gt;handlers_process_folders -->
<g id="edge7" class="edge">
<title>handlers_sql_db_categs_utils&#45;&gt;handlers_process_folders</title><style>.edge>path:hover{stroke-width:8}</style>
<path fill="none" stroke="black" d="M113.05,-419.77C124.56,-401.4 140.19,-376.59 154.17,-354.83"/>
<path fill="none" stroke="black" d="M154.17,-352.83C162.3,-340.18 160.29,-332.6 173.17,-324.84 235.21,-287.43 458.56,-350.13 497.17,-288.84"/>
<path fill="none" stroke="black" d="M497.17,-287.84C502.52,-279.33 507.44,-269.68 511.64,-260.49"/>
<polygon fill="#6ba135" stroke="black" points="514.92,-261.71 515.74,-251.15 508.51,-258.9 514.92,-261.71"/>
</g>
<!-- handlers_sql_db_folders -->
<g id="node8" class="node">
<title>handlers_sql_db_folders</title><style>.edge>path:hover{stroke-width:8}</style>
<ellipse fill="#669933" stroke="black" cx="78.17" cy="-353.83" rx="48.17" ry="28.98"/>
<text text-anchor="middle" x="78.17" y="-362.33" font-family="Helvetica,sans-Serif" font-size="10.00" fill="#ffffff">handlers.</text>
<text text-anchor="middle" x="78.17" y="-351.33" font-family="Helvetica,sans-Serif" font-size="10.00" fill="#ffffff">sql.</text>
<text text-anchor="middle" x="78.17" y="-340.33" font-family="Helvetica,sans-Serif" font-size="10.00" fill="#ffffff">db_folders</text>
</g>
<!-- handlers_sql_db_categs_utils&#45;&gt;handlers_sql_db_folders -->
<g id="edge8" class="edge">
<title>handlers_sql_db_categs_utils&#45;&gt;handlers_sql_db_folders</title><style>.edge>path:hover{stroke-width:8}</style>
<path fill="none" stroke="black" d="M90.67,-418.71C89.06,-410.51 87.28,-401.41 85.58,-392.71"/>
<polygon fill="#6ba135" stroke="black" points="88.99,-391.89 83.63,-382.75 82.12,-393.24 88.99,-391.89"/>
</g>
<!-- handlers_sql_db_connection -->
<g id="node7" class="node">
<title>handlers_sql_db_connection</title><style>.edge>path:hover{stroke-width:8}</style>
<ellipse fill="#80d926" stroke="black" cx="239.17" cy="-635.78" rx="61.54" ry="28.98"/>
<text text-anchor="middle" x="239.17" y="-644.28" font-family="Helvetica,sans-Serif" font-size="10.00" fill="#000000">handlers.</text>
<text text-anchor="middle" x="239.17" y="-633.28" font-family="Helvetica,sans-Serif" font-size="10.00" fill="#000000">sql.</text>
<text text-anchor="middle" x="239.17" y="-622.28" font-family="Helvetica,sans-Serif" font-size="10.00" fill="#000000">db_connection</text>
</g>
<!-- handlers_sql_db_connection&#45;&gt;handlers_sql_db_categs_utils -->
<g id="edge9" class="edge">
<title>handlers_sql_db_connection&#45;&gt;handlers_sql_db_categs_utils</title><style>.edge>path:hover{stroke-width:8}</style>
<path fill="none" stroke="black" d="M41.17,-540.79C29.71,-520.72 42.33,-498.46 58.35,-480.87"/>
<polygon fill="#80d926" stroke="black" points="60.92,-483.25 65.37,-473.64 55.89,-478.38 60.92,-483.25"/>
</g>
<!-- handlers_sql_db_connection&#45;&gt;handlers_sql_db_folders -->
<g id="edge10" class="edge">
<title>handlers_sql_db_connection&#45;&gt;handlers_sql_db_folders</title><style>.edge>path:hover{stroke-width:8}</style>
<path fill="none" stroke="black" d="M182.68,-624.19C145.02,-614.97 96.05,-598.57 60.17,-570.78 48.28,-561.58 48.62,-555.85 41.17,-542.79"/>
<path fill="none" stroke="black" d="M41.17,-540.79C19.24,-502.38 -1.03,-492.84 3.17,-448.81"/>
</g>
<!-- handlers_sql_db_get_linked_data -->
<g id="node9" class="node">
<title>handlers_sql_db_get_linked_data</title><style>.edge>path:hover{stroke-width:8}</style>
<ellipse fill="#6ba135" stroke="black" cx="258.17" cy="-447.81" rx="78.48" ry="28.98"/>
<text text-anchor="middle" x="258.17" y="-456.31" font-family="Helvetica,sans-Serif" font-size="10.00" fill="#000000">handlers.</text>
<text text-anchor="middle" x="258.17" y="-445.31" font-family="Helvetica,sans-Serif" font-size="10.00" fill="#000000">sql.</text>
<text text-anchor="middle" x="258.17" y="-434.31" font-family="Helvetica,sans-Serif" font-size="10.00" fill="#000000">db_get_linked_data</text>
</g>
<!-- handlers_sql_db_connection&#45;&gt;handlers_sql_db_get_linked_data -->
<g id="edge11" class="edge">
<title>handlers_sql_db_connection&#45;&gt;handlers_sql_db_get_linked_data</title><style>.edge>path:hover{stroke-width:8}</style>
<path fill="none" stroke="black" d="M242.05,-606.53C245.31,-574.63 250.64,-522.53 254.27,-487.01"/>
<polygon fill="#80d926" stroke="black" points="257.75,-487.32 255.29,-477.01 250.79,-486.61 257.75,-487.32"/>
</g>
<!-- handlers_sql_db_utils -->
<g id="node11" class="node">
<title>handlers_sql_db_utils</title><style>.edge>path:hover{stroke-width:8}</style>
<ellipse fill="#70b42d" stroke="black" cx="113.17" cy="-541.79" rx="43.68" ry="28.98"/>
<text text-anchor="middle" x="113.17" y="-550.29" font-family="Helvetica,sans-Serif" font-size="10.00" fill="#000000">handlers.</text>
<text text-anchor="middle" x="113.17" y="-539.29" font-family="Helvetica,sans-Serif" font-size="10.00" fill="#000000">sql.</text>
<text text-anchor="middle" x="113.17" y="-528.29" font-family="Helvetica,sans-Serif" font-size="10.00" fill="#000000">db_utils</text>
</g>
<!-- handlers_sql_db_connection&#45;&gt;handlers_sql_db_utils -->
<g id="edge12" class="edge">
<title>handlers_sql_db_connection&#45;&gt;handlers_sql_db_utils</title><style>.edge>path:hover{stroke-width:8}</style>
<path fill="none" stroke="black" d="M206.72,-611.09C189.55,-598.55 168.39,-583.1 150.53,-570.07"/>
<polygon fill="#80d926" stroke="black" points="152.21,-566.96 142.07,-563.89 148.08,-572.61 152.21,-566.96"/>
</g>
<!-- handlers_sql_db_folders&#45;&gt;handlers_process_folders -->
<g id="edge13" class="edge">
<title>handlers_sql_db_folders&#45;&gt;handlers_process_folders</title><style>.edge>path:hover{stroke-width:8}</style>
<path fill="none" stroke="black" d="M454.17,-287.84C468.12,-277.87 482.45,-265.62 494.61,-254.51"/>
<polygon fill="#669933" stroke="black" points="497.31,-256.78 502.27,-247.42 492.55,-251.65 497.31,-256.78"/>
</g>
<!-- handlers_sql_db_folders&#45;&gt;process_folder_event_py -->
<g id="edge14" class="edge">
<title>handlers_sql_db_folders&#45;&gt;process_folder_event_py</title><style>.edge>path:hover{stroke-width:8}</style>
<path fill="none" stroke="black" d="M114.19,-334.31C122.54,-330.66 131.52,-327.22 140.17,-324.84 207.88,-306.16 397.02,-329.66 454.17,-288.84"/>
<path fill="none" stroke="black" d="M454.17,-287.84C488.84,-263.06 446.78,-227.32 473.17,-193.85 509.88,-147.29 545.62,-171.69 594.17,-137.64"/>
<path fill="none" stroke="black" d="M594.17,-135.64C604.14,-128.39 602.55,-121.69 613.17,-115.43 668.87,-82.55 732.73,-140.45 754.17,-79.43"/>
<path fill="none" stroke="black" d="M754.17,-78.43C757.02,-70.31 757.91,-61.12 757.85,-52.55"/>
<polygon fill="#669933" stroke="black" points="761.34,-52.35 757.37,-42.53 754.35,-52.69 761.34,-52.35"/>
</g>
<!-- handlers_sql_db_get_linked_data&#45;&gt;handlers_process_folders -->
<g id="edge15" class="edge">
<title>handlers_sql_db_get_linked_data&#45;&gt;handlers_process_folders</title><style>.edge>path:hover{stroke-width:8}</style>
<path fill="none" stroke="black" d="M205.09,-426.17C170.66,-409.48 135.41,-384.03 154.17,-354.83"/>
</g>
<!-- handlers_sql_db_get_linked_folders_utils -->
<g id="node10" class="node">
<title>handlers_sql_db_get_linked_folders_utils</title><style>.edge>path:hover{stroke-width:8}</style>
<ellipse fill="#709d43" stroke="black" cx="287.17" cy="-353.83" rx="105.22" ry="28.98"/>
<text text-anchor="middle" x="287.17" y="-362.33" font-family="Helvetica,sans-Serif" font-size="10.00" fill="#000000">handlers.</text>
<text text-anchor="middle" x="287.17" y="-351.33" font-family="Helvetica,sans-Serif" font-size="10.00" fill="#000000">sql.</text>
<text text-anchor="middle" x="287.17" y="-340.33" font-family="Helvetica,sans-Serif" font-size="10.00" fill="#000000">db_get_linked_folders_utils</text>
</g>
<!-- handlers_sql_db_get_linked_data&#45;&gt;handlers_sql_db_get_linked_folders_utils -->
<g id="edge16" class="edge">
<title>handlers_sql_db_get_linked_data&#45;&gt;handlers_sql_db_get_linked_folders_utils</title><style>.edge>path:hover{stroke-width:8}</style>
<path fill="none" stroke="black" d="M267.03,-418.71C269.64,-410.42 272.55,-401.21 275.32,-392.42"/>
<polygon fill="#6ba135" stroke="black" points="278.7,-393.34 278.36,-382.75 272.02,-391.24 278.7,-393.34"/>
</g>
<!-- handlers_sql_db_get_linked_folders_utils&#45;&gt;handlers_process_folders -->
<g id="edge17" class="edge">
<title>handlers_sql_db_get_linked_folders_utils&#45;&gt;handlers_process_folders</title><style>.edge>path:hover{stroke-width:8}</style>
<path fill="none" stroke="black" d="M365.19,-334.28C421.8,-319.96 489.72,-300.67 497.17,-288.84"/>
</g>
<!-- handlers_sql_db_utils&#45;&gt;handlers_sql_db_categs_utils -->
<g id="edge18" class="edge">
<title>handlers_sql_db_utils&#45;&gt;handlers_sql_db_categs_utils</title><style>.edge>path:hover{stroke-width:8}</style>
<path fill="none" stroke="black" d="M107.98,-512.69C106.46,-504.49 104.78,-495.39 103.17,-486.69"/>
<polygon fill="#70b42d" stroke="black" points="106.59,-485.93 101.33,-476.74 99.71,-487.2 106.59,-485.93"/>
</g>
<!-- handlers_sql_db_utils&#45;&gt;handlers_sql_db_folders -->
<g id="edge19" class="edge">
<title>handlers_sql_db_utils&#45;&gt;handlers_sql_db_folders</title><style>.edge>path:hover{stroke-width:8}</style>
<path fill="none" stroke="black" d="M80.91,-522.12C47.76,-501.75 1.21,-469.32 3.17,-448.81"/>
</g>
<!-- handlers_sql_db_utils&#45;&gt;handlers_sql_db_get_linked_data -->
<g id="edge20" class="edge">
<title>handlers_sql_db_utils&#45;&gt;handlers_sql_db_get_linked_data</title><style>.edge>path:hover{stroke-width:8}</style>
<path fill="none" stroke="black" d="M144.27,-521.06C163.74,-508.71 189.2,-492.56 211.11,-478.66"/>
<polygon fill="#70b42d" stroke="black" points="213.05,-481.58 219.62,-473.26 209.3,-475.66 213.05,-481.58"/>
</g>
<!-- handlers_utils -->
<g id="node12" class="node">
<title>handlers_utils</title><style>.edge>path:hover{stroke-width:8}</style>
<ellipse fill="#85b653" stroke="black" cx="497.17" cy="-353.83" rx="48.72" ry="18"/>
<text text-anchor="middle" x="497.17" y="-351.33" font-family="Helvetica,sans-Serif" font-size="10.00" fill="#000000">handlers.utils</text>
</g>
<!-- handlers_utils&#45;&gt;handlers_process_folders -->
<g id="edge21" class="edge">
<title>handlers_utils&#45;&gt;handlers_process_folders</title><style>.edge>path:hover{stroke-width:8}</style>
<path fill="none" stroke="black" d="M492.49,-335.7C489.77,-321.96 488.4,-302.75 497.17,-288.84"/>
</g>
<!-- handlers_utils_config -->
<g id="node13" class="node">
<title>handlers_utils_config</title><style>.edge>path:hover{stroke-width:8}</style>
<ellipse fill="#85b653" stroke="black" cx="608.17" cy="-353.83" rx="43.68" ry="28.98"/>
<text text-anchor="middle" x="608.17" y="-362.33" font-family="Helvetica,sans-Serif" font-size="10.00" fill="#000000">handlers.</text>
<text text-anchor="middle" x="608.17" y="-351.33" font-family="Helvetica,sans-Serif" font-size="10.00" fill="#000000">utils.</text>
<text text-anchor="middle" x="608.17" y="-340.33" font-family="Helvetica,sans-Serif" font-size="10.00" fill="#000000">config</text>
</g>
<!-- handlers_utils_config&#45;&gt;handlers_process_folders -->
<g id="edge22" class="edge">
<title>handlers_utils_config&#45;&gt;handlers_process_folders</title><style>.edge>path:hover{stroke-width:8}</style>
<path fill="none" stroke="black" d="M574.99,-334.72C541.85,-316.48 495.95,-290.76 497.17,-288.84"/>
</g>
<!-- handlers_utils_paths -->
<g id="node14" class="node">
<title>handlers_utils_paths</title><style>.edge>path:hover{stroke-width:8}</style>
<ellipse fill="#80b34c" stroke="black" cx="349.17" cy="-541.79" rx="43.68" ry="28.98"/>
<text text-anchor="middle" x="349.17" y="-550.29" font-family="Helvetica,sans-Serif" font-size="10.00" fill="#000000">handlers.</text>
<text text-anchor="middle" x="349.17" y="-539.29" font-family="Helvetica,sans-Serif" font-size="10.00" fill="#000000">utils.</text>
<text text-anchor="middle" x="349.17" y="-528.29" font-family="Helvetica,sans-Serif" font-size="10.00" fill="#000000">paths</text>
</g>
<!-- handlers_utils_paths&#45;&gt;handlers_process_folders -->
<g id="edge23" class="edge">
<title>handlers_utils_paths&#45;&gt;handlers_process_folders</title><style>.edge>path:hover{stroke-width:8}</style>
<path fill="none" stroke="black" d="M361.71,-513.82C366.91,-502.44 372.95,-489.03 378.17,-476.8 406.75,-409.87 392.37,-380.57 439.17,-324.84 458.68,-301.6 481,-314.51 497.17,-288.84"/>
</g>
<!-- logger_setup&#45;&gt;handlers_process_folders -->
<g id="edge24" class="edge">
<title>logger_setup&#45;&gt;handlers_process_folders</title><style>.edge>path:hover{stroke-width:8}</style>
<path fill="none" stroke="black" d="M339.17,-634.78C368.41,-522.68 787.41,-557.98 826.17,-448.81"/>
<path fill="none" stroke="black" d="M826.17,-446.81C843.23,-385.95 746.32,-424.91 699.17,-382.82 676.18,-362.3 686.54,-342.32 661.17,-324.84 599.72,-282.49 457.49,-352.03 497.17,-288.84"/>
</g>
<!-- logger_setup&#45;&gt;handlers_sql_db_categs_utils -->
<g id="edge25" class="edge">
<title>logger_setup&#45;&gt;handlers_sql_db_categs_utils</title><style>.edge>path:hover{stroke-width:8}</style>
<path fill="none" stroke="black" d="M339.17,-634.78C339.36,-634.03 277.53,-543.47 277.17,-542.79"/>
<path fill="none" stroke="black" d="M277.17,-540.79C270.65,-528.33 201.93,-495.67 151.09,-472.83"/>
<polygon fill="#06f9f9" stroke="black" points="152.38,-469.57 141.83,-468.69 149.53,-475.96 152.38,-469.57"/>
</g>
<!-- logger_setup&#45;&gt;handlers_sql_db_connection -->
<g id="edge26" class="edge">
<title>logger_setup&#45;&gt;handlers_sql_db_connection</title><style>.edge>path:hover{stroke-width:8}</style>
<path fill="none" stroke="black" d="M239.17,-700.77C238.07,-692.47 237.62,-683.51 237.53,-675"/>
<polygon fill="#06f9f9" stroke="black" points="241.03,-674.93 237.58,-664.91 234.03,-674.9 241.03,-674.93"/>
</g>
<!-- logger_setup&#45;&gt;handlers_sql_db_folders -->
<g id="edge27" class="edge">
<title>logger_setup&#45;&gt;handlers_sql_db_folders</title><style>.edge>path:hover{stroke-width:8}</style>
<path fill="none" stroke="black" d="M240.49,-774.76C241.6,-756.6 242.51,-727.01 239.17,-701.77"/>
<path fill="none" stroke="black" d="M239.17,-700.77C233.11,-665.91 198.72,-682.61 168.17,-664.77 103.14,-626.79 68.98,-633.42 27.17,-570.78 -3.51,-524.83 -2.08,-503.81 3.17,-448.81"/>
<path fill="none" stroke="black" d="M3.17,-446.81C5.15,-421.69 22.35,-399.59 39.77,-383.34"/>
<polygon fill="#06f9f9" stroke="black" points="42.57,-385.55 47.74,-376.3 37.93,-380.3 42.57,-385.55"/>
</g>
<!-- logger_setup&#45;&gt;handlers_sql_db_get_linked_data -->
<g id="edge28" class="edge">
<title>logger_setup&#45;&gt;handlers_sql_db_get_linked_data</title><style>.edge>path:hover{stroke-width:8}</style>
<path fill="none" stroke="black" d="M277.17,-540.79C268.59,-524.4 263.88,-504.47 261.3,-487.36"/>
<polygon fill="#06f9f9" stroke="black" points="264.73,-486.58 259.95,-477.13 257.79,-487.5 264.73,-486.58"/>
</g>
<!-- logger_setup&#45;&gt;handlers_sql_db_get_linked_folders_utils -->
<g id="edge29" class="edge">
<title>logger_setup&#45;&gt;handlers_sql_db_get_linked_folders_utils</title><style>.edge>path:hover{stroke-width:8}</style>
<path fill="none" stroke="black" d="M277.17,-540.79C270.2,-527.47 285.74,-523.63 296.17,-512.8 314.92,-493.34 332.96,-500.91 345.17,-476.8 356.81,-453.81 354.44,-442.86 345.17,-418.82 340.99,-408 334.05,-397.88 326.39,-389.02"/>
<polygon fill="#06f9f9" stroke="black" points="328.87,-386.55 319.52,-381.57 323.73,-391.29 328.87,-386.55"/>
</g>
<!-- logger_setup&#45;&gt;handlers_sql_db_utils -->
<g id="edge30" class="edge">
<title>logger_setup&#45;&gt;handlers_sql_db_utils</title><style>.edge>path:hover{stroke-width:8}</style>
<path fill="none" stroke="black" d="M239.17,-700.77C234.52,-665.69 281.34,-685.28 310.17,-664.77 324.76,-654.38 334.65,-654.11 339.17,-636.78"/>
<path fill="none" stroke="black" d="M339.17,-634.78C348.74,-598.1 234.5,-567.75 164.86,-552.81"/>
<polygon fill="#06f9f9" stroke="black" points="165.44,-549.35 154.93,-550.72 164,-556.2 165.44,-549.35"/>
</g>
<!-- logger_setup&#45;&gt;handlers_utils_paths -->
<g id="edge31" class="edge">
<title>logger_setup&#45;&gt;handlers_utils_paths</title><style>.edge>path:hover{stroke-width:8}</style>
<path fill="none" stroke="black" d="M339.17,-634.78C343.7,-617.4 346.18,-597.66 347.54,-580.93"/>
<polygon fill="#06f9f9" stroke="black" points="351.03,-581.17 348.25,-570.95 344.05,-580.68 351.03,-581.17"/>
</g>
<!-- logger_setup&#45;&gt;process_folder_event_py -->
<g id="edge32" class="edge">
<title>logger_setup&#45;&gt;process_folder_event_py</title><style>.edge>path:hover{stroke-width:8}</style>
<path fill="none" stroke="black" d="M826.17,-446.81C845.13,-379.21 826.17,-359.05 826.17,-288.84 826.17,-288.84 826.17,-288.84 826.17,-221.84 826.17,-173.8 833.31,-155.73 807.17,-115.43 791.67,-91.54 744.73,-106.29 754.17,-79.43"/>
</g>
</g>
</svg>
