<?xml version="1.0" encoding="UTF-8" standalone="no"?>
<!DOCTYPE svg PUBLIC "-//W3C//DTD SVG 1.1//EN"
 "http://www.w3.org/Graphics/SVG/1.1/DTD/svg11.dtd">
<!-- Generated by graphviz version 2.43.0 (0)
 -->
<!-- Title: G Pages: 1 -->
<svg width="358pt" height="325pt"
 viewBox="0.00 0.00 358.17 325.41" xmlns="http://www.w3.org/2000/svg" xmlns:xlink="http://www.w3.org/1999/xlink">
<g id="graph0" class="graph" transform="scale(1 1) rotate(0) translate(4 321.41)">
<title>G</title><style>.edge>path:hover{stroke-width:8}</style>
<polygon fill="white" stroke="transparent" points="-4,4 -4,-321.41 354.17,-321.41 354.17,4 -4,4"/>
<!-- check_script_py -->
<g id="node1" class="node">
<title>check_script_py</title><style>.edge>path:hover{stroke-width:8}</style>
<ellipse fill="#924e4e" stroke="black" cx="229.33" cy="-21.21" rx="56.64" ry="21.43"/>
<text text-anchor="middle" x="229.33" y="-24.21" font-family="Helvetica,sans-Serif" font-size="10.00" fill="#ffffff">check_script.</text>
<text text-anchor="middle" x="229.33" y="-13.21" font-family="Helvetica,sans-Serif" font-size="10.00" fill="#ffffff">py</text>
</g>
<!-- dotenv -->
<g id="node2" class="node">
<title>dotenv</title><style>.edge>path:hover{stroke-width:8}</style>
<ellipse fill="#49ac49" stroke="black" cx="45.33" cy="-133.43" rx="29.37" ry="18"/>
<text text-anchor="middle" x="45.33" y="-130.93" font-family="Helvetica,sans-Serif" font-size="10.00" fill="#000000">dotenv</text>
</g>
<!-- dotenv&#45;&gt;check_script_py -->
<g id="edge1" class="edge">
<title>dotenv&#45;&gt;check_script_py</title><style>.edge>path:hover{stroke-width:8}</style>
<path fill="none" stroke="black" d="M67.97,-121.5C72.96,-119.32 78.27,-117.17 83.33,-115.43 146.53,-93.69 204.4,-141.44 229.33,-79.43"/>
<path fill="none" stroke="black" d="M229.33,-78.43C232.56,-70.38 233.55,-61.15 233.46,-52.52"/>
<polygon fill="#49ac49" stroke="black" points="236.95,-52.21 232.9,-42.42 229.96,-52.59 236.95,-52.21"/>
</g>
<!-- dotenv_ipython -->
<g id="node3" class="node">
<title>dotenv_ipython</title><style>.edge>path:hover{stroke-width:8}</style>
<ellipse fill="#4cb34c" stroke="black" cx="85.33" cy="-216.42" rx="52.28" ry="18"/>
<text text-anchor="middle" x="85.33" y="-213.92" font-family="Helvetica,sans-Serif" font-size="10.00" fill="#000000">dotenv.ipython</text>
</g>
<!-- dotenv_ipython&#45;&gt;dotenv -->
<g id="edge2" class="edge">
<title>dotenv_ipython&#45;&gt;dotenv</title><style>.edge>path:hover{stroke-width:8}</style>
<path fill="none" stroke="black" d="M77.04,-198.64C71.53,-187.49 64.2,-172.63 57.97,-160.02"/>
<polygon fill="#4cb34c" stroke="black" points="61.03,-158.33 53.47,-150.91 54.76,-161.43 61.03,-158.33"/>
</g>
<!-- dotenv_main -->
<g id="node4" class="node">
<title>dotenv_main</title><style>.edge>path:hover{stroke-width:8}</style>
<ellipse fill="#47c247" stroke="black" cx="45.33" cy="-299.41" rx="45.15" ry="18"/>
<text text-anchor="middle" x="45.33" y="-296.91" font-family="Helvetica,sans-Serif" font-size="10.00" fill="#000000">dotenv.main</text>
</g>
<!-- dotenv_main&#45;&gt;dotenv -->
<g id="edge3" class="edge">
<title>dotenv_main&#45;&gt;dotenv</title><style>.edge>path:hover{stroke-width:8}</style>
<path fill="none" stroke="black" d="M36.83,-281.72C32.12,-271.52 26.74,-258.05 24.33,-245.41 19.49,-220.1 19.49,-212.74 24.33,-187.43 26.06,-178.34 29.33,-168.83 32.78,-160.41"/>
<polygon fill="#47c247" stroke="black" points="36.04,-161.69 36.83,-151.12 29.62,-158.89 36.04,-161.69"/>
</g>
<!-- dotenv_main&#45;&gt;dotenv_ipython -->
<g id="edge4" class="edge">
<title>dotenv_main&#45;&gt;dotenv_ipython</title><style>.edge>path:hover{stroke-width:8}</style>
<path fill="none" stroke="black" d="M53.62,-281.63C59.05,-270.62 66.26,-256.02 72.44,-243.51"/>
<polygon fill="#47c247" stroke="black" points="75.62,-244.97 76.91,-234.46 69.35,-241.87 75.62,-244.97"/>
</g>
<!-- handlers -->
<g id="node5" class="node">
<title>handlers</title><style>.edge>path:hover{stroke-width:8}</style>
<ellipse fill="#5353b6" stroke="black" cx="127.33" cy="-133.43" rx="34.96" ry="18"/>
<text text-anchor="middle" x="127.33" y="-130.93" font-family="Helvetica,sans-Serif" font-size="10.00" fill="#ffffff">handlers</text>
</g>
<!-- handlers&#45;&gt;check_script_py -->
<g id="edge5" class="edge">
<title>handlers&#45;&gt;check_script_py</title><style>.edge>path:hover{stroke-width:8}</style>
<path fill="none" stroke="black" d="M153.06,-121.17C182.22,-108.09 226.16,-87.3 229.33,-79.43"/>
</g>
<!-- handlers_utils -->
<g id="node6" class="node">
<title>handlers_utils</title><style>.edge>path:hover{stroke-width:8}</style>
<ellipse fill="#5353b6" stroke="black" cx="229.33" cy="-133.43" rx="48.72" ry="18"/>
<text text-anchor="middle" x="229.33" y="-130.93" font-family="Helvetica,sans-Serif" font-size="10.00" fill="#ffffff">handlers.utils</text>
</g>
<!-- handlers_utils&#45;&gt;check_script_py -->
<g id="edge6" class="edge">
<title>handlers_utils&#45;&gt;check_script_py</title><style>.edge>path:hover{stroke-width:8}</style>
<path fill="none" stroke="black" d="M226.14,-115.1C224.94,-104.43 224.8,-90.7 229.33,-79.43"/>
</g>
<!-- handlers_utils_files -->
<g id="node7" class="node">
<title>handlers_utils_files</title><style>.edge>path:hover{stroke-width:8}</style>
<ellipse fill="#5353b6" stroke="black" cx="306.33" cy="-216.42" rx="43.68" ry="28.98"/>
<text text-anchor="middle" x="306.33" y="-224.92" font-family="Helvetica,sans-Serif" font-size="10.00" fill="#ffffff">handlers.</text>
<text text-anchor="middle" x="306.33" y="-213.92" font-family="Helvetica,sans-Serif" font-size="10.00" fill="#ffffff">utils.</text>
<text text-anchor="middle" x="306.33" y="-202.92" font-family="Helvetica,sans-Serif" font-size="10.00" fill="#ffffff">files</text>
</g>
<!-- handlers_utils_files&#45;&gt;check_script_py -->
<g id="edge7" class="edge">
<title>handlers_utils_files&#45;&gt;check_script_py</title><style>.edge>path:hover{stroke-width:8}</style>
<path fill="none" stroke="black" d="M306.89,-187.24C306,-165.82 301.83,-136.55 287.33,-115.43 270.16,-90.41 218.01,-107.58 229.33,-79.43"/>
</g>
</g>
</svg>
