<?xml version="1.0" encoding="UTF-8" standalone="no"?>
<!DOCTYPE svg PUBLIC "-//W3C//DTD SVG 1.1//EN"
 "http://www.w3.org/Graphics/SVG/1.1/DTD/svg11.dtd">
<!-- Generated by graphviz version 2.43.0 (0)
 -->
<!-- Title: G Pages: 1 -->
<svg width="722pt" height="231pt"
 viewBox="0.00 0.00 722.33 231.43" xmlns="http://www.w3.org/2000/svg" xmlns:xlink="http://www.w3.org/1999/xlink">
<g id="graph0" class="graph" transform="scale(1 1) rotate(0) translate(4 227.43)">
<title>G</title><style>.edge>path:hover{stroke-width:8}</style>
<polygon fill="white" stroke="transparent" points="-4,4 -4,-227.43 718.33,-227.43 718.33,4 -4,4"/>
<!-- nemesis_loop_tester_py -->
<g id="node1" class="node">
<title>nemesis_loop_tester_py</title><style>.edge>path:hover{stroke-width:8}</style>
<ellipse fill="#a65959" stroke="black" cx="349" cy="-21.21" rx="84.71" ry="21.43"/>
<text text-anchor="middle" x="349" y="-24.21" font-family="Helvetica,sans-Serif" font-size="10.00" fill="#ffffff">nemesis_loop_tester.</text>
<text text-anchor="middle" x="349" y="-13.21" font-family="Helvetica,sans-Serif" font-size="10.00" fill="#ffffff">py</text>
</g>
<!-- yaml -->
<g id="node2" class="node">
<title>yaml</title><style>.edge>path:hover{stroke-width:8}</style>
<polygon fill="blue" stroke="black" points="376,-151.43 322,-151.43 322,-115.43 376,-115.43 376,-151.43"/>
<text text-anchor="middle" x="349" y="-130.93" font-family="Helvetica,sans-Serif" font-size="10.00" fill="white">yaml</text>
</g>
<!-- yaml&#45;&gt;nemesis_loop_tester_py -->
<g id="edge1" class="edge">
<title>yaml&#45;&gt;nemesis_loop_tester_py</title><style>.edge>path:hover{stroke-width:8}</style>
<path fill="none" stroke="black" d="M349,-115.21C349,-98.58 349,-73.03 349,-52.92"/>
<polygon fill="blue" stroke="black" points="352.5,-52.69 349,-42.69 345.5,-52.69 352.5,-52.69"/>
</g>
<!-- yaml_cyaml -->
<g id="node3" class="node">
<title>yaml_cyaml</title><style>.edge>path:hover{stroke-width:8}</style>
<polygon fill="blue" stroke="black" points="74,-223.43 0,-223.43 0,-187.43 74,-187.43 74,-223.43"/>
<text text-anchor="middle" x="37" y="-202.93" font-family="Helvetica,sans-Serif" font-size="10.00" fill="white">yaml.cyaml</text>
</g>
<!-- yaml_cyaml&#45;&gt;yaml -->
<g id="edge2" class="edge">
<title>yaml_cyaml&#45;&gt;yaml</title><style>.edge>path:hover{stroke-width:8}</style>
<path fill="none" stroke="black" d="M74.24,-190.1C77.19,-189.14 80.13,-188.24 83,-187.43 163.34,-164.73 259.97,-148.05 311.81,-139.94"/>
<polygon fill="blue" stroke="black" points="312.51,-143.37 321.86,-138.39 311.44,-136.45 312.51,-143.37"/>
</g>
<!-- yaml_dumper -->
<g id="node4" class="node">
<title>yaml_dumper</title><style>.edge>path:hover{stroke-width:8}</style>
<ellipse fill="#53b6b6" stroke="black" cx="140" cy="-205.43" rx="48.04" ry="18"/>
<text text-anchor="middle" x="140" y="-202.93" font-family="Helvetica,sans-Serif" font-size="10.00" fill="#000000">yaml.dumper</text>
</g>
<!-- yaml_dumper&#45;&gt;yaml -->
<g id="edge3" class="edge">
<title>yaml_dumper&#45;&gt;yaml</title><style>.edge>path:hover{stroke-width:8}</style>
<path fill="none" stroke="black" d="M174.98,-192.71C212.96,-179.99 273.35,-159.76 312.07,-146.79"/>
<polygon fill="#53b6b6" stroke="black" points="313.53,-150 321.9,-143.5 311.31,-143.36 313.53,-150"/>
</g>
<!-- yaml_error -->
<g id="node5" class="node">
<title>yaml_error</title><style>.edge>path:hover{stroke-width:8}</style>
<ellipse fill="#53b6b6" stroke="black" cx="246" cy="-205.43" rx="40.06" ry="18"/>
<text text-anchor="middle" x="246" y="-202.93" font-family="Helvetica,sans-Serif" font-size="10.00" fill="#000000">yaml.error</text>
</g>
<!-- yaml_error&#45;&gt;yaml -->
<g id="edge4" class="edge">
<title>yaml_error&#45;&gt;yaml</title><style>.edge>path:hover{stroke-width:8}</style>
<path fill="none" stroke="black" d="M267.34,-189.92C281.16,-180.53 299.46,-168.09 315.23,-157.38"/>
<polygon fill="#53b6b6" stroke="black" points="317.38,-160.15 323.69,-151.63 313.45,-154.36 317.38,-160.15"/>
</g>
<!-- yaml_events -->
<g id="node6" class="node">
<title>yaml_events</title><style>.edge>path:hover{stroke-width:8}</style>
<ellipse fill="#53b6b6" stroke="black" cx="349" cy="-205.43" rx="45.15" ry="18"/>
<text text-anchor="middle" x="349" y="-202.93" font-family="Helvetica,sans-Serif" font-size="10.00" fill="#000000">yaml.events</text>
</g>
<!-- yaml_events&#45;&gt;yaml -->
<g id="edge5" class="edge">
<title>yaml_events&#45;&gt;yaml</title><style>.edge>path:hover{stroke-width:8}</style>
<path fill="none" stroke="black" d="M349,-187.12C349,-179.41 349,-170.14 349,-161.54"/>
<polygon fill="#53b6b6" stroke="black" points="352.5,-161.53 349,-151.53 345.5,-161.53 352.5,-161.53"/>
</g>
<!-- yaml_loader -->
<g id="node7" class="node">
<title>yaml_loader</title><style>.edge>path:hover{stroke-width:8}</style>
<ellipse fill="#53b6b6" stroke="black" cx="456" cy="-205.43" rx="44.3" ry="18"/>
<text text-anchor="middle" x="456" y="-202.93" font-family="Helvetica,sans-Serif" font-size="10.00" fill="#000000">yaml.loader</text>
</g>
<!-- yaml_loader&#45;&gt;yaml -->
<g id="edge6" class="edge">
<title>yaml_loader&#45;&gt;yaml</title><style>.edge>path:hover{stroke-width:8}</style>
<path fill="none" stroke="black" d="M433.57,-189.75C419.2,-180.35 400.24,-167.95 383.92,-157.27"/>
<polygon fill="#53b6b6" stroke="black" points="385.46,-154.09 375.17,-151.55 381.62,-159.95 385.46,-154.09"/>
</g>
<!-- yaml_nodes -->
<g id="node8" class="node">
<title>yaml_nodes</title><style>.edge>path:hover{stroke-width:8}</style>
<ellipse fill="#53b6b6" stroke="black" cx="562" cy="-205.43" rx="43.62" ry="18"/>
<text text-anchor="middle" x="562" y="-202.93" font-family="Helvetica,sans-Serif" font-size="10.00" fill="#000000">yaml.nodes</text>
</g>
<!-- yaml_nodes&#45;&gt;yaml -->
<g id="edge7" class="edge">
<title>yaml_nodes&#45;&gt;yaml</title><style>.edge>path:hover{stroke-width:8}</style>
<path fill="none" stroke="black" d="M528.72,-193.49C490,-180.76 426.24,-159.81 386,-146.59"/>
<polygon fill="#53b6b6" stroke="black" points="386.89,-143.2 376.3,-143.4 384.71,-149.85 386.89,-143.2"/>
</g>
<!-- yaml_tokens -->
<g id="node9" class="node">
<title>yaml_tokens</title><style>.edge>path:hover{stroke-width:8}</style>
<ellipse fill="#53b6b6" stroke="black" cx="669" cy="-205.43" rx="45.15" ry="18"/>
<text text-anchor="middle" x="669" y="-202.93" font-family="Helvetica,sans-Serif" font-size="10.00" fill="#000000">yaml.tokens</text>
</g>
<!-- yaml_tokens&#45;&gt;yaml -->
<g id="edge8" class="edge">
<title>yaml_tokens&#45;&gt;yaml</title><style>.edge>path:hover{stroke-width:8}</style>
<path fill="none" stroke="black" d="M635.46,-193.25C628.72,-191.18 621.66,-189.13 615,-187.43 534.13,-166.71 437.7,-149.27 386.04,-140.5"/>
<polygon fill="#53b6b6" stroke="black" points="386.47,-137.02 376.02,-138.81 385.3,-143.93 386.47,-137.02"/>
</g>
</g>
</svg>
