<?xml version="1.0" encoding="UTF-8" standalone="no"?>
<!DOCTYPE svg PUBLIC "-//W3C//DTD SVG 1.1//EN"
 "http://www.w3.org/Graphics/SVG/1.1/DTD/svg11.dtd">
<!-- Generated by graphviz version 2.43.0 (0)
 -->
<!-- Title: G Pages: 1 -->
<svg width="450pt" height="501pt"
 viewBox="0.00 0.00 450.36 501.39" xmlns="http://www.w3.org/2000/svg" xmlns:xlink="http://www.w3.org/1999/xlink">
<g id="graph0" class="graph" transform="scale(1 1) rotate(0) translate(4 497.39)">
<title>G</title><style>.edge>path:hover{stroke-width:8}</style>
<polygon fill="white" stroke="transparent" points="-4,4 -4,-497.39 446.36,-497.39 446.36,4 -4,4"/>
<!-- db_connection_py -->
<g id="node1" class="node">
<title>db_connection_py</title><style>.edge>path:hover{stroke-width:8}</style>
<ellipse fill="#995252" stroke="black" cx="145.09" cy="-21.21" rx="63.78" ry="21.43"/>
<text text-anchor="middle" x="145.09" y="-24.21" font-family="Helvetica,sans-Serif" font-size="10.00" fill="#ffffff">db_connection.</text>
<text text-anchor="middle" x="145.09" y="-13.21" font-family="Helvetica,sans-Serif" font-size="10.00" fill="#ffffff">py</text>
</g>
<!-- dotenv -->
<g id="node2" class="node">
<title>dotenv</title><style>.edge>path:hover{stroke-width:8}</style>
<ellipse fill="#85b653" stroke="black" cx="42.09" cy="-207.93" rx="29.37" ry="18"/>
<text text-anchor="middle" x="42.09" y="-205.43" font-family="Helvetica,sans-Serif" font-size="10.00" fill="#000000">dotenv</text>
</g>
<!-- logger_setup -->
<g id="node3" class="node">
<title>logger_setup</title><style>.edge>path:hover{stroke-width:8}</style>
<ellipse fill="#4cb3b3" stroke="black" cx="47.09" cy="-133.43" rx="47.19" ry="18"/>
<text text-anchor="middle" x="47.09" y="-130.93" font-family="Helvetica,sans-Serif" font-size="10.00" fill="#000000">logger_setup</text>
</g>
<!-- dotenv&#45;&gt;logger_setup -->
<g id="edge1" class="edge">
<title>dotenv&#45;&gt;logger_setup</title><style>.edge>path:hover{stroke-width:8}</style>
<path fill="none" stroke="black" d="M43.28,-189.74C43.86,-181.35 44.57,-171.04 45.22,-161.61"/>
<polygon fill="#85b653" stroke="black" points="48.72,-161.7 45.92,-151.48 41.74,-161.22 48.72,-161.7"/>
</g>
<!-- logger_setup&#45;&gt;db_connection_py -->
<g id="edge2" class="edge">
<title>logger_setup&#45;&gt;db_connection_py</title><style>.edge>path:hover{stroke-width:8}</style>
<path fill="none" stroke="black" d="M81.21,-120.87C109.14,-110.35 144.19,-94.24 145.09,-79.43"/>
<path fill="none" stroke="black" d="M145.09,-78.43C145.6,-70.07 145.77,-61 145.77,-52.64"/>
<polygon fill="#4cb3b3" stroke="black" points="149.27,-52.5 145.69,-42.53 142.27,-52.55 149.27,-52.5"/>
</g>
<!-- mysql -->
<g id="node4" class="node">
<title>mysql</title><style>.edge>path:hover{stroke-width:8}</style>
<ellipse fill="#8522e7" stroke="black" cx="145.09" cy="-133.43" rx="27.84" ry="18"/>
<text text-anchor="middle" x="145.09" y="-130.93" font-family="Helvetica,sans-Serif" font-size="10.00" fill="#ffffff">mysql</text>
</g>
<!-- mysql&#45;&gt;db_connection_py -->
<g id="edge3" class="edge">
<title>mysql&#45;&gt;db_connection_py</title><style>.edge>path:hover{stroke-width:8}</style>
<path fill="none" stroke="black" d="M144.56,-115.22C144.38,-104.85 144.37,-91.37 145.09,-79.43"/>
</g>
<!-- mysql_connector -->
<g id="node5" class="node">
<title>mysql_connector</title><style>.edge>path:hover{stroke-width:8}</style>
<polygon fill="blue" stroke="black" points="255.59,-151.43 190.59,-151.43 190.59,-115.43 255.59,-115.43 255.59,-151.43"/>
<text text-anchor="middle" x="223.09" y="-136.43" font-family="Helvetica,sans-Serif" font-size="10.00" fill="white">mysql.</text>
<text text-anchor="middle" x="223.09" y="-125.43" font-family="Helvetica,sans-Serif" font-size="10.00" fill="white">connector</text>
</g>
<!-- mysql_connector&#45;&gt;db_connection_py -->
<g id="edge4" class="edge">
<title>mysql_connector&#45;&gt;db_connection_py</title><style>.edge>path:hover{stroke-width:8}</style>
<path fill="none" stroke="black" d="M190.5,-117.39C168.8,-106.28 144.38,-91.11 145.09,-79.43"/>
</g>
<!-- mysql_connector_connection -->
<g id="node6" class="node">
<title>mysql_connector_connection</title><style>.edge>path:hover{stroke-width:8}</style>
<polygon fill="blue" stroke="black" points="383.09,-305.43 313.09,-305.43 313.09,-264.43 383.09,-264.43 383.09,-305.43"/>
<text text-anchor="middle" x="348.09" y="-293.43" font-family="Helvetica,sans-Serif" font-size="10.00" fill="white">mysql.</text>
<text text-anchor="middle" x="348.09" y="-282.43" font-family="Helvetica,sans-Serif" font-size="10.00" fill="white">connector.</text>
<text text-anchor="middle" x="348.09" y="-271.43" font-family="Helvetica,sans-Serif" font-size="10.00" fill="white">connection</text>
</g>
<!-- mysql_connector_connection&#45;&gt;mysql_connector -->
<g id="edge5" class="edge">
<title>mysql_connector_connection&#45;&gt;mysql_connector</title><style>.edge>path:hover{stroke-width:8}</style>
<path fill="none" stroke="black" d="M383.11,-271.63C411.78,-259.25 445.96,-237.86 435.09,-208.93"/>
<path fill="none" stroke="black" d="M435.09,-206.93C422.87,-174.38 324.34,-151.93 266,-141.35"/>
<polygon fill="blue" stroke="black" points="266.41,-137.87 255.95,-139.58 265.19,-144.77 266.41,-137.87"/>
</g>
<!-- mysql_connector_pooling -->
<g id="node11" class="node">
<title>mysql_connector_pooling</title><style>.edge>path:hover{stroke-width:8}</style>
<polygon fill="blue" stroke="black" points="318.59,-228.43 251.59,-228.43 251.59,-187.43 318.59,-187.43 318.59,-228.43"/>
<text text-anchor="middle" x="285.09" y="-216.43" font-family="Helvetica,sans-Serif" font-size="10.00" fill="white">mysql.</text>
<text text-anchor="middle" x="285.09" y="-205.43" font-family="Helvetica,sans-Serif" font-size="10.00" fill="white">connector.</text>
<text text-anchor="middle" x="285.09" y="-194.43" font-family="Helvetica,sans-Serif" font-size="10.00" fill="white">pooling</text>
</g>
<!-- mysql_connector_connection&#45;&gt;mysql_connector_pooling -->
<g id="edge6" class="edge">
<title>mysql_connector_connection&#45;&gt;mysql_connector_pooling</title><style>.edge>path:hover{stroke-width:8}</style>
<path fill="none" stroke="black" d="M331.54,-264.22C324.38,-255.69 315.87,-245.57 308.11,-236.33"/>
<polygon fill="blue" stroke="black" points="310.65,-233.91 301.53,-228.5 305.29,-238.41 310.65,-233.91"/>
</g>
<!-- mysql_connector_connection_cext -->
<g id="node7" class="node">
<title>mysql_connector_connection_cext</title><style>.edge>path:hover{stroke-width:8}</style>
<polygon fill="blue" stroke="black" points="257.09,-305.43 161.09,-305.43 161.09,-264.43 257.09,-264.43 257.09,-305.43"/>
<text text-anchor="middle" x="209.09" y="-293.43" font-family="Helvetica,sans-Serif" font-size="10.00" fill="white">mysql.</text>
<text text-anchor="middle" x="209.09" y="-282.43" font-family="Helvetica,sans-Serif" font-size="10.00" fill="white">connector.</text>
<text text-anchor="middle" x="209.09" y="-271.43" font-family="Helvetica,sans-Serif" font-size="10.00" fill="white">connection_cext</text>
</g>
<!-- mysql_connector_connection_cext&#45;&gt;mysql_connector -->
<g id="edge7" class="edge">
<title>mysql_connector_connection_cext&#45;&gt;mysql_connector</title><style>.edge>path:hover{stroke-width:8}</style>
<path fill="none" stroke="black" d="M210.92,-264.38C213.38,-238.16 217.75,-191.46 220.53,-161.76"/>
<polygon fill="blue" stroke="black" points="224.03,-161.94 221.48,-151.66 217.06,-161.29 224.03,-161.94"/>
</g>
<!-- mysql_connector_connection_cext&#45;&gt;mysql_connector_pooling -->
<g id="edge8" class="edge">
<title>mysql_connector_connection_cext&#45;&gt;mysql_connector_pooling</title><style>.edge>path:hover{stroke-width:8}</style>
<path fill="none" stroke="black" d="M229.06,-264.22C237.88,-255.52 248.38,-245.16 257.89,-235.77"/>
<polygon fill="blue" stroke="black" points="260.6,-238.02 265.26,-228.5 255.68,-233.03 260.6,-238.02"/>
</g>
<!-- mysql_connector_constants -->
<g id="node8" class="node">
<title>mysql_connector_constants</title><style>.edge>path:hover{stroke-width:8}</style>
<ellipse fill="#7f19e6" stroke="black" cx="210.09" cy="-370.42" rx="47.25" ry="28.98"/>
<text text-anchor="middle" x="210.09" y="-378.92" font-family="Helvetica,sans-Serif" font-size="10.00" fill="#ffffff">mysql.</text>
<text text-anchor="middle" x="210.09" y="-367.92" font-family="Helvetica,sans-Serif" font-size="10.00" fill="#ffffff">connector.</text>
<text text-anchor="middle" x="210.09" y="-356.92" font-family="Helvetica,sans-Serif" font-size="10.00" fill="#ffffff">constants</text>
</g>
<!-- mysql_connector_constants&#45;&gt;mysql_connector -->
<g id="edge9" class="edge">
<title>mysql_connector_constants&#45;&gt;mysql_connector</title><style>.edge>path:hover{stroke-width:8}</style>
<path fill="none" stroke="black" d="M177.13,-349.52C157.27,-334.86 135.38,-312.84 133.09,-285.93"/>
<path fill="none" stroke="black" d="M133.09,-283.93C129.42,-240.68 95.34,-224.39 118.09,-187.43 121.89,-181.25 153.76,-165.63 181.4,-152.94"/>
<polygon fill="#7f19e6" stroke="black" points="182.92,-156.09 190.57,-148.76 180.02,-149.72 182.92,-156.09"/>
</g>
<!-- mysql_connector_constants&#45;&gt;mysql_connector_connection -->
<g id="edge10" class="edge">
<title>mysql_connector_constants&#45;&gt;mysql_connector_connection</title><style>.edge>path:hover{stroke-width:8}</style>
<path fill="none" stroke="black" d="M243.15,-349.42C262.32,-337.82 286.63,-323.11 307.02,-310.78"/>
<polygon fill="#7f19e6" stroke="black" points="309.04,-313.64 315.78,-305.47 305.42,-307.66 309.04,-313.64"/>
</g>
<!-- mysql_connector_constants&#45;&gt;mysql_connector_connection_cext -->
<g id="edge11" class="edge">
<title>mysql_connector_constants&#45;&gt;mysql_connector_connection_cext</title><style>.edge>path:hover{stroke-width:8}</style>
<path fill="none" stroke="black" d="M209.75,-341.15C209.66,-332.9 209.55,-323.87 209.45,-315.54"/>
<polygon fill="#7f19e6" stroke="black" points="212.95,-315.43 209.33,-305.48 205.95,-315.52 212.95,-315.43"/>
</g>
<!-- mysql_connector_dbapi -->
<g id="node9" class="node">
<title>mysql_connector_dbapi</title><style>.edge>path:hover{stroke-width:8}</style>
<polygon fill="blue" stroke="black" points="194.59,-228.43 127.59,-228.43 127.59,-187.43 194.59,-187.43 194.59,-228.43"/>
<text text-anchor="middle" x="161.09" y="-216.43" font-family="Helvetica,sans-Serif" font-size="10.00" fill="white">mysql.</text>
<text text-anchor="middle" x="161.09" y="-205.43" font-family="Helvetica,sans-Serif" font-size="10.00" fill="white">connector.</text>
<text text-anchor="middle" x="161.09" y="-194.43" font-family="Helvetica,sans-Serif" font-size="10.00" fill="white">dbapi</text>
</g>
<!-- mysql_connector_constants&#45;&gt;mysql_connector_dbapi -->
<g id="edge12" class="edge">
<title>mysql_connector_constants&#45;&gt;mysql_connector_dbapi</title><style>.edge>path:hover{stroke-width:8}</style>
<path fill="none" stroke="black" d="M133.09,-283.93C131.74,-267.95 137.29,-251.14 143.8,-237.49"/>
<polygon fill="#7f19e6" stroke="black" points="146.91,-239.09 148.39,-228.6 140.69,-235.88 146.91,-239.09"/>
</g>
<!-- mysql_connector_constants&#45;&gt;mysql_connector_pooling -->
<g id="edge13" class="edge">
<title>mysql_connector_constants&#45;&gt;mysql_connector_pooling</title><style>.edge>path:hover{stroke-width:8}</style>
<path fill="none" stroke="black" d="M133.09,-283.93C131.02,-259.48 196.15,-235.06 241.8,-221"/>
<polygon fill="#7f19e6" stroke="black" points="242.94,-224.31 251.51,-218.08 240.92,-217.61 242.94,-224.31"/>
</g>
<!-- mysql_connector_dbapi&#45;&gt;mysql_connector -->
<g id="edge14" class="edge">
<title>mysql_connector_dbapi&#45;&gt;mysql_connector</title><style>.edge>path:hover{stroke-width:8}</style>
<path fill="none" stroke="black" d="M178.03,-187.12C185.36,-178.55 194,-168.44 201.76,-159.38"/>
<polygon fill="blue" stroke="black" points="204.44,-161.62 208.28,-151.75 199.12,-157.07 204.44,-161.62"/>
</g>
<!-- mysql_connector_errors -->
<g id="node10" class="node">
<title>mysql_connector_errors</title><style>.edge>path:hover{stroke-width:8}</style>
<ellipse fill="#8522e7" stroke="black" cx="285.09" cy="-464.4" rx="47.25" ry="28.98"/>
<text text-anchor="middle" x="285.09" y="-472.9" font-family="Helvetica,sans-Serif" font-size="10.00" fill="#ffffff">mysql.</text>
<text text-anchor="middle" x="285.09" y="-461.9" font-family="Helvetica,sans-Serif" font-size="10.00" fill="#ffffff">connector.</text>
<text text-anchor="middle" x="285.09" y="-450.9" font-family="Helvetica,sans-Serif" font-size="10.00" fill="#ffffff">errors</text>
</g>
<!-- mysql_connector_errors&#45;&gt;mysql_connector -->
<g id="edge15" class="edge">
<title>mysql_connector_errors&#45;&gt;mysql_connector</title><style>.edge>path:hover{stroke-width:8}</style>
<path fill="none" stroke="black" d="M328.98,-453.19C358.24,-444.05 395.05,-427.61 416.09,-399.41 446.68,-358.43 424.6,-335.98 435.09,-285.93"/>
</g>
<!-- mysql_connector_errors&#45;&gt;mysql_connector_connection -->
<g id="edge16" class="edge">
<title>mysql_connector_errors&#45;&gt;mysql_connector_connection</title><style>.edge>path:hover{stroke-width:8}</style>
<path fill="none" stroke="black" d="M285.09,-369.42C284.53,-347.27 298.82,-327.26 313.93,-312.39"/>
<polygon fill="#8522e7" stroke="black" points="316.39,-314.88 321.35,-305.52 311.64,-309.74 316.39,-314.88"/>
</g>
<!-- mysql_connector_errors&#45;&gt;mysql_connector_connection_cext -->
<g id="edge17" class="edge">
<title>mysql_connector_errors&#45;&gt;mysql_connector_connection_cext</title><style>.edge>path:hover{stroke-width:8}</style>
<path fill="none" stroke="black" d="M285.46,-435.22C285.61,-417.01 285.63,-392.81 285.09,-371.42"/>
<path fill="none" stroke="black" d="M285.09,-369.42C284.5,-345.97 267.85,-326.2 250.29,-311.79"/>
<polygon fill="#8522e7" stroke="black" points="252.27,-308.89 242.21,-305.55 247.99,-314.44 252.27,-308.89"/>
</g>
<!-- mysql_connector_errors&#45;&gt;mysql_connector_constants -->
<g id="edge18" class="edge">
<title>mysql_connector_errors&#45;&gt;mysql_connector_constants</title><style>.edge>path:hover{stroke-width:8}</style>
<path fill="none" stroke="black" d="M264.2,-437.78C255.76,-427.43 245.91,-415.35 236.95,-404.36"/>
<polygon fill="#8522e7" stroke="black" points="239.65,-402.12 230.61,-396.58 234.22,-406.55 239.65,-402.12"/>
</g>
<!-- mysql_connector_errors&#45;&gt;mysql_connector_pooling -->
<g id="edge19" class="edge">
<title>mysql_connector_errors&#45;&gt;mysql_connector_pooling</title><style>.edge>path:hover{stroke-width:8}</style>
<path fill="none" stroke="black" d="M285.09,-369.42C283.94,-323.87 284.26,-271.03 284.64,-238.8"/>
<polygon fill="#8522e7" stroke="black" points="288.14,-238.74 284.77,-228.7 281.14,-238.65 288.14,-238.74"/>
</g>
<!-- mysql_connector_pooling&#45;&gt;mysql_connector -->
<g id="edge20" class="edge">
<title>mysql_connector_pooling&#45;&gt;mysql_connector</title><style>.edge>path:hover{stroke-width:8}</style>
<path fill="none" stroke="black" d="M268.15,-187.12C260.83,-178.55 252.18,-168.44 244.43,-159.38"/>
<polygon fill="blue" stroke="black" points="247.06,-157.07 237.9,-151.75 241.74,-161.62 247.06,-157.07"/>
</g>
<!-- mysql_connector_version -->
<g id="node12" class="node">
<title>mysql_connector_version</title><style>.edge>path:hover{stroke-width:8}</style>
<ellipse fill="#853bce" stroke="black" cx="360.09" cy="-370.42" rx="47.25" ry="28.98"/>
<text text-anchor="middle" x="360.09" y="-378.92" font-family="Helvetica,sans-Serif" font-size="10.00" fill="#ffffff">mysql.</text>
<text text-anchor="middle" x="360.09" y="-367.92" font-family="Helvetica,sans-Serif" font-size="10.00" fill="#ffffff">connector.</text>
<text text-anchor="middle" x="360.09" y="-356.92" font-family="Helvetica,sans-Serif" font-size="10.00" fill="#ffffff">version</text>
</g>
<!-- mysql_connector_version&#45;&gt;mysql_connector -->
<g id="edge21" class="edge">
<title>mysql_connector_version&#45;&gt;mysql_connector</title><style>.edge>path:hover{stroke-width:8}</style>
<path fill="none" stroke="black" d="M390.9,-348.35C409.13,-333.48 429.7,-311.67 435.09,-285.93"/>
<path fill="none" stroke="black" d="M435.09,-283.93C441.93,-251.3 446.81,-240.13 435.09,-208.93"/>
</g>
<!-- mysql_connector_version&#45;&gt;mysql_connector_connection -->
<g id="edge22" class="edge">
<title>mysql_connector_version&#45;&gt;mysql_connector_connection</title><style>.edge>path:hover{stroke-width:8}</style>
<path fill="none" stroke="black" d="M356.03,-341.15C354.84,-332.9 353.55,-323.87 352.35,-315.54"/>
<polygon fill="#853bce" stroke="black" points="355.79,-314.88 350.9,-305.48 348.86,-315.87 355.79,-314.88"/>
</g>
<!-- mysql_connector_version&#45;&gt;mysql_connector_connection_cext -->
<g id="edge23" class="edge">
<title>mysql_connector_version&#45;&gt;mysql_connector_connection_cext</title><style>.edge>path:hover{stroke-width:8}</style>
<path fill="none" stroke="black" d="M325.45,-350.26C304.08,-338.45 276.46,-323.18 253.5,-310.48"/>
<polygon fill="#853bce" stroke="black" points="255.07,-307.35 244.62,-305.57 251.68,-313.47 255.07,-307.35"/>
</g>
</g>
</svg>
