<?xml version="1.0" encoding="UTF-8" standalone="no"?>
<!DOCTYPE svg PUBLIC "-//W3C//DTD SVG 1.1//EN"
 "http://www.w3.org/Graphics/SVG/1.1/DTD/svg11.dtd">
<!-- Generated by graphviz version 2.43.0 (0)
 -->
<!-- Title: G Pages: 1 -->
<svg width="368pt" height="659pt"
 viewBox="0.00 0.00 368.22 659.37" xmlns="http://www.w3.org/2000/svg" xmlns:xlink="http://www.w3.org/1999/xlink">
<g id="graph0" class="graph" transform="scale(1 1) rotate(0) translate(4 655.37)">
<title>G</title><style>.edge>path:hover{stroke-width:8}</style>
<polygon fill="white" stroke="transparent" points="-4,4 -4,-655.37 364.22,-655.37 364.22,4 -4,4"/>
<!-- db_get_linked_notes_utils_py -->
<g id="node1" class="node">
<title>db_get_linked_notes_utils_py</title><style>.edge>path:hover{stroke-width:8}</style>
<ellipse fill="#924e4e" stroke="black" cx="167.73" cy="-21.21" rx="103.48" ry="21.43"/>
<text text-anchor="middle" x="167.73" y="-24.21" font-family="Helvetica,sans-Serif" font-size="10.00" fill="#ffffff">db_get_linked_notes_utils.</text>
<text text-anchor="middle" x="167.73" y="-13.21" font-family="Helvetica,sans-Serif" font-size="10.00" fill="#ffffff">py</text>
</g>
<!-- dotenv -->
<g id="node2" class="node">
<title>dotenv</title><style>.edge>path:hover{stroke-width:8}</style>
<ellipse fill="#85b653" stroke="black" cx="260.73" cy="-633.37" rx="29.37" ry="18"/>
<text text-anchor="middle" x="260.73" y="-630.87" font-family="Helvetica,sans-Serif" font-size="10.00" fill="#000000">dotenv</text>
</g>
<!-- logger_setup -->
<g id="node8" class="node">
<title>logger_setup</title><style>.edge>path:hover{stroke-width:8}</style>
<ellipse fill="#7f26d9" stroke="black" cx="260.73" cy="-561.37" rx="47.19" ry="18"/>
<text text-anchor="middle" x="260.73" y="-558.87" font-family="Helvetica,sans-Serif" font-size="10.00" fill="#ffffff">logger_setup</text>
</g>
<!-- dotenv&#45;&gt;logger_setup -->
<g id="edge1" class="edge">
<title>dotenv&#45;&gt;logger_setup</title><style>.edge>path:hover{stroke-width:8}</style>
<path fill="none" stroke="black" d="M260.73,-615.07C260.73,-607.36 260.73,-598.09 260.73,-589.49"/>
<polygon fill="#85b653" stroke="black" points="264.23,-589.48 260.73,-579.48 257.23,-589.48 264.23,-589.48"/>
</g>
<!-- handlers -->
<g id="node3" class="node">
<title>handlers</title><style>.edge>path:hover{stroke-width:8}</style>
<ellipse fill="#3bcece" stroke="black" cx="34.73" cy="-133.43" rx="34.96" ry="18"/>
<text text-anchor="middle" x="34.73" y="-130.93" font-family="Helvetica,sans-Serif" font-size="10.00" fill="#000000">handlers</text>
</g>
<!-- handlers&#45;&gt;db_get_linked_notes_utils_py -->
<g id="edge2" class="edge">
<title>handlers&#45;&gt;db_get_linked_notes_utils_py</title><style>.edge>path:hover{stroke-width:8}</style>
<path fill="none" stroke="black" d="M61.62,-121.78C100.44,-106.41 167.61,-79.76 167.73,-79.43"/>
<path fill="none" stroke="black" d="M167.73,-78.43C170.6,-70.31 171.49,-61.12 171.43,-52.56"/>
<polygon fill="#3bcece" stroke="black" points="174.92,-52.36 170.95,-42.54 167.93,-52.69 174.92,-52.36"/>
</g>
<!-- handlers_sql -->
<g id="node4" class="node">
<title>handlers_sql</title><style>.edge>path:hover{stroke-width:8}</style>
<ellipse fill="#3bcece" stroke="black" cx="131.73" cy="-133.43" rx="44.98" ry="18"/>
<text text-anchor="middle" x="131.73" y="-130.93" font-family="Helvetica,sans-Serif" font-size="10.00" fill="#000000">handlers.sql</text>
</g>
<!-- handlers_sql&#45;&gt;db_get_linked_notes_utils_py -->
<g id="edge3" class="edge">
<title>handlers_sql&#45;&gt;db_get_linked_notes_utils_py</title><style>.edge>path:hover{stroke-width:8}</style>
<path fill="none" stroke="black" d="M146.17,-115.99C153.99,-106.1 162.99,-92.85 167.73,-79.43"/>
</g>
<!-- handlers_sql_db_connection -->
<g id="node5" class="node">
<title>handlers_sql_db_connection</title><style>.edge>path:hover{stroke-width:8}</style>
<ellipse fill="#40bfc0" stroke="black" cx="260.73" cy="-404.38" rx="61.54" ry="28.98"/>
<text text-anchor="middle" x="260.73" y="-412.88" font-family="Helvetica,sans-Serif" font-size="10.00" fill="#000000">handlers.</text>
<text text-anchor="middle" x="260.73" y="-401.88" font-family="Helvetica,sans-Serif" font-size="10.00" fill="#000000">sql.</text>
<text text-anchor="middle" x="260.73" y="-390.88" font-family="Helvetica,sans-Serif" font-size="10.00" fill="#000000">db_connection</text>
</g>
<!-- handlers_sql_db_get_linked_data -->
<g id="node6" class="node">
<title>handlers_sql_db_get_linked_data</title><style>.edge>path:hover{stroke-width:8}</style>
<ellipse fill="#409696" stroke="black" cx="204.73" cy="-216.42" rx="78.48" ry="28.98"/>
<text text-anchor="middle" x="204.73" y="-224.92" font-family="Helvetica,sans-Serif" font-size="10.00" fill="#ffffff">handlers.</text>
<text text-anchor="middle" x="204.73" y="-213.92" font-family="Helvetica,sans-Serif" font-size="10.00" fill="#ffffff">sql.</text>
<text text-anchor="middle" x="204.73" y="-202.92" font-family="Helvetica,sans-Serif" font-size="10.00" fill="#ffffff">db_get_linked_data</text>
</g>
<!-- handlers_sql_db_connection&#45;&gt;handlers_sql_db_get_linked_data -->
<g id="edge4" class="edge">
<title>handlers_sql_db_connection&#45;&gt;handlers_sql_db_get_linked_data</title><style>.edge>path:hover{stroke-width:8}</style>
<path fill="none" stroke="black" d="M303.24,-383.24C330.54,-367.06 359.41,-342.03 350.73,-311.4"/>
<path fill="none" stroke="black" d="M350.73,-309.4C340.92,-274.77 308.16,-252.39 276.15,-238.38"/>
<polygon fill="#40bfc0" stroke="black" points="277.3,-235.07 266.72,-234.47 274.62,-241.53 277.3,-235.07"/>
</g>
<!-- handlers_sql_db_utils -->
<g id="node7" class="node">
<title>handlers_sql_db_utils</title><style>.edge>path:hover{stroke-width:8}</style>
<ellipse fill="#439d9d" stroke="black" cx="170.73" cy="-310.4" rx="43.68" ry="28.98"/>
<text text-anchor="middle" x="170.73" y="-318.9" font-family="Helvetica,sans-Serif" font-size="10.00" fill="#000000">handlers.</text>
<text text-anchor="middle" x="170.73" y="-307.9" font-family="Helvetica,sans-Serif" font-size="10.00" fill="#000000">sql.</text>
<text text-anchor="middle" x="170.73" y="-296.9" font-family="Helvetica,sans-Serif" font-size="10.00" fill="#000000">db_utils</text>
</g>
<!-- handlers_sql_db_connection&#45;&gt;handlers_sql_db_utils -->
<g id="edge5" class="edge">
<title>handlers_sql_db_connection&#45;&gt;handlers_sql_db_utils</title><style>.edge>path:hover{stroke-width:8}</style>
<path fill="none" stroke="black" d="M235.66,-377.76C224.99,-366.86 212.46,-354.04 201.26,-342.6"/>
<polygon fill="#40bfc0" stroke="black" points="203.62,-340.01 194.12,-335.31 198.61,-344.9 203.62,-340.01"/>
</g>
<!-- handlers_sql_db_get_linked_data&#45;&gt;db_get_linked_notes_utils_py -->
<g id="edge6" class="edge">
<title>handlers_sql_db_get_linked_data&#45;&gt;db_get_linked_notes_utils_py</title><style>.edge>path:hover{stroke-width:8}</style>
<path fill="none" stroke="black" d="M204.93,-187.3C204.98,-171.72 204.98,-152 204.73,-134.43"/>
</g>
<!-- handlers_sql_db_utils&#45;&gt;handlers_sql_db_get_linked_data -->
<g id="edge7" class="edge">
<title>handlers_sql_db_utils&#45;&gt;handlers_sql_db_get_linked_data</title><style>.edge>path:hover{stroke-width:8}</style>
<path fill="none" stroke="black" d="M180.93,-281.8C184.06,-273.33 187.56,-263.86 190.9,-254.85"/>
<polygon fill="#439d9d" stroke="black" points="194.24,-255.91 194.42,-245.31 187.67,-253.48 194.24,-255.91"/>
</g>
<!-- logger_setup&#45;&gt;db_get_linked_notes_utils_py -->
<g id="edge8" class="edge">
<title>logger_setup&#45;&gt;db_get_linked_notes_utils_py</title><style>.edge>path:hover{stroke-width:8}</style>
<path fill="none" stroke="black" d="M260.86,-543.12C260.97,-525 261.05,-495.69 260.73,-470.37"/>
<path fill="none" stroke="black" d="M260.73,-469.37C259.8,-434.01 216.29,-456.75 189.73,-433.37 178.45,-423.44 179.88,-417.32 170.73,-405.38"/>
<path fill="none" stroke="black" d="M170.73,-403.38C148.27,-374.07 130.25,-374.13 117.73,-339.39 94.83,-275.85 82.89,-245.29 117.73,-187.43 141.09,-148.64 205.37,-179.7 204.73,-134.43"/>
<path fill="none" stroke="black" d="M204.73,-132.43C203.76,-103.72 158.16,-106.51 167.73,-79.43"/>
</g>
<!-- logger_setup&#45;&gt;handlers_sql_db_connection -->
<g id="edge9" class="edge">
<title>logger_setup&#45;&gt;handlers_sql_db_connection</title><style>.edge>path:hover{stroke-width:8}</style>
<path fill="none" stroke="black" d="M260.73,-469.37C260.73,-461 260.73,-452.01 260.73,-443.5"/>
<polygon fill="#7f26d9" stroke="black" points="264.23,-443.42 260.73,-433.42 257.23,-443.42 264.23,-443.42"/>
</g>
<!-- logger_setup&#45;&gt;handlers_sql_db_get_linked_data -->
<g id="edge10" class="edge">
<title>logger_setup&#45;&gt;handlers_sql_db_get_linked_data</title><style>.edge>path:hover{stroke-width:8}</style>
<path fill="none" stroke="black" d="M260.73,-469.37C260.73,-433.99 310.94,-462 331.73,-433.37 363.97,-388.98 365.69,-364.19 350.73,-311.4"/>
</g>
<!-- logger_setup&#45;&gt;handlers_sql_db_utils -->
<g id="edge11" class="edge">
<title>logger_setup&#45;&gt;handlers_sql_db_utils</title><style>.edge>path:hover{stroke-width:8}</style>
<path fill="none" stroke="black" d="M170.73,-403.38C159.15,-388.27 158.36,-367.27 160.82,-349.16"/>
<polygon fill="#7f26d9" stroke="black" points="164.29,-349.62 162.53,-339.17 157.39,-348.43 164.29,-349.62"/>
</g>
</g>
</svg>
