<?xml version="1.0" encoding="UTF-8" standalone="no"?>
<!DOCTYPE svg PUBLIC "-//W3C//DTD SVG 1.1//EN"
 "http://www.w3.org/Graphics/SVG/1.1/DTD/svg11.dtd">
<!-- Generated by graphviz version 2.43.0 (0)
 -->
<!-- Title: G Pages: 1 -->
<svg width="476pt" height="565pt"
 viewBox="0.00 0.00 476.13 565.39" xmlns="http://www.w3.org/2000/svg" xmlns:xlink="http://www.w3.org/1999/xlink">
<g id="graph0" class="graph" transform="scale(1 1) rotate(0) translate(4 561.39)">
<title>G</title><style>.edge>path:hover{stroke-width:8}</style>
<polygon fill="white" stroke="transparent" points="-4,4 -4,-561.39 472.13,-561.39 472.13,4 -4,4"/>
<!-- db_categs_py -->
<g id="node1" class="node">
<title>db_categs_py</title><style>.edge>path:hover{stroke-width:8}</style>
<ellipse fill="#774040" stroke="black" cx="204.73" cy="-18" rx="47.86" ry="18"/>
<text text-anchor="middle" x="204.73" y="-15.5" font-family="Helvetica,sans-Serif" font-size="10.00" fill="#ffffff">db_categs.py</text>
</g>
<!-- dotenv -->
<g id="node2" class="node">
<title>dotenv</title><style>.edge>path:hover{stroke-width:8}</style>
<ellipse fill="#a2b653" stroke="black" cx="285.73" cy="-539.39" rx="29.37" ry="18"/>
<text text-anchor="middle" x="285.73" y="-536.89" font-family="Helvetica,sans-Serif" font-size="10.00" fill="#000000">dotenv</text>
</g>
<!-- logger_setup -->
<g id="node10" class="node">
<title>logger_setup</title><style>.edge>path:hover{stroke-width:8}</style>
<ellipse fill="#196be6" stroke="black" cx="285.73" cy="-464.18" rx="47.19" ry="18"/>
<text text-anchor="middle" x="285.73" y="-461.68" font-family="Helvetica,sans-Serif" font-size="10.00" fill="#ffffff">logger_setup</text>
</g>
<!-- dotenv&#45;&gt;logger_setup -->
<g id="edge1" class="edge">
<title>dotenv&#45;&gt;logger_setup</title><style>.edge>path:hover{stroke-width:8}</style>
<path fill="none" stroke="black" d="M285.73,-521.04C285.73,-512.56 285.73,-502.16 285.73,-492.63"/>
<polygon fill="#a2b653" stroke="black" points="289.23,-492.4 285.73,-482.4 282.23,-492.4 289.23,-492.4"/>
</g>
<!-- handlers -->
<g id="node3" class="node">
<title>handlers</title><style>.edge>path:hover{stroke-width:8}</style>
<ellipse fill="#47c278" stroke="black" cx="34.73" cy="-127" rx="34.96" ry="18"/>
<text text-anchor="middle" x="34.73" y="-124.5" font-family="Helvetica,sans-Serif" font-size="10.00" fill="#000000">handlers</text>
</g>
<!-- handlers&#45;&gt;db_categs_py -->
<g id="edge2" class="edge">
<title>handlers&#45;&gt;db_categs_py</title><style>.edge>path:hover{stroke-width:8}</style>
<path fill="none" stroke="black" d="M60.96,-115.15C66.46,-113.01 72.26,-110.85 77.73,-109 133.3,-90.19 203.44,-131.65 204.73,-73"/>
<path fill="none" stroke="black" d="M204.73,-72C204.91,-63.68 204.97,-54.63 204.96,-46.4"/>
<polygon fill="#47c278" stroke="black" points="208.46,-46.17 204.92,-36.19 201.46,-46.2 208.46,-46.17"/>
</g>
<!-- handlers_sql -->
<g id="node4" class="node">
<title>handlers_sql</title><style>.edge>path:hover{stroke-width:8}</style>
<ellipse fill="#47c278" stroke="black" cx="131.73" cy="-127" rx="44.98" ry="18"/>
<text text-anchor="middle" x="131.73" y="-124.5" font-family="Helvetica,sans-Serif" font-size="10.00" fill="#000000">handlers.sql</text>
</g>
<!-- handlers_sql&#45;&gt;db_categs_py -->
<g id="edge3" class="edge">
<title>handlers_sql&#45;&gt;db_categs_py</title><style>.edge>path:hover{stroke-width:8}</style>
<path fill="none" stroke="black" d="M166.2,-115.29C184.88,-107.11 204.28,-93.67 204.73,-73"/>
</g>
<!-- handlers_sql_db_connection -->
<g id="node5" class="node">
<title>handlers_sql_db_connection</title><style>.edge>path:hover{stroke-width:8}</style>
<ellipse fill="#3ab069" stroke="black" cx="123.73" cy="-303.97" rx="61.54" ry="28.98"/>
<text text-anchor="middle" x="123.73" y="-312.47" font-family="Helvetica,sans-Serif" font-size="10.00" fill="#000000">handlers.</text>
<text text-anchor="middle" x="123.73" y="-301.47" font-family="Helvetica,sans-Serif" font-size="10.00" fill="#000000">sql.</text>
<text text-anchor="middle" x="123.73" y="-290.47" font-family="Helvetica,sans-Serif" font-size="10.00" fill="#000000">db_connection</text>
</g>
<!-- handlers_sql_db_connection&#45;&gt;db_categs_py -->
<g id="edge4" class="edge">
<title>handlers_sql_db_connection&#45;&gt;db_categs_py</title><style>.edge>path:hover{stroke-width:8}</style>
<path fill="none" stroke="black" d="M125.75,-274.76C128.6,-248.96 135.42,-210.46 151.73,-181 167.86,-151.85 197.96,-160.62 204.73,-128"/>
<path fill="none" stroke="black" d="M204.73,-126C208.98,-102.83 204.21,-96.55 204.73,-73"/>
</g>
<!-- handlers_sql_db_utils -->
<g id="node6" class="node">
<title>handlers_sql_db_utils</title><style>.edge>path:hover{stroke-width:8}</style>
<ellipse fill="#439d67" stroke="black" cx="204.73" cy="-209.99" rx="43.68" ry="28.98"/>
<text text-anchor="middle" x="204.73" y="-218.49" font-family="Helvetica,sans-Serif" font-size="10.00" fill="#ffffff">handlers.</text>
<text text-anchor="middle" x="204.73" y="-207.49" font-family="Helvetica,sans-Serif" font-size="10.00" fill="#ffffff">sql.</text>
<text text-anchor="middle" x="204.73" y="-196.49" font-family="Helvetica,sans-Serif" font-size="10.00" fill="#ffffff">db_utils</text>
</g>
<!-- handlers_sql_db_connection&#45;&gt;handlers_sql_db_utils -->
<g id="edge5" class="edge">
<title>handlers_sql_db_connection&#45;&gt;handlers_sql_db_utils</title><style>.edge>path:hover{stroke-width:8}</style>
<path fill="none" stroke="black" d="M146.73,-276.86C155.91,-266.43 166.58,-254.32 176.25,-243.34"/>
<polygon fill="#3ab069" stroke="black" points="179.09,-245.41 183.07,-235.59 173.84,-240.78 179.09,-245.41"/>
</g>
<!-- handlers_sql_db_utils&#45;&gt;db_categs_py -->
<g id="edge6" class="edge">
<title>handlers_sql_db_utils&#45;&gt;db_categs_py</title><style>.edge>path:hover{stroke-width:8}</style>
<path fill="none" stroke="black" d="M201.95,-180.97C201.07,-165.24 201.13,-145.35 204.73,-128"/>
</g>
<!-- handlers_utils -->
<g id="node7" class="node">
<title>handlers_utils</title><style>.edge>path:hover{stroke-width:8}</style>
<ellipse fill="#53b67b" stroke="black" cx="281.73" cy="-127" rx="48.72" ry="18"/>
<text text-anchor="middle" x="281.73" y="-124.5" font-family="Helvetica,sans-Serif" font-size="10.00" fill="#000000">handlers.utils</text>
</g>
<!-- handlers_utils&#45;&gt;db_categs_py -->
<g id="edge7" class="edge">
<title>handlers_utils&#45;&gt;db_categs_py</title><style>.edge>path:hover{stroke-width:8}</style>
<path fill="none" stroke="black" d="M243.8,-115.45C224.13,-107.43 204.27,-94.09 204.73,-73"/>
</g>
<!-- handlers_utils_normalization -->
<g id="node8" class="node">
<title>handlers_utils_normalization</title><style>.edge>path:hover{stroke-width:8}</style>
<ellipse fill="#4cb375" stroke="black" cx="408.73" cy="-209.99" rx="59.29" ry="28.98"/>
<text text-anchor="middle" x="408.73" y="-218.49" font-family="Helvetica,sans-Serif" font-size="10.00" fill="#000000">handlers.</text>
<text text-anchor="middle" x="408.73" y="-207.49" font-family="Helvetica,sans-Serif" font-size="10.00" fill="#000000">utils.</text>
<text text-anchor="middle" x="408.73" y="-196.49" font-family="Helvetica,sans-Serif" font-size="10.00" fill="#000000">normalization</text>
</g>
<!-- handlers_utils_normalization&#45;&gt;db_categs_py -->
<g id="edge8" class="edge">
<title>handlers_utils_normalization&#45;&gt;db_categs_py</title><style>.edge>path:hover{stroke-width:8}</style>
<path fill="none" stroke="black" d="M393.82,-181.83C384.5,-165.66 371.81,-145.04 358.73,-128"/>
</g>
<!-- handlers_utils_paths -->
<g id="node9" class="node">
<title>handlers_utils_paths</title><style>.edge>path:hover{stroke-width:8}</style>
<ellipse fill="#4cb375" stroke="black" cx="285.73" cy="-303.97" rx="43.68" ry="28.98"/>
<text text-anchor="middle" x="285.73" y="-312.47" font-family="Helvetica,sans-Serif" font-size="10.00" fill="#000000">handlers.</text>
<text text-anchor="middle" x="285.73" y="-301.47" font-family="Helvetica,sans-Serif" font-size="10.00" fill="#000000">utils.</text>
<text text-anchor="middle" x="285.73" y="-290.47" font-family="Helvetica,sans-Serif" font-size="10.00" fill="#000000">paths</text>
</g>
<!-- handlers_utils_paths&#45;&gt;db_categs_py -->
<g id="edge9" class="edge">
<title>handlers_utils_paths&#45;&gt;db_categs_py</title><style>.edge>path:hover{stroke-width:8}</style>
<path fill="none" stroke="black" d="M299.03,-275.93C307.16,-257.98 316.91,-233.64 321.73,-210.99"/>
<path fill="none" stroke="black" d="M321.73,-208.99C329.97,-170.28 382.82,-159.4 358.73,-128"/>
<path fill="none" stroke="black" d="M358.73,-126C351.83,-117.01 349.7,-114.39 339.73,-109 285.1,-79.49 203.36,-135.08 204.73,-73"/>
</g>
<!-- logger_setup&#45;&gt;db_categs_py -->
<g id="edge10" class="edge">
<title>logger_setup&#45;&gt;db_categs_py</title><style>.edge>path:hover{stroke-width:8}</style>
<path fill="none" stroke="black" d="M285.73,-368.97C276.43,-342.05 318.6,-353.1 338.73,-332.97 349.36,-322.33 351.11,-318.47 357.73,-304.97"/>
<path fill="none" stroke="black" d="M357.73,-302.97C377.07,-263.56 312.59,-253.93 321.73,-210.99"/>
</g>
<!-- logger_setup&#45;&gt;handlers_sql_db_connection -->
<g id="edge11" class="edge">
<title>logger_setup&#45;&gt;handlers_sql_db_connection</title><style>.edge>path:hover{stroke-width:8}</style>
<path fill="none" stroke="black" d="M288.5,-445.95C290.92,-426.95 293.03,-395.65 285.73,-369.97"/>
<path fill="none" stroke="black" d="M285.73,-368.97C284.75,-366.24 226.76,-343.79 180.44,-326.25"/>
<polygon fill="#196be6" stroke="black" points="181.65,-322.96 171.06,-322.7 179.17,-329.51 181.65,-322.96"/>
</g>
<!-- logger_setup&#45;&gt;handlers_sql_db_utils -->
<g id="edge12" class="edge">
<title>logger_setup&#45;&gt;handlers_sql_db_utils</title><style>.edge>path:hover{stroke-width:8}</style>
<path fill="none" stroke="black" d="M285.73,-368.97C276.13,-342.16 248.81,-356.47 232.73,-332.97 215.86,-308.3 209.03,-274.93 206.33,-249.32"/>
<polygon fill="#196be6" stroke="black" points="209.81,-248.88 205.43,-239.23 202.83,-249.5 209.81,-248.88"/>
</g>
<!-- logger_setup&#45;&gt;handlers_utils_normalization -->
<g id="edge13" class="edge">
<title>logger_setup&#45;&gt;handlers_utils_normalization</title><style>.edge>path:hover{stroke-width:8}</style>
<path fill="none" stroke="black" d="M357.73,-302.97C366.96,-284.16 378.16,-263.74 387.72,-246.92"/>
<polygon fill="#196be6" stroke="black" points="390.9,-248.4 392.83,-237.98 384.83,-244.92 390.9,-248.4"/>
</g>
<!-- logger_setup&#45;&gt;handlers_utils_paths -->
<g id="edge14" class="edge">
<title>logger_setup&#45;&gt;handlers_utils_paths</title><style>.edge>path:hover{stroke-width:8}</style>
<path fill="none" stroke="black" d="M285.73,-368.97C283.42,-360.84 282.48,-351.89 282.31,-343.33"/>
<polygon fill="#196be6" stroke="black" points="285.81,-343.19 282.43,-333.15 278.81,-343.11 285.81,-343.19"/>
</g>
<!-- mysql -->
<g id="node11" class="node">
<title>mysql</title><style>.edge>path:hover{stroke-width:8}</style>
<ellipse fill="#a947c2" stroke="black" cx="31.73" cy="-464.18" rx="27.84" ry="18"/>
<text text-anchor="middle" x="31.73" y="-461.68" font-family="Helvetica,sans-Serif" font-size="10.00" fill="#ffffff">mysql</text>
</g>
<!-- mysql&#45;&gt;handlers_sql_db_connection -->
<g id="edge15" class="edge">
<title>mysql&#45;&gt;handlers_sql_db_connection</title><style>.edge>path:hover{stroke-width:8}</style>
<path fill="none" stroke="black" d="M52.22,-451.54C78.91,-436.25 122.36,-410.87 123.73,-406.97"/>
<path fill="none" stroke="black" d="M123.73,-405.97C130.7,-386.04 131.11,-362.53 129.6,-343.21"/>
<polygon fill="#a947c2" stroke="black" points="133.08,-342.85 128.62,-333.24 126.11,-343.53 133.08,-342.85"/>
</g>
<!-- mysql_connector -->
<g id="node12" class="node">
<title>mysql_connector</title><style>.edge>path:hover{stroke-width:8}</style>
<ellipse fill="#9f3db8" stroke="black" cx="123.73" cy="-464.18" rx="45.92" ry="21.43"/>
<text text-anchor="middle" x="123.73" y="-467.18" font-family="Helvetica,sans-Serif" font-size="10.00" fill="#ffffff">mysql.</text>
<text text-anchor="middle" x="123.73" y="-456.18" font-family="Helvetica,sans-Serif" font-size="10.00" fill="#ffffff">connector</text>
</g>
<!-- mysql_connector&#45;&gt;handlers_sql_db_connection -->
<g id="edge16" class="edge">
<title>mysql_connector&#45;&gt;handlers_sql_db_connection</title><style>.edge>path:hover{stroke-width:8}</style>
<path fill="none" stroke="black" d="M120.54,-442.87C119.61,-431.93 119.74,-418.39 123.73,-406.97"/>
</g>
</g>
</svg>
