<?xml version="1.0" encoding="UTF-8" standalone="no"?>
<!DOCTYPE svg PUBLIC "-//W3C//DTD SVG 1.1//EN"
 "http://www.w3.org/Graphics/SVG/1.1/DTD/svg11.dtd">
<!-- Generated by graphviz version 2.43.0 (0)
 -->
<!-- Title: G Pages: 1 -->
<svg width="450pt" height="572pt"
 viewBox="0.00 0.00 450.40 571.82" xmlns="http://www.w3.org/2000/svg" xmlns:xlink="http://www.w3.org/1999/xlink">
<g id="graph0" class="graph" transform="scale(1 1) rotate(0) translate(4 567.82)">
<title>G</title><style>.edge>path:hover{stroke-width:8}</style>
<polygon fill="white" stroke="transparent" points="-4,4 -4,-567.82 446.4,-567.82 446.4,4 -4,4"/>
<!-- db_categs_utils_py -->
<g id="node1" class="node">
<title>db_categs_utils_py</title><style>.edge>path:hover{stroke-width:8}</style>
<ellipse fill="#8b4b4b" stroke="black" cx="167.73" cy="-21.21" rx="67.35" ry="21.43"/>
<text text-anchor="middle" x="167.73" y="-24.21" font-family="Helvetica,sans-Serif" font-size="10.00" fill="#ffffff">db_categs_utils.</text>
<text text-anchor="middle" x="167.73" y="-13.21" font-family="Helvetica,sans-Serif" font-size="10.00" fill="#ffffff">py</text>
</g>
<!-- dotenv -->
<g id="node2" class="node">
<title>dotenv</title><style>.edge>path:hover{stroke-width:8}</style>
<ellipse fill="#a2b653" stroke="black" cx="211.73" cy="-545.82" rx="29.37" ry="18"/>
<text text-anchor="middle" x="211.73" y="-543.32" font-family="Helvetica,sans-Serif" font-size="10.00" fill="#000000">dotenv</text>
</g>
<!-- logger_setup -->
<g id="node7" class="node">
<title>logger_setup</title><style>.edge>path:hover{stroke-width:8}</style>
<ellipse fill="#3370cc" stroke="black" cx="211.73" cy="-470.61" rx="47.19" ry="18"/>
<text text-anchor="middle" x="211.73" y="-468.11" font-family="Helvetica,sans-Serif" font-size="10.00" fill="#ffffff">logger_setup</text>
</g>
<!-- dotenv&#45;&gt;logger_setup -->
<g id="edge1" class="edge">
<title>dotenv&#45;&gt;logger_setup</title><style>.edge>path:hover{stroke-width:8}</style>
<path fill="none" stroke="black" d="M211.73,-527.47C211.73,-518.99 211.73,-508.58 211.73,-499.06"/>
<polygon fill="#a2b653" stroke="black" points="215.23,-498.83 211.73,-488.83 208.23,-498.83 215.23,-498.83"/>
</g>
<!-- handlers -->
<g id="node3" class="node">
<title>handlers</title><style>.edge>path:hover{stroke-width:8}</style>
<ellipse fill="#47c278" stroke="black" cx="34.73" cy="-133.43" rx="34.96" ry="18"/>
<text text-anchor="middle" x="34.73" y="-130.93" font-family="Helvetica,sans-Serif" font-size="10.00" fill="#000000">handlers</text>
</g>
<!-- handlers&#45;&gt;db_categs_utils_py -->
<g id="edge2" class="edge">
<title>handlers&#45;&gt;db_categs_utils_py</title><style>.edge>path:hover{stroke-width:8}</style>
<path fill="none" stroke="black" d="M61.62,-121.78C100.44,-106.41 167.61,-79.76 167.73,-79.43"/>
<path fill="none" stroke="black" d="M167.73,-78.43C170.6,-70.31 171.49,-61.12 171.43,-52.56"/>
<polygon fill="#47c278" stroke="black" points="174.92,-52.36 170.95,-42.54 167.93,-52.69 174.92,-52.36"/>
</g>
<!-- handlers_sql -->
<g id="node4" class="node">
<title>handlers_sql</title><style>.edge>path:hover{stroke-width:8}</style>
<ellipse fill="#47c278" stroke="black" cx="131.73" cy="-133.43" rx="44.98" ry="18"/>
<text text-anchor="middle" x="131.73" y="-130.93" font-family="Helvetica,sans-Serif" font-size="10.00" fill="#000000">handlers.sql</text>
</g>
<!-- handlers_sql&#45;&gt;db_categs_utils_py -->
<g id="edge3" class="edge">
<title>handlers_sql&#45;&gt;db_categs_utils_py</title><style>.edge>path:hover{stroke-width:8}</style>
<path fill="none" stroke="black" d="M146.17,-115.99C153.99,-106.1 162.99,-92.85 167.73,-79.43"/>
</g>
<!-- handlers_sql_db_connection -->
<g id="node5" class="node">
<title>handlers_sql_db_connection</title><style>.edge>path:hover{stroke-width:8}</style>
<ellipse fill="#3ab069" stroke="black" cx="294.73" cy="-310.4" rx="61.54" ry="28.98"/>
<text text-anchor="middle" x="294.73" y="-318.9" font-family="Helvetica,sans-Serif" font-size="10.00" fill="#000000">handlers.</text>
<text text-anchor="middle" x="294.73" y="-307.9" font-family="Helvetica,sans-Serif" font-size="10.00" fill="#000000">sql.</text>
<text text-anchor="middle" x="294.73" y="-296.9" font-family="Helvetica,sans-Serif" font-size="10.00" fill="#000000">db_connection</text>
</g>
<!-- handlers_sql_db_connection&#45;&gt;db_categs_utils_py -->
<g id="edge4" class="edge">
<title>handlers_sql_db_connection&#45;&gt;db_categs_utils_py</title><style>.edge>path:hover{stroke-width:8}</style>
<path fill="none" stroke="black" d="M290.28,-281.41C285.27,-255.6 275.42,-216.94 257.73,-187.43 240.61,-158.85 214.52,-166.27 204.73,-134.43"/>
</g>
<!-- handlers_sql_db_utils -->
<g id="node6" class="node">
<title>handlers_sql_db_utils</title><style>.edge>path:hover{stroke-width:8}</style>
<ellipse fill="#439d67" stroke="black" cx="204.73" cy="-216.42" rx="43.68" ry="28.98"/>
<text text-anchor="middle" x="204.73" y="-224.92" font-family="Helvetica,sans-Serif" font-size="10.00" fill="#ffffff">handlers.</text>
<text text-anchor="middle" x="204.73" y="-213.92" font-family="Helvetica,sans-Serif" font-size="10.00" fill="#ffffff">sql.</text>
<text text-anchor="middle" x="204.73" y="-202.92" font-family="Helvetica,sans-Serif" font-size="10.00" fill="#ffffff">db_utils</text>
</g>
<!-- handlers_sql_db_connection&#45;&gt;handlers_sql_db_utils -->
<g id="edge5" class="edge">
<title>handlers_sql_db_connection&#45;&gt;handlers_sql_db_utils</title><style>.edge>path:hover{stroke-width:8}</style>
<path fill="none" stroke="black" d="M269.66,-283.78C258.99,-272.88 246.46,-260.06 235.26,-248.62"/>
<polygon fill="#3ab069" stroke="black" points="237.62,-246.02 228.12,-241.32 232.61,-250.92 237.62,-246.02"/>
</g>
<!-- handlers_sql_db_utils&#45;&gt;db_categs_utils_py -->
<g id="edge6" class="edge">
<title>handlers_sql_db_utils&#45;&gt;db_categs_utils_py</title><style>.edge>path:hover{stroke-width:8}</style>
<path fill="none" stroke="black" d="M208.73,-187.45C210.02,-171.56 209.98,-151.5 204.73,-134.43"/>
</g>
<!-- logger_setup&#45;&gt;db_categs_utils_py -->
<g id="edge7" class="edge">
<title>logger_setup&#45;&gt;db_categs_utils_py</title><style>.edge>path:hover{stroke-width:8}</style>
<path fill="none" stroke="black" d="M239.25,-455.88C267.33,-439.74 305.4,-410.74 294.73,-376.39"/>
<path fill="none" stroke="black" d="M294.73,-375.39C286.99,-340.87 250.29,-362.77 223.73,-339.39 212.45,-329.46 213.88,-323.34 204.73,-311.4"/>
<path fill="none" stroke="black" d="M204.73,-309.4C182.27,-280.09 164.25,-280.15 151.73,-245.41 142.99,-221.17 141.87,-211.23 151.73,-187.43 164.48,-156.65 214.07,-166.4 204.73,-134.43"/>
<path fill="none" stroke="black" d="M204.73,-132.43C195.8,-105.12 158.16,-106.51 167.73,-79.43"/>
</g>
<!-- logger_setup&#45;&gt;handlers_sql_db_connection -->
<g id="edge8" class="edge">
<title>logger_setup&#45;&gt;handlers_sql_db_connection</title><style>.edge>path:hover{stroke-width:8}</style>
<path fill="none" stroke="black" d="M294.73,-375.39C292.2,-367.25 291.19,-358.23 291.01,-349.6"/>
<polygon fill="#3370cc" stroke="black" points="294.52,-349.4 291.16,-339.34 287.52,-349.29 294.52,-349.4"/>
</g>
<!-- logger_setup&#45;&gt;handlers_sql_db_utils -->
<g id="edge9" class="edge">
<title>logger_setup&#45;&gt;handlers_sql_db_utils</title><style>.edge>path:hover{stroke-width:8}</style>
<path fill="none" stroke="black" d="M204.73,-309.4C193.15,-294.28 192.36,-273.29 194.82,-255.17"/>
<polygon fill="#3370cc" stroke="black" points="198.29,-255.63 196.53,-245.19 191.39,-254.45 198.29,-255.63"/>
</g>
<!-- mysql -->
<g id="node8" class="node">
<title>mysql</title><style>.edge>path:hover{stroke-width:8}</style>
<ellipse fill="#a947c2" stroke="black" cx="414.73" cy="-470.61" rx="27.84" ry="18"/>
<text text-anchor="middle" x="414.73" y="-468.11" font-family="Helvetica,sans-Serif" font-size="10.00" fill="#ffffff">mysql</text>
</g>
<!-- mysql&#45;&gt;handlers_sql_db_connection -->
<g id="edge10" class="edge">
<title>mysql&#45;&gt;handlers_sql_db_connection</title><style>.edge>path:hover{stroke-width:8}</style>
<path fill="none" stroke="black" d="M412.4,-452.56C411.42,-441.25 411.2,-426.19 414.73,-413.39"/>
</g>
<!-- mysql_connector -->
<g id="node9" class="node">
<title>mysql_connector</title><style>.edge>path:hover{stroke-width:8}</style>
<ellipse fill="#9f3db8" stroke="black" cx="322.73" cy="-470.61" rx="45.92" ry="21.43"/>
<text text-anchor="middle" x="322.73" y="-473.61" font-family="Helvetica,sans-Serif" font-size="10.00" fill="#ffffff">mysql.</text>
<text text-anchor="middle" x="322.73" y="-462.61" font-family="Helvetica,sans-Serif" font-size="10.00" fill="#ffffff">connector</text>
</g>
<!-- mysql_connector&#45;&gt;handlers_sql_db_connection -->
<g id="edge11" class="edge">
<title>mysql_connector&#45;&gt;handlers_sql_db_connection</title><style>.edge>path:hover{stroke-width:8}</style>
<path fill="none" stroke="black" d="M355.1,-455.25C379.72,-443.44 410.13,-426.55 414.73,-413.39"/>
<path fill="none" stroke="black" d="M414.73,-412.39C427.45,-376.02 389.44,-349 352.9,-332.11"/>
<polygon fill="#9f3db8" stroke="black" points="354.24,-328.87 343.68,-328.03 351.41,-335.27 354.24,-328.87"/>
</g>
</g>
</svg>
