<?xml version="1.0" encoding="UTF-8" standalone="no"?>
<!DOCTYPE svg PUBLIC "-//W3C//DTD SVG 1.1//EN"
 "http://www.w3.org/Graphics/SVG/1.1/DTD/svg11.dtd">
<!-- Generated by graphviz version 2.43.0 (0)
 -->
<!-- Title: G Pages: 1 -->
<svg width="370pt" height="478pt"
 viewBox="0.00 0.00 369.69 477.84" xmlns="http://www.w3.org/2000/svg" xmlns:xlink="http://www.w3.org/1999/xlink">
<g id="graph0" class="graph" transform="scale(1 1) rotate(0) translate(4 473.84)">
<title>G</title><style>.edge>path:hover{stroke-width:8}</style>
<polygon fill="white" stroke="transparent" points="-4,4 -4,-473.84 365.69,-473.84 365.69,4 -4,4"/>
<!-- db_update_notes_py -->
<g id="node1" class="node">
<title>db_update_notes_py</title><style>.edge>path:hover{stroke-width:8}</style>
<ellipse fill="#924e4e" stroke="black" cx="167.73" cy="-21.21" rx="72.66" ry="21.43"/>
<text text-anchor="middle" x="167.73" y="-24.21" font-family="Helvetica,sans-Serif" font-size="10.00" fill="#ffffff">db_update_notes.</text>
<text text-anchor="middle" x="167.73" y="-13.21" font-family="Helvetica,sans-Serif" font-size="10.00" fill="#ffffff">py</text>
</g>
<!-- dotenv -->
<g id="node2" class="node">
<title>dotenv</title><style>.edge>path:hover{stroke-width:8}</style>
<ellipse fill="#a2b653" stroke="black" cx="130.73" cy="-451.84" rx="29.37" ry="18"/>
<text text-anchor="middle" x="130.73" y="-449.34" font-family="Helvetica,sans-Serif" font-size="10.00" fill="#000000">dotenv</text>
</g>
<!-- logger_setup -->
<g id="node6" class="node">
<title>logger_setup</title><style>.edge>path:hover{stroke-width:8}</style>
<ellipse fill="#4073c0" stroke="black" cx="130.73" cy="-376.62" rx="47.19" ry="18"/>
<text text-anchor="middle" x="130.73" y="-374.12" font-family="Helvetica,sans-Serif" font-size="10.00" fill="#ffffff">logger_setup</text>
</g>
<!-- dotenv&#45;&gt;logger_setup -->
<g id="edge1" class="edge">
<title>dotenv&#45;&gt;logger_setup</title><style>.edge>path:hover{stroke-width:8}</style>
<path fill="none" stroke="black" d="M130.73,-433.49C130.73,-425.01 130.73,-414.6 130.73,-405.08"/>
<polygon fill="#a2b653" stroke="black" points="134.23,-404.85 130.73,-394.85 127.23,-404.85 134.23,-404.85"/>
</g>
<!-- handlers -->
<g id="node3" class="node">
<title>handlers</title><style>.edge>path:hover{stroke-width:8}</style>
<ellipse fill="#53b67b" stroke="black" cx="34.73" cy="-133.43" rx="34.96" ry="18"/>
<text text-anchor="middle" x="34.73" y="-130.93" font-family="Helvetica,sans-Serif" font-size="10.00" fill="#000000">handlers</text>
</g>
<!-- handlers&#45;&gt;db_update_notes_py -->
<g id="edge2" class="edge">
<title>handlers&#45;&gt;db_update_notes_py</title><style>.edge>path:hover{stroke-width:8}</style>
<path fill="none" stroke="black" d="M61.62,-121.78C100.44,-106.41 167.61,-79.76 167.73,-79.43"/>
<path fill="none" stroke="black" d="M167.73,-78.43C170.6,-70.31 171.49,-61.12 171.43,-52.56"/>
<polygon fill="#53b67b" stroke="black" points="174.92,-52.36 170.95,-42.54 167.93,-52.69 174.92,-52.36"/>
</g>
<!-- handlers_sql -->
<g id="node4" class="node">
<title>handlers_sql</title><style>.edge>path:hover{stroke-width:8}</style>
<ellipse fill="#53b67b" stroke="black" cx="131.73" cy="-133.43" rx="44.98" ry="18"/>
<text text-anchor="middle" x="131.73" y="-130.93" font-family="Helvetica,sans-Serif" font-size="10.00" fill="#000000">handlers.sql</text>
</g>
<!-- handlers_sql&#45;&gt;db_update_notes_py -->
<g id="edge3" class="edge">
<title>handlers_sql&#45;&gt;db_update_notes_py</title><style>.edge>path:hover{stroke-width:8}</style>
<path fill="none" stroke="black" d="M146.17,-115.99C153.99,-106.1 162.99,-92.85 167.73,-79.43"/>
</g>
<!-- handlers_sql_db_connection -->
<g id="node5" class="node">
<title>handlers_sql_db_connection</title><style>.edge>path:hover{stroke-width:8}</style>
<ellipse fill="#46a46c" stroke="black" cx="204.73" cy="-216.42" rx="61.54" ry="28.98"/>
<text text-anchor="middle" x="204.73" y="-224.92" font-family="Helvetica,sans-Serif" font-size="10.00" fill="#000000">handlers.</text>
<text text-anchor="middle" x="204.73" y="-213.92" font-family="Helvetica,sans-Serif" font-size="10.00" fill="#000000">sql.</text>
<text text-anchor="middle" x="204.73" y="-202.92" font-family="Helvetica,sans-Serif" font-size="10.00" fill="#000000">db_connection</text>
</g>
<!-- handlers_sql_db_connection&#45;&gt;db_update_notes_py -->
<g id="edge4" class="edge">
<title>handlers_sql_db_connection&#45;&gt;db_update_notes_py</title><style>.edge>path:hover{stroke-width:8}</style>
<path fill="none" stroke="black" d="M205.42,-187.29C205.63,-171.7 205.61,-151.98 204.73,-134.43"/>
</g>
<!-- logger_setup&#45;&gt;db_update_notes_py -->
<g id="edge5" class="edge">
<title>logger_setup&#45;&gt;db_update_notes_py</title><style>.edge>path:hover{stroke-width:8}</style>
<path fill="none" stroke="black" d="M155.51,-361.31C180.77,-344.64 214.9,-315.17 204.73,-282.41"/>
<path fill="none" stroke="black" d="M204.73,-281.41C196.53,-246.99 152.25,-275.56 133.73,-245.41 120.24,-223.45 121.77,-210.25 133.73,-187.43 152.01,-152.55 206.69,-173.76 204.73,-134.43"/>
<path fill="none" stroke="black" d="M204.73,-132.43C202.26,-103.8 158.16,-106.51 167.73,-79.43"/>
</g>
<!-- logger_setup&#45;&gt;handlers_sql_db_connection -->
<g id="edge6" class="edge">
<title>logger_setup&#45;&gt;handlers_sql_db_connection</title><style>.edge>path:hover{stroke-width:8}</style>
<path fill="none" stroke="black" d="M204.73,-281.41C202.2,-273.26 201.19,-264.25 201.01,-255.61"/>
<polygon fill="#4073c0" stroke="black" points="204.52,-255.41 201.16,-245.36 197.52,-255.31 204.52,-255.41"/>
</g>
<!-- mysql -->
<g id="node7" class="node">
<title>mysql</title><style>.edge>path:hover{stroke-width:8}</style>
<ellipse fill="#a947c2" stroke="black" cx="223.73" cy="-376.62" rx="27.84" ry="18"/>
<text text-anchor="middle" x="223.73" y="-374.12" font-family="Helvetica,sans-Serif" font-size="10.00" fill="#ffffff">mysql</text>
</g>
<!-- mysql&#45;&gt;handlers_sql_db_connection -->
<g id="edge7" class="edge">
<title>mysql&#45;&gt;handlers_sql_db_connection</title><style>.edge>path:hover{stroke-width:8}</style>
<path fill="none" stroke="black" d="M244.22,-363.98C270.91,-348.69 314.36,-323.32 315.73,-319.41"/>
<path fill="none" stroke="black" d="M315.73,-318.41C327.64,-284.35 294.19,-257.59 260.96,-240.2"/>
<polygon fill="#a947c2" stroke="black" points="262.14,-236.87 251.63,-235.54 259.02,-243.14 262.14,-236.87"/>
</g>
<!-- mysql_connector -->
<g id="node8" class="node">
<title>mysql_connector</title><style>.edge>path:hover{stroke-width:8}</style>
<ellipse fill="#9f3db8" stroke="black" cx="315.73" cy="-376.62" rx="45.92" ry="21.43"/>
<text text-anchor="middle" x="315.73" y="-379.62" font-family="Helvetica,sans-Serif" font-size="10.00" fill="#ffffff">mysql.</text>
<text text-anchor="middle" x="315.73" y="-368.62" font-family="Helvetica,sans-Serif" font-size="10.00" fill="#ffffff">connector</text>
</g>
<!-- mysql_connector&#45;&gt;handlers_sql_db_connection -->
<g id="edge8" class="edge">
<title>mysql_connector&#45;&gt;handlers_sql_db_connection</title><style>.edge>path:hover{stroke-width:8}</style>
<path fill="none" stroke="black" d="M312.92,-355.43C312.09,-344.53 312.2,-330.98 315.73,-319.41"/>
</g>
</g>
</svg>
