<?xml version="1.0" encoding="UTF-8" standalone="no"?>
<!DOCTYPE svg PUBLIC "-//W3C//DTD SVG 1.1//EN"
 "http://www.w3.org/Graphics/SVG/1.1/DTD/svg11.dtd">
<!-- Generated by graphviz version 2.43.0 (0)
 -->
<!-- Title: G Pages: 1 -->
<svg width="895pt" height="989pt"
 viewBox="0.00 0.00 895.38 989.18" xmlns="http://www.w3.org/2000/svg" xmlns:xlink="http://www.w3.org/1999/xlink">
<g id="graph0" class="graph" transform="scale(1 1) rotate(0) translate(4 985.18)">
<title>G</title><style>.edge>path:hover{stroke-width:8}</style>
<polygon fill="white" stroke="transparent" points="-4,4 -4,-985.18 891.38,-985.18 891.38,4 -4,4"/>
<!-- db_notes_utils_py -->
<g id="node1" class="node">
<title>db_notes_utils_py</title><style>.edge>path:hover{stroke-width:8}</style>
<ellipse fill="#633535" stroke="black" cx="432.34" cy="-21.21" rx="63.78" ry="21.43"/>
<text text-anchor="middle" x="432.34" y="-24.21" font-family="Helvetica,sans-Serif" font-size="10.00" fill="#ffffff">db_notes_utils.</text>
<text text-anchor="middle" x="432.34" y="-13.21" font-family="Helvetica,sans-Serif" font-size="10.00" fill="#ffffff">py</text>
</g>
<!-- dotenv -->
<g id="node2" class="node">
<title>dotenv</title><style>.edge>path:hover{stroke-width:8}</style>
<ellipse fill="#b6b653" stroke="black" cx="499.34" cy="-963.18" rx="29.37" ry="18"/>
<text text-anchor="middle" x="499.34" y="-960.68" font-family="Helvetica,sans-Serif" font-size="10.00" fill="#000000">dotenv</text>
</g>
<!-- logger_setup -->
<g id="node19" class="node">
<title>logger_setup</title><style>.edge>path:hover{stroke-width:8}</style>
<ellipse fill="#06f9f9" stroke="black" cx="499.34" cy="-887.96" rx="47.19" ry="18"/>
<text text-anchor="middle" x="499.34" y="-885.46" font-family="Helvetica,sans-Serif" font-size="10.00" fill="#000000">logger_setup</text>
</g>
<!-- dotenv&#45;&gt;logger_setup -->
<g id="edge1" class="edge">
<title>dotenv&#45;&gt;logger_setup</title><style>.edge>path:hover{stroke-width:8}</style>
<path fill="none" stroke="black" d="M499.34,-944.83C499.34,-936.35 499.34,-925.94 499.34,-916.42"/>
<polygon fill="#b6b653" stroke="black" points="502.84,-916.19 499.34,-906.19 495.84,-916.19 502.84,-916.19"/>
</g>
<!-- handlers -->
<g id="node3" class="node">
<title>handlers</title><style>.edge>path:hover{stroke-width:8}</style>
<ellipse fill="#10f910" stroke="black" cx="297.34" cy="-136.64" rx="34.96" ry="18"/>
<text text-anchor="middle" x="297.34" y="-134.14" font-family="Helvetica,sans-Serif" font-size="10.00" fill="#000000">handlers</text>
</g>
<!-- handlers&#45;&gt;db_notes_utils_py -->
<g id="edge2" class="edge">
<title>handlers&#45;&gt;db_notes_utils_py</title><style>.edge>path:hover{stroke-width:8}</style>
<path fill="none" stroke="black" d="M323.66,-124.75C362.92,-108.51 432.24,-79.78 432.34,-79.43"/>
<path fill="none" stroke="black" d="M432.34,-78.43C434.54,-70.28 435.26,-61.22 435.24,-52.8"/>
<polygon fill="#10f910" stroke="black" points="438.73,-52.45 434.88,-42.58 431.73,-52.7 438.73,-52.45"/>
</g>
<!-- handlers_header -->
<g id="node4" class="node">
<title>handlers_header</title><style>.edge>path:hover{stroke-width:8}</style>
<ellipse fill="#3bce3b" stroke="black" cx="172.34" cy="-410.81" rx="43.68" ry="21.43"/>
<text text-anchor="middle" x="172.34" y="-413.81" font-family="Helvetica,sans-Serif" font-size="10.00" fill="#000000">handlers.</text>
<text text-anchor="middle" x="172.34" y="-402.81" font-family="Helvetica,sans-Serif" font-size="10.00" fill="#000000">header</text>
</g>
<!-- handlers_header&#45;&gt;db_notes_utils_py -->
<g id="edge3" class="edge">
<title>handlers_header&#45;&gt;db_notes_utils_py</title><style>.edge>path:hover{stroke-width:8}</style>
<path fill="none" stroke="black" d="M201.04,-394.52C210.23,-390.02 220.56,-385.36 230.34,-381.82 318.89,-349.76 365.12,-383.78 432.34,-317.83"/>
<path fill="none" stroke="black" d="M432.34,-315.83C471.5,-277.4 427.19,-243.12 451.34,-193.85 466.45,-163.02 529.28,-161.24 504.34,-137.64"/>
<path fill="none" stroke="black" d="M504.34,-135.64C495.24,-127.32 494.71,-123.43 485.34,-115.43 463.68,-96.94 424.89,-106.91 432.34,-79.43"/>
</g>
<!-- handlers_process_headers -->
<g id="node8" class="node">
<title>handlers_process_headers</title><style>.edge>path:hover{stroke-width:8}</style>
<ellipse fill="#2e6b2e" stroke="black" cx="504.34" cy="-222.84" rx="43.68" ry="28.98"/>
<text text-anchor="middle" x="504.34" y="-231.34" font-family="Helvetica,sans-Serif" font-size="10.00" fill="#ffffff">handlers.</text>
<text text-anchor="middle" x="504.34" y="-220.34" font-family="Helvetica,sans-Serif" font-size="10.00" fill="#ffffff">process.</text>
<text text-anchor="middle" x="504.34" y="-209.34" font-family="Helvetica,sans-Serif" font-size="10.00" fill="#ffffff">headers</text>
</g>
<!-- handlers_header&#45;&gt;handlers_process_headers -->
<g id="edge4" class="edge">
<title>handlers_header&#45;&gt;handlers_process_headers</title><style>.edge>path:hover{stroke-width:8}</style>
<path fill="none" stroke="black" d="M432.34,-315.83C442.41,-305.94 462.82,-279.6 479.35,-257.63"/>
<polygon fill="#3bce3b" stroke="black" points="482.27,-259.57 485.46,-249.47 476.66,-255.38 482.27,-259.57"/>
</g>
<!-- handlers_header_extract_yaml_header -->
<g id="node5" class="node">
<title>handlers_header_extract_yaml_header</title><style>.edge>path:hover{stroke-width:8}</style>
<ellipse fill="#3d8f3d" stroke="black" cx="357.34" cy="-410.81" rx="84.71" ry="28.98"/>
<text text-anchor="middle" x="357.34" y="-419.31" font-family="Helvetica,sans-Serif" font-size="10.00" fill="#ffffff">handlers.</text>
<text text-anchor="middle" x="357.34" y="-408.31" font-family="Helvetica,sans-Serif" font-size="10.00" fill="#ffffff">header.</text>
<text text-anchor="middle" x="357.34" y="-397.31" font-family="Helvetica,sans-Serif" font-size="10.00" fill="#ffffff">extract_yaml_header</text>
</g>
<!-- handlers_header_extract_yaml_header&#45;&gt;handlers_process_headers -->
<g id="edge5" class="edge">
<title>handlers_header_extract_yaml_header&#45;&gt;handlers_process_headers</title><style>.edge>path:hover{stroke-width:8}</style>
<path fill="none" stroke="black" d="M409.13,-387.64C435.82,-372.59 464.07,-349.59 470.34,-317.83"/>
</g>
<!-- handlers_header_header_utils -->
<g id="node6" class="node">
<title>handlers_header_header_utils</title><style>.edge>path:hover{stroke-width:8}</style>
<ellipse fill="#2bac2b" stroke="black" cx="275.34" cy="-504.79" rx="54.39" ry="28.98"/>
<text text-anchor="middle" x="275.34" y="-513.29" font-family="Helvetica,sans-Serif" font-size="10.00" fill="#ffffff">handlers.</text>
<text text-anchor="middle" x="275.34" y="-502.29" font-family="Helvetica,sans-Serif" font-size="10.00" fill="#ffffff">header.</text>
<text text-anchor="middle" x="275.34" y="-491.29" font-family="Helvetica,sans-Serif" font-size="10.00" fill="#ffffff">header_utils</text>
</g>
<!-- handlers_header_header_utils&#45;&gt;db_notes_utils_py -->
<g id="edge6" class="edge">
<title>handlers_header_header_utils&#45;&gt;db_notes_utils_py</title><style>.edge>path:hover{stroke-width:8}</style>
<path fill="none" stroke="black" d="M221.92,-498.54C152.48,-490.49 37.03,-472.47 11.34,-439.8 -4.6,-419.55 -2.63,-403.47 11.34,-381.82 103.63,-238.74 292.17,-379.86 360.34,-223.84"/>
<path fill="none" stroke="black" d="M360.34,-221.84C378.6,-177.41 353.19,-155.73 379.34,-115.43 394.83,-91.54 424.89,-106.91 432.34,-79.43"/>
</g>
<!-- handlers_header_header_utils&#45;&gt;handlers_header_extract_yaml_header -->
<g id="edge7" class="edge">
<title>handlers_header_header_utils&#45;&gt;handlers_header_extract_yaml_header</title><style>.edge>path:hover{stroke-width:8}</style>
<path fill="none" stroke="black" d="M298.18,-478.17C306.95,-468.33 317.11,-456.93 326.51,-446.39"/>
<polygon fill="#2bac2b" stroke="black" points="329.14,-448.69 333.18,-438.9 323.92,-444.04 329.14,-448.69"/>
</g>
<!-- handlers_header_header_utils&#45;&gt;handlers_process_headers -->
<g id="edge8" class="edge">
<title>handlers_header_header_utils&#45;&gt;handlers_process_headers</title><style>.edge>path:hover{stroke-width:8}</style>
<path fill="none" stroke="black" d="M255.96,-477.46C244.71,-458.76 234.52,-433.26 244.34,-411.81"/>
</g>
<!-- handlers_process -->
<g id="node7" class="node">
<title>handlers_process</title><style>.edge>path:hover{stroke-width:8}</style>
<ellipse fill="#53b653" stroke="black" cx="432.34" cy="-136.64" rx="43.68" ry="21.43"/>
<text text-anchor="middle" x="432.34" y="-139.64" font-family="Helvetica,sans-Serif" font-size="10.00" fill="#000000">handlers.</text>
<text text-anchor="middle" x="432.34" y="-128.64" font-family="Helvetica,sans-Serif" font-size="10.00" fill="#000000">process</text>
</g>
<!-- handlers_process&#45;&gt;db_notes_utils_py -->
<g id="edge9" class="edge">
<title>handlers_process&#45;&gt;db_notes_utils_py</title><style>.edge>path:hover{stroke-width:8}</style>
<path fill="none" stroke="black" d="M429.79,-115.27C429.07,-104.44 429.2,-91.01 432.34,-79.43"/>
</g>
<!-- handlers_process_headers&#45;&gt;db_notes_utils_py -->
<g id="edge10" class="edge">
<title>handlers_process_headers&#45;&gt;db_notes_utils_py</title><style>.edge>path:hover{stroke-width:8}</style>
<path fill="none" stroke="black" d="M513.49,-194.31C517.81,-175.57 519.2,-151.7 504.34,-137.64"/>
</g>
<!-- handlers_sql -->
<g id="node9" class="node">
<title>handlers_sql</title><style>.edge>path:hover{stroke-width:8}</style>
<ellipse fill="#16f316" stroke="black" cx="65.34" cy="-410.81" rx="44.98" ry="18"/>
<text text-anchor="middle" x="65.34" y="-408.31" font-family="Helvetica,sans-Serif" font-size="10.00" fill="#000000">handlers.sql</text>
</g>
<!-- handlers_sql&#45;&gt;db_notes_utils_py -->
<g id="edge11" class="edge">
<title>handlers_sql&#45;&gt;db_notes_utils_py</title><style>.edge>path:hover{stroke-width:8}</style>
<path fill="none" stroke="black" d="M89.81,-395.68C98.88,-390.83 109.39,-385.66 119.34,-381.82 222.7,-341.86 269.67,-381.56 360.34,-317.83"/>
<path fill="none" stroke="black" d="M360.34,-315.83C393.78,-292.32 343.97,-261.31 360.34,-223.84"/>
</g>
<!-- handlers_sql&#45;&gt;handlers_process_headers -->
<g id="edge12" class="edge">
<title>handlers_sql&#45;&gt;handlers_process_headers</title><style>.edge>path:hover{stroke-width:8}</style>
<path fill="none" stroke="black" d="M360.34,-315.83C394.53,-291.78 434.72,-266.34 463.93,-248.32"/>
<polygon fill="#16f316" stroke="black" points="465.94,-251.19 472.63,-242.98 462.28,-245.23 465.94,-251.19"/>
</g>
<!-- handlers_sql_db_connection -->
<g id="node10" class="node">
<title>handlers_sql_db_connection</title><style>.edge>path:hover{stroke-width:8}</style>
<ellipse fill="#23c823" stroke="black" cx="714.34" cy="-692.76" rx="61.54" ry="28.98"/>
<text text-anchor="middle" x="714.34" y="-701.26" font-family="Helvetica,sans-Serif" font-size="10.00" fill="#000000">handlers.</text>
<text text-anchor="middle" x="714.34" y="-690.26" font-family="Helvetica,sans-Serif" font-size="10.00" fill="#000000">sql.</text>
<text text-anchor="middle" x="714.34" y="-679.26" font-family="Helvetica,sans-Serif" font-size="10.00" fill="#000000">db_connection</text>
</g>
<!-- handlers_sql_db_connection&#45;&gt;db_notes_utils_py -->
<g id="edge13" class="edge">
<title>handlers_sql_db_connection&#45;&gt;db_notes_utils_py</title><style>.edge>path:hover{stroke-width:8}</style>
<path fill="none" stroke="black" d="M740.72,-666.17C787.35,-617.68 876.37,-508.61 842.34,-411.81"/>
</g>
<!-- handlers_sql_db_get_linked_data -->
<g id="node11" class="node">
<title>handlers_sql_db_get_linked_data</title><style>.edge>path:hover{stroke-width:8}</style>
<ellipse fill="#35a135" stroke="black" cx="660.34" cy="-504.79" rx="78.48" ry="28.98"/>
<text text-anchor="middle" x="660.34" y="-513.29" font-family="Helvetica,sans-Serif" font-size="10.00" fill="#ffffff">handlers.</text>
<text text-anchor="middle" x="660.34" y="-502.29" font-family="Helvetica,sans-Serif" font-size="10.00" fill="#ffffff">sql.</text>
<text text-anchor="middle" x="660.34" y="-491.29" font-family="Helvetica,sans-Serif" font-size="10.00" fill="#ffffff">db_get_linked_data</text>
</g>
<!-- handlers_sql_db_connection&#45;&gt;handlers_sql_db_get_linked_data -->
<g id="edge14" class="edge">
<title>handlers_sql_db_connection&#45;&gt;handlers_sql_db_get_linked_data</title><style>.edge>path:hover{stroke-width:8}</style>
<path fill="none" stroke="black" d="M677.54,-669.34C655.92,-653.14 632.58,-629 631.34,-599.78"/>
</g>
<!-- handlers_sql_db_update_notes -->
<g id="node13" class="node">
<title>handlers_sql_db_update_notes</title><style>.edge>path:hover{stroke-width:8}</style>
<ellipse fill="#439d43" stroke="black" cx="532.34" cy="-598.78" rx="70.92" ry="28.98"/>
<text text-anchor="middle" x="532.34" y="-607.28" font-family="Helvetica,sans-Serif" font-size="10.00" fill="#ffffff">handlers.</text>
<text text-anchor="middle" x="532.34" y="-596.28" font-family="Helvetica,sans-Serif" font-size="10.00" fill="#ffffff">sql.</text>
<text text-anchor="middle" x="532.34" y="-585.28" font-family="Helvetica,sans-Serif" font-size="10.00" fill="#ffffff">db_update_notes</text>
</g>
<!-- handlers_sql_db_connection&#45;&gt;handlers_sql_db_update_notes -->
<g id="edge15" class="edge">
<title>handlers_sql_db_connection&#45;&gt;handlers_sql_db_update_notes</title><style>.edge>path:hover{stroke-width:8}</style>
<path fill="none" stroke="black" d="M673.04,-670.89C646.94,-657.69 612.97,-640.53 584.94,-626.36"/>
<polygon fill="#23c823" stroke="black" points="586.19,-623.07 575.69,-621.69 583.03,-629.32 586.19,-623.07"/>
</g>
<!-- handlers_sql_db_utils -->
<g id="node14" class="node">
<title>handlers_sql_db_utils</title><style>.edge>path:hover{stroke-width:8}</style>
<ellipse fill="#38a838" stroke="black" cx="703.34" cy="-598.78" rx="43.68" ry="28.98"/>
<text text-anchor="middle" x="703.34" y="-607.28" font-family="Helvetica,sans-Serif" font-size="10.00" fill="#ffffff">handlers.</text>
<text text-anchor="middle" x="703.34" y="-596.28" font-family="Helvetica,sans-Serif" font-size="10.00" fill="#ffffff">sql.</text>
<text text-anchor="middle" x="703.34" y="-585.28" font-family="Helvetica,sans-Serif" font-size="10.00" fill="#ffffff">db_utils</text>
</g>
<!-- handlers_sql_db_connection&#45;&gt;handlers_sql_db_utils -->
<g id="edge16" class="edge">
<title>handlers_sql_db_connection&#45;&gt;handlers_sql_db_utils</title><style>.edge>path:hover{stroke-width:8}</style>
<path fill="none" stroke="black" d="M710.98,-663.66C709.99,-655.46 708.91,-646.36 707.87,-637.65"/>
<polygon fill="#23c823" stroke="black" points="711.34,-637.21 706.67,-627.7 704.39,-638.05 711.34,-637.21"/>
</g>
<!-- handlers_sql_db_get_linked_data&#45;&gt;handlers_process_headers -->
<g id="edge17" class="edge">
<title>handlers_sql_db_get_linked_data&#45;&gt;handlers_process_headers</title><style>.edge>path:hover{stroke-width:8}</style>
<path fill="none" stroke="black" d="M623.62,-479.13C566.09,-439.03 462.03,-359.94 470.34,-317.83"/>
</g>
<!-- handlers_sql_db_get_linked_notes_utils -->
<g id="node12" class="node">
<title>handlers_sql_db_get_linked_notes_utils</title><style>.edge>path:hover{stroke-width:8}</style>
<ellipse fill="#38a838" stroke="black" cx="713.34" cy="-410.81" rx="101.23" ry="28.98"/>
<text text-anchor="middle" x="713.34" y="-419.31" font-family="Helvetica,sans-Serif" font-size="10.00" fill="#ffffff">handlers.</text>
<text text-anchor="middle" x="713.34" y="-408.31" font-family="Helvetica,sans-Serif" font-size="10.00" fill="#ffffff">sql.</text>
<text text-anchor="middle" x="713.34" y="-397.31" font-family="Helvetica,sans-Serif" font-size="10.00" fill="#ffffff">db_get_linked_notes_utils</text>
</g>
<!-- handlers_sql_db_get_linked_data&#45;&gt;handlers_sql_db_get_linked_notes_utils -->
<g id="edge18" class="edge">
<title>handlers_sql_db_get_linked_data&#45;&gt;handlers_sql_db_get_linked_notes_utils</title><style>.edge>path:hover{stroke-width:8}</style>
<path fill="none" stroke="black" d="M676.24,-476.19C681.27,-467.45 686.92,-457.65 692.26,-448.38"/>
<polygon fill="#35a135" stroke="black" points="695.3,-450.12 697.26,-439.71 689.24,-446.62 695.3,-450.12"/>
</g>
<!-- handlers_sql_db_get_linked_notes_utils&#45;&gt;db_notes_utils_py -->
<g id="edge19" class="edge">
<title>handlers_sql_db_get_linked_notes_utils&#45;&gt;db_notes_utils_py</title><style>.edge>path:hover{stroke-width:8}</style>
<path fill="none" stroke="black" d="M705.14,-381.69C701.17,-361.9 699.8,-335.82 713.34,-317.83"/>
</g>
<!-- handlers_sql_db_get_linked_notes_utils&#45;&gt;handlers_process_headers -->
<g id="edge20" class="edge">
<title>handlers_sql_db_get_linked_notes_utils&#45;&gt;handlers_process_headers</title><style>.edge>path:hover{stroke-width:8}</style>
<path fill="none" stroke="black" d="M629,-394.69C556.13,-379.21 463.49,-352.51 470.34,-317.83"/>
</g>
<!-- handlers_sql_db_update_notes&#45;&gt;handlers_process_headers -->
<g id="edge21" class="edge">
<title>handlers_sql_db_update_notes&#45;&gt;handlers_process_headers</title><style>.edge>path:hover{stroke-width:8}</style>
<path fill="none" stroke="black" d="M518.95,-570.27C502.64,-534.7 476.5,-470.36 470.34,-411.81"/>
</g>
<!-- handlers_sql_db_utils&#45;&gt;db_notes_utils_py -->
<g id="edge22" class="edge">
<title>handlers_sql_db_utils&#45;&gt;db_notes_utils_py</title><style>.edge>path:hover{stroke-width:8}</style>
<path fill="none" stroke="black" d="M728.05,-574.73C770.77,-533.68 852.89,-448.72 842.34,-411.81"/>
<path fill="none" stroke="black" d="M842.34,-409.81C826.41,-364.53 796.57,-370.39 755.34,-345.82 736.06,-334.34 699.85,-335.75 713.34,-317.83"/>
</g>
<!-- handlers_sql_db_utils&#45;&gt;handlers_sql_db_get_linked_data -->
<g id="edge23" class="edge">
<title>handlers_sql_db_utils&#45;&gt;handlers_sql_db_get_linked_data</title><style>.edge>path:hover{stroke-width:8}</style>
<path fill="none" stroke="black" d="M690.67,-570.67C686.58,-561.93 681.98,-552.08 677.61,-542.75"/>
<polygon fill="#38a838" stroke="black" points="680.77,-541.23 673.36,-533.66 674.43,-544.2 680.77,-541.23"/>
</g>
<!-- handlers_utils -->
<g id="node15" class="node">
<title>handlers_utils</title><style>.edge>path:hover{stroke-width:8}</style>
<ellipse fill="#2fdb2f" stroke="black" cx="547.34" cy="-692.76" rx="48.72" ry="18"/>
<text text-anchor="middle" x="547.34" y="-690.26" font-family="Helvetica,sans-Serif" font-size="10.00" fill="#000000">handlers.utils</text>
</g>
<!-- handlers_utils&#45;&gt;db_notes_utils_py -->
<g id="edge24" class="edge">
<title>handlers_utils&#45;&gt;db_notes_utils_py</title><style>.edge>path:hover{stroke-width:8}</style>
<path fill="none" stroke="black" d="M433.34,-597.78C428.03,-589.72 477.67,-542.87 485.34,-533.78 492.23,-525.62 595.29,-388.86 603.34,-381.82 645.91,-344.58 681.04,-364.26 713.34,-317.83"/>
</g>
<!-- handlers_utils&#45;&gt;handlers_header_extract_yaml_header -->
<g id="edge25" class="edge">
<title>handlers_utils&#45;&gt;handlers_header_extract_yaml_header</title><style>.edge>path:hover{stroke-width:8}</style>
<path fill="none" stroke="black" d="M433.34,-597.78C410.86,-563.63 437.51,-546.46 433.34,-505.79"/>
<path fill="none" stroke="black" d="M433.34,-503.79C430.95,-480.56 415.93,-459.95 399.86,-444.16"/>
<polygon fill="#2fdb2f" stroke="black" points="402.15,-441.51 392.45,-437.25 397.38,-446.63 402.15,-441.51"/>
</g>
<!-- handlers_utils&#45;&gt;handlers_header_header_utils -->
<g id="edge26" class="edge">
<title>handlers_utils&#45;&gt;handlers_header_header_utils</title><style>.edge>path:hover{stroke-width:8}</style>
<path fill="none" stroke="black" d="M520.76,-677.58C500.53,-665.95 472.76,-648.12 452.34,-627.77 441.68,-617.15 441.6,-612.33 433.34,-599.78"/>
<path fill="none" stroke="black" d="M433.34,-597.78C419.99,-577.5 366.2,-548.62 325.05,-528.66"/>
<polygon fill="#2fdb2f" stroke="black" points="326.49,-525.46 315.96,-524.29 323.46,-531.77 326.49,-525.46"/>
</g>
<!-- handlers_utils&#45;&gt;handlers_process_headers -->
<g id="edge27" class="edge">
<title>handlers_utils&#45;&gt;handlers_process_headers</title><style>.edge>path:hover{stroke-width:8}</style>
<path fill="none" stroke="black" d="M433.34,-503.79C428.84,-459.96 468.81,-455.85 470.34,-411.81"/>
<path fill="none" stroke="black" d="M470.34,-409.81C471.75,-368.95 462,-357.85 470.34,-317.83"/>
</g>
<!-- handlers_utils_files -->
<g id="node16" class="node">
<title>handlers_utils_files</title><style>.edge>path:hover{stroke-width:8}</style>
<ellipse fill="#26d926" stroke="black" cx="398.34" cy="-692.76" rx="43.68" ry="28.98"/>
<text text-anchor="middle" x="398.34" y="-701.26" font-family="Helvetica,sans-Serif" font-size="10.00" fill="#000000">handlers.</text>
<text text-anchor="middle" x="398.34" y="-690.26" font-family="Helvetica,sans-Serif" font-size="10.00" fill="#000000">utils.</text>
<text text-anchor="middle" x="398.34" y="-679.26" font-family="Helvetica,sans-Serif" font-size="10.00" fill="#000000">files</text>
</g>
<!-- handlers_utils_files&#45;&gt;db_notes_utils_py -->
<g id="edge28" class="edge">
<title>handlers_utils_files&#45;&gt;db_notes_utils_py</title><style>.edge>path:hover{stroke-width:8}</style>
<path fill="none" stroke="black" d="M357.34,-597.78C350.04,-549.24 411.57,-567.39 447.34,-533.78 510.66,-474.29 501.46,-434.79 570.34,-381.82 625.53,-339.37 671.47,-373.47 713.34,-317.83"/>
<path fill="none" stroke="black" d="M713.34,-315.83C746.89,-267.58 841.84,-272.13 808.34,-223.84"/>
<path fill="none" stroke="black" d="M808.34,-221.84C728.42,-106.65 607.77,-232.28 504.34,-137.64"/>
</g>
<!-- handlers_utils_files&#45;&gt;handlers_header_extract_yaml_header -->
<g id="edge29" class="edge">
<title>handlers_utils_files&#45;&gt;handlers_header_extract_yaml_header</title><style>.edge>path:hover{stroke-width:8}</style>
<path fill="none" stroke="black" d="M357.34,-503.79C352.56,-486.59 351.96,-466.87 352.79,-450.11"/>
<polygon fill="#26d926" stroke="black" points="356.29,-450.32 353.47,-440.11 349.3,-449.85 356.29,-450.32"/>
</g>
<!-- handlers_utils_files&#45;&gt;handlers_header_header_utils -->
<g id="edge30" class="edge">
<title>handlers_utils_files&#45;&gt;handlers_header_header_utils</title><style>.edge>path:hover{stroke-width:8}</style>
<path fill="none" stroke="black" d="M382.08,-665.57C372.22,-647.78 360.87,-623.29 357.34,-599.78"/>
<path fill="none" stroke="black" d="M357.34,-597.78C353.5,-572.23 335.04,-550.32 316.6,-534.3"/>
<polygon fill="#26d926" stroke="black" points="318.68,-531.47 308.74,-527.8 314.22,-536.87 318.68,-531.47"/>
</g>
<!-- handlers_utils_files&#45;&gt;handlers_process_headers -->
<g id="edge31" class="edge">
<title>handlers_utils_files&#45;&gt;handlers_process_headers</title><style>.edge>path:hover{stroke-width:8}</style>
<path fill="none" stroke="black" d="M357.34,-597.78C351.26,-557.35 368.27,-545.19 357.34,-505.79"/>
<path fill="none" stroke="black" d="M357.34,-503.79C343.82,-455.09 301.63,-472.78 263.34,-439.8 251.94,-429.99 238.08,-425.48 244.34,-411.81"/>
</g>
<!-- handlers_utils_normalization -->
<g id="node17" class="node">
<title>handlers_utils_normalization</title><style>.edge>path:hover{stroke-width:8}</style>
<ellipse fill="#4cb34c" stroke="black" cx="106.34" cy="-598.78" rx="59.29" ry="28.98"/>
<text text-anchor="middle" x="106.34" y="-607.28" font-family="Helvetica,sans-Serif" font-size="10.00" fill="#000000">handlers.</text>
<text text-anchor="middle" x="106.34" y="-596.28" font-family="Helvetica,sans-Serif" font-size="10.00" fill="#000000">utils.</text>
<text text-anchor="middle" x="106.34" y="-585.28" font-family="Helvetica,sans-Serif" font-size="10.00" fill="#000000">normalization</text>
</g>
<!-- handlers_utils_normalization&#45;&gt;handlers_process_headers -->
<g id="edge32" class="edge">
<title>handlers_utils_normalization&#45;&gt;handlers_process_headers</title><style>.edge>path:hover{stroke-width:8}</style>
<path fill="none" stroke="black" d="M136.92,-573.7C156.21,-556.8 179.92,-532.51 193.34,-505.79"/>
<path fill="none" stroke="black" d="M193.34,-503.79C214.31,-462.02 224.89,-454.32 244.34,-411.81"/>
<path fill="none" stroke="black" d="M244.34,-409.81C250.59,-396.14 250.79,-390.11 263.34,-381.82 332.47,-336.09 374.74,-387.59 446.34,-345.82 460.49,-337.56 466.99,-333.87 470.34,-317.83"/>
<path fill="none" stroke="black" d="M470.34,-315.83C474.25,-297.02 481.33,-276.92 488.01,-260.32"/>
<polygon fill="#4cb34c" stroke="black" points="491.28,-261.56 491.87,-250.99 484.81,-258.89 491.28,-261.56"/>
</g>
<!-- handlers_utils_paths -->
<g id="node18" class="node">
<title>handlers_utils_paths</title><style>.edge>path:hover{stroke-width:8}</style>
<ellipse fill="#4cb34c" stroke="black" cx="808.34" cy="-316.83" rx="43.68" ry="28.98"/>
<text text-anchor="middle" x="808.34" y="-325.33" font-family="Helvetica,sans-Serif" font-size="10.00" fill="#000000">handlers.</text>
<text text-anchor="middle" x="808.34" y="-314.33" font-family="Helvetica,sans-Serif" font-size="10.00" fill="#000000">utils.</text>
<text text-anchor="middle" x="808.34" y="-303.33" font-family="Helvetica,sans-Serif" font-size="10.00" fill="#000000">paths</text>
</g>
<!-- handlers_utils_paths&#45;&gt;db_notes_utils_py -->
<g id="edge33" class="edge">
<title>handlers_utils_paths&#45;&gt;db_notes_utils_py</title><style>.edge>path:hover{stroke-width:8}</style>
<path fill="none" stroke="black" d="M816.11,-288.02C819.87,-268.37 821.17,-242.34 808.34,-223.84"/>
</g>
<!-- logger_setup&#45;&gt;db_notes_utils_py -->
<g id="edge34" class="edge">
<title>logger_setup&#45;&gt;db_notes_utils_py</title><style>.edge>path:hover{stroke-width:8}</style>
<path fill="none" stroke="black" d="M880.34,-409.81C869.21,-356.08 883.86,-337.86 861.34,-287.84 846.17,-254.16 829.39,-254.19 808.34,-223.84"/>
</g>
<!-- logger_setup&#45;&gt;handlers_header_extract_yaml_header -->
<g id="edge35" class="edge">
<title>logger_setup&#45;&gt;handlers_header_extract_yaml_header</title><style>.edge>path:hover{stroke-width:8}</style>
<path fill="none" stroke="black" d="M470.34,-774.75C480.6,-725.77 473.02,-708.87 451.34,-663.77 442.06,-644.47 429.66,-646.52 419.34,-627.77 402.42,-597.03 378.66,-502.84 366.03,-449.56"/>
<polygon fill="#06f9f9" stroke="black" points="369.43,-448.73 363.73,-439.8 362.61,-450.33 369.43,-448.73"/>
</g>
<!-- logger_setup&#45;&gt;handlers_header_header_utils -->
<g id="edge36" class="edge">
<title>logger_setup&#45;&gt;handlers_header_header_utils</title><style>.edge>path:hover{stroke-width:8}</style>
<path fill="none" stroke="black" d="M470.34,-829.75C469.06,-806.23 465.5,-799.8 470.34,-776.75"/>
<path fill="none" stroke="black" d="M470.34,-774.75C482.72,-715.69 391.96,-760.05 345.34,-721.75 333.72,-712.2 333.64,-706.9 326.34,-693.76"/>
</g>
<!-- logger_setup&#45;&gt;handlers_process_headers -->
<g id="edge37" class="edge">
<title>logger_setup&#45;&gt;handlers_process_headers</title><style>.edge>path:hover{stroke-width:8}</style>
<path fill="none" stroke="black" d="M193.34,-691.76C171.01,-656.98 174.79,-542.72 193.34,-505.79"/>
</g>
<!-- logger_setup&#45;&gt;handlers_sql_db_connection -->
<g id="edge38" class="edge">
<title>logger_setup&#45;&gt;handlers_sql_db_connection</title><style>.edge>path:hover{stroke-width:8}</style>
<path fill="none" stroke="black" d="M470.34,-774.75C486.4,-698.12 564.25,-747.06 638.34,-721.75 644.59,-719.61 651.12,-717.31 657.6,-714.99"/>
<polygon fill="#06f9f9" stroke="black" points="658.81,-718.27 667.03,-711.58 656.43,-711.69 658.81,-718.27"/>
</g>
<!-- logger_setup&#45;&gt;handlers_sql_db_get_linked_data -->
<g id="edge39" class="edge">
<title>logger_setup&#45;&gt;handlers_sql_db_get_linked_data</title><style>.edge>path:hover{stroke-width:8}</style>
<path fill="none" stroke="black" d="M624.34,-691.76C644.98,-656.33 633.08,-640.74 631.34,-599.78"/>
<path fill="none" stroke="black" d="M631.34,-597.78C630.55,-579.18 635.91,-559.38 642.23,-542.94"/>
<polygon fill="#06f9f9" stroke="black" points="645.48,-544.26 646.03,-533.68 639,-541.61 645.48,-544.26"/>
</g>
<!-- logger_setup&#45;&gt;handlers_sql_db_get_linked_notes_utils -->
<g id="edge40" class="edge">
<title>logger_setup&#45;&gt;handlers_sql_db_get_linked_notes_utils</title><style>.edge>path:hover{stroke-width:8}</style>
<path fill="none" stroke="black" d="M470.34,-829.75C466.32,-755.86 742.32,-781.97 785.34,-721.75 845.62,-637.34 778.74,-510.02 738.8,-448.14"/>
<polygon fill="#06f9f9" stroke="black" points="741.54,-445.93 733.13,-439.5 735.69,-449.78 741.54,-445.93"/>
</g>
<!-- logger_setup&#45;&gt;handlers_sql_db_update_notes -->
<g id="edge41" class="edge">
<title>logger_setup&#45;&gt;handlers_sql_db_update_notes</title><style>.edge>path:hover{stroke-width:8}</style>
<path fill="none" stroke="black" d="M470.34,-774.75C483.56,-711.66 554.98,-761.99 605.34,-721.75 617.08,-712.36 616.77,-706.75 624.34,-693.76"/>
<path fill="none" stroke="black" d="M624.34,-691.76C639.16,-666.31 615.02,-642.93 587.76,-626.1"/>
<polygon fill="#06f9f9" stroke="black" points="589.24,-622.91 578.84,-620.88 585.7,-628.95 589.24,-622.91"/>
</g>
<!-- logger_setup&#45;&gt;handlers_sql_db_utils -->
<g id="edge42" class="edge">
<title>logger_setup&#45;&gt;handlers_sql_db_utils</title><style>.edge>path:hover{stroke-width:8}</style>
<path fill="none" stroke="black" d="M624.34,-691.76C631.91,-678.77 633.94,-675.51 643.34,-663.77 652.28,-652.58 662.75,-640.98 672.42,-630.78"/>
<polygon fill="#06f9f9" stroke="black" points="675.22,-632.92 679.61,-623.28 670.16,-628.07 675.22,-632.92"/>
</g>
<!-- logger_setup&#45;&gt;handlers_utils_files -->
<g id="edge43" class="edge">
<title>logger_setup&#45;&gt;handlers_utils_files</title><style>.edge>path:hover{stroke-width:8}</style>
<path fill="none" stroke="black" d="M470.34,-774.75C475.09,-752.07 458.61,-732.47 440.23,-718.24"/>
<polygon fill="#06f9f9" stroke="black" points="441.87,-715.11 431.71,-712.08 437.77,-720.78 441.87,-715.11"/>
</g>
<!-- logger_setup&#45;&gt;handlers_utils_normalization -->
<g id="edge44" class="edge">
<title>logger_setup&#45;&gt;handlers_utils_normalization</title><style>.edge>path:hover{stroke-width:8}</style>
<path fill="none" stroke="black" d="M486.99,-870.27C480.08,-859.59 472.43,-845.09 470.34,-830.75"/>
<path fill="none" stroke="black" d="M470.34,-829.75C464.44,-789.39 326.15,-813.27 290.34,-793.75 235.97,-764.12 219.51,-749.87 193.34,-693.76"/>
<path fill="none" stroke="black" d="M193.34,-691.76C179.23,-669.78 159.48,-648.39 142.36,-631.78"/>
<polygon fill="#06f9f9" stroke="black" points="144.37,-628.86 134.71,-624.5 139.54,-633.93 144.37,-628.86"/>
</g>
<!-- logger_setup&#45;&gt;handlers_utils_paths -->
<g id="edge45" class="edge">
<title>logger_setup&#45;&gt;handlers_utils_paths</title><style>.edge>path:hover{stroke-width:8}</style>
<path fill="none" stroke="black" d="M535.76,-876.36C546.84,-873.2 559.07,-869.77 570.34,-866.75 708.91,-829.59 880.34,-920.22 880.34,-776.75 880.34,-776.75 880.34,-776.75 880.34,-597.78 880.34,-515.12 895.37,-493.08 880.34,-411.81"/>
<path fill="none" stroke="black" d="M880.34,-409.81C875.31,-385.53 858.66,-363.46 842.63,-347.03"/>
<polygon fill="#06f9f9" stroke="black" points="844.95,-344.39 835.36,-339.88 840.04,-349.39 844.95,-344.39"/>
</g>
<!-- mysql -->
<g id="node20" class="node">
<title>mysql</title><style>.edge>path:hover{stroke-width:8}</style>
<ellipse fill="#4747c2" stroke="black" cx="607.34" cy="-887.96" rx="27.84" ry="18"/>
<text text-anchor="middle" x="607.34" y="-885.46" font-family="Helvetica,sans-Serif" font-size="10.00" fill="#ffffff">mysql</text>
</g>
<!-- mysql&#45;&gt;handlers_sql_db_connection -->
<g id="edge46" class="edge">
<title>mysql&#45;&gt;handlers_sql_db_connection</title><style>.edge>path:hover{stroke-width:8}</style>
<path fill="none" stroke="black" d="M627.82,-875.32C654.51,-860.03 697.97,-834.66 699.34,-830.75"/>
<path fill="none" stroke="black" d="M699.34,-829.75C710.43,-798.04 713.84,-759.86 714.68,-732.04"/>
<polygon fill="#4747c2" stroke="black" points="718.18,-731.98 714.88,-721.92 711.18,-731.84 718.18,-731.98"/>
</g>
<!-- mysql_connector -->
<g id="node21" class="node">
<title>mysql_connector</title><style>.edge>path:hover{stroke-width:8}</style>
<ellipse fill="#3d3db8" stroke="black" cx="699.34" cy="-887.96" rx="45.92" ry="21.43"/>
<text text-anchor="middle" x="699.34" y="-890.96" font-family="Helvetica,sans-Serif" font-size="10.00" fill="#ffffff">mysql.</text>
<text text-anchor="middle" x="699.34" y="-879.96" font-family="Helvetica,sans-Serif" font-size="10.00" fill="#ffffff">connector</text>
</g>
<!-- mysql_connector&#45;&gt;handlers_sql_db_connection -->
<g id="edge47" class="edge">
<title>mysql_connector&#45;&gt;handlers_sql_db_connection</title><style>.edge>path:hover{stroke-width:8}</style>
<path fill="none" stroke="black" d="M696.15,-866.65C695.22,-855.72 695.34,-842.17 699.34,-830.75"/>
</g>
<!-- yaml -->
<g id="node22" class="node">
<title>yaml</title><style>.edge>path:hover{stroke-width:8}</style>
<ellipse fill="#b653b6" stroke="black" cx="326.34" cy="-775.75" rx="27" ry="18"/>
<text text-anchor="middle" x="326.34" y="-773.25" font-family="Helvetica,sans-Serif" font-size="10.00" fill="#ffffff">yaml</text>
</g>
<!-- yaml&#45;&gt;handlers_header_header_utils -->
<g id="edge48" class="edge">
<title>yaml&#45;&gt;handlers_header_header_utils</title><style>.edge>path:hover{stroke-width:8}</style>
<path fill="none" stroke="black" d="M329.98,-757.89C332.82,-740.97 334.98,-714.53 326.34,-693.76"/>
<path fill="none" stroke="black" d="M326.34,-691.76C305.81,-642.46 291.07,-582.4 282.86,-544.13"/>
<polygon fill="#b653b6" stroke="black" points="286.2,-543 280.72,-533.94 279.35,-544.44 286.2,-543"/>
</g>
</g>
</svg>
