<?xml version="1.0" encoding="UTF-8" standalone="no"?>
<!DOCTYPE svg PUBLIC "-//W3C//DTD SVG 1.1//EN"
 "http://www.w3.org/Graphics/SVG/1.1/DTD/svg11.dtd">
<!-- Generated by graphviz version 2.43.0 (0)
 -->
<!-- Title: G Pages: 1 -->
<svg width="357pt" height="659pt"
 viewBox="0.00 0.00 357.40 659.37" xmlns="http://www.w3.org/2000/svg" xmlns:xlink="http://www.w3.org/1999/xlink">
<g id="graph0" class="graph" transform="scale(1 1) rotate(0) translate(4 655.37)">
<title>G</title><style>.edge>path:hover{stroke-width:8}</style>
<polygon fill="white" stroke="transparent" points="-4,4 -4,-655.37 353.4,-655.37 353.4,4 -4,4"/>
<!-- db_folders_py -->
<g id="node1" class="node">
<title>db_folders_py</title><style>.edge>path:hover{stroke-width:8}</style>
<ellipse fill="#854747" stroke="black" cx="167.73" cy="-18" rx="48.72" ry="18"/>
<text text-anchor="middle" x="167.73" y="-15.5" font-family="Helvetica,sans-Serif" font-size="10.00" fill="#ffffff">db_folders.py</text>
</g>
<!-- dotenv -->
<g id="node2" class="node">
<title>dotenv</title><style>.edge>path:hover{stroke-width:8}</style>
<ellipse fill="#a2b653" stroke="black" cx="118.73" cy="-633.37" rx="29.37" ry="18"/>
<text text-anchor="middle" x="118.73" y="-630.87" font-family="Helvetica,sans-Serif" font-size="10.00" fill="#000000">dotenv</text>
</g>
<!-- logger_setup -->
<g id="node8" class="node">
<title>logger_setup</title><style>.edge>path:hover{stroke-width:8}</style>
<ellipse fill="#266ed9" stroke="black" cx="118.73" cy="-558.16" rx="47.19" ry="18"/>
<text text-anchor="middle" x="118.73" y="-555.66" font-family="Helvetica,sans-Serif" font-size="10.00" fill="#ffffff">logger_setup</text>
</g>
<!-- dotenv&#45;&gt;logger_setup -->
<g id="edge1" class="edge">
<title>dotenv&#45;&gt;logger_setup</title><style>.edge>path:hover{stroke-width:8}</style>
<path fill="none" stroke="black" d="M118.73,-615.02C118.73,-606.54 118.73,-596.14 118.73,-586.61"/>
<polygon fill="#a2b653" stroke="black" points="122.23,-586.39 118.73,-576.39 115.23,-586.39 122.23,-586.39"/>
</g>
<!-- handlers -->
<g id="node3" class="node">
<title>handlers</title><style>.edge>path:hover{stroke-width:8}</style>
<ellipse fill="#3bce76" stroke="black" cx="34.73" cy="-127" rx="34.96" ry="18"/>
<text text-anchor="middle" x="34.73" y="-124.5" font-family="Helvetica,sans-Serif" font-size="10.00" fill="#000000">handlers</text>
</g>
<!-- handlers&#45;&gt;db_folders_py -->
<g id="edge2" class="edge">
<title>handlers&#45;&gt;db_folders_py</title><style>.edge>path:hover{stroke-width:8}</style>
<path fill="none" stroke="black" d="M61.62,-115.36C100.44,-99.98 167.61,-73.33 167.73,-73"/>
<path fill="none" stroke="black" d="M167.73,-72C170.58,-63.95 171.36,-54.77 171.2,-46.34"/>
<polygon fill="#3bce76" stroke="black" points="174.68,-45.97 170.58,-36.2 167.7,-46.39 174.68,-45.97"/>
</g>
<!-- handlers_sql -->
<g id="node4" class="node">
<title>handlers_sql</title><style>.edge>path:hover{stroke-width:8}</style>
<ellipse fill="#3bce76" stroke="black" cx="131.73" cy="-127" rx="44.98" ry="18"/>
<text text-anchor="middle" x="131.73" y="-124.5" font-family="Helvetica,sans-Serif" font-size="10.00" fill="#000000">handlers.sql</text>
</g>
<!-- handlers_sql&#45;&gt;db_folders_py -->
<g id="edge3" class="edge">
<title>handlers_sql&#45;&gt;db_folders_py</title><style>.edge>path:hover{stroke-width:8}</style>
<path fill="none" stroke="black" d="M146.17,-109.57C153.99,-99.67 162.99,-86.42 167.73,-73"/>
</g>
<!-- handlers_sql_db_categs_utils -->
<g id="node5" class="node">
<title>handlers_sql_db_categs_utils</title><style>.edge>path:hover{stroke-width:8}</style>
<ellipse fill="#409662" stroke="black" cx="204.73" cy="-209.99" rx="65.11" ry="28.98"/>
<text text-anchor="middle" x="204.73" y="-218.49" font-family="Helvetica,sans-Serif" font-size="10.00" fill="#ffffff">handlers.</text>
<text text-anchor="middle" x="204.73" y="-207.49" font-family="Helvetica,sans-Serif" font-size="10.00" fill="#ffffff">sql.</text>
<text text-anchor="middle" x="204.73" y="-196.49" font-family="Helvetica,sans-Serif" font-size="10.00" fill="#ffffff">db_categs_utils</text>
</g>
<!-- handlers_sql_db_categs_utils&#45;&gt;db_folders_py -->
<g id="edge4" class="edge">
<title>handlers_sql_db_categs_utils&#45;&gt;db_folders_py</title><style>.edge>path:hover{stroke-width:8}</style>
<path fill="none" stroke="black" d="M208.73,-181.02C210.02,-165.14 209.98,-145.07 204.73,-128"/>
</g>
<!-- handlers_sql_db_connection -->
<g id="node6" class="node">
<title>handlers_sql_db_connection</title><style>.edge>path:hover{stroke-width:8}</style>
<ellipse fill="#2fbc67" stroke="black" cx="201.73" cy="-397.96" rx="61.54" ry="28.98"/>
<text text-anchor="middle" x="201.73" y="-406.46" font-family="Helvetica,sans-Serif" font-size="10.00" fill="#000000">handlers.</text>
<text text-anchor="middle" x="201.73" y="-395.46" font-family="Helvetica,sans-Serif" font-size="10.00" fill="#000000">sql.</text>
<text text-anchor="middle" x="201.73" y="-384.46" font-family="Helvetica,sans-Serif" font-size="10.00" fill="#000000">db_connection</text>
</g>
<!-- handlers_sql_db_connection&#45;&gt;db_folders_py -->
<g id="edge5" class="edge">
<title>handlers_sql_db_connection&#45;&gt;db_folders_py</title><style>.edge>path:hover{stroke-width:8}</style>
<path fill="none" stroke="black" d="M297.73,-302.97C306.92,-248.88 307.5,-227.72 278.73,-181 257.52,-146.55 216.62,-166.67 204.73,-128"/>
</g>
<!-- handlers_sql_db_connection&#45;&gt;handlers_sql_db_categs_utils -->
<g id="edge6" class="edge">
<title>handlers_sql_db_connection&#45;&gt;handlers_sql_db_categs_utils</title><style>.edge>path:hover{stroke-width:8}</style>
<path fill="none" stroke="black" d="M241.77,-375.67C265.71,-359.95 292.47,-335.92 297.73,-304.97"/>
<path fill="none" stroke="black" d="M297.73,-302.97C302.44,-275.26 280.85,-252.84 257.29,-237.07"/>
<polygon fill="#2fbc67" stroke="black" points="258.89,-233.94 248.56,-231.57 255.15,-239.86 258.89,-233.94"/>
</g>
<!-- handlers_sql_db_utils -->
<g id="node7" class="node">
<title>handlers_sql_db_utils</title><style>.edge>path:hover{stroke-width:8}</style>
<ellipse fill="#38a865" stroke="black" cx="111.73" cy="-303.97" rx="43.68" ry="28.98"/>
<text text-anchor="middle" x="111.73" y="-312.47" font-family="Helvetica,sans-Serif" font-size="10.00" fill="#ffffff">handlers.</text>
<text text-anchor="middle" x="111.73" y="-301.47" font-family="Helvetica,sans-Serif" font-size="10.00" fill="#ffffff">sql.</text>
<text text-anchor="middle" x="111.73" y="-290.47" font-family="Helvetica,sans-Serif" font-size="10.00" fill="#ffffff">db_utils</text>
</g>
<!-- handlers_sql_db_connection&#45;&gt;handlers_sql_db_utils -->
<g id="edge7" class="edge">
<title>handlers_sql_db_connection&#45;&gt;handlers_sql_db_utils</title><style>.edge>path:hover{stroke-width:8}</style>
<path fill="none" stroke="black" d="M176.66,-371.33C165.99,-360.43 153.46,-347.62 142.26,-336.17"/>
<polygon fill="#2fbc67" stroke="black" points="144.62,-333.58 135.12,-328.88 139.61,-338.48 144.62,-333.58"/>
</g>
<!-- handlers_sql_db_utils&#45;&gt;db_folders_py -->
<g id="edge8" class="edge">
<title>handlers_sql_db_utils&#45;&gt;db_folders_py</title><style>.edge>path:hover{stroke-width:8}</style>
<path fill="none" stroke="black" d="M103.99,-275.18C100.24,-255.55 98.94,-229.52 111.73,-210.99"/>
</g>
<!-- handlers_sql_db_utils&#45;&gt;handlers_sql_db_categs_utils -->
<g id="edge9" class="edge">
<title>handlers_sql_db_utils&#45;&gt;handlers_sql_db_categs_utils</title><style>.edge>path:hover{stroke-width:8}</style>
<path fill="none" stroke="black" d="M135.68,-279.29C146.56,-268.53 159.6,-255.63 171.41,-243.95"/>
<polygon fill="#38a865" stroke="black" points="173.93,-246.38 178.57,-236.86 169,-241.41 173.93,-246.38"/>
</g>
<!-- logger_setup&#45;&gt;db_folders_py -->
<g id="edge10" class="edge">
<title>logger_setup&#45;&gt;db_folders_py</title><style>.edge>path:hover{stroke-width:8}</style>
<path fill="none" stroke="black" d="M146.25,-543.44C174.33,-527.3 212.4,-498.3 201.73,-463.95"/>
<path fill="none" stroke="black" d="M201.73,-462.95C193.99,-428.43 157.29,-450.33 130.73,-426.95 119.45,-417.01 118.69,-412.28 111.73,-398.96"/>
<path fill="none" stroke="black" d="M111.73,-396.96C94.63,-364.23 71.25,-367.71 58.73,-332.97 49.99,-308.72 49.99,-299.23 58.73,-274.98 71.25,-240.24 90.76,-241.39 111.73,-210.99"/>
<path fill="none" stroke="black" d="M111.73,-208.99C119.79,-196.3 120.01,-191.54 130.73,-181 151.56,-160.52 162.56,-162.79 185.73,-145 194.72,-138.1 207.89,-138.88 204.73,-128"/>
<path fill="none" stroke="black" d="M204.73,-126C196.73,-98.41 158.16,-100.09 167.73,-73"/>
</g>
<!-- logger_setup&#45;&gt;handlers_sql_db_categs_utils -->
<g id="edge11" class="edge">
<title>logger_setup&#45;&gt;handlers_sql_db_categs_utils</title><style>.edge>path:hover{stroke-width:8}</style>
<path fill="none" stroke="black" d="M111.73,-396.96C104.91,-383.56 121.32,-380.69 130.73,-368.97 144.51,-351.81 153.48,-351.88 164.73,-332.97 180.26,-306.88 190.59,-274.01 196.85,-248.97"/>
<polygon fill="#266ed9" stroke="black" points="200.29,-249.65 199.22,-239.11 193.48,-248.02 200.29,-249.65"/>
</g>
<!-- logger_setup&#45;&gt;handlers_sql_db_connection -->
<g id="edge12" class="edge">
<title>logger_setup&#45;&gt;handlers_sql_db_connection</title><style>.edge>path:hover{stroke-width:8}</style>
<path fill="none" stroke="black" d="M201.73,-462.95C199.2,-454.8 198.19,-445.79 198.01,-437.15"/>
<polygon fill="#266ed9" stroke="black" points="201.52,-436.95 198.16,-426.9 194.52,-436.85 201.52,-436.95"/>
</g>
<!-- logger_setup&#45;&gt;handlers_sql_db_utils -->
<g id="edge13" class="edge">
<title>logger_setup&#45;&gt;handlers_sql_db_utils</title><style>.edge>path:hover{stroke-width:8}</style>
<path fill="none" stroke="black" d="M111.73,-396.96C103.45,-380.69 102.56,-360.62 104.12,-343.38"/>
<polygon fill="#266ed9" stroke="black" points="107.64,-343.42 105.36,-333.07 100.69,-342.58 107.64,-343.42"/>
</g>
<!-- mysql -->
<g id="node9" class="node">
<title>mysql</title><style>.edge>path:hover{stroke-width:8}</style>
<ellipse fill="#a947c2" stroke="black" cx="321.73" cy="-558.16" rx="27.84" ry="18"/>
<text text-anchor="middle" x="321.73" y="-555.66" font-family="Helvetica,sans-Serif" font-size="10.00" fill="#ffffff">mysql</text>
</g>
<!-- mysql&#45;&gt;handlers_sql_db_connection -->
<g id="edge14" class="edge">
<title>mysql&#45;&gt;handlers_sql_db_connection</title><style>.edge>path:hover{stroke-width:8}</style>
<path fill="none" stroke="black" d="M319.4,-540.12C318.42,-528.81 318.2,-513.74 321.73,-500.95"/>
</g>
<!-- mysql_connector -->
<g id="node10" class="node">
<title>mysql_connector</title><style>.edge>path:hover{stroke-width:8}</style>
<ellipse fill="#9f3db8" stroke="black" cx="229.73" cy="-558.16" rx="45.92" ry="21.43"/>
<text text-anchor="middle" x="229.73" y="-561.16" font-family="Helvetica,sans-Serif" font-size="10.00" fill="#ffffff">mysql.</text>
<text text-anchor="middle" x="229.73" y="-550.16" font-family="Helvetica,sans-Serif" font-size="10.00" fill="#ffffff">connector</text>
</g>
<!-- mysql_connector&#45;&gt;handlers_sql_db_connection -->
<g id="edge15" class="edge">
<title>mysql_connector&#45;&gt;handlers_sql_db_connection</title><style>.edge>path:hover{stroke-width:8}</style>
<path fill="none" stroke="black" d="M262.1,-542.81C286.72,-530.99 317.13,-514.11 321.73,-500.95"/>
<path fill="none" stroke="black" d="M321.73,-499.95C334.45,-463.58 296.44,-436.56 259.9,-419.66"/>
<polygon fill="#9f3db8" stroke="black" points="261.24,-416.43 250.68,-415.59 258.41,-422.83 261.24,-416.43"/>
</g>
</g>
</svg>
