<?xml version="1.0" encoding="UTF-8" standalone="no"?>
<!DOCTYPE svg PUBLIC "-//W3C//DTD SVG 1.1//EN"
 "http://www.w3.org/Graphics/SVG/1.1/DTD/svg11.dtd">
<!-- Generated by graphviz version 2.43.0 (0)
 -->
<!-- Title: G Pages: 1 -->
<svg width="370pt" height="471pt"
 viewBox="0.00 0.00 369.69 471.41" xmlns="http://www.w3.org/2000/svg" xmlns:xlink="http://www.w3.org/1999/xlink">
<g id="graph0" class="graph" transform="scale(1 1) rotate(0) translate(4 467.41)">
<title>G</title><style>.edge>path:hover{stroke-width:8}</style>
<polygon fill="white" stroke="transparent" points="-4,4 -4,-467.41 365.69,-467.41 365.69,4 -4,4"/>
<!-- db_utils_py -->
<g id="node1" class="node">
<title>db_utils_py</title><style>.edge>path:hover{stroke-width:8}</style>
<ellipse fill="#924e4e" stroke="black" cx="167.73" cy="-18" rx="41.41" ry="18"/>
<text text-anchor="middle" x="167.73" y="-15.5" font-family="Helvetica,sans-Serif" font-size="10.00" fill="#ffffff">db_utils.py</text>
</g>
<!-- dotenv -->
<g id="node2" class="node">
<title>dotenv</title><style>.edge>path:hover{stroke-width:8}</style>
<ellipse fill="#a2b653" stroke="black" cx="130.73" cy="-445.41" rx="29.37" ry="18"/>
<text text-anchor="middle" x="130.73" y="-442.91" font-family="Helvetica,sans-Serif" font-size="10.00" fill="#000000">dotenv</text>
</g>
<!-- logger_setup -->
<g id="node6" class="node">
<title>logger_setup</title><style>.edge>path:hover{stroke-width:8}</style>
<ellipse fill="#4073c0" stroke="black" cx="130.73" cy="-370.2" rx="47.19" ry="18"/>
<text text-anchor="middle" x="130.73" y="-367.7" font-family="Helvetica,sans-Serif" font-size="10.00" fill="#ffffff">logger_setup</text>
</g>
<!-- dotenv&#45;&gt;logger_setup -->
<g id="edge1" class="edge">
<title>dotenv&#45;&gt;logger_setup</title><style>.edge>path:hover{stroke-width:8}</style>
<path fill="none" stroke="black" d="M130.73,-427.06C130.73,-418.58 130.73,-408.17 130.73,-398.65"/>
<polygon fill="#a2b653" stroke="black" points="134.23,-398.42 130.73,-388.42 127.23,-398.42 134.23,-398.42"/>
</g>
<!-- handlers -->
<g id="node3" class="node">
<title>handlers</title><style>.edge>path:hover{stroke-width:8}</style>
<ellipse fill="#53b67b" stroke="black" cx="34.73" cy="-127" rx="34.96" ry="18"/>
<text text-anchor="middle" x="34.73" y="-124.5" font-family="Helvetica,sans-Serif" font-size="10.00" fill="#000000">handlers</text>
</g>
<!-- handlers&#45;&gt;db_utils_py -->
<g id="edge2" class="edge">
<title>handlers&#45;&gt;db_utils_py</title><style>.edge>path:hover{stroke-width:8}</style>
<path fill="none" stroke="black" d="M61.62,-115.36C100.44,-99.98 167.61,-73.33 167.73,-73"/>
<path fill="none" stroke="black" d="M167.73,-72C170.58,-63.95 171.36,-54.77 171.2,-46.34"/>
<polygon fill="#53b67b" stroke="black" points="174.68,-45.97 170.58,-36.2 167.7,-46.39 174.68,-45.97"/>
</g>
<!-- handlers_sql -->
<g id="node4" class="node">
<title>handlers_sql</title><style>.edge>path:hover{stroke-width:8}</style>
<ellipse fill="#53b67b" stroke="black" cx="131.73" cy="-127" rx="44.98" ry="18"/>
<text text-anchor="middle" x="131.73" y="-124.5" font-family="Helvetica,sans-Serif" font-size="10.00" fill="#000000">handlers.sql</text>
</g>
<!-- handlers_sql&#45;&gt;db_utils_py -->
<g id="edge3" class="edge">
<title>handlers_sql&#45;&gt;db_utils_py</title><style>.edge>path:hover{stroke-width:8}</style>
<path fill="none" stroke="black" d="M146.17,-109.57C153.99,-99.67 162.99,-86.42 167.73,-73"/>
</g>
<!-- handlers_sql_db_connection -->
<g id="node5" class="node">
<title>handlers_sql_db_connection</title><style>.edge>path:hover{stroke-width:8}</style>
<ellipse fill="#46a46c" stroke="black" cx="204.73" cy="-209.99" rx="61.54" ry="28.98"/>
<text text-anchor="middle" x="204.73" y="-218.49" font-family="Helvetica,sans-Serif" font-size="10.00" fill="#000000">handlers.</text>
<text text-anchor="middle" x="204.73" y="-207.49" font-family="Helvetica,sans-Serif" font-size="10.00" fill="#000000">sql.</text>
<text text-anchor="middle" x="204.73" y="-196.49" font-family="Helvetica,sans-Serif" font-size="10.00" fill="#000000">db_connection</text>
</g>
<!-- handlers_sql_db_connection&#45;&gt;db_utils_py -->
<g id="edge4" class="edge">
<title>handlers_sql_db_connection&#45;&gt;db_utils_py</title><style>.edge>path:hover{stroke-width:8}</style>
<path fill="none" stroke="black" d="M205.42,-180.86C205.63,-165.28 205.61,-145.55 204.73,-128"/>
</g>
<!-- logger_setup&#45;&gt;db_utils_py -->
<g id="edge5" class="edge">
<title>logger_setup&#45;&gt;db_utils_py</title><style>.edge>path:hover{stroke-width:8}</style>
<path fill="none" stroke="black" d="M155.51,-354.88C180.77,-338.21 214.9,-308.74 204.73,-275.98"/>
<path fill="none" stroke="black" d="M204.73,-274.98C196.53,-240.57 152.25,-269.13 133.73,-238.98 120.24,-217.02 121.77,-203.83 133.73,-181 152.01,-146.12 206.69,-167.33 204.73,-128"/>
<path fill="none" stroke="black" d="M204.73,-126C202.26,-97.38 158.16,-100.09 167.73,-73"/>
</g>
<!-- logger_setup&#45;&gt;handlers_sql_db_connection -->
<g id="edge6" class="edge">
<title>logger_setup&#45;&gt;handlers_sql_db_connection</title><style>.edge>path:hover{stroke-width:8}</style>
<path fill="none" stroke="black" d="M204.73,-274.98C202.2,-266.84 201.19,-257.82 201.01,-249.19"/>
<polygon fill="#4073c0" stroke="black" points="204.52,-248.99 201.16,-238.94 197.52,-248.88 204.52,-248.99"/>
</g>
<!-- mysql -->
<g id="node7" class="node">
<title>mysql</title><style>.edge>path:hover{stroke-width:8}</style>
<ellipse fill="#a947c2" stroke="black" cx="223.73" cy="-370.2" rx="27.84" ry="18"/>
<text text-anchor="middle" x="223.73" y="-367.7" font-family="Helvetica,sans-Serif" font-size="10.00" fill="#ffffff">mysql</text>
</g>
<!-- mysql&#45;&gt;handlers_sql_db_connection -->
<g id="edge7" class="edge">
<title>mysql&#45;&gt;handlers_sql_db_connection</title><style>.edge>path:hover{stroke-width:8}</style>
<path fill="none" stroke="black" d="M244.22,-357.56C270.91,-342.27 314.36,-316.89 315.73,-312.98"/>
<path fill="none" stroke="black" d="M315.73,-311.98C327.64,-277.93 294.19,-251.16 260.96,-233.77"/>
<polygon fill="#a947c2" stroke="black" points="262.14,-230.45 251.63,-229.11 259.02,-236.71 262.14,-230.45"/>
</g>
<!-- mysql_connector -->
<g id="node8" class="node">
<title>mysql_connector</title><style>.edge>path:hover{stroke-width:8}</style>
<ellipse fill="#9f3db8" stroke="black" cx="315.73" cy="-370.2" rx="45.92" ry="21.43"/>
<text text-anchor="middle" x="315.73" y="-373.2" font-family="Helvetica,sans-Serif" font-size="10.00" fill="#ffffff">mysql.</text>
<text text-anchor="middle" x="315.73" y="-362.2" font-family="Helvetica,sans-Serif" font-size="10.00" fill="#ffffff">connector</text>
</g>
<!-- mysql_connector&#45;&gt;handlers_sql_db_connection -->
<g id="edge8" class="edge">
<title>mysql_connector&#45;&gt;handlers_sql_db_connection</title><style>.edge>path:hover{stroke-width:8}</style>
<path fill="none" stroke="black" d="M312.92,-349C312.09,-338.11 312.2,-324.56 315.73,-312.98"/>
</g>
</g>
</svg>
