<?xml version="1.0" encoding="UTF-8" standalone="no"?>
<!DOCTYPE svg PUBLIC "-//W3C//DTD SVG 1.1//EN"
 "http://www.w3.org/Graphics/SVG/1.1/DTD/svg11.dtd">
<!-- Generated by graphviz version 2.43.0 (0)
 -->
<!-- Title: G Pages: 1 -->
<svg width="572pt" height="795pt"
 viewBox="0.00 0.00 571.66 794.78" xmlns="http://www.w3.org/2000/svg" xmlns:xlink="http://www.w3.org/1999/xlink">
<g id="graph0" class="graph" transform="scale(1 1) rotate(0) translate(4 790.78)">
<title>G</title><style>.edge>path:hover{stroke-width:8}</style>
<polygon fill="white" stroke="transparent" points="-4,4 -4,-790.78 567.66,-790.78 567.66,4 -4,4"/>
<!-- db_notes_py -->
<g id="node1" class="node">
<title>db_notes_py</title><style>.edge>path:hover{stroke-width:8}</style>
<ellipse fill="#633535" stroke="black" cx="381.67" cy="-18" rx="44.98" ry="18"/>
<text text-anchor="middle" x="381.67" y="-15.5" font-family="Helvetica,sans-Serif" font-size="10.00" fill="#ffffff">db_notes.py</text>
</g>
<!-- dotenv -->
<g id="node2" class="node">
<title>dotenv</title><style>.edge>path:hover{stroke-width:8}</style>
<ellipse fill="#b6b653" stroke="black" cx="484.67" cy="-768.78" rx="29.37" ry="18"/>
<text text-anchor="middle" x="484.67" y="-766.28" font-family="Helvetica,sans-Serif" font-size="10.00" fill="#000000">dotenv</text>
</g>
<!-- logger_setup -->
<g id="node13" class="node">
<title>logger_setup</title><style>.edge>path:hover{stroke-width:8}</style>
<ellipse fill="#06f9f9" stroke="black" cx="484.67" cy="-693.57" rx="47.19" ry="18"/>
<text text-anchor="middle" x="484.67" y="-691.07" font-family="Helvetica,sans-Serif" font-size="10.00" fill="#000000">logger_setup</text>
</g>
<!-- dotenv&#45;&gt;logger_setup -->
<g id="edge1" class="edge">
<title>dotenv&#45;&gt;logger_setup</title><style>.edge>path:hover{stroke-width:8}</style>
<path fill="none" stroke="black" d="M484.67,-750.43C484.67,-741.95 484.67,-731.55 484.67,-722.02"/>
<polygon fill="#b6b653" stroke="black" points="488.17,-721.8 484.67,-711.8 481.17,-721.8 488.17,-721.8"/>
</g>
<!-- handlers -->
<g id="node3" class="node">
<title>handlers</title><style>.edge>path:hover{stroke-width:8}</style>
<ellipse fill="#2fdb2f" stroke="black" cx="212.67" cy="-130.21" rx="34.96" ry="18"/>
<text text-anchor="middle" x="212.67" y="-127.71" font-family="Helvetica,sans-Serif" font-size="10.00" fill="#000000">handlers</text>
</g>
<!-- handlers&#45;&gt;db_notes_py -->
<g id="edge2" class="edge">
<title>handlers&#45;&gt;db_notes_py</title><style>.edge>path:hover{stroke-width:8}</style>
<path fill="none" stroke="black" d="M237.06,-117.22C243.37,-114.34 250.2,-111.4 256.67,-109 310.87,-88.88 363.78,-127.98 381.67,-73"/>
<path fill="none" stroke="black" d="M381.67,-72C384.31,-63.88 385.04,-54.68 384.89,-46.25"/>
<polygon fill="#2fdb2f" stroke="black" points="388.37,-45.91 384.31,-36.13 381.39,-46.31 388.37,-45.91"/>
</g>
<!-- handlers_header -->
<g id="node4" class="node">
<title>handlers_header</title><style>.edge>path:hover{stroke-width:8}</style>
<ellipse fill="#47c247" stroke="black" cx="309.67" cy="-130.21" rx="43.68" ry="21.43"/>
<text text-anchor="middle" x="309.67" y="-133.21" font-family="Helvetica,sans-Serif" font-size="10.00" fill="#000000">handlers.</text>
<text text-anchor="middle" x="309.67" y="-122.21" font-family="Helvetica,sans-Serif" font-size="10.00" fill="#000000">header</text>
</g>
<!-- handlers_header&#45;&gt;db_notes_py -->
<g id="edge3" class="edge">
<title>handlers_header&#45;&gt;db_notes_py</title><style>.edge>path:hover{stroke-width:8}</style>
<path fill="none" stroke="black" d="M341.34,-115.37C357.67,-106.14 375.44,-92.15 381.67,-73"/>
</g>
<!-- handlers_header_extract_yaml_header -->
<g id="node5" class="node">
<title>handlers_header_extract_yaml_header</title><style>.edge>path:hover{stroke-width:8}</style>
<ellipse fill="#3d8f3d" stroke="black" cx="381.67" cy="-216.42" rx="84.71" ry="28.98"/>
<text text-anchor="middle" x="381.67" y="-224.92" font-family="Helvetica,sans-Serif" font-size="10.00" fill="#ffffff">handlers.</text>
<text text-anchor="middle" x="381.67" y="-213.92" font-family="Helvetica,sans-Serif" font-size="10.00" fill="#ffffff">header.</text>
<text text-anchor="middle" x="381.67" y="-202.92" font-family="Helvetica,sans-Serif" font-size="10.00" fill="#ffffff">extract_yaml_header</text>
</g>
<!-- handlers_header_extract_yaml_header&#45;&gt;db_notes_py -->
<g id="edge4" class="edge">
<title>handlers_header_extract_yaml_header&#45;&gt;db_notes_py</title><style>.edge>path:hover{stroke-width:8}</style>
<path fill="none" stroke="black" d="M381.67,-187.35C381.67,-170.98 381.67,-149.93 381.67,-131.21"/>
</g>
<!-- handlers_header_header_utils -->
<g id="node6" class="node">
<title>handlers_header_header_utils</title><style>.edge>path:hover{stroke-width:8}</style>
<ellipse fill="#35a135" stroke="black" cx="388.67" cy="-310.4" rx="54.39" ry="28.98"/>
<text text-anchor="middle" x="388.67" y="-318.9" font-family="Helvetica,sans-Serif" font-size="10.00" fill="#ffffff">handlers.</text>
<text text-anchor="middle" x="388.67" y="-307.9" font-family="Helvetica,sans-Serif" font-size="10.00" fill="#ffffff">header.</text>
<text text-anchor="middle" x="388.67" y="-296.9" font-family="Helvetica,sans-Serif" font-size="10.00" fill="#ffffff">header_utils</text>
</g>
<!-- handlers_header_header_utils&#45;&gt;db_notes_py -->
<g id="edge5" class="edge">
<title>handlers_header_header_utils&#45;&gt;db_notes_py</title><style>.edge>path:hover{stroke-width:8}</style>
<path fill="none" stroke="black" d="M433.09,-293.51C467.99,-278.11 508.57,-252.01 494.67,-217.42"/>
<path fill="none" stroke="black" d="M494.67,-215.42C489.06,-201.47 487.06,-197.24 475.67,-187.43 438.78,-155.66 381.67,-179.89 381.67,-131.21"/>
</g>
<!-- handlers_header_header_utils&#45;&gt;handlers_header_extract_yaml_header -->
<g id="edge6" class="edge">
<title>handlers_header_header_utils&#45;&gt;handlers_header_extract_yaml_header</title><style>.edge>path:hover{stroke-width:8}</style>
<path fill="none" stroke="black" d="M386.53,-281.3C385.92,-273.26 385.24,-264.36 384.59,-255.82"/>
<polygon fill="#35a135" stroke="black" points="388.07,-255.37 383.82,-245.66 381.09,-255.9 388.07,-255.37"/>
</g>
<!-- handlers_sql -->
<g id="node7" class="node">
<title>handlers_sql</title><style>.edge>path:hover{stroke-width:8}</style>
<ellipse fill="#47c247" stroke="black" cx="454.67" cy="-130.21" rx="44.98" ry="18"/>
<text text-anchor="middle" x="454.67" y="-127.71" font-family="Helvetica,sans-Serif" font-size="10.00" fill="#000000">handlers.sql</text>
</g>
<!-- handlers_sql&#45;&gt;db_notes_py -->
<g id="edge7" class="edge">
<title>handlers_sql&#45;&gt;db_notes_py</title><style>.edge>path:hover{stroke-width:8}</style>
<path fill="none" stroke="black" d="M419.95,-118.55C397.87,-109.53 374.64,-94.6 381.67,-73"/>
</g>
<!-- handlers_sql_db_connection -->
<g id="node8" class="node">
<title>handlers_sql_db_connection</title><style>.edge>path:hover{stroke-width:8}</style>
<ellipse fill="#3ab03a" stroke="black" cx="119.67" cy="-498.37" rx="61.54" ry="28.98"/>
<text text-anchor="middle" x="119.67" y="-506.87" font-family="Helvetica,sans-Serif" font-size="10.00" fill="#ffffff">handlers.</text>
<text text-anchor="middle" x="119.67" y="-495.87" font-family="Helvetica,sans-Serif" font-size="10.00" fill="#ffffff">sql.</text>
<text text-anchor="middle" x="119.67" y="-484.87" font-family="Helvetica,sans-Serif" font-size="10.00" fill="#ffffff">db_connection</text>
</g>
<!-- handlers_sql_db_connection&#45;&gt;db_notes_py -->
<g id="edge8" class="edge">
<title>handlers_sql_db_connection&#45;&gt;db_notes_py</title><style>.edge>path:hover{stroke-width:8}</style>
<path fill="none" stroke="black" d="M121.28,-469.01C123.63,-443.46 129.42,-405.42 143.67,-375.39 159.5,-342.03 178.65,-343.63 196.67,-311.4"/>
<path fill="none" stroke="black" d="M196.67,-309.4C220.81,-263.44 237.56,-258.98 268.67,-217.42"/>
<path fill="none" stroke="black" d="M268.67,-215.42C277.68,-203.38 276.27,-197.24 287.67,-187.43 324.55,-155.66 381.67,-179.89 381.67,-131.21"/>
<path fill="none" stroke="black" d="M381.67,-129.21C381.67,-104.23 373.94,-96.76 381.67,-73"/>
</g>
<!-- handlers_sql_db_utils -->
<g id="node9" class="node">
<title>handlers_sql_db_utils</title><style>.edge>path:hover{stroke-width:8}</style>
<ellipse fill="#439d43" stroke="black" cx="196.67" cy="-404.38" rx="43.68" ry="28.98"/>
<text text-anchor="middle" x="196.67" y="-412.88" font-family="Helvetica,sans-Serif" font-size="10.00" fill="#ffffff">handlers.</text>
<text text-anchor="middle" x="196.67" y="-401.88" font-family="Helvetica,sans-Serif" font-size="10.00" fill="#ffffff">sql.</text>
<text text-anchor="middle" x="196.67" y="-390.88" font-family="Helvetica,sans-Serif" font-size="10.00" fill="#ffffff">db_utils</text>
</g>
<!-- handlers_sql_db_connection&#45;&gt;handlers_sql_db_utils -->
<g id="edge9" class="edge">
<title>handlers_sql_db_connection&#45;&gt;handlers_sql_db_utils</title><style>.edge>path:hover{stroke-width:8}</style>
<path fill="none" stroke="black" d="M141.53,-471.25C150.26,-460.83 160.4,-448.71 169.59,-437.73"/>
<polygon fill="#3ab03a" stroke="black" points="172.34,-439.89 176.08,-429.98 166.97,-435.4 172.34,-439.89"/>
</g>
<!-- handlers_sql_db_utils&#45;&gt;db_notes_py -->
<g id="edge10" class="edge">
<title>handlers_sql_db_utils&#45;&gt;db_notes_py</title><style>.edge>path:hover{stroke-width:8}</style>
<path fill="none" stroke="black" d="M189.88,-375.45C186.77,-356.23 185.84,-330.78 196.67,-311.4"/>
</g>
<!-- handlers_utils -->
<g id="node10" class="node">
<title>handlers_utils</title><style>.edge>path:hover{stroke-width:8}</style>
<ellipse fill="#3bce3b" stroke="black" cx="286.67" cy="-498.37" rx="48.72" ry="18"/>
<text text-anchor="middle" x="286.67" y="-495.87" font-family="Helvetica,sans-Serif" font-size="10.00" fill="#000000">handlers.utils</text>
</g>
<!-- handlers_utils&#45;&gt;db_notes_py -->
<g id="edge11" class="edge">
<title>handlers_utils&#45;&gt;db_notes_py</title><style>.edge>path:hover{stroke-width:8}</style>
<path fill="none" stroke="black" d="M280.97,-480.34C270.76,-447.18 251.89,-371.88 268.67,-311.4"/>
<path fill="none" stroke="black" d="M268.67,-309.4C280.22,-270.19 244.17,-250.15 268.67,-217.42"/>
</g>
<!-- handlers_utils&#45;&gt;handlers_header_extract_yaml_header -->
<g id="edge12" class="edge">
<title>handlers_utils&#45;&gt;handlers_header_extract_yaml_header</title><style>.edge>path:hover{stroke-width:8}</style>
<path fill="none" stroke="black" d="M268.67,-309.4C276.38,-281.61 299.63,-260.33 323.05,-245.28"/>
<polygon fill="#3bce3b" stroke="black" points="324.96,-248.21 331.66,-240.01 321.3,-242.24 324.96,-248.21"/>
</g>
<!-- handlers_utils&#45;&gt;handlers_header_header_utils -->
<g id="edge13" class="edge">
<title>handlers_utils&#45;&gt;handlers_header_header_utils</title><style>.edge>path:hover{stroke-width:8}</style>
<path fill="none" stroke="black" d="M302.3,-481.09C317.41,-463.91 338.86,-435.22 344.67,-405.38"/>
<path fill="none" stroke="black" d="M344.67,-403.38C348.49,-383.74 357.52,-363.5 366.41,-347.03"/>
<polygon fill="#3bce3b" stroke="black" points="369.47,-348.73 371.3,-338.3 363.36,-345.31 369.47,-348.73"/>
</g>
<!-- handlers_utils_files -->
<g id="node11" class="node">
<title>handlers_utils_files</title><style>.edge>path:hover{stroke-width:8}</style>
<ellipse fill="#33cc33" stroke="black" cx="484.67" cy="-498.37" rx="43.68" ry="28.98"/>
<text text-anchor="middle" x="484.67" y="-506.87" font-family="Helvetica,sans-Serif" font-size="10.00" fill="#000000">handlers.</text>
<text text-anchor="middle" x="484.67" y="-495.87" font-family="Helvetica,sans-Serif" font-size="10.00" fill="#000000">utils.</text>
<text text-anchor="middle" x="484.67" y="-484.87" font-family="Helvetica,sans-Serif" font-size="10.00" fill="#000000">files</text>
</g>
<!-- handlers_utils_files&#45;&gt;db_notes_py -->
<g id="edge14" class="edge">
<title>handlers_utils_files&#45;&gt;db_notes_py</title><style>.edge>path:hover{stroke-width:8}</style>
<path fill="none" stroke="black" d="M494.67,-309.4C501.41,-269.08 509.91,-255.35 494.67,-217.42"/>
</g>
<!-- handlers_utils_files&#45;&gt;handlers_header_extract_yaml_header -->
<g id="edge15" class="edge">
<title>handlers_utils_files&#45;&gt;handlers_header_extract_yaml_header</title><style>.edge>path:hover{stroke-width:8}</style>
<path fill="none" stroke="black" d="M382.67,-403.38C374.14,-339.54 484.04,-374.93 494.67,-311.4"/>
<path fill="none" stroke="black" d="M494.67,-309.4C499.66,-279.57 475.34,-257.54 448,-242.53"/>
<polygon fill="#33cc33" stroke="black" points="449.54,-239.39 439.05,-237.9 446.32,-245.61 449.54,-239.39"/>
</g>
<!-- handlers_utils_files&#45;&gt;handlers_header_header_utils -->
<g id="edge16" class="edge">
<title>handlers_utils_files&#45;&gt;handlers_header_header_utils</title><style>.edge>path:hover{stroke-width:8}</style>
<path fill="none" stroke="black" d="M449.12,-481.35C421.61,-466.32 387.4,-440.84 382.67,-405.38"/>
<path fill="none" stroke="black" d="M382.67,-403.38C380.34,-385.95 381.11,-366.53 382.76,-350.04"/>
<polygon fill="#33cc33" stroke="black" points="386.29,-350.01 383.94,-339.68 379.33,-349.22 386.29,-350.01"/>
</g>
<!-- handlers_utils_normalization -->
<g id="node12" class="node">
<title>handlers_utils_normalization</title><style>.edge>path:hover{stroke-width:8}</style>
<ellipse fill="#4cb34c" stroke="black" cx="469.67" cy="-404.38" rx="59.29" ry="28.98"/>
<text text-anchor="middle" x="469.67" y="-412.88" font-family="Helvetica,sans-Serif" font-size="10.00" fill="#000000">handlers.</text>
<text text-anchor="middle" x="469.67" y="-401.88" font-family="Helvetica,sans-Serif" font-size="10.00" fill="#000000">utils.</text>
<text text-anchor="middle" x="469.67" y="-390.88" font-family="Helvetica,sans-Serif" font-size="10.00" fill="#000000">normalization</text>
</g>
<!-- handlers_utils_normalization&#45;&gt;db_notes_py -->
<g id="edge17" class="edge">
<title>handlers_utils_normalization&#45;&gt;db_notes_py</title><style>.edge>path:hover{stroke-width:8}</style>
<path fill="none" stroke="black" d="M509,-382.4C533.11,-366.37 558.95,-341.87 556.67,-311.4"/>
<path fill="none" stroke="black" d="M556.67,-309.4C552.98,-260.24 513.05,-263.16 494.67,-217.42"/>
</g>
<!-- logger_setup&#45;&gt;db_notes_py -->
<g id="edge18" class="edge">
<title>logger_setup&#45;&gt;db_notes_py</title><style>.edge>path:hover{stroke-width:8}</style>
<path fill="none" stroke="black" d="M556.67,-497.37C568.25,-415.53 562.85,-393.82 556.67,-311.4"/>
</g>
<!-- logger_setup&#45;&gt;handlers_header_extract_yaml_header -->
<g id="edge19" class="edge">
<title>logger_setup&#45;&gt;handlers_header_extract_yaml_header</title><style>.edge>path:hover{stroke-width:8}</style>
<path fill="none" stroke="black" d="M363.67,-580.36C341.64,-568.48 351.35,-493.49 344.67,-469.37 340.08,-452.83 334.28,-450.16 330.67,-433.37 316.45,-367.31 301.9,-344.67 325.67,-281.41 329.76,-270.51 336.65,-260.25 344.23,-251.27"/>
<polygon fill="#06f9f9" stroke="black" points="346.92,-253.5 351,-243.73 341.72,-248.82 346.92,-253.5"/>
</g>
<!-- logger_setup&#45;&gt;handlers_header_header_utils -->
<g id="edge20" class="edge">
<title>logger_setup&#45;&gt;handlers_header_header_utils</title><style>.edge>path:hover{stroke-width:8}</style>
<path fill="none" stroke="black" d="M484.67,-635.36C475.09,-613.84 484.67,-605.91 484.67,-582.36"/>
<path fill="none" stroke="black" d="M484.67,-580.36C484.67,-547.04 452.89,-553.03 431.67,-527.36 422.09,-515.77 420.3,-512.32 412.67,-499.37"/>
</g>
<!-- logger_setup&#45;&gt;handlers_sql_db_connection -->
<g id="edge21" class="edge">
<title>logger_setup&#45;&gt;handlers_sql_db_connection</title><style>.edge>path:hover{stroke-width:8}</style>
<path fill="none" stroke="black" d="M488.16,-675.59C489.72,-664.04 490.14,-648.66 484.67,-636.36"/>
<path fill="none" stroke="black" d="M484.67,-635.36C465.12,-591.44 424.03,-623.85 382.67,-599.36 372.92,-593.58 373.66,-587.7 363.67,-582.36"/>
<path fill="none" stroke="black" d="M363.67,-580.36C294.63,-543.43 269.76,-552.67 195.67,-527.36 189.41,-525.22 182.89,-522.92 176.41,-520.6"/>
<polygon fill="#06f9f9" stroke="black" points="177.57,-517.3 166.98,-517.18 175.19,-523.88 177.57,-517.3"/>
</g>
<!-- logger_setup&#45;&gt;handlers_sql_db_utils -->
<g id="edge22" class="edge">
<title>logger_setup&#45;&gt;handlers_sql_db_utils</title><style>.edge>path:hover{stroke-width:8}</style>
<path fill="none" stroke="black" d="M363.67,-580.36C306.83,-549.96 271.49,-575.53 228.67,-527.36 208.25,-504.39 200.6,-469.94 197.86,-443.5"/>
<polygon fill="#06f9f9" stroke="black" points="201.34,-443.11 197.01,-433.44 194.36,-443.7 201.34,-443.11"/>
</g>
<!-- logger_setup&#45;&gt;handlers_utils_files -->
<g id="edge23" class="edge">
<title>logger_setup&#45;&gt;handlers_utils_files</title><style>.edge>path:hover{stroke-width:8}</style>
<path fill="none" stroke="black" d="M484.67,-580.36C484.67,-566.49 484.67,-551.28 484.67,-537.83"/>
<polygon fill="#06f9f9" stroke="black" points="488.17,-537.48 484.67,-527.48 481.17,-537.48 488.17,-537.48"/>
</g>
<!-- logger_setup&#45;&gt;handlers_utils_normalization -->
<g id="edge24" class="edge">
<title>logger_setup&#45;&gt;handlers_utils_normalization</title><style>.edge>path:hover{stroke-width:8}</style>
<path fill="none" stroke="black" d="M484.67,-580.36C484.67,-532.19 549.92,-547.05 556.67,-499.37"/>
<path fill="none" stroke="black" d="M556.67,-497.37C560.5,-470.25 540,-447.74 517.94,-431.78"/>
<polygon fill="#06f9f9" stroke="black" points="519.69,-428.74 509.46,-425.99 515.74,-434.52 519.69,-428.74"/>
</g>
<!-- mysql -->
<g id="node14" class="node">
<title>mysql</title><style>.edge>path:hover{stroke-width:8}</style>
<ellipse fill="#4747c2" stroke="black" cx="27.67" cy="-693.57" rx="27.84" ry="18"/>
<text text-anchor="middle" x="27.67" y="-691.07" font-family="Helvetica,sans-Serif" font-size="10.00" fill="#ffffff">mysql</text>
</g>
<!-- mysql&#45;&gt;handlers_sql_db_connection -->
<g id="edge25" class="edge">
<title>mysql&#45;&gt;handlers_sql_db_connection</title><style>.edge>path:hover{stroke-width:8}</style>
<path fill="none" stroke="black" d="M48.15,-680.93C74.84,-665.64 118.3,-640.27 119.67,-636.36"/>
<path fill="none" stroke="black" d="M119.67,-635.36C130.73,-603.74 129.53,-565.4 126.26,-537.5"/>
<polygon fill="#4747c2" stroke="black" points="129.7,-536.81 124.93,-527.35 122.76,-537.72 129.7,-536.81"/>
</g>
<!-- mysql_connector -->
<g id="node15" class="node">
<title>mysql_connector</title><style>.edge>path:hover{stroke-width:8}</style>
<ellipse fill="#3d3db8" stroke="black" cx="119.67" cy="-693.57" rx="45.92" ry="21.43"/>
<text text-anchor="middle" x="119.67" y="-696.57" font-family="Helvetica,sans-Serif" font-size="10.00" fill="#ffffff">mysql.</text>
<text text-anchor="middle" x="119.67" y="-685.57" font-family="Helvetica,sans-Serif" font-size="10.00" fill="#ffffff">connector</text>
</g>
<!-- mysql_connector&#45;&gt;handlers_sql_db_connection -->
<g id="edge26" class="edge">
<title>mysql_connector&#45;&gt;handlers_sql_db_connection</title><style>.edge>path:hover{stroke-width:8}</style>
<path fill="none" stroke="black" d="M116.48,-672.26C115.55,-661.33 115.67,-647.78 119.67,-636.36"/>
</g>
<!-- yaml -->
<g id="node16" class="node">
<title>yaml</title><style>.edge>path:hover{stroke-width:8}</style>
<ellipse fill="#b653b6" stroke="black" cx="418.67" cy="-581.36" rx="27" ry="18"/>
<text text-anchor="middle" x="418.67" y="-578.86" font-family="Helvetica,sans-Serif" font-size="10.00" fill="#ffffff">yaml</text>
</g>
<!-- yaml&#45;&gt;handlers_header_header_utils -->
<g id="edge27" class="edge">
<title>yaml&#45;&gt;handlers_header_header_utils</title><style>.edge>path:hover{stroke-width:8}</style>
<path fill="none" stroke="black" d="M421.57,-563.25C423.6,-545.91 424.2,-518.92 412.67,-499.37"/>
<path fill="none" stroke="black" d="M412.67,-497.37C386.84,-453.57 334.95,-455.29 344.67,-405.38"/>
</g>
</g>
</svg>
