<?xml version="1.0" encoding="UTF-8" standalone="no"?>
<!DOCTYPE svg PUBLIC "-//W3C//DTD SVG 1.1//EN"
 "http://www.w3.org/Graphics/SVG/1.1/DTD/svg11.dtd">
<!-- Generated by graphviz version 2.43.0 (0)
 -->
<!-- Title: G Pages: 1 -->
<svg width="598pt" height="895pt"
 viewBox="0.00 0.00 597.73 895.37" xmlns="http://www.w3.org/2000/svg" xmlns:xlink="http://www.w3.org/1999/xlink">
<g id="graph0" class="graph" transform="scale(1 1) rotate(0) translate(4 891.37)">
<title>G</title><style>.edge>path:hover{stroke-width:8}</style>
<polygon fill="white" stroke="transparent" points="-4,4 -4,-891.37 593.73,-891.37 593.73,4 -4,4"/>
<!-- db_temp_blocs_py -->
<g id="node1" class="node">
<title>db_temp_blocs_py</title><style>.edge>path:hover{stroke-width:8}</style>
<ellipse fill="#7e4444" stroke="black" cx="167.73" cy="-21.21" rx="65.52" ry="21.43"/>
<text text-anchor="middle" x="167.73" y="-24.21" font-family="Helvetica,sans-Serif" font-size="10.00" fill="#ffffff">db_temp_blocs.</text>
<text text-anchor="middle" x="167.73" y="-13.21" font-family="Helvetica,sans-Serif" font-size="10.00" fill="#ffffff">py</text>
</g>
<!-- dotenv -->
<g id="node2" class="node">
<title>dotenv</title><style>.edge>path:hover{stroke-width:8}</style>
<ellipse fill="#a2b653" stroke="black" cx="133.73" cy="-447.91" rx="29.37" ry="18"/>
<text text-anchor="middle" x="133.73" y="-445.41" font-family="Helvetica,sans-Serif" font-size="10.00" fill="#000000">dotenv</text>
</g>
<!-- logger_setup -->
<g id="node6" class="node">
<title>logger_setup</title><style>.edge>path:hover{stroke-width:8}</style>
<ellipse fill="#4073c0" stroke="black" cx="151.73" cy="-373.41" rx="47.19" ry="18"/>
<text text-anchor="middle" x="151.73" y="-370.91" font-family="Helvetica,sans-Serif" font-size="10.00" fill="#ffffff">logger_setup</text>
</g>
<!-- dotenv&#45;&gt;logger_setup -->
<g id="edge1" class="edge">
<title>dotenv&#45;&gt;logger_setup</title><style>.edge>path:hover{stroke-width:8}</style>
<path fill="none" stroke="black" d="M138,-429.73C140.1,-421.24 142.7,-410.8 145.06,-401.29"/>
<polygon fill="#a2b653" stroke="black" points="148.48,-402.02 147.5,-391.47 141.69,-400.33 148.48,-402.02"/>
</g>
<!-- handlers -->
<g id="node3" class="node">
<title>handlers</title><style>.edge>path:hover{stroke-width:8}</style>
<ellipse fill="#53b67b" stroke="black" cx="34.73" cy="-133.43" rx="34.96" ry="18"/>
<text text-anchor="middle" x="34.73" y="-130.93" font-family="Helvetica,sans-Serif" font-size="10.00" fill="#000000">handlers</text>
</g>
<!-- handlers&#45;&gt;db_temp_blocs_py -->
<g id="edge2" class="edge">
<title>handlers&#45;&gt;db_temp_blocs_py</title><style>.edge>path:hover{stroke-width:8}</style>
<path fill="none" stroke="black" d="M61.62,-121.78C100.44,-106.41 167.61,-79.76 167.73,-79.43"/>
<path fill="none" stroke="black" d="M167.73,-78.43C170.6,-70.31 171.49,-61.12 171.43,-52.56"/>
<polygon fill="#53b67b" stroke="black" points="174.92,-52.36 170.95,-42.54 167.93,-52.69 174.92,-52.36"/>
</g>
<!-- handlers_sql -->
<g id="node4" class="node">
<title>handlers_sql</title><style>.edge>path:hover{stroke-width:8}</style>
<ellipse fill="#53b67b" stroke="black" cx="131.73" cy="-133.43" rx="44.98" ry="18"/>
<text text-anchor="middle" x="131.73" y="-130.93" font-family="Helvetica,sans-Serif" font-size="10.00" fill="#000000">handlers.sql</text>
</g>
<!-- handlers_sql&#45;&gt;db_temp_blocs_py -->
<g id="edge3" class="edge">
<title>handlers_sql&#45;&gt;db_temp_blocs_py</title><style>.edge>path:hover{stroke-width:8}</style>
<path fill="none" stroke="black" d="M146.17,-115.99C153.99,-106.1 162.99,-92.85 167.73,-79.43"/>
</g>
<!-- handlers_sql_db_connection -->
<g id="node5" class="node">
<title>handlers_sql_db_connection</title><style>.edge>path:hover{stroke-width:8}</style>
<ellipse fill="#46a46c" stroke="black" cx="204.73" cy="-216.42" rx="61.54" ry="28.98"/>
<text text-anchor="middle" x="204.73" y="-224.92" font-family="Helvetica,sans-Serif" font-size="10.00" fill="#000000">handlers.</text>
<text text-anchor="middle" x="204.73" y="-213.92" font-family="Helvetica,sans-Serif" font-size="10.00" fill="#000000">sql.</text>
<text text-anchor="middle" x="204.73" y="-202.92" font-family="Helvetica,sans-Serif" font-size="10.00" fill="#000000">db_connection</text>
</g>
<!-- handlers_sql_db_connection&#45;&gt;db_temp_blocs_py -->
<g id="edge4" class="edge">
<title>handlers_sql_db_connection&#45;&gt;db_temp_blocs_py</title><style>.edge>path:hover{stroke-width:8}</style>
<path fill="none" stroke="black" d="M208.73,-187.45C210.02,-171.56 209.98,-151.5 204.73,-134.43"/>
</g>
<!-- logger_setup&#45;&gt;db_temp_blocs_py -->
<g id="edge5" class="edge">
<title>logger_setup&#45;&gt;db_temp_blocs_py</title><style>.edge>path:hover{stroke-width:8}</style>
<path fill="none" stroke="black" d="M133.89,-356.66C124.86,-347 115.61,-333.75 114.73,-319.41"/>
<path fill="none" stroke="black" d="M114.73,-318.41C113.76,-302.44 114.73,-298.41 114.73,-282.41"/>
</g>
<!-- logger_setup&#45;&gt;handlers_sql_db_connection -->
<g id="edge6" class="edge">
<title>logger_setup&#45;&gt;handlers_sql_db_connection</title><style>.edge>path:hover{stroke-width:8}</style>
<path fill="none" stroke="black" d="M114.73,-318.41C113.31,-295.19 140.12,-301.96 152.73,-282.41"/>
<path fill="none" stroke="black" d="M152.73,-281.41C159.27,-271.27 167.14,-260.86 174.76,-251.47"/>
<polygon fill="#4073c0" stroke="black" points="177.67,-253.45 181.35,-243.51 172.28,-248.99 177.67,-253.45"/>
</g>
<!-- mysql -->
<g id="node7" class="node">
<title>mysql</title><style>.edge>path:hover{stroke-width:8}</style>
<ellipse fill="#cb10f9" stroke="black" cx="244.73" cy="-373.41" rx="27.84" ry="18"/>
<text text-anchor="middle" x="244.73" y="-370.91" font-family="Helvetica,sans-Serif" font-size="10.00" fill="#ffffff">mysql</text>
</g>
<!-- mysql&#45;&gt;db_temp_blocs_py -->
<g id="edge7" class="edge">
<title>mysql&#45;&gt;db_temp_blocs_py</title><style>.edge>path:hover{stroke-width:8}</style>
<path fill="none" stroke="black" d="M223.35,-361.92C199.65,-349.99 163.34,-330.68 152.73,-319.41"/>
<path fill="none" stroke="black" d="M152.73,-318.41C136.78,-301.47 114.73,-305.67 114.73,-282.41"/>
</g>
<!-- mysql&#45;&gt;handlers_sql_db_connection -->
<g id="edge8" class="edge">
<title>mysql&#45;&gt;handlers_sql_db_connection</title><style>.edge>path:hover{stroke-width:8}</style>
<path fill="none" stroke="black" d="M152.73,-318.41C141.76,-306.76 144.06,-295.86 152.73,-282.41"/>
</g>
<!-- mysql_connector -->
<g id="node8" class="node">
<title>mysql_connector</title><style>.edge>path:hover{stroke-width:8}</style>
<polygon fill="blue" stroke="black" points="355.23,-391.41 290.23,-391.41 290.23,-355.41 355.23,-355.41 355.23,-391.41"/>
<text text-anchor="middle" x="322.73" y="-376.41" font-family="Helvetica,sans-Serif" font-size="10.00" fill="white">mysql.</text>
<text text-anchor="middle" x="322.73" y="-365.41" font-family="Helvetica,sans-Serif" font-size="10.00" fill="white">connector</text>
</g>
<!-- mysql_connector&#45;&gt;db_temp_blocs_py -->
<g id="edge9" class="edge">
<title>mysql_connector&#45;&gt;db_temp_blocs_py</title><style>.edge>path:hover{stroke-width:8}</style>
<path fill="none" stroke="black" d="M294.73,-281.41C275.9,-243.18 298.53,-223.43 275.73,-187.43 254.66,-154.16 216.3,-172.07 204.73,-134.43"/>
</g>
<!-- mysql_connector&#45;&gt;handlers_sql_db_connection -->
<g id="edge10" class="edge">
<title>mysql_connector&#45;&gt;handlers_sql_db_connection</title><style>.edge>path:hover{stroke-width:8}</style>
<path fill="none" stroke="black" d="M317.36,-355.16C311.72,-337.04 302.59,-307.73 294.73,-282.41"/>
<path fill="none" stroke="black" d="M294.73,-281.41C286.73,-265.16 272.38,-252.2 257.45,-242.3"/>
<polygon fill="blue" stroke="black" points="258.98,-239.13 248.64,-236.82 255.29,-245.07 258.98,-239.13"/>
</g>
<!-- mysql_connector_connection -->
<g id="node9" class="node">
<title>mysql_connector_connection</title><style>.edge>path:hover{stroke-width:8}</style>
<polygon fill="blue" stroke="black" points="589.73,-545.41 519.73,-545.41 519.73,-504.41 589.73,-504.41 589.73,-545.41"/>
<text text-anchor="middle" x="554.73" y="-533.41" font-family="Helvetica,sans-Serif" font-size="10.00" fill="white">mysql.</text>
<text text-anchor="middle" x="554.73" y="-522.41" font-family="Helvetica,sans-Serif" font-size="10.00" fill="white">connector.</text>
<text text-anchor="middle" x="554.73" y="-511.41" font-family="Helvetica,sans-Serif" font-size="10.00" fill="white">connection</text>
</g>
<!-- mysql_connector_connection&#45;&gt;mysql_connector -->
<g id="edge11" class="edge">
<title>mysql_connector_connection&#45;&gt;mysql_connector</title><style>.edge>path:hover{stroke-width:8}</style>
<path fill="none" stroke="black" d="M535.31,-504.17C521.84,-489.74 504.17,-469.21 491.73,-448.91"/>
</g>
<!-- mysql_connector_pooling -->
<g id="node15" class="node">
<title>mysql_connector_pooling</title><style>.edge>path:hover{stroke-width:8}</style>
<polygon fill="blue" stroke="black" points="436.23,-468.41 369.23,-468.41 369.23,-427.41 436.23,-427.41 436.23,-468.41"/>
<text text-anchor="middle" x="402.73" y="-456.41" font-family="Helvetica,sans-Serif" font-size="10.00" fill="white">mysql.</text>
<text text-anchor="middle" x="402.73" y="-445.41" font-family="Helvetica,sans-Serif" font-size="10.00" fill="white">connector.</text>
<text text-anchor="middle" x="402.73" y="-434.41" font-family="Helvetica,sans-Serif" font-size="10.00" fill="white">pooling</text>
</g>
<!-- mysql_connector_connection&#45;&gt;mysql_connector_pooling -->
<g id="edge12" class="edge">
<title>mysql_connector_connection&#45;&gt;mysql_connector_pooling</title><style>.edge>path:hover{stroke-width:8}</style>
<path fill="none" stroke="black" d="M519.48,-506.51C497.41,-495.63 468.84,-481.53 445.49,-470.01"/>
<polygon fill="blue" stroke="black" points="447,-466.85 436.49,-465.57 443.91,-473.13 447,-466.85"/>
</g>
<!-- mysql_connector_connection_cext -->
<g id="node10" class="node">
<title>mysql_connector_connection_cext</title><style>.edge>path:hover{stroke-width:8}</style>
<polygon fill="blue" stroke="black" points="463.73,-545.41 367.73,-545.41 367.73,-504.41 463.73,-504.41 463.73,-545.41"/>
<text text-anchor="middle" x="415.73" y="-533.41" font-family="Helvetica,sans-Serif" font-size="10.00" fill="white">mysql.</text>
<text text-anchor="middle" x="415.73" y="-522.41" font-family="Helvetica,sans-Serif" font-size="10.00" fill="white">connector.</text>
<text text-anchor="middle" x="415.73" y="-511.41" font-family="Helvetica,sans-Serif" font-size="10.00" fill="white">connection_cext</text>
</g>
<!-- mysql_connector_connection_cext&#45;&gt;mysql_connector -->
<g id="edge13" class="edge">
<title>mysql_connector_connection_cext&#45;&gt;mysql_connector</title><style>.edge>path:hover{stroke-width:8}</style>
<path fill="none" stroke="black" d="M458.33,-504.4C482.3,-490.52 505,-470.56 491.73,-448.91"/>
<path fill="none" stroke="black" d="M491.73,-446.91C465.13,-403.49 406.08,-386.03 365.34,-379.04"/>
<polygon fill="blue" stroke="black" points="365.83,-375.57 355.41,-377.48 364.74,-382.49 365.83,-375.57"/>
</g>
<!-- mysql_connector_connection_cext&#45;&gt;mysql_connector_pooling -->
<g id="edge14" class="edge">
<title>mysql_connector_connection_cext&#45;&gt;mysql_connector_pooling</title><style>.edge>path:hover{stroke-width:8}</style>
<path fill="none" stroke="black" d="M412.32,-504.2C410.96,-496.37 409.36,-487.18 407.87,-478.57"/>
<polygon fill="blue" stroke="black" points="411.28,-477.74 406.12,-468.48 404.38,-478.93 411.28,-477.74"/>
</g>
<!-- mysql_connector_constants -->
<g id="node11" class="node">
<title>mysql_connector_constants</title><style>.edge>path:hover{stroke-width:8}</style>
<polygon fill="blue" stroke="black" points="388.23,-630.9 321.23,-630.9 321.23,-589.9 388.23,-589.9 388.23,-630.9"/>
<text text-anchor="middle" x="354.73" y="-618.9" font-family="Helvetica,sans-Serif" font-size="10.00" fill="white">mysql.</text>
<text text-anchor="middle" x="354.73" y="-607.9" font-family="Helvetica,sans-Serif" font-size="10.00" fill="white">connector.</text>
<text text-anchor="middle" x="354.73" y="-596.9" font-family="Helvetica,sans-Serif" font-size="10.00" fill="white">constants</text>
</g>
<!-- mysql_connector_constants&#45;&gt;mysql_connector -->
<g id="edge15" class="edge">
<title>mysql_connector_constants&#45;&gt;mysql_connector</title><style>.edge>path:hover{stroke-width:8}</style>
<path fill="none" stroke="black" d="M301.73,-523.91C292.82,-502.36 306.44,-438.54 315.58,-401.63"/>
<polygon fill="blue" stroke="black" points="319.07,-402.1 318.13,-391.55 312.28,-400.38 319.07,-402.1"/>
</g>
<!-- mysql_connector_constants&#45;&gt;mysql_connector_connection -->
<g id="edge16" class="edge">
<title>mysql_connector_constants&#45;&gt;mysql_connector_connection</title><style>.edge>path:hover{stroke-width:8}</style>
<path fill="none" stroke="black" d="M388.66,-595.24C422.11,-581.27 473.42,-559.85 510.15,-544.52"/>
<polygon fill="blue" stroke="black" points="511.75,-547.65 519.63,-540.56 509.05,-541.19 511.75,-547.65"/>
</g>
<!-- mysql_connector_constants&#45;&gt;mysql_connector_connection_cext -->
<g id="edge17" class="edge">
<title>mysql_connector_constants&#45;&gt;mysql_connector_connection_cext</title><style>.edge>path:hover{stroke-width:8}</style>
<path fill="none" stroke="black" d="M369.19,-589.61C377.01,-578.9 386.81,-565.5 395.39,-553.75"/>
<polygon fill="blue" stroke="black" points="398.31,-555.69 401.38,-545.55 392.65,-551.56 398.31,-555.69"/>
</g>
<!-- mysql_connector_dbapi -->
<g id="node12" class="node">
<title>mysql_connector_dbapi</title><style>.edge>path:hover{stroke-width:8}</style>
<polygon fill="blue" stroke="black" points="286.23,-468.41 219.23,-468.41 219.23,-427.41 286.23,-427.41 286.23,-468.41"/>
<text text-anchor="middle" x="252.73" y="-456.41" font-family="Helvetica,sans-Serif" font-size="10.00" fill="white">mysql.</text>
<text text-anchor="middle" x="252.73" y="-445.41" font-family="Helvetica,sans-Serif" font-size="10.00" fill="white">connector.</text>
<text text-anchor="middle" x="252.73" y="-434.41" font-family="Helvetica,sans-Serif" font-size="10.00" fill="white">dbapi</text>
</g>
<!-- mysql_connector_constants&#45;&gt;mysql_connector_dbapi -->
<g id="edge18" class="edge">
<title>mysql_connector_constants&#45;&gt;mysql_connector_dbapi</title><style>.edge>path:hover{stroke-width:8}</style>
<path fill="none" stroke="black" d="M339.58,-589.9C327.64,-573.63 311.45,-549.39 301.73,-525.91"/>
<path fill="none" stroke="black" d="M301.73,-523.91C294.85,-507.29 284.19,-490.37 274.56,-476.83"/>
<polygon fill="blue" stroke="black" points="277.16,-474.46 268.44,-468.45 271.51,-478.59 277.16,-474.46"/>
</g>
<!-- mysql_connector_constants&#45;&gt;mysql_connector_pooling -->
<g id="edge19" class="edge">
<title>mysql_connector_constants&#45;&gt;mysql_connector_pooling</title><style>.edge>path:hover{stroke-width:8}</style>
<path fill="none" stroke="black" d="M344.79,-589.65C337.44,-572.17 330.23,-546.34 339.73,-525.91"/>
</g>
<!-- mysql_connector_dbapi&#45;&gt;mysql_connector -->
<g id="edge20" class="edge">
<title>mysql_connector_dbapi&#45;&gt;mysql_connector</title><style>.edge>path:hover{stroke-width:8}</style>
<path fill="none" stroke="black" d="M271.86,-427.1C280.21,-418.45 290.09,-408.22 298.91,-399.09"/>
<polygon fill="blue" stroke="black" points="301.58,-401.35 306.01,-391.73 296.54,-396.49 301.58,-401.35"/>
</g>
<!-- mysql_connector_errors -->
<g id="node13" class="node">
<title>mysql_connector_errors</title><style>.edge>path:hover{stroke-width:8}</style>
<polygon fill="blue" stroke="black" points="450.23,-716.39 383.23,-716.39 383.23,-675.39 450.23,-675.39 450.23,-716.39"/>
<text text-anchor="middle" x="416.73" y="-704.39" font-family="Helvetica,sans-Serif" font-size="10.00" fill="white">mysql.</text>
<text text-anchor="middle" x="416.73" y="-693.39" font-family="Helvetica,sans-Serif" font-size="10.00" fill="white">connector.</text>
<text text-anchor="middle" x="416.73" y="-682.39" font-family="Helvetica,sans-Serif" font-size="10.00" fill="white">errors</text>
</g>
<!-- mysql_connector_errors&#45;&gt;db_temp_blocs_py -->
<g id="edge21" class="edge">
<title>mysql_connector_errors&#45;&gt;db_temp_blocs_py</title><style>.edge>path:hover{stroke-width:8}</style>
<path fill="none" stroke="black" d="M382.92,-682.07C360.95,-672.59 332.62,-658.1 311.73,-639.39 300.53,-629.36 301.7,-623.47 292.73,-611.4"/>
<path fill="none" stroke="black" d="M292.73,-609.4C257.78,-562.38 230.34,-569.08 190.73,-525.91"/>
<path fill="none" stroke="black" d="M190.73,-523.91C157.67,-487.88 120.07,-510.82 95.73,-468.41 62.53,-410.56 84.06,-383 100.73,-318.41 105.02,-301.79 114.73,-299.58 114.73,-282.41"/>
<path fill="none" stroke="black" d="M114.73,-281.41C110.2,-239.04 110.29,-223.02 133.73,-187.43 155.39,-154.54 215.32,-172.36 204.73,-134.43"/>
<path fill="none" stroke="black" d="M204.73,-132.43C196.51,-104.9 158.16,-106.51 167.73,-79.43"/>
</g>
<!-- mysql_connector_errors&#45;&gt;mysql_connector -->
<g id="edge22" class="edge">
<title>mysql_connector_errors&#45;&gt;mysql_connector</title><style>.edge>path:hover{stroke-width:8}</style>
<path fill="none" stroke="black" d="M190.73,-523.91C160.77,-492.08 182.82,-461.85 209.73,-427.41 214.59,-421.19 250.54,-404.88 280.6,-391.98"/>
<polygon fill="blue" stroke="black" points="282.28,-395.07 290.11,-387.93 279.54,-388.63 282.28,-395.07"/>
</g>
<!-- mysql_connector_errors&#45;&gt;mysql_connector_connection -->
<g id="edge23" class="edge">
<title>mysql_connector_errors&#45;&gt;mysql_connector_connection</title><style>.edge>path:hover{stroke-width:8}</style>
<path fill="none" stroke="black" d="M450.46,-689.52C489.96,-681.03 551.9,-660.16 566.73,-611.4"/>
<path fill="none" stroke="black" d="M566.73,-609.4C572.04,-591.93 569.33,-571.67 565.16,-555.49"/>
<polygon fill="blue" stroke="black" points="568.41,-554.14 562.27,-545.51 561.69,-556.09 568.41,-554.14"/>
</g>
<!-- mysql_connector_errors&#45;&gt;mysql_connector_connection_cext -->
<g id="edge24" class="edge">
<title>mysql_connector_errors&#45;&gt;mysql_connector_connection_cext</title><style>.edge>path:hover{stroke-width:8}</style>
<path fill="none" stroke="black" d="M419.85,-675.2C421.84,-657.99 423.02,-632.52 416.73,-611.4"/>
<path fill="none" stroke="black" d="M416.73,-609.4C411.57,-592.08 411.2,-571.82 412.18,-555.6"/>
<polygon fill="blue" stroke="black" points="415.67,-555.84 412.98,-545.6 408.69,-555.29 415.67,-555.84"/>
</g>
<!-- mysql_connector_errors&#45;&gt;mysql_connector_constants -->
<g id="edge25" class="edge">
<title>mysql_connector_errors&#45;&gt;mysql_connector_constants</title><style>.edge>path:hover{stroke-width:8}</style>
<path fill="none" stroke="black" d="M402.04,-675.11C394.09,-664.4 384.13,-650.99 375.41,-639.24"/>
<polygon fill="blue" stroke="black" points="378.09,-636.99 369.32,-631.04 372.47,-641.16 378.09,-636.99"/>
</g>
<!-- mysql_connector_errors&#45;&gt;mysql_connector_pooling -->
<g id="edge26" class="edge">
<title>mysql_connector_errors&#45;&gt;mysql_connector_pooling</title><style>.edge>path:hover{stroke-width:8}</style>
<path fill="none" stroke="black" d="M292.73,-609.4C267.33,-575.22 321.77,-564.52 339.73,-525.91"/>
<path fill="none" stroke="black" d="M339.73,-523.91C348,-506.12 361.61,-489.14 374.07,-475.84"/>
<polygon fill="blue" stroke="black" points="376.78,-478.08 381.22,-468.46 371.75,-473.21 376.78,-478.08"/>
</g>
<!-- mysql_connector_locales -->
<g id="node14" class="node">
<title>mysql_connector_locales</title><style>.edge>path:hover{stroke-width:8}</style>
<polygon fill="blue" stroke="black" points="450.23,-793.39 383.23,-793.39 383.23,-752.39 450.23,-752.39 450.23,-793.39"/>
<text text-anchor="middle" x="416.73" y="-781.39" font-family="Helvetica,sans-Serif" font-size="10.00" fill="white">mysql.</text>
<text text-anchor="middle" x="416.73" y="-770.39" font-family="Helvetica,sans-Serif" font-size="10.00" fill="white">connector.</text>
<text text-anchor="middle" x="416.73" y="-759.39" font-family="Helvetica,sans-Serif" font-size="10.00" fill="white">locales</text>
</g>
<!-- mysql_connector_locales&#45;&gt;mysql_connector_errors -->
<g id="edge27" class="edge">
<title>mysql_connector_locales&#45;&gt;mysql_connector_errors</title><style>.edge>path:hover{stroke-width:8}</style>
<path fill="none" stroke="black" d="M416.73,-752.19C416.73,-744.35 416.73,-735.16 416.73,-726.55"/>
<polygon fill="blue" stroke="black" points="420.23,-726.47 416.73,-716.47 413.23,-726.47 420.23,-726.47"/>
</g>
<!-- mysql_connector_pooling&#45;&gt;mysql_connector -->
<g id="edge28" class="edge">
<title>mysql_connector_pooling&#45;&gt;mysql_connector</title><style>.edge>path:hover{stroke-width:8}</style>
<path fill="none" stroke="black" d="M380.87,-427.1C371.06,-418.21 359.41,-407.65 349.12,-398.33"/>
<polygon fill="blue" stroke="black" points="351.34,-395.61 341.58,-391.49 346.64,-400.8 351.34,-395.61"/>
</g>
<!-- mysql_connector_types -->
<g id="node16" class="node">
<title>mysql_connector_types</title><style>.edge>path:hover{stroke-width:8}</style>
<ellipse fill="#b82fdb" stroke="black" cx="501.73" cy="-858.38" rx="47.25" ry="28.98"/>
<text text-anchor="middle" x="501.73" y="-866.88" font-family="Helvetica,sans-Serif" font-size="10.00" fill="#ffffff">mysql.</text>
<text text-anchor="middle" x="501.73" y="-855.88" font-family="Helvetica,sans-Serif" font-size="10.00" fill="#ffffff">connector.</text>
<text text-anchor="middle" x="501.73" y="-844.88" font-family="Helvetica,sans-Serif" font-size="10.00" fill="#ffffff">types</text>
</g>
<!-- mysql_connector_types&#45;&gt;mysql_connector_connection -->
<g id="edge29" class="edge">
<title>mysql_connector_types&#45;&gt;mysql_connector_connection</title><style>.edge>path:hover{stroke-width:8}</style>
<path fill="none" stroke="black" d="M563.73,-771.89C570.12,-739.18 556.82,-729.5 563.73,-696.89"/>
</g>
<!-- mysql_connector_types&#45;&gt;mysql_connector_connection_cext -->
<g id="edge30" class="edge">
<title>mysql_connector_types&#45;&gt;mysql_connector_connection_cext</title><style>.edge>path:hover{stroke-width:8}</style>
<path fill="none" stroke="black" d="M528.06,-834.06C542.82,-818.75 559.17,-797.28 563.73,-773.89"/>
<path fill="none" stroke="black" d="M563.73,-771.89C570.89,-735.22 543.59,-729.72 525.73,-696.89"/>
</g>
<!-- mysql_connector_types&#45;&gt;mysql_connector_errors -->
<g id="edge31" class="edge">
<title>mysql_connector_types&#45;&gt;mysql_connector_errors</title><style>.edge>path:hover{stroke-width:8}</style>
<path fill="none" stroke="black" d="M457.34,-847.91C428.06,-839.11 391.89,-822.77 373.73,-793.39 360.09,-771.31 374.66,-744.16 390.43,-724.29"/>
<polygon fill="#b82fdb" stroke="black" points="393.2,-726.43 396.95,-716.52 387.84,-721.93 393.2,-726.43"/>
</g>
<!-- mysql_connector_utils -->
<g id="node17" class="node">
<title>mysql_connector_utils</title><style>.edge>path:hover{stroke-width:8}</style>
<polygon fill="blue" stroke="black" points="535.23,-793.39 468.23,-793.39 468.23,-752.39 535.23,-752.39 535.23,-793.39"/>
<text text-anchor="middle" x="501.73" y="-781.39" font-family="Helvetica,sans-Serif" font-size="10.00" fill="white">mysql.</text>
<text text-anchor="middle" x="501.73" y="-770.39" font-family="Helvetica,sans-Serif" font-size="10.00" fill="white">connector.</text>
<text text-anchor="middle" x="501.73" y="-759.39" font-family="Helvetica,sans-Serif" font-size="10.00" fill="white">utils</text>
</g>
<!-- mysql_connector_types&#45;&gt;mysql_connector_utils -->
<g id="edge32" class="edge">
<title>mysql_connector_types&#45;&gt;mysql_connector_utils</title><style>.edge>path:hover{stroke-width:8}</style>
<path fill="none" stroke="black" d="M501.73,-829.12C501.73,-820.87 501.73,-811.83 501.73,-803.5"/>
<polygon fill="#b82fdb" stroke="black" points="505.23,-803.44 501.73,-793.44 498.23,-803.44 505.23,-803.44"/>
</g>
<!-- mysql_connector_utils&#45;&gt;mysql_connector_connection -->
<g id="edge33" class="edge">
<title>mysql_connector_utils&#45;&gt;mysql_connector_connection</title><style>.edge>path:hover{stroke-width:8}</style>
<path fill="none" stroke="black" d="M527.35,-752.12C542.27,-738.55 559.04,-719.04 563.73,-696.89"/>
<path fill="none" stroke="black" d="M563.73,-694.89C571.43,-658.57 555.93,-646.93 566.73,-611.4"/>
</g>
<!-- mysql_connector_utils&#45;&gt;mysql_connector_connection_cext -->
<g id="edge34" class="edge">
<title>mysql_connector_utils&#45;&gt;mysql_connector_connection_cext</title><style>.edge>path:hover{stroke-width:8}</style>
<path fill="none" stroke="black" d="M516.3,-752.28C525.99,-736.66 535.33,-714.55 525.73,-696.89"/>
<path fill="none" stroke="black" d="M525.73,-694.89C496.57,-641.29 434.16,-669.88 416.73,-611.4"/>
</g>
<!-- mysql_connector_utils&#45;&gt;mysql_connector_errors -->
<g id="edge35" class="edge">
<title>mysql_connector_utils&#45;&gt;mysql_connector_errors</title><style>.edge>path:hover{stroke-width:8}</style>
<path fill="none" stroke="black" d="M479.4,-752.19C469.34,-743.32 457.33,-732.72 446.52,-723.18"/>
<polygon fill="blue" stroke="black" points="448.73,-720.46 438.91,-716.47 444.1,-725.71 448.73,-720.46"/>
</g>
<!-- mysql_connector_version -->
<g id="node18" class="node">
<title>mysql_connector_version</title><style>.edge>path:hover{stroke-width:8}</style>
<ellipse fill="#b13bce" stroke="black" cx="491.73" cy="-610.4" rx="47.25" ry="28.98"/>
<text text-anchor="middle" x="491.73" y="-618.9" font-family="Helvetica,sans-Serif" font-size="10.00" fill="#ffffff">mysql.</text>
<text text-anchor="middle" x="491.73" y="-607.9" font-family="Helvetica,sans-Serif" font-size="10.00" fill="#ffffff">connector.</text>
<text text-anchor="middle" x="491.73" y="-596.9" font-family="Helvetica,sans-Serif" font-size="10.00" fill="#ffffff">version</text>
</g>
<!-- mysql_connector_version&#45;&gt;mysql_connector -->
<g id="edge36" class="edge">
<title>mysql_connector_version&#45;&gt;mysql_connector</title><style>.edge>path:hover{stroke-width:8}</style>
<path fill="none" stroke="black" d="M499.89,-581.8C508.21,-547.84 516.7,-489.65 491.73,-448.91"/>
</g>
<!-- mysql_connector_version&#45;&gt;mysql_connector_connection -->
<g id="edge37" class="edge">
<title>mysql_connector_version&#45;&gt;mysql_connector_connection</title><style>.edge>path:hover{stroke-width:8}</style>
<path fill="none" stroke="black" d="M510.98,-583.9C518.2,-574.33 526.43,-563.41 533.8,-553.65"/>
<polygon fill="#b13bce" stroke="black" points="536.77,-555.52 540,-545.43 531.19,-551.3 536.77,-555.52"/>
</g>
<!-- mysql_connector_version&#45;&gt;mysql_connector_connection_cext -->
<g id="edge38" class="edge">
<title>mysql_connector_version&#45;&gt;mysql_connector_connection_cext</title><style>.edge>path:hover{stroke-width:8}</style>
<path fill="none" stroke="black" d="M469.34,-584.8C460.27,-574.84 449.76,-563.29 440.46,-553.08"/>
<polygon fill="#b13bce" stroke="black" points="442.95,-550.62 433.63,-545.58 437.78,-555.33 442.95,-550.62"/>
</g>
</g>
</svg>
