<?xml version="1.0" encoding="UTF-8" standalone="no"?>
<!DOCTYPE svg PUBLIC "-//W3C//DTD SVG 1.1//EN"
 "http://www.w3.org/Graphics/SVG/1.1/DTD/svg11.dtd">
<!-- Generated by graphviz version 2.43.0 (0)
 -->
<!-- Title: G Pages: 1 -->
<svg width="1189pt" height="926pt"
 viewBox="0.00 0.00 1188.99 925.77" xmlns="http://www.w3.org/2000/svg" xmlns:xlink="http://www.w3.org/1999/xlink">
<g id="graph0" class="graph" transform="scale(1 1) rotate(0) translate(4 921.77)">
<title>G</title><style>.edge>path:hover{stroke-width:8}</style>
<polygon fill="white" stroke="transparent" points="-4,4 -4,-921.77 1184.99,-921.77 1184.99,4 -4,4"/>
<!-- dotenv -->
<g id="node1" class="node">
<title>dotenv</title><style>.edge>path:hover{stroke-width:8}</style>
<ellipse fill="#b65353" stroke="black" cx="1019.04" cy="-899.77" rx="29.37" ry="18"/>
<text text-anchor="middle" x="1019.04" y="-897.27" font-family="Helvetica,sans-Serif" font-size="10.00" fill="#ffffff">dotenv</text>
</g>
<!-- logger_setup -->
<g id="node21" class="node">
<title>logger_setup</title><style>.edge>path:hover{stroke-width:8}</style>
<ellipse fill="#0667f9" stroke="black" cx="1019.04" cy="-827.77" rx="47.19" ry="18"/>
<text text-anchor="middle" x="1019.04" y="-825.27" font-family="Helvetica,sans-Serif" font-size="10.00" fill="#ffffff">logger_setup</text>
</g>
<!-- dotenv&#45;&gt;logger_setup -->
<g id="edge1" class="edge">
<title>dotenv&#45;&gt;logger_setup</title><style>.edge>path:hover{stroke-width:8}</style>
<path fill="none" stroke="black" d="M1019.04,-881.46C1019.04,-873.75 1019.04,-864.48 1019.04,-855.88"/>
<polygon fill="#b65353" stroke="black" points="1022.54,-855.87 1019.04,-845.87 1015.54,-855.87 1022.54,-855.87"/>
</g>
<!-- handlers -->
<g id="node2" class="node">
<title>handlers</title><style>.edge>path:hover{stroke-width:8}</style>
<ellipse fill="#cbf910" stroke="black" cx="242.04" cy="-136.64" rx="34.96" ry="18"/>
<text text-anchor="middle" x="242.04" y="-134.14" font-family="Helvetica,sans-Serif" font-size="10.00" fill="#000000">handlers</text>
</g>
<!-- import_normal_py -->
<g id="node20" class="node">
<title>import_normal_py</title><style>.edge>path:hover{stroke-width:8}</style>
<ellipse fill="#396a4d" stroke="black" cx="375.04" cy="-21.21" rx="65.11" ry="21.43"/>
<text text-anchor="middle" x="375.04" y="-24.21" font-family="Helvetica,sans-Serif" font-size="10.00" fill="#ffffff">import_normal.</text>
<text text-anchor="middle" x="375.04" y="-13.21" font-family="Helvetica,sans-Serif" font-size="10.00" fill="#ffffff">py</text>
</g>
<!-- handlers&#45;&gt;import_normal_py -->
<g id="edge2" class="edge">
<title>handlers&#45;&gt;import_normal_py</title><style>.edge>path:hover{stroke-width:8}</style>
<path fill="none" stroke="black" d="M267.08,-123.89C273.25,-121.07 279.87,-118.09 286.04,-115.43 325.22,-98.52 361.32,-119.83 375.04,-79.43"/>
<path fill="none" stroke="black" d="M375.04,-78.43C377.81,-70.28 378.67,-61.08 378.61,-52.51"/>
<polygon fill="#cbf910" stroke="black" points="382.11,-52.32 378.15,-42.5 375.11,-52.65 382.11,-52.32"/>
</g>
<!-- handlers_header -->
<g id="node3" class="node">
<title>handlers_header</title><style>.edge>path:hover{stroke-width:8}</style>
<ellipse fill="#b8db2f" stroke="black" cx="466.04" cy="-353.83" rx="43.68" ry="21.43"/>
<text text-anchor="middle" x="466.04" y="-356.83" font-family="Helvetica,sans-Serif" font-size="10.00" fill="#000000">handlers.</text>
<text text-anchor="middle" x="466.04" y="-345.83" font-family="Helvetica,sans-Serif" font-size="10.00" fill="#000000">header</text>
</g>
<!-- handlers_process_headers -->
<g id="node7" class="node">
<title>handlers_process_headers</title><style>.edge>path:hover{stroke-width:8}</style>
<ellipse fill="#5f6b2e" stroke="black" cx="559.04" cy="-222.84" rx="43.68" ry="28.98"/>
<text text-anchor="middle" x="559.04" y="-231.34" font-family="Helvetica,sans-Serif" font-size="10.00" fill="#ffffff">handlers.</text>
<text text-anchor="middle" x="559.04" y="-220.34" font-family="Helvetica,sans-Serif" font-size="10.00" fill="#ffffff">process.</text>
<text text-anchor="middle" x="559.04" y="-209.34" font-family="Helvetica,sans-Serif" font-size="10.00" fill="#ffffff">headers</text>
</g>
<!-- handlers_header&#45;&gt;handlers_process_headers -->
<g id="edge3" class="edge">
<title>handlers_header&#45;&gt;handlers_process_headers</title><style>.edge>path:hover{stroke-width:8}</style>
<path fill="none" stroke="black" d="M452.15,-333.59C443.09,-318.63 435.25,-298.8 449.04,-288.84"/>
</g>
<!-- handlers_process_keywords -->
<g id="node8" class="node">
<title>handlers_process_keywords</title><style>.edge>path:hover{stroke-width:8}</style>
<ellipse fill="#859640" stroke="black" cx="262.04" cy="-222.84" rx="44.6" ry="28.98"/>
<text text-anchor="middle" x="262.04" y="-231.34" font-family="Helvetica,sans-Serif" font-size="10.00" fill="#000000">handlers.</text>
<text text-anchor="middle" x="262.04" y="-220.34" font-family="Helvetica,sans-Serif" font-size="10.00" fill="#000000">process.</text>
<text text-anchor="middle" x="262.04" y="-209.34" font-family="Helvetica,sans-Serif" font-size="10.00" fill="#000000">keywords</text>
</g>
<!-- handlers_header&#45;&gt;handlers_process_keywords -->
<g id="edge4" class="edge">
<title>handlers_header&#45;&gt;handlers_process_keywords</title><style>.edge>path:hover{stroke-width:8}</style>
<path fill="none" stroke="black" d="M440.2,-336.49C405.34,-314.45 342.91,-274.97 301.98,-249.1"/>
<polygon fill="#b8db2f" stroke="black" points="303.66,-246.02 293.34,-243.63 299.92,-251.93 303.66,-246.02"/>
</g>
<!-- handlers_process_large_note -->
<g id="node9" class="node">
<title>handlers_process_large_note</title><style>.edge>path:hover{stroke-width:8}</style>
<ellipse fill="#728137" stroke="black" cx="411.04" cy="-222.84" rx="48.17" ry="28.98"/>
<text text-anchor="middle" x="411.04" y="-231.34" font-family="Helvetica,sans-Serif" font-size="10.00" fill="#ffffff">handlers.</text>
<text text-anchor="middle" x="411.04" y="-220.34" font-family="Helvetica,sans-Serif" font-size="10.00" fill="#ffffff">process.</text>
<text text-anchor="middle" x="411.04" y="-209.34" font-family="Helvetica,sans-Serif" font-size="10.00" fill="#ffffff">large_note</text>
</g>
<!-- handlers_header&#45;&gt;handlers_process_large_note -->
<g id="edge5" class="edge">
<title>handlers_header&#45;&gt;handlers_process_large_note</title><style>.edge>path:hover{stroke-width:8}</style>
<path fill="none" stroke="black" d="M441.05,-336.17C427.13,-324.79 412.33,-308.28 411.04,-288.84"/>
</g>
<!-- handlers_header_extract_yaml_header -->
<g id="node4" class="node">
<title>handlers_header_extract_yaml_header</title><style>.edge>path:hover{stroke-width:8}</style>
<ellipse fill="#8ba328" stroke="black" cx="281.04" cy="-353.83" rx="84.71" ry="28.98"/>
<text text-anchor="middle" x="281.04" y="-362.33" font-family="Helvetica,sans-Serif" font-size="10.00" fill="#000000">handlers.</text>
<text text-anchor="middle" x="281.04" y="-351.33" font-family="Helvetica,sans-Serif" font-size="10.00" fill="#000000">header.</text>
<text text-anchor="middle" x="281.04" y="-340.33" font-family="Helvetica,sans-Serif" font-size="10.00" fill="#000000">extract_yaml_header</text>
</g>
<!-- handlers_header_extract_yaml_header&#45;&gt;handlers_process_headers -->
<g id="edge6" class="edge">
<title>handlers_header_extract_yaml_header&#45;&gt;handlers_process_headers</title><style>.edge>path:hover{stroke-width:8}</style>
<path fill="none" stroke="black" d="M348.43,-336.02C380.84,-325.82 419.06,-310.5 449.04,-288.84"/>
<path fill="none" stroke="black" d="M449.04,-287.84C470.1,-272.62 495.02,-257.88 515.82,-246.39"/>
<polygon fill="#8ba328" stroke="black" points="517.65,-249.37 524.75,-241.51 514.3,-243.23 517.65,-249.37"/>
</g>
<!-- handlers_header_extract_yaml_header&#45;&gt;handlers_process_keywords -->
<g id="edge7" class="edge">
<title>handlers_header_extract_yaml_header&#45;&gt;handlers_process_keywords</title><style>.edge>path:hover{stroke-width:8}</style>
<path fill="none" stroke="black" d="M276.92,-324.84C274.2,-306.42 270.62,-282.07 267.65,-261.89"/>
<polygon fill="#8ba328" stroke="black" points="271.08,-261.16 266.16,-251.78 264.15,-262.18 271.08,-261.16"/>
</g>
<!-- handlers_header_extract_yaml_header&#45;&gt;handlers_process_large_note -->
<g id="edge8" class="edge">
<title>handlers_header_extract_yaml_header&#45;&gt;handlers_process_large_note</title><style>.edge>path:hover{stroke-width:8}</style>
<path fill="none" stroke="black" d="M343.39,-334.13C377.28,-322.02 412.15,-305.46 411.04,-288.84"/>
<path fill="none" stroke="black" d="M411.04,-287.84C410.49,-279.48 410.26,-270.5 410.21,-261.99"/>
<polygon fill="#8ba328" stroke="black" points="413.71,-261.91 410.24,-251.91 406.71,-261.9 413.71,-261.91"/>
</g>
<!-- handlers_header_header_utils -->
<g id="node5" class="node">
<title>handlers_header_header_utils</title><style>.edge>path:hover{stroke-width:8}</style>
<ellipse fill="#8ba135" stroke="black" cx="476.04" cy="-447.81" rx="54.39" ry="28.98"/>
<text text-anchor="middle" x="476.04" y="-456.31" font-family="Helvetica,sans-Serif" font-size="10.00" fill="#000000">handlers.</text>
<text text-anchor="middle" x="476.04" y="-445.31" font-family="Helvetica,sans-Serif" font-size="10.00" fill="#000000">header.</text>
<text text-anchor="middle" x="476.04" y="-434.31" font-family="Helvetica,sans-Serif" font-size="10.00" fill="#000000">header_utils</text>
</g>
<!-- handlers_header_header_utils&#45;&gt;handlers_header_extract_yaml_header -->
<g id="edge9" class="edge">
<title>handlers_header_header_utils&#45;&gt;handlers_header_extract_yaml_header</title><style>.edge>path:hover{stroke-width:8}</style>
<path fill="none" stroke="black" d="M436.11,-427.97C408.02,-414.72 369.99,-396.79 338.63,-381.99"/>
<polygon fill="#8ba135" stroke="black" points="340.09,-378.81 329.55,-377.71 337.1,-385.14 340.09,-378.81"/>
</g>
<!-- handlers_header_header_utils&#45;&gt;handlers_process_headers -->
<g id="edge10" class="edge">
<title>handlers_header_header_utils&#45;&gt;handlers_process_headers</title><style>.edge>path:hover{stroke-width:8}</style>
<path fill="none" stroke="black" d="M524.3,-434.26C572.53,-421.05 642.64,-399.86 665.04,-382.82 677.01,-373.71 670.84,-362.03 684.04,-354.83"/>
<path fill="none" stroke="black" d="M684.04,-352.83C697.24,-345.62 690.24,-332.72 703.04,-324.84 755.9,-292.29 999.53,-347.77 980.04,-288.84"/>
<path fill="none" stroke="black" d="M980.04,-287.84C967.32,-249.35 656.06,-262.81 617.04,-251.84 611.79,-250.36 606.44,-248.43 601.22,-246.27"/>
<polygon fill="#8ba135" stroke="black" points="602.55,-243.04 591.99,-242.2 599.72,-249.44 602.55,-243.04"/>
</g>
<!-- handlers_process -->
<g id="node6" class="node">
<title>handlers_process</title><style>.edge>path:hover{stroke-width:8}</style>
<ellipse fill="#a2b653" stroke="black" cx="339.04" cy="-136.64" rx="43.68" ry="21.43"/>
<text text-anchor="middle" x="339.04" y="-139.64" font-family="Helvetica,sans-Serif" font-size="10.00" fill="#000000">handlers.</text>
<text text-anchor="middle" x="339.04" y="-128.64" font-family="Helvetica,sans-Serif" font-size="10.00" fill="#000000">process</text>
</g>
<!-- handlers_process&#45;&gt;import_normal_py -->
<g id="edge11" class="edge">
<title>handlers_process&#45;&gt;import_normal_py</title><style>.edge>path:hover{stroke-width:8}</style>
<path fill="none" stroke="black" d="M354.57,-116.56C362.1,-106.21 370.49,-92.81 375.04,-79.43"/>
</g>
<!-- handlers_process_headers&#45;&gt;import_normal_py -->
<g id="edge12" class="edge">
<title>handlers_process_headers&#45;&gt;import_normal_py</title><style>.edge>path:hover{stroke-width:8}</style>
<path fill="none" stroke="black" d="M525.12,-204.18C481.86,-181.41 412.42,-144 411.04,-137.64"/>
</g>
<!-- handlers_process_keywords&#45;&gt;import_normal_py -->
<g id="edge13" class="edge">
<title>handlers_process_keywords&#45;&gt;import_normal_py</title><style>.edge>path:hover{stroke-width:8}</style>
<path fill="none" stroke="black" d="M297.39,-204.83C334.43,-186.94 387.84,-160.96 392.04,-157.85 401.95,-150.52 413.66,-149.69 411.04,-137.64"/>
</g>
<!-- handlers_process_large_note&#45;&gt;import_normal_py -->
<g id="edge14" class="edge">
<title>handlers_process_large_note&#45;&gt;import_normal_py</title><style>.edge>path:hover{stroke-width:8}</style>
<path fill="none" stroke="black" d="M414,-193.84C415.01,-177.31 415.04,-156.07 411.04,-137.64"/>
</g>
<!-- handlers_sql -->
<g id="node10" class="node">
<title>handlers_sql</title><style>.edge>path:hover{stroke-width:8}</style>
<ellipse fill="#cbf910" stroke="black" cx="611.04" cy="-353.83" rx="44.98" ry="18"/>
<text text-anchor="middle" x="611.04" y="-351.33" font-family="Helvetica,sans-Serif" font-size="10.00" fill="#000000">handlers.sql</text>
</g>
<!-- handlers_sql&#45;&gt;handlers_process_headers -->
<g id="edge15" class="edge">
<title>handlers_sql&#45;&gt;handlers_process_headers</title><style>.edge>path:hover{stroke-width:8}</style>
<path fill="none" stroke="black" d="M487.04,-287.84C481.4,-278.68 499.6,-262.57 519.11,-248.81"/>
<polygon fill="#cbf910" stroke="black" points="521.21,-251.61 527.49,-243.08 517.26,-245.83 521.21,-251.61"/>
</g>
<!-- handlers_sql&#45;&gt;handlers_process_large_note -->
<g id="edge16" class="edge">
<title>handlers_sql&#45;&gt;handlers_process_large_note</title><style>.edge>path:hover{stroke-width:8}</style>
<path fill="none" stroke="black" d="M583.4,-339.46C547.73,-322.08 489.85,-293.38 487.04,-288.84"/>
<path fill="none" stroke="black" d="M487.04,-287.84C478.12,-273.37 464.8,-260.56 451.8,-250.27"/>
<polygon fill="#cbf910" stroke="black" points="453.87,-247.45 443.79,-244.2 449.64,-253.03 453.87,-247.45"/>
</g>
<!-- handlers_sql&#45;&gt;import_normal_py -->
<g id="edge17" class="edge">
<title>handlers_sql&#45;&gt;import_normal_py</title><style>.edge>path:hover{stroke-width:8}</style>
<path fill="none" stroke="black" d="M487.04,-287.84C464.67,-251.56 488.32,-231.33 468.04,-193.85 451.11,-162.56 418.59,-172.41 411.04,-137.64"/>
</g>
<!-- handlers_sql_db_connection -->
<g id="node11" class="node">
<title>handlers_sql_db_connection</title><style>.edge>path:hover{stroke-width:8}</style>
<ellipse fill="#b5d926" stroke="black" cx="1019.04" cy="-635.78" rx="61.54" ry="28.98"/>
<text text-anchor="middle" x="1019.04" y="-644.28" font-family="Helvetica,sans-Serif" font-size="10.00" fill="#000000">handlers.</text>
<text text-anchor="middle" x="1019.04" y="-633.28" font-family="Helvetica,sans-Serif" font-size="10.00" fill="#000000">sql.</text>
<text text-anchor="middle" x="1019.04" y="-622.28" font-family="Helvetica,sans-Serif" font-size="10.00" fill="#000000">db_connection</text>
</g>
<!-- handlers_sql_db_get_linked_data -->
<g id="node12" class="node">
<title>handlers_sql_db_get_linked_data</title><style>.edge>path:hover{stroke-width:8}</style>
<ellipse fill="#92ac2b" stroke="black" cx="929.04" cy="-447.81" rx="78.48" ry="28.98"/>
<text text-anchor="middle" x="929.04" y="-456.31" font-family="Helvetica,sans-Serif" font-size="10.00" fill="#000000">handlers.</text>
<text text-anchor="middle" x="929.04" y="-445.31" font-family="Helvetica,sans-Serif" font-size="10.00" fill="#000000">sql.</text>
<text text-anchor="middle" x="929.04" y="-434.31" font-family="Helvetica,sans-Serif" font-size="10.00" fill="#000000">db_get_linked_data</text>
</g>
<!-- handlers_sql_db_connection&#45;&gt;handlers_sql_db_get_linked_data -->
<g id="edge18" class="edge">
<title>handlers_sql_db_connection&#45;&gt;handlers_sql_db_get_linked_data</title><style>.edge>path:hover{stroke-width:8}</style>
<path fill="none" stroke="black" d="M1025.27,-606.92C1028.5,-588.63 1031.17,-564.23 1028.04,-542.79"/>
</g>
<!-- handlers_sql_db_temp_blocs -->
<g id="node14" class="node">
<title>handlers_sql_db_temp_blocs</title><style>.edge>path:hover{stroke-width:8}</style>
<ellipse fill="#8b9d43" stroke="black" cx="738.04" cy="-541.79" rx="63.78" ry="28.98"/>
<text text-anchor="middle" x="738.04" y="-550.29" font-family="Helvetica,sans-Serif" font-size="10.00" fill="#000000">handlers.</text>
<text text-anchor="middle" x="738.04" y="-539.29" font-family="Helvetica,sans-Serif" font-size="10.00" fill="#000000">sql.</text>
<text text-anchor="middle" x="738.04" y="-528.29" font-family="Helvetica,sans-Serif" font-size="10.00" fill="#000000">db_temp_blocs</text>
</g>
<!-- handlers_sql_db_connection&#45;&gt;handlers_sql_db_temp_blocs -->
<g id="edge19" class="edge">
<title>handlers_sql_db_connection&#45;&gt;handlers_sql_db_temp_blocs</title><style>.edge>path:hover{stroke-width:8}</style>
<path fill="none" stroke="black" d="M971.74,-616.94C962.27,-613.48 952.36,-609.95 943.04,-606.78 895.43,-590.6 841.08,-573.7 800.31,-561.34"/>
<polygon fill="#b5d926" stroke="black" points="801.1,-557.92 790.52,-558.38 799.08,-564.62 801.1,-557.92"/>
</g>
<!-- handlers_sql_db_update_notes -->
<g id="node15" class="node">
<title>handlers_sql_db_update_notes</title><style>.edge>path:hover{stroke-width:8}</style>
<ellipse fill="#8b9d43" stroke="black" cx="929.04" cy="-541.79" rx="70.92" ry="28.98"/>
<text text-anchor="middle" x="929.04" y="-550.29" font-family="Helvetica,sans-Serif" font-size="10.00" fill="#000000">handlers.</text>
<text text-anchor="middle" x="929.04" y="-539.29" font-family="Helvetica,sans-Serif" font-size="10.00" fill="#000000">sql.</text>
<text text-anchor="middle" x="929.04" y="-528.29" font-family="Helvetica,sans-Serif" font-size="10.00" fill="#000000">db_update_notes</text>
</g>
<!-- handlers_sql_db_connection&#45;&gt;handlers_sql_db_update_notes -->
<g id="edge20" class="edge">
<title>handlers_sql_db_connection&#45;&gt;handlers_sql_db_update_notes</title><style>.edge>path:hover{stroke-width:8}</style>
<path fill="none" stroke="black" d="M993.97,-609.15C984,-598.96 972.39,-587.09 961.77,-576.24"/>
<polygon fill="#b5d926" stroke="black" points="964.1,-573.62 954.6,-568.92 959.09,-578.51 964.1,-573.62"/>
</g>
<!-- handlers_sql_db_utils -->
<g id="node16" class="node">
<title>handlers_sql_db_utils</title><style>.edge>path:hover{stroke-width:8}</style>
<ellipse fill="#8b9d43" stroke="black" cx="1100.04" cy="-541.79" rx="43.68" ry="28.98"/>
<text text-anchor="middle" x="1100.04" y="-550.29" font-family="Helvetica,sans-Serif" font-size="10.00" fill="#000000">handlers.</text>
<text text-anchor="middle" x="1100.04" y="-539.29" font-family="Helvetica,sans-Serif" font-size="10.00" fill="#000000">sql.</text>
<text text-anchor="middle" x="1100.04" y="-528.29" font-family="Helvetica,sans-Serif" font-size="10.00" fill="#000000">db_utils</text>
</g>
<!-- handlers_sql_db_connection&#45;&gt;handlers_sql_db_utils -->
<g id="edge21" class="edge">
<title>handlers_sql_db_connection&#45;&gt;handlers_sql_db_utils</title><style>.edge>path:hover{stroke-width:8}</style>
<path fill="none" stroke="black" d="M1042.04,-608.66C1051.22,-598.23 1061.89,-586.12 1071.56,-575.14"/>
<polygon fill="#b5d926" stroke="black" points="1074.4,-577.21 1078.38,-567.39 1069.15,-572.58 1074.4,-577.21"/>
</g>
<!-- handlers_sql_db_get_linked_data&#45;&gt;handlers_process_headers -->
<g id="edge22" class="edge">
<title>handlers_sql_db_get_linked_data&#45;&gt;handlers_process_headers</title><style>.edge>path:hover{stroke-width:8}</style>
<path fill="none" stroke="black" d="M944.37,-418.99C954.45,-400.73 967.98,-376.32 980.04,-354.83"/>
<path fill="none" stroke="black" d="M980.04,-352.83C993.96,-328.03 988.97,-315.84 980.04,-288.84"/>
</g>
<!-- handlers_sql_db_get_linked_notes_utils -->
<g id="node13" class="node">
<title>handlers_sql_db_get_linked_notes_utils</title><style>.edge>path:hover{stroke-width:8}</style>
<ellipse fill="#8b9d43" stroke="black" cx="813.04" cy="-353.83" rx="101.23" ry="28.98"/>
<text text-anchor="middle" x="813.04" y="-362.33" font-family="Helvetica,sans-Serif" font-size="10.00" fill="#000000">handlers.</text>
<text text-anchor="middle" x="813.04" y="-351.33" font-family="Helvetica,sans-Serif" font-size="10.00" fill="#000000">sql.</text>
<text text-anchor="middle" x="813.04" y="-340.33" font-family="Helvetica,sans-Serif" font-size="10.00" fill="#000000">db_get_linked_notes_utils</text>
</g>
<!-- handlers_sql_db_get_linked_data&#45;&gt;handlers_sql_db_get_linked_notes_utils -->
<g id="edge23" class="edge">
<title>handlers_sql_db_get_linked_data&#45;&gt;handlers_sql_db_get_linked_notes_utils</title><style>.edge>path:hover{stroke-width:8}</style>
<path fill="none" stroke="black" d="M896.73,-421.19C883.62,-410.79 868.31,-398.65 854.39,-387.62"/>
<polygon fill="#92ac2b" stroke="black" points="856.4,-384.74 846.39,-381.27 852.05,-390.23 856.4,-384.74"/>
</g>
<!-- handlers_sql_db_get_linked_data&#45;&gt;import_normal_py -->
<g id="edge24" class="edge">
<title>handlers_sql_db_get_linked_data&#45;&gt;import_normal_py</title><style>.edge>path:hover{stroke-width:8}</style>
<path fill="none" stroke="black" d="M980.04,-352.83C1001.65,-314.32 1075.09,-328.67 1056.04,-288.84"/>
<path fill="none" stroke="black" d="M1056.04,-287.84C1040.17,-254.64 418.44,-173.68 411.04,-137.64"/>
</g>
<!-- handlers_sql_db_get_linked_notes_utils&#45;&gt;handlers_process_headers -->
<g id="edge25" class="edge">
<title>handlers_sql_db_get_linked_notes_utils&#45;&gt;handlers_process_headers</title><style>.edge>path:hover{stroke-width:8}</style>
<path fill="none" stroke="black" d="M883.47,-332.74C930.64,-318.24 983.54,-299.41 980.04,-288.84"/>
</g>
<!-- handlers_sql_db_temp_blocs&#45;&gt;handlers_process_large_note -->
<g id="edge26" class="edge">
<title>handlers_sql_db_temp_blocs&#45;&gt;handlers_process_large_note</title><style>.edge>path:hover{stroke-width:8}</style>
<path fill="none" stroke="black" d="M709.1,-515.55C689.91,-497.97 664.89,-473.35 646.04,-448.81"/>
</g>
<!-- handlers_sql_db_update_notes&#45;&gt;handlers_process_headers -->
<g id="edge27" class="edge">
<title>handlers_sql_db_update_notes&#45;&gt;handlers_process_headers</title><style>.edge>path:hover{stroke-width:8}</style>
<path fill="none" stroke="black" d="M884.14,-519.19C867.78,-508.82 851.1,-494.7 842.04,-476.8 830.41,-453.81 828,-440.43 842.04,-418.82 863.51,-385.79 893.47,-408.85 923.04,-382.82 932.21,-374.75 983.83,-300.45 980.04,-288.84"/>
</g>
<!-- handlers_sql_db_utils&#45;&gt;handlers_sql_db_get_linked_data -->
<g id="edge28" class="edge">
<title>handlers_sql_db_utils&#45;&gt;handlers_sql_db_get_linked_data</title><style>.edge>path:hover{stroke-width:8}</style>
<path fill="none" stroke="black" d="M1066.66,-522.84C1042.37,-509.77 1009,-491.82 981.2,-476.87"/>
<polygon fill="#8b9d43" stroke="black" points="982.85,-473.78 972.39,-472.13 979.54,-479.95 982.85,-473.78"/>
</g>
<!-- handlers_utils -->
<g id="node17" class="node">
<title>handlers_utils</title><style>.edge>path:hover{stroke-width:8}</style>
<ellipse fill="#c0e722" stroke="black" cx="394.04" cy="-635.78" rx="48.72" ry="18"/>
<text text-anchor="middle" x="394.04" y="-633.28" font-family="Helvetica,sans-Serif" font-size="10.00" fill="#000000">handlers.utils</text>
</g>
<!-- handlers_utils&#45;&gt;handlers_header_extract_yaml_header -->
<g id="edge29" class="edge">
<title>handlers_utils&#45;&gt;handlers_header_extract_yaml_header</title><style>.edge>path:hover{stroke-width:8}</style>
<path fill="none" stroke="black" d="M391.97,-617.61C390.2,-598.97 388.69,-568.43 394.04,-542.79"/>
<path fill="none" stroke="black" d="M394.04,-540.79C402.39,-500.77 404.97,-488.2 394.04,-448.81"/>
<path fill="none" stroke="black" d="M394.04,-446.81C386.33,-419.02 363.08,-397.74 339.66,-382.68"/>
<polygon fill="#c0e722" stroke="black" points="341.41,-379.65 331.05,-377.42 337.75,-385.62 341.41,-379.65"/>
</g>
<!-- handlers_utils&#45;&gt;handlers_header_header_utils -->
<g id="edge30" class="edge">
<title>handlers_utils&#45;&gt;handlers_header_header_utils</title><style>.edge>path:hover{stroke-width:8}</style>
<path fill="none" stroke="black" d="M394.04,-540.79C399.28,-515.69 417.59,-493.92 435.59,-477.88"/>
<polygon fill="#c0e722" stroke="black" points="437.9,-480.51 443.24,-471.36 433.36,-475.18 437.9,-480.51"/>
</g>
<!-- handlers_utils&#45;&gt;handlers_process_headers -->
<g id="edge31" class="edge">
<title>handlers_utils&#45;&gt;handlers_process_headers</title><style>.edge>path:hover{stroke-width:8}</style>
<path fill="none" stroke="black" d="M437.57,-627.39C478.27,-618.88 539.33,-601.89 584.04,-570.78 586.8,-568.87 658.62,-479.84 660.04,-476.8 671.74,-451.77 659.79,-368.07 684.04,-354.83"/>
</g>
<!-- handlers_utils&#45;&gt;handlers_process_large_note -->
<g id="edge32" class="edge">
<title>handlers_utils&#45;&gt;handlers_process_large_note</title><style>.edge>path:hover{stroke-width:8}</style>
<path fill="none" stroke="black" d="M394.04,-446.81C375.16,-378.76 415.73,-359.3 411.04,-288.84"/>
</g>
<!-- handlers_utils&#45;&gt;import_normal_py -->
<g id="edge33" class="edge">
<title>handlers_utils&#45;&gt;import_normal_py</title><style>.edge>path:hover{stroke-width:8}</style>
<path fill="none" stroke="black" d="M367.85,-620.43C326.67,-596.43 247.32,-544.07 207.04,-476.8 172.05,-418.35 152.73,-383.68 187.04,-324.84 220.23,-267.93 267.97,-296.88 316.04,-251.84 338.53,-230.77 334.28,-217.49 354.04,-193.85 376.86,-166.55 422.43,-171.35 411.04,-137.64"/>
</g>
<!-- handlers_utils_files -->
<g id="node18" class="node">
<title>handlers_utils_files</title><style>.edge>path:hover{stroke-width:8}</style>
<ellipse fill="#bde619" stroke="black" cx="164.04" cy="-635.78" rx="43.68" ry="28.98"/>
<text text-anchor="middle" x="164.04" y="-644.28" font-family="Helvetica,sans-Serif" font-size="10.00" fill="#000000">handlers.</text>
<text text-anchor="middle" x="164.04" y="-633.28" font-family="Helvetica,sans-Serif" font-size="10.00" fill="#000000">utils.</text>
<text text-anchor="middle" x="164.04" y="-622.28" font-family="Helvetica,sans-Serif" font-size="10.00" fill="#000000">files</text>
</g>
<!-- handlers_utils_files&#45;&gt;handlers_header_extract_yaml_header -->
<g id="edge34" class="edge">
<title>handlers_utils_files&#45;&gt;handlers_header_extract_yaml_header</title><style>.edge>path:hover{stroke-width:8}</style>
<path fill="none" stroke="black" d="M130.04,-540.79C133.02,-483.36 192.99,-499.01 221.04,-448.81"/>
<path fill="none" stroke="black" d="M221.04,-446.81C231.65,-427.82 244.73,-407.48 255.96,-390.77"/>
<polygon fill="#bde619" stroke="black" points="258.92,-392.63 261.64,-382.39 253.13,-388.7 258.92,-392.63"/>
</g>
<!-- handlers_utils_files&#45;&gt;handlers_header_header_utils -->
<g id="edge35" class="edge">
<title>handlers_utils_files&#45;&gt;handlers_header_header_utils</title><style>.edge>path:hover{stroke-width:8}</style>
<path fill="none" stroke="black" d="M195.96,-615.75C252.03,-582.33 368.28,-513.04 431.97,-475.08"/>
<polygon fill="#bde619" stroke="black" points="433.8,-478.06 440.59,-469.94 430.21,-472.05 433.8,-478.06"/>
</g>
<!-- handlers_utils_files&#45;&gt;handlers_process_headers -->
<g id="edge36" class="edge">
<title>handlers_utils_files&#45;&gt;handlers_process_headers</title><style>.edge>path:hover{stroke-width:8}</style>
<path fill="none" stroke="black" d="M206.67,-628.46C256.68,-619.97 341.26,-602.18 408.04,-570.78 536.11,-510.58 567.23,-485.09 665.04,-382.82 675.43,-371.95 670.72,-361.8 684.04,-354.83"/>
</g>
<!-- handlers_utils_files&#45;&gt;handlers_process_large_note -->
<g id="edge37" class="edge">
<title>handlers_utils_files&#45;&gt;handlers_process_large_note</title><style>.edge>path:hover{stroke-width:8}</style>
<path fill="none" stroke="black" d="M130.04,-446.81C107.66,-331.73 270.13,-265.34 357.71,-238.25"/>
<polygon fill="#bde619" stroke="black" points="358.92,-241.54 367.48,-235.29 356.9,-234.84 358.92,-241.54"/>
</g>
<!-- handlers_utils_files&#45;&gt;import_normal_py -->
<g id="edge38" class="edge">
<title>handlers_utils_files&#45;&gt;import_normal_py</title><style>.edge>path:hover{stroke-width:8}</style>
<path fill="none" stroke="black" d="M148.05,-608.73C138.65,-590.79 128.83,-566.09 130.04,-542.79"/>
<path fill="none" stroke="black" d="M130.04,-540.79C132.16,-499.97 134.94,-489.4 130.04,-448.81"/>
<path fill="none" stroke="black" d="M130.04,-446.81C121.14,-373.01 44.21,-354.03 78.04,-287.84 110.48,-224.35 142.64,-222.24 208.04,-193.85 293.92,-156.57 441.02,-226.33 411.04,-137.64"/>
<path fill="none" stroke="black" d="M411.04,-135.64C400.56,-107.88 365.5,-107.52 375.04,-79.43"/>
</g>
<!-- handlers_utils_normalization -->
<g id="node19" class="node">
<title>handlers_utils_normalization</title><style>.edge>path:hover{stroke-width:8}</style>
<ellipse fill="#9eb34c" stroke="black" cx="1085.04" cy="-447.81" rx="59.29" ry="28.98"/>
<text text-anchor="middle" x="1085.04" y="-456.31" font-family="Helvetica,sans-Serif" font-size="10.00" fill="#000000">handlers.</text>
<text text-anchor="middle" x="1085.04" y="-445.31" font-family="Helvetica,sans-Serif" font-size="10.00" fill="#000000">utils.</text>
<text text-anchor="middle" x="1085.04" y="-434.31" font-family="Helvetica,sans-Serif" font-size="10.00" fill="#000000">normalization</text>
</g>
<!-- handlers_utils_normalization&#45;&gt;handlers_process_headers -->
<g id="edge39" class="edge">
<title>handlers_utils_normalization&#45;&gt;handlers_process_headers</title><style>.edge>path:hover{stroke-width:8}</style>
<path fill="none" stroke="black" d="M1061.37,-420.94C1036.02,-391.45 997.15,-340.58 980.04,-288.84"/>
</g>
<!-- logger_setup&#45;&gt;handlers_header_extract_yaml_header -->
<g id="edge40" class="edge">
<title>logger_setup&#45;&gt;handlers_header_extract_yaml_header</title><style>.edge>path:hover{stroke-width:8}</style>
<path fill="none" stroke="black" d="M236.04,-717.77C222.34,-711.75 213.74,-461.87 221.04,-448.81"/>
</g>
<!-- logger_setup&#45;&gt;handlers_header_header_utils -->
<g id="edge41" class="edge">
<title>logger_setup&#45;&gt;handlers_header_header_utils</title><style>.edge>path:hover{stroke-width:8}</style>
<path fill="none" stroke="black" d="M1019.04,-717.77C1023.91,-678.69 975.25,-693.23 948.04,-664.77 937.65,-653.9 939.91,-647.17 929.04,-636.78"/>
<path fill="none" stroke="black" d="M929.04,-634.78C841.78,-551.34 764.27,-639.56 665.04,-570.78 652.68,-562.22 658.63,-551.01 646.04,-542.79"/>
<path fill="none" stroke="black" d="M646.04,-540.79C606.57,-515.04 559.24,-489.86 524.55,-472.37"/>
<polygon fill="#0667f9" stroke="black" points="526.08,-469.22 515.57,-467.87 522.95,-475.48 526.08,-469.22"/>
</g>
<!-- logger_setup&#45;&gt;handlers_process_headers -->
<g id="edge42" class="edge">
<title>logger_setup&#45;&gt;handlers_process_headers</title><style>.edge>path:hover{stroke-width:8}</style>
<path fill="none" stroke="black" d="M1172.04,-540.79C1160.24,-487.21 1182.7,-464.98 1153.04,-418.82 1125.12,-375.37 1089.62,-394.07 1056.04,-354.83"/>
<path fill="none" stroke="black" d="M1056.04,-352.83C1044.53,-338.68 1039.9,-336.69 1026.04,-324.84 1006.31,-307.96 988.11,-313.51 980.04,-288.84"/>
</g>
<!-- logger_setup&#45;&gt;handlers_process_keywords -->
<g id="edge43" class="edge">
<title>logger_setup&#45;&gt;handlers_process_keywords</title><style>.edge>path:hover{stroke-width:8}</style>
<path fill="none" stroke="black" d="M1024.36,-809.47C1026.73,-798 1027.38,-783.34 1019.04,-773.77"/>
<path fill="none" stroke="black" d="M1019.04,-772.77C994.46,-744.52 383.28,-740.63 346.04,-736.77 296.84,-731.66 281.55,-739.15 236.04,-719.77"/>
<path fill="none" stroke="black" d="M236.04,-717.77C170.22,-689.73 127.41,-721.67 84.04,-664.77 -17.27,-531.86 -40.18,-391.04 92.04,-288.84"/>
<path fill="none" stroke="black" d="M92.04,-287.84C110.52,-271.97 168.6,-251.96 211.75,-238.57"/>
<polygon fill="#0667f9" stroke="black" points="213.01,-241.85 221.54,-235.57 210.95,-235.16 213.01,-241.85"/>
</g>
<!-- logger_setup&#45;&gt;handlers_process_large_note -->
<g id="edge44" class="edge">
<title>logger_setup&#45;&gt;handlers_process_large_note</title><style>.edge>path:hover{stroke-width:8}</style>
<path fill="none" stroke="black" d="M1019.04,-772.77C1003.58,-755 1016.13,-743.14 1019.04,-719.77"/>
<path fill="none" stroke="black" d="M646.04,-540.79C611.8,-518.45 670.94,-481.23 646.04,-448.81"/>
<path fill="none" stroke="black" d="M646.04,-446.81C616.37,-408.17 590.74,-418 557.04,-382.82 535.73,-360.57 543.45,-343.63 519.04,-324.84 478.95,-293.97 415.15,-339.26 411.04,-288.84"/>
</g>
<!-- logger_setup&#45;&gt;handlers_sql_db_connection -->
<g id="edge45" class="edge">
<title>logger_setup&#45;&gt;handlers_sql_db_connection</title><style>.edge>path:hover{stroke-width:8}</style>
<path fill="none" stroke="black" d="M1019.04,-717.77C1020.76,-704 1021.15,-688.82 1020.98,-675.36"/>
<polygon fill="#0667f9" stroke="black" points="1024.48,-674.91 1020.75,-664.99 1017.48,-675.07 1024.48,-674.91"/>
</g>
<!-- logger_setup&#45;&gt;handlers_sql_db_get_linked_data -->
<g id="edge46" class="edge">
<title>logger_setup&#45;&gt;handlers_sql_db_get_linked_data</title><style>.edge>path:hover{stroke-width:8}</style>
<path fill="none" stroke="black" d="M929.04,-634.78C885.63,-593.27 1036.72,-602.22 1028.04,-542.79"/>
<path fill="none" stroke="black" d="M1028.04,-540.79C1024.14,-514.05 1003.7,-492.75 982.4,-477.4"/>
<polygon fill="#0667f9" stroke="black" points="984.14,-474.35 973.9,-471.61 980.19,-480.14 984.14,-474.35"/>
</g>
<!-- logger_setup&#45;&gt;handlers_sql_db_get_linked_notes_utils -->
<g id="edge47" class="edge">
<title>logger_setup&#45;&gt;handlers_sql_db_get_linked_notes_utils</title><style>.edge>path:hover{stroke-width:8}</style>
<path fill="none" stroke="black" d="M929.04,-634.78C896.13,-603.31 873.15,-609.41 849.04,-570.78 814.87,-516.04 810.19,-438.93 810.91,-393.19"/>
<polygon fill="#0667f9" stroke="black" points="814.42,-393.18 811.17,-383.1 807.42,-393.01 814.42,-393.18"/>
</g>
<!-- logger_setup&#45;&gt;handlers_sql_db_temp_blocs -->
<g id="edge48" class="edge">
<title>logger_setup&#45;&gt;handlers_sql_db_temp_blocs</title><style>.edge>path:hover{stroke-width:8}</style>
<path fill="none" stroke="black" d="M929.04,-634.78C908.47,-615.1 843.02,-585.62 794.44,-565.37"/>
<polygon fill="#0667f9" stroke="black" points="795.55,-562.04 784.97,-561.44 792.87,-568.5 795.55,-562.04"/>
</g>
<!-- logger_setup&#45;&gt;handlers_sql_db_update_notes -->
<g id="edge49" class="edge">
<title>logger_setup&#45;&gt;handlers_sql_db_update_notes</title><style>.edge>path:hover{stroke-width:8}</style>
<path fill="none" stroke="black" d="M929.04,-634.78C914.85,-621.21 914.29,-599.47 917.54,-580.53"/>
<polygon fill="#0667f9" stroke="black" points="920.98,-581.15 919.6,-570.65 914.13,-579.72 920.98,-581.15"/>
</g>
<!-- logger_setup&#45;&gt;handlers_sql_db_utils -->
<g id="edge50" class="edge">
<title>logger_setup&#45;&gt;handlers_sql_db_utils</title><style>.edge>path:hover{stroke-width:8}</style>
<path fill="none" stroke="black" d="M1019.04,-717.77C1028.55,-641.42 1145.37,-708.94 1172.04,-636.78"/>
<path fill="none" stroke="black" d="M1172.04,-634.78C1181.45,-609.31 1161.32,-585.32 1139.98,-568.23"/>
<polygon fill="#0667f9" stroke="black" points="1141.88,-565.28 1131.8,-562.02 1137.65,-570.85 1141.88,-565.28"/>
</g>
<!-- logger_setup&#45;&gt;handlers_utils_files -->
<g id="edge51" class="edge">
<title>logger_setup&#45;&gt;handlers_utils_files</title><style>.edge>path:hover{stroke-width:8}</style>
<path fill="none" stroke="black" d="M236.04,-717.77C214.72,-708.41 197.19,-689.17 184.77,-671.79"/>
<polygon fill="#0667f9" stroke="black" points="187.61,-669.75 179.08,-663.46 181.83,-673.7 187.61,-669.75"/>
</g>
<!-- logger_setup&#45;&gt;handlers_utils_normalization -->
<g id="edge52" class="edge">
<title>logger_setup&#45;&gt;handlers_utils_normalization</title><style>.edge>path:hover{stroke-width:8}</style>
<path fill="none" stroke="black" d="M1172.04,-634.78C1186.21,-596.43 1180.83,-582.72 1172.04,-542.79"/>
<path fill="none" stroke="black" d="M1172.04,-540.79C1166.42,-515.25 1147.22,-493.58 1128.29,-477.7"/>
<polygon fill="#0667f9" stroke="black" points="1130.23,-474.76 1120.23,-471.25 1125.85,-480.23 1130.23,-474.76"/>
</g>
<!-- logger_setup&#45;&gt;import_normal_py -->
<g id="edge53" class="edge">
<title>logger_setup&#45;&gt;import_normal_py</title><style>.edge>path:hover{stroke-width:8}</style>
<path fill="none" stroke="black" d="M1056.04,-352.83C1038.09,-330.77 1067.26,-314.97 1056.04,-288.84"/>
</g>
<!-- yaml -->
<g id="node22" class="node">
<title>yaml</title><style>.edge>path:hover{stroke-width:8}</style>
<ellipse fill="#a947c2" stroke="black" cx="382.04" cy="-718.77" rx="27" ry="18"/>
<text text-anchor="middle" x="382.04" y="-716.27" font-family="Helvetica,sans-Serif" font-size="10.00" fill="#ffffff">yaml</text>
</g>
<!-- yaml&#45;&gt;handlers_header_header_utils -->
<g id="edge54" class="edge">
<title>yaml&#45;&gt;handlers_header_header_utils</title><style>.edge>path:hover{stroke-width:8}</style>
<path fill="none" stroke="black" d="M403.62,-707.54C419.82,-698.63 441.05,-684.12 452.04,-664.77 483.68,-609.08 483.91,-532.28 480.48,-486.85"/>
<polygon fill="#a947c2" stroke="black" points="483.96,-486.5 479.62,-476.83 476.98,-487.1 483.96,-486.5"/>
</g>
<!-- yaml&#45;&gt;handlers_process_keywords -->
<g id="edge55" class="edge">
<title>yaml&#45;&gt;handlers_process_keywords</title><style>.edge>path:hover{stroke-width:8}</style>
<path fill="none" stroke="black" d="M355.61,-714.34C290.81,-705.69 128.03,-682.43 111.04,-664.77 73,-625.23 92.04,-597.66 92.04,-542.79 92.04,-542.79 92.04,-542.79 92.04,-446.81 92.04,-376.6 38.63,-334.41 92.04,-288.84"/>
</g>
</g>
</svg>
