<?xml version="1.0" encoding="UTF-8" standalone="no"?>
<!DOCTYPE svg PUBLIC "-//W3C//DTD SVG 1.1//EN"
 "http://www.w3.org/Graphics/SVG/1.1/DTD/svg11.dtd">
<!-- Generated by graphviz version 2.43.0 (0)
 -->
<!-- Title: G Pages: 1 -->
<svg width="102pt" height="225pt"
 viewBox="0.00 0.00 102.19 225.00" xmlns="http://www.w3.org/2000/svg" xmlns:xlink="http://www.w3.org/1999/xlink">
<g id="graph0" class="graph" transform="scale(1 1) rotate(0) translate(4 221)">
<title>G</title><style>.edge>path:hover{stroke-width:8}</style>
<polygon fill="white" stroke="transparent" points="-4,4 -4,-221 98.19,-221 98.19,4 -4,4"/>
<!-- divers_py -->
<g id="node1" class="node">
<title>divers_py</title><style>.edge>path:hover{stroke-width:8}</style>
<ellipse fill="#a65959" stroke="black" cx="47.09" cy="-18" rx="36.49" ry="18"/>
<text text-anchor="middle" x="47.09" y="-15.5" font-family="Helvetica,sans-Serif" font-size="10.00" fill="#ffffff">divers.py</text>
</g>
<!-- dotenv -->
<g id="node2" class="node">
<title>dotenv</title><style>.edge>path:hover{stroke-width:8}</style>
<ellipse fill="#53b653" stroke="black" cx="47.09" cy="-199" rx="29.37" ry="18"/>
<text text-anchor="middle" x="47.09" y="-196.5" font-family="Helvetica,sans-Serif" font-size="10.00" fill="#000000">dotenv</text>
</g>
<!-- logger_setup -->
<g id="node3" class="node">
<title>logger_setup</title><style>.edge>path:hover{stroke-width:8}</style>
<ellipse fill="#4c4cb3" stroke="black" cx="47.09" cy="-127" rx="47.19" ry="18"/>
<text text-anchor="middle" x="47.09" y="-124.5" font-family="Helvetica,sans-Serif" font-size="10.00" fill="#ffffff">logger_setup</text>
</g>
<!-- dotenv&#45;&gt;logger_setup -->
<g id="edge1" class="edge">
<title>dotenv&#45;&gt;logger_setup</title><style>.edge>path:hover{stroke-width:8}</style>
<path fill="none" stroke="black" d="M47.09,-180.7C47.09,-172.98 47.09,-163.71 47.09,-155.11"/>
<polygon fill="#53b653" stroke="black" points="50.59,-155.1 47.09,-145.1 43.59,-155.1 50.59,-155.1"/>
</g>
<!-- logger_setup&#45;&gt;divers_py -->
<g id="edge2" class="edge">
<title>logger_setup&#45;&gt;divers_py</title><style>.edge>path:hover{stroke-width:8}</style>
<path fill="none" stroke="black" d="M47.09,-108.81C47.09,-91.96 47.09,-66.02 47.09,-46.34"/>
<polygon fill="#4c4cb3" stroke="black" points="50.59,-46.15 47.09,-36.15 43.59,-46.15 50.59,-46.15"/>
</g>
</g>
</svg>
