<?xml version="1.0" encoding="UTF-8" standalone="no"?>
<!DOCTYPE svg PUBLIC "-//W3C//DTD SVG 1.1//EN"
 "http://www.w3.org/Graphics/SVG/1.1/DTD/svg11.dtd">
<!-- Generated by graphviz version 2.43.0 (0)
 -->
<!-- Title: G Pages: 1 -->
<svg width="531pt" height="501pt"
 viewBox="0.00 0.00 531.13 501.39" xmlns="http://www.w3.org/2000/svg" xmlns:xlink="http://www.w3.org/1999/xlink">
<g id="graph0" class="graph" transform="scale(1 1) rotate(0) translate(4 497.39)">
<title>G</title><style>.edge>path:hover{stroke-width:8}</style>
<polygon fill="white" stroke="transparent" points="-4,4 -4,-497.39 527.13,-497.39 527.13,4 -4,4"/>
<!-- check_obsidian_coherence_py -->
<g id="node1" class="node">
<title>check_obsidian_coherence_py</title><style>.edge>path:hover{stroke-width:8}</style>
<ellipse fill="#995252" stroke="black" cx="203.39" cy="-21.21" rx="106.13" ry="21.43"/>
<text text-anchor="middle" x="203.39" y="-24.21" font-family="Helvetica,sans-Serif" font-size="10.00" fill="#ffffff">check_obsidian_coherence.</text>
<text text-anchor="middle" x="203.39" y="-13.21" font-family="Helvetica,sans-Serif" font-size="10.00" fill="#ffffff">py</text>
</g>
<!-- dotenv -->
<g id="node2" class="node">
<title>dotenv</title><style>.edge>path:hover{stroke-width:8}</style>
<ellipse fill="#49ac49" stroke="black" cx="128.39" cy="-133.43" rx="29.37" ry="18"/>
<text text-anchor="middle" x="128.39" y="-130.93" font-family="Helvetica,sans-Serif" font-size="10.00" fill="#000000">dotenv</text>
</g>
<!-- dotenv&#45;&gt;check_obsidian_coherence_py -->
<g id="edge1" class="edge">
<title>dotenv&#45;&gt;check_obsidian_coherence_py</title><style>.edge>path:hover{stroke-width:8}</style>
<path fill="none" stroke="black" d="M150.94,-121.67C173.07,-110.35 203.51,-92.42 203.39,-79.43"/>
<path fill="none" stroke="black" d="M203.39,-78.43C203.31,-70.06 203.29,-60.98 203.29,-52.62"/>
<polygon fill="#49ac49" stroke="black" points="206.79,-52.51 203.3,-42.51 199.79,-52.5 206.79,-52.51"/>
</g>
<!-- dotenv_ipython -->
<g id="node3" class="node">
<title>dotenv_ipython</title><style>.edge>path:hover{stroke-width:8}</style>
<ellipse fill="#4cb34c" stroke="black" cx="52.39" cy="-207.93" rx="52.28" ry="18"/>
<text text-anchor="middle" x="52.39" y="-205.43" font-family="Helvetica,sans-Serif" font-size="10.00" fill="#000000">dotenv.ipython</text>
</g>
<!-- dotenv_ipython&#45;&gt;dotenv -->
<g id="edge2" class="edge">
<title>dotenv_ipython&#45;&gt;dotenv</title><style>.edge>path:hover{stroke-width:8}</style>
<path fill="none" stroke="black" d="M69.26,-190.84C80.02,-180.57 94.1,-167.14 105.82,-155.96"/>
<polygon fill="#4cb34c" stroke="black" points="108.3,-158.43 113.12,-148.99 103.47,-153.36 108.3,-158.43"/>
</g>
<!-- dotenv_main -->
<g id="node4" class="node">
<title>dotenv_main</title><style>.edge>path:hover{stroke-width:8}</style>
<ellipse fill="#47c247" stroke="black" cx="90.39" cy="-284.93" rx="45.15" ry="18"/>
<text text-anchor="middle" x="90.39" y="-282.43" font-family="Helvetica,sans-Serif" font-size="10.00" fill="#000000">dotenv.main</text>
</g>
<!-- dotenv_main&#45;&gt;dotenv -->
<g id="edge3" class="edge">
<title>dotenv_main&#45;&gt;dotenv</title><style>.edge>path:hover{stroke-width:8}</style>
<path fill="none" stroke="black" d="M98.72,-266.8C103.65,-256.02 109.65,-241.67 113.39,-228.43 119.62,-206.39 123.5,-180.67 125.75,-161.71"/>
<polygon fill="#47c247" stroke="black" points="129.24,-161.99 126.86,-151.67 122.28,-161.22 129.24,-161.99"/>
</g>
<!-- dotenv_main&#45;&gt;dotenv_ipython -->
<g id="edge4" class="edge">
<title>dotenv_main&#45;&gt;dotenv_ipython</title><style>.edge>path:hover{stroke-width:8}</style>
<path fill="none" stroke="black" d="M81.77,-266.91C77.01,-257.51 70.99,-245.64 65.65,-235.09"/>
<polygon fill="#47c247" stroke="black" points="68.62,-233.22 60.98,-225.88 62.38,-236.38 68.62,-233.22"/>
</g>
<!-- mysql -->
<g id="node5" class="node">
<title>mysql</title><style>.edge>path:hover{stroke-width:8}</style>
<ellipse fill="#2222e7" stroke="black" cx="203.39" cy="-133.43" rx="27.84" ry="18"/>
<text text-anchor="middle" x="203.39" y="-130.93" font-family="Helvetica,sans-Serif" font-size="10.00" fill="#ffffff">mysql</text>
</g>
<!-- mysql&#45;&gt;check_obsidian_coherence_py -->
<g id="edge5" class="edge">
<title>mysql&#45;&gt;check_obsidian_coherence_py</title><style>.edge>path:hover{stroke-width:8}</style>
<path fill="none" stroke="black" d="M203.47,-115.24C203.5,-104.87 203.5,-91.39 203.39,-79.43"/>
</g>
<!-- mysql_connector -->
<g id="node6" class="node">
<title>mysql_connector</title><style>.edge>path:hover{stroke-width:8}</style>
<polygon fill="blue" stroke="black" points="313.89,-151.43 248.89,-151.43 248.89,-115.43 313.89,-115.43 313.89,-151.43"/>
<text text-anchor="middle" x="281.39" y="-136.43" font-family="Helvetica,sans-Serif" font-size="10.00" fill="white">mysql.</text>
<text text-anchor="middle" x="281.39" y="-125.43" font-family="Helvetica,sans-Serif" font-size="10.00" fill="white">connector</text>
</g>
<!-- mysql_connector&#45;&gt;check_obsidian_coherence_py -->
<g id="edge6" class="edge">
<title>mysql_connector&#45;&gt;check_obsidian_coherence_py</title><style>.edge>path:hover{stroke-width:8}</style>
<path fill="none" stroke="black" d="M248.83,-117.17C227.48,-106.09 203.5,-91.05 203.39,-79.43"/>
</g>
<!-- mysql_connector_connection -->
<g id="node7" class="node">
<title>mysql_connector_connection</title><style>.edge>path:hover{stroke-width:8}</style>
<polygon fill="blue" stroke="black" points="489.39,-305.43 419.39,-305.43 419.39,-264.43 489.39,-264.43 489.39,-305.43"/>
<text text-anchor="middle" x="454.39" y="-293.43" font-family="Helvetica,sans-Serif" font-size="10.00" fill="white">mysql.</text>
<text text-anchor="middle" x="454.39" y="-282.43" font-family="Helvetica,sans-Serif" font-size="10.00" fill="white">connector.</text>
<text text-anchor="middle" x="454.39" y="-271.43" font-family="Helvetica,sans-Serif" font-size="10.00" fill="white">connection</text>
</g>
<!-- mysql_connector_connection&#45;&gt;mysql_connector -->
<g id="edge7" class="edge">
<title>mysql_connector_connection&#45;&gt;mysql_connector</title><style>.edge>path:hover{stroke-width:8}</style>
<path fill="none" stroke="black" d="M487.43,-264.13C505.38,-250.55 522.9,-231.04 517.39,-208.93"/>
</g>
<!-- mysql_connector_pooling -->
<g id="node12" class="node">
<title>mysql_connector_pooling</title><style>.edge>path:hover{stroke-width:8}</style>
<polygon fill="blue" stroke="black" points="372.89,-228.43 305.89,-228.43 305.89,-187.43 372.89,-187.43 372.89,-228.43"/>
<text text-anchor="middle" x="339.39" y="-216.43" font-family="Helvetica,sans-Serif" font-size="10.00" fill="white">mysql.</text>
<text text-anchor="middle" x="339.39" y="-205.43" font-family="Helvetica,sans-Serif" font-size="10.00" fill="white">connector.</text>
<text text-anchor="middle" x="339.39" y="-194.43" font-family="Helvetica,sans-Serif" font-size="10.00" fill="white">pooling</text>
</g>
<!-- mysql_connector_connection&#45;&gt;mysql_connector_pooling -->
<g id="edge8" class="edge">
<title>mysql_connector_connection&#45;&gt;mysql_connector_pooling</title><style>.edge>path:hover{stroke-width:8}</style>
<path fill="none" stroke="black" d="M424.48,-264.42C410.35,-255.2 393.3,-244.09 378.19,-234.23"/>
<polygon fill="blue" stroke="black" points="379.84,-231.13 369.56,-228.6 376.02,-236.99 379.84,-231.13"/>
</g>
<!-- mysql_connector_connection_cext -->
<g id="node8" class="node">
<title>mysql_connector_connection_cext</title><style>.edge>path:hover{stroke-width:8}</style>
<polygon fill="blue" stroke="black" points="401.39,-305.43 305.39,-305.43 305.39,-264.43 401.39,-264.43 401.39,-305.43"/>
<text text-anchor="middle" x="353.39" y="-293.43" font-family="Helvetica,sans-Serif" font-size="10.00" fill="white">mysql.</text>
<text text-anchor="middle" x="353.39" y="-282.43" font-family="Helvetica,sans-Serif" font-size="10.00" fill="white">connector.</text>
<text text-anchor="middle" x="353.39" y="-271.43" font-family="Helvetica,sans-Serif" font-size="10.00" fill="white">connection_cext</text>
</g>
<!-- mysql_connector_connection_cext&#45;&gt;mysql_connector -->
<g id="edge9" class="edge">
<title>mysql_connector_connection_cext&#45;&gt;mysql_connector</title><style>.edge>path:hover{stroke-width:8}</style>
<path fill="none" stroke="black" d="M401.56,-267.15C451.06,-249.16 520.52,-221.5 517.39,-208.93"/>
<path fill="none" stroke="black" d="M517.39,-206.93C507.83,-168.53 389.31,-147.81 323.97,-139.24"/>
<polygon fill="blue" stroke="black" points="324.32,-135.76 313.96,-137.97 323.44,-142.7 324.32,-135.76"/>
</g>
<!-- mysql_connector_connection_cext&#45;&gt;mysql_connector_pooling -->
<g id="edge10" class="edge">
<title>mysql_connector_connection_cext&#45;&gt;mysql_connector_pooling</title><style>.edge>path:hover{stroke-width:8}</style>
<path fill="none" stroke="black" d="M349.71,-264.22C348.25,-256.38 346.53,-247.2 344.93,-238.59"/>
<polygon fill="blue" stroke="black" points="348.32,-237.69 343.04,-228.5 341.44,-238.97 348.32,-237.69"/>
</g>
<!-- mysql_connector_constants -->
<g id="node9" class="node">
<title>mysql_connector_constants</title><style>.edge>path:hover{stroke-width:8}</style>
<ellipse fill="#1919e6" stroke="black" cx="292.39" cy="-370.42" rx="47.25" ry="28.98"/>
<text text-anchor="middle" x="292.39" y="-378.92" font-family="Helvetica,sans-Serif" font-size="10.00" fill="#ffffff">mysql.</text>
<text text-anchor="middle" x="292.39" y="-367.92" font-family="Helvetica,sans-Serif" font-size="10.00" fill="#ffffff">connector.</text>
<text text-anchor="middle" x="292.39" y="-356.92" font-family="Helvetica,sans-Serif" font-size="10.00" fill="#ffffff">constants</text>
</g>
<!-- mysql_connector_constants&#45;&gt;mysql_connector -->
<g id="edge11" class="edge">
<title>mysql_connector_constants&#45;&gt;mysql_connector</title><style>.edge>path:hover{stroke-width:8}</style>
<path fill="none" stroke="black" d="M283.42,-341.73C279.17,-325.55 275.42,-304.67 277.39,-285.93"/>
<path fill="none" stroke="black" d="M277.39,-283.93C281.85,-241.38 282.23,-191.67 281.93,-161.64"/>
<polygon fill="#1919e6" stroke="black" points="285.43,-161.48 281.8,-151.52 278.43,-161.57 285.43,-161.48"/>
</g>
<!-- mysql_connector_constants&#45;&gt;mysql_connector_connection -->
<g id="edge12" class="edge">
<title>mysql_connector_constants&#45;&gt;mysql_connector_connection</title><style>.edge>path:hover{stroke-width:8}</style>
<path fill="none" stroke="black" d="M327.94,-351.1C352.08,-338.65 384.18,-322.11 410,-308.8"/>
<polygon fill="#1919e6" stroke="black" points="411.92,-311.75 419.2,-304.06 408.71,-305.53 411.92,-311.75"/>
</g>
<!-- mysql_connector_constants&#45;&gt;mysql_connector_connection_cext -->
<g id="edge13" class="edge">
<title>mysql_connector_constants&#45;&gt;mysql_connector_connection_cext</title><style>.edge>path:hover{stroke-width:8}</style>
<path fill="none" stroke="black" d="M311.36,-343.46C318.28,-333.98 326.14,-323.23 333.17,-313.61"/>
<polygon fill="#1919e6" stroke="black" points="336.02,-315.64 339.09,-305.5 330.36,-311.51 336.02,-315.64"/>
</g>
<!-- mysql_connector_dbapi -->
<g id="node10" class="node">
<title>mysql_connector_dbapi</title><style>.edge>path:hover{stroke-width:8}</style>
<polygon fill="blue" stroke="black" points="241.89,-228.43 174.89,-228.43 174.89,-187.43 241.89,-187.43 241.89,-228.43"/>
<text text-anchor="middle" x="208.39" y="-216.43" font-family="Helvetica,sans-Serif" font-size="10.00" fill="white">mysql.</text>
<text text-anchor="middle" x="208.39" y="-205.43" font-family="Helvetica,sans-Serif" font-size="10.00" fill="white">connector.</text>
<text text-anchor="middle" x="208.39" y="-194.43" font-family="Helvetica,sans-Serif" font-size="10.00" fill="white">dbapi</text>
</g>
<!-- mysql_connector_constants&#45;&gt;mysql_connector_dbapi -->
<g id="edge14" class="edge">
<title>mysql_connector_constants&#45;&gt;mysql_connector_dbapi</title><style>.edge>path:hover{stroke-width:8}</style>
<path fill="none" stroke="black" d="M278.33,-342.56C263.16,-313.57 239.09,-267.57 223.51,-237.82"/>
<polygon fill="#1919e6" stroke="black" points="226.52,-236.01 218.78,-228.77 220.31,-239.25 226.52,-236.01"/>
</g>
<!-- mysql_connector_constants&#45;&gt;mysql_connector_pooling -->
<g id="edge15" class="edge">
<title>mysql_connector_constants&#45;&gt;mysql_connector_pooling</title><style>.edge>path:hover{stroke-width:8}</style>
<path fill="none" stroke="black" d="M277.39,-283.93C279.37,-265.11 291.48,-248.4 304.49,-235.55"/>
<polygon fill="#1919e6" stroke="black" points="307.21,-237.81 312.18,-228.45 302.46,-232.66 307.21,-237.81"/>
</g>
<!-- mysql_connector_dbapi&#45;&gt;mysql_connector -->
<g id="edge16" class="edge">
<title>mysql_connector_dbapi&#45;&gt;mysql_connector</title><style>.edge>path:hover{stroke-width:8}</style>
<path fill="none" stroke="black" d="M228.34,-187.12C237.13,-178.38 247.55,-168.03 256.82,-158.83"/>
<polygon fill="blue" stroke="black" points="259.32,-161.28 263.95,-151.75 254.39,-156.31 259.32,-161.28"/>
</g>
<!-- mysql_connector_errors -->
<g id="node11" class="node">
<title>mysql_connector_errors</title><style>.edge>path:hover{stroke-width:8}</style>
<ellipse fill="#2222e7" stroke="black" cx="329.39" cy="-464.4" rx="47.25" ry="28.98"/>
<text text-anchor="middle" x="329.39" y="-472.9" font-family="Helvetica,sans-Serif" font-size="10.00" fill="#ffffff">mysql.</text>
<text text-anchor="middle" x="329.39" y="-461.9" font-family="Helvetica,sans-Serif" font-size="10.00" fill="#ffffff">connector.</text>
<text text-anchor="middle" x="329.39" y="-450.9" font-family="Helvetica,sans-Serif" font-size="10.00" fill="#ffffff">errors</text>
</g>
<!-- mysql_connector_errors&#45;&gt;mysql_connector -->
<g id="edge17" class="edge">
<title>mysql_connector_errors&#45;&gt;mysql_connector</title><style>.edge>path:hover{stroke-width:8}</style>
<path fill="none" stroke="black" d="M517.39,-369.42C531.05,-334.92 509.78,-322.24 517.39,-285.93"/>
</g>
<!-- mysql_connector_errors&#45;&gt;mysql_connector_connection -->
<g id="edge18" class="edge">
<title>mysql_connector_errors&#45;&gt;mysql_connector_connection</title><style>.edge>path:hover{stroke-width:8}</style>
<path fill="none" stroke="black" d="M375.84,-457.85C424.03,-449.12 495.38,-426.99 517.39,-371.42"/>
<path fill="none" stroke="black" d="M517.39,-369.42C525.8,-348.19 510.75,-327.67 493.25,-312.29"/>
<polygon fill="#2222e7" stroke="black" points="495.07,-309.25 485.12,-305.6 490.62,-314.65 495.07,-309.25"/>
</g>
<!-- mysql_connector_errors&#45;&gt;mysql_connector_connection_cext -->
<g id="edge19" class="edge">
<title>mysql_connector_errors&#45;&gt;mysql_connector_connection_cext</title><style>.edge>path:hover{stroke-width:8}</style>
<path fill="none" stroke="black" d="M339.22,-435.72C342.75,-424.58 346.36,-411.52 348.39,-399.41 353.1,-371.37 354.09,-338.92 354.06,-315.92"/>
<polygon fill="#2222e7" stroke="black" points="357.56,-315.73 353.98,-305.76 350.56,-315.79 357.56,-315.73"/>
</g>
<!-- mysql_connector_errors&#45;&gt;mysql_connector_constants -->
<g id="edge20" class="edge">
<title>mysql_connector_errors&#45;&gt;mysql_connector_constants</title><style>.edge>path:hover{stroke-width:8}</style>
<path fill="none" stroke="black" d="M318.29,-435.8C314.78,-427.08 310.85,-417.31 307.13,-408.06"/>
<polygon fill="#2222e7" stroke="black" points="310.34,-406.65 303.36,-398.68 303.84,-409.26 310.34,-406.65"/>
</g>
<!-- mysql_connector_errors&#45;&gt;mysql_connector_pooling -->
<g id="edge21" class="edge">
<title>mysql_connector_errors&#45;&gt;mysql_connector_pooling</title><style>.edge>path:hover{stroke-width:8}</style>
<path fill="none" stroke="black" d="M290.69,-447.56C270.59,-437.11 247.88,-421.27 236.39,-399.41 224.4,-376.6 232.07,-366.83 236.39,-341.43 242.48,-305.68 241.77,-293.54 263.39,-264.43 272.49,-252.17 285.07,-241.47 297.38,-232.82"/>
<polygon fill="#2222e7" stroke="black" points="299.46,-235.64 305.81,-227.16 295.56,-229.82 299.46,-235.64"/>
</g>
<!-- mysql_connector_pooling&#45;&gt;mysql_connector -->
<g id="edge22" class="edge">
<title>mysql_connector_pooling&#45;&gt;mysql_connector</title><style>.edge>path:hover{stroke-width:8}</style>
<path fill="none" stroke="black" d="M323.54,-187.12C316.76,-178.64 308.77,-168.65 301.57,-159.65"/>
<polygon fill="blue" stroke="black" points="304.23,-157.37 295.25,-151.75 298.76,-161.74 304.23,-157.37"/>
</g>
<!-- mysql_connector_version -->
<g id="node13" class="node">
<title>mysql_connector_version</title><style>.edge>path:hover{stroke-width:8}</style>
<ellipse fill="#3b3bce" stroke="black" cx="442.39" cy="-370.42" rx="47.25" ry="28.98"/>
<text text-anchor="middle" x="442.39" y="-378.92" font-family="Helvetica,sans-Serif" font-size="10.00" fill="#ffffff">mysql.</text>
<text text-anchor="middle" x="442.39" y="-367.92" font-family="Helvetica,sans-Serif" font-size="10.00" fill="#ffffff">connector.</text>
<text text-anchor="middle" x="442.39" y="-356.92" font-family="Helvetica,sans-Serif" font-size="10.00" fill="#ffffff">version</text>
</g>
<!-- mysql_connector_version&#45;&gt;mysql_connector -->
<g id="edge23" class="edge">
<title>mysql_connector_version&#45;&gt;mysql_connector</title><style>.edge>path:hover{stroke-width:8}</style>
<path fill="none" stroke="black" d="M473.2,-348.35C491.43,-333.48 511.99,-311.67 517.39,-285.93"/>
<path fill="none" stroke="black" d="M517.39,-283.93C524.23,-251.3 525.45,-241.27 517.39,-208.93"/>
</g>
<!-- mysql_connector_version&#45;&gt;mysql_connector_connection -->
<g id="edge24" class="edge">
<title>mysql_connector_version&#45;&gt;mysql_connector_connection</title><style>.edge>path:hover{stroke-width:8}</style>
<path fill="none" stroke="black" d="M446.45,-341.15C447.64,-332.9 448.94,-323.87 450.14,-315.54"/>
<polygon fill="#3b3bce" stroke="black" points="453.62,-315.87 451.58,-305.48 446.69,-314.88 453.62,-315.87"/>
</g>
<!-- mysql_connector_version&#45;&gt;mysql_connector_connection_cext -->
<g id="edge25" class="edge">
<title>mysql_connector_version&#45;&gt;mysql_connector_connection_cext</title><style>.edge>path:hover{stroke-width:8}</style>
<path fill="none" stroke="black" d="M417.13,-345.72C406.1,-335.37 393.13,-323.2 381.77,-312.55"/>
<polygon fill="#3b3bce" stroke="black" points="383.9,-309.75 374.22,-305.46 379.11,-314.86 383.9,-309.75"/>
</g>
</g>
</svg>
