<?xml version="1.0" encoding="UTF-8" standalone="no"?>
<!DOCTYPE svg PUBLIC "-//W3C//DTD SVG 1.1//EN"
 "http://www.w3.org/Graphics/SVG/1.1/DTD/svg11.dtd">
<!-- Generated by graphviz version 2.43.0 (0)
 -->
<!-- Title: G Pages: 1 -->
<svg width="131pt" height="231pt"
 viewBox="0.00 0.00 131.04 231.43" xmlns="http://www.w3.org/2000/svg" xmlns:xlink="http://www.w3.org/1999/xlink">
<g id="graph0" class="graph" transform="scale(1 1) rotate(0) translate(4 227.43)">
<title>G</title><style>.edge>path:hover{stroke-width:8}</style>
<polygon fill="white" stroke="transparent" points="-4,4 -4,-227.43 127.04,-227.43 127.04,4 -4,4"/>
<!-- dotenv -->
<g id="node1" class="node">
<title>dotenv</title><style>.edge>path:hover{stroke-width:8}</style>
<ellipse fill="#b65353" stroke="black" cx="61.52" cy="-205.43" rx="29.37" ry="18"/>
<text text-anchor="middle" x="61.52" y="-202.93" font-family="Helvetica,sans-Serif" font-size="10.00" fill="#ffffff">dotenv</text>
</g>
<!-- logger_setup -->
<g id="node2" class="node">
<title>logger_setup</title><style>.edge>path:hover{stroke-width:8}</style>
<ellipse fill="#4cb34c" stroke="black" cx="61.52" cy="-133.43" rx="47.19" ry="18"/>
<text text-anchor="middle" x="61.52" y="-130.93" font-family="Helvetica,sans-Serif" font-size="10.00" fill="#000000">logger_setup</text>
</g>
<!-- dotenv&#45;&gt;logger_setup -->
<g id="edge1" class="edge">
<title>dotenv&#45;&gt;logger_setup</title><style>.edge>path:hover{stroke-width:8}</style>
<path fill="none" stroke="black" d="M61.52,-187.12C61.52,-179.41 61.52,-170.14 61.52,-161.54"/>
<polygon fill="#b65353" stroke="black" points="65.02,-161.53 61.52,-151.53 58.02,-161.53 65.02,-161.53"/>
</g>
<!-- normalization_py -->
<g id="node3" class="node">
<title>normalization_py</title><style>.edge>path:hover{stroke-width:8}</style>
<ellipse fill="#5959a6" stroke="black" cx="61.52" cy="-21.21" rx="61.54" ry="21.43"/>
<text text-anchor="middle" x="61.52" y="-24.21" font-family="Helvetica,sans-Serif" font-size="10.00" fill="#ffffff">normalization.</text>
<text text-anchor="middle" x="61.52" y="-13.21" font-family="Helvetica,sans-Serif" font-size="10.00" fill="#ffffff">py</text>
</g>
<!-- logger_setup&#45;&gt;normalization_py -->
<g id="edge2" class="edge">
<title>logger_setup&#45;&gt;normalization_py</title><style>.edge>path:hover{stroke-width:8}</style>
<path fill="none" stroke="black" d="M61.52,-115.21C61.52,-98.58 61.52,-73.03 61.52,-52.92"/>
<polygon fill="#4cb34c" stroke="black" points="65.02,-52.69 61.52,-42.69 58.02,-52.69 65.02,-52.69"/>
</g>
</g>
</svg>
