<?xml version="1.0" encoding="UTF-8" standalone="no"?>
<!DOCTYPE svg PUBLIC "-//W3C//DTD SVG 1.1//EN"
 "http://www.w3.org/Graphics/SVG/1.1/DTD/svg11.dtd">
<!-- Generated by graphviz version 2.43.0 (0)
 -->
<!-- Title: G Pages: 1 -->
<svg width="611pt" height="777pt"
 viewBox="0.00 0.00 610.52 776.69" xmlns="http://www.w3.org/2000/svg" xmlns:xlink="http://www.w3.org/1999/xlink">
<g id="graph0" class="graph" transform="scale(1 1) rotate(0) translate(4 772.69)">
<title>G</title><style>.edge>path:hover{stroke-width:8}</style>
<polygon fill="white" stroke="transparent" points="-4,4 -4,-772.69 606.52,-772.69 606.52,4 -4,4"/>
<!-- charset_normalizer -->
<g id="node1" class="node">
<title>charset_normalizer</title><style>.edge>path:hover{stroke-width:8}</style>
<ellipse fill="#b65353" stroke="black" cx="193.68" cy="-202.21" rx="64.51" ry="18"/>
<text text-anchor="middle" x="193.68" y="-199.71" font-family="Helvetica,sans-Serif" font-size="10.00" fill="#ffffff">charset_normalizer</text>
</g>
<!-- requests -->
<g id="node5" class="node">
<title>requests</title><style>.edge>path:hover{stroke-width:8}</style>
<polygon fill="blue" stroke="black" points="383.18,-145 324.18,-145 324.18,-109 383.18,-109 383.18,-145"/>
<text text-anchor="middle" x="353.68" y="-124.5" font-family="Helvetica,sans-Serif" font-size="10.00" fill="white">requests</text>
</g>
<!-- charset_normalizer&#45;&gt;requests -->
<g id="edge1" class="edge">
<title>charset_normalizer&#45;&gt;requests</title><style>.edge>path:hover{stroke-width:8}</style>
<path fill="none" stroke="black" d="M226.06,-186.4C251.71,-174.66 287.62,-158.23 314.82,-145.78"/>
<polygon fill="#b65353" stroke="black" points="316.41,-148.9 324.05,-141.56 313.5,-142.54 316.41,-148.9"/>
</g>
<!-- cryptography -->
<g id="node2" class="node">
<title>cryptography</title><style>.edge>path:hover{stroke-width:8}</style>
<ellipse fill="#cccc33" stroke="black" cx="47.68" cy="-600.26" rx="47.86" ry="18"/>
<text text-anchor="middle" x="47.68" y="-597.76" font-family="Helvetica,sans-Serif" font-size="10.00" fill="#000000">cryptography</text>
</g>
<!-- cryptography&#45;&gt;requests -->
<g id="edge2" class="edge">
<title>cryptography&#45;&gt;requests</title><style>.edge>path:hover{stroke-width:8}</style>
<path fill="none" stroke="black" d="M59.72,-582.61C78.21,-555.8 112.64,-500.67 123.68,-447.62"/>
<path fill="none" stroke="black" d="M123.68,-445.62C142.87,-397.88 109.87,-371.06 142.68,-331.43 186.17,-278.89 273.09,-345.26 286.68,-278.43"/>
<path fill="none" stroke="black" d="M286.68,-276.43C294.77,-233.95 286.24,-219.63 305.68,-181 310.89,-170.64 318.69,-160.79 326.5,-152.45"/>
<polygon fill="#cccc33" stroke="black" points="329.07,-154.82 333.59,-145.24 324.08,-149.91 329.07,-154.82"/>
</g>
<!-- urllib3_contrib_pyopenssl -->
<g id="node16" class="node">
<title>urllib3_contrib_pyopenssl</title><style>.edge>path:hover{stroke-width:8}</style>
<ellipse fill="#ac49ac" stroke="black" cx="198.68" cy="-360.42" rx="46.84" ry="28.98"/>
<text text-anchor="middle" x="198.68" y="-368.92" font-family="Helvetica,sans-Serif" font-size="10.00" fill="#ffffff">urllib3.</text>
<text text-anchor="middle" x="198.68" y="-357.92" font-family="Helvetica,sans-Serif" font-size="10.00" fill="#ffffff">contrib.</text>
<text text-anchor="middle" x="198.68" y="-346.92" font-family="Helvetica,sans-Serif" font-size="10.00" fill="#ffffff">pyopenssl</text>
</g>
<!-- cryptography&#45;&gt;urllib3_contrib_pyopenssl -->
<g id="edge3" class="edge">
<title>cryptography&#45;&gt;urllib3_contrib_pyopenssl</title><style>.edge>path:hover{stroke-width:8}</style>
<path fill="none" stroke="black" d="M123.68,-445.62C128.31,-423.39 144.15,-404.01 160.08,-389.47"/>
<polygon fill="#cccc33" stroke="black" points="162.6,-391.92 167.86,-382.73 158.01,-386.63 162.6,-391.92"/>
</g>
<!-- handlers -->
<g id="node3" class="node">
<title>handlers</title><style>.edge>path:hover{stroke-width:8}</style>
<ellipse fill="#53b653" stroke="black" cx="435.68" cy="-127" rx="34.96" ry="18"/>
<text text-anchor="middle" x="435.68" y="-124.5" font-family="Helvetica,sans-Serif" font-size="10.00" fill="#000000">handlers</text>
</g>
<!-- ollama_py -->
<g id="node4" class="node">
<title>ollama_py</title><style>.edge>path:hover{stroke-width:8}</style>
<ellipse fill="#569f9f" stroke="black" cx="435.68" cy="-18" rx="38.03" ry="18"/>
<text text-anchor="middle" x="435.68" y="-15.5" font-family="Helvetica,sans-Serif" font-size="10.00" fill="#000000">ollama.py</text>
</g>
<!-- handlers&#45;&gt;ollama_py -->
<g id="edge4" class="edge">
<title>handlers&#45;&gt;ollama_py</title><style>.edge>path:hover{stroke-width:8}</style>
<path fill="none" stroke="black" d="M432.97,-108.85C431.95,-98.25 431.83,-84.52 435.68,-73"/>
</g>
<!-- requests&#45;&gt;ollama_py -->
<g id="edge5" class="edge">
<title>requests&#45;&gt;ollama_py</title><style>.edge>path:hover{stroke-width:8}</style>
<path fill="none" stroke="black" d="M383.47,-111.78C405.28,-100.54 431.73,-84.82 435.68,-73"/>
<path fill="none" stroke="black" d="M435.68,-72C438.39,-63.9 439.13,-54.71 438.98,-46.28"/>
<polygon fill="blue" stroke="black" points="442.47,-45.93 438.39,-36.15 435.48,-46.34 442.47,-45.93"/>
</g>
<!-- requests___version__ -->
<g id="node6" class="node">
<title>requests___version__</title><style>.edge>path:hover{stroke-width:8}</style>
<ellipse fill="#4747c2" stroke="black" cx="241.68" cy="-525.05" rx="52.15" ry="21.43"/>
<text text-anchor="middle" x="241.68" y="-528.05" font-family="Helvetica,sans-Serif" font-size="10.00" fill="#ffffff">requests.</text>
<text text-anchor="middle" x="241.68" y="-517.05" font-family="Helvetica,sans-Serif" font-size="10.00" fill="#ffffff">__version__</text>
</g>
<!-- requests___version__&#45;&gt;requests -->
<g id="edge6" class="edge">
<title>requests___version__&#45;&gt;requests</title><style>.edge>path:hover{stroke-width:8}</style>
<path fill="none" stroke="black" d="M237.37,-503.67C234.99,-487.72 233.9,-465.36 241.68,-447.62"/>
</g>
<!-- requests_utils -->
<g id="node13" class="node">
<title>requests_utils</title><style>.edge>path:hover{stroke-width:8}</style>
<polygon fill="blue" stroke="black" points="353.18,-464.62 270.18,-464.62 270.18,-428.62 353.18,-428.62 353.18,-464.62"/>
<text text-anchor="middle" x="311.68" y="-444.12" font-family="Helvetica,sans-Serif" font-size="10.00" fill="white">requests.utils</text>
</g>
<!-- requests___version__&#45;&gt;requests_utils -->
<g id="edge7" class="edge">
<title>requests___version__&#45;&gt;requests_utils</title><style>.edge>path:hover{stroke-width:8}</style>
<path fill="none" stroke="black" d="M259.35,-504.76C268.32,-494.97 279.32,-482.95 288.92,-472.47"/>
<polygon fill="#4747c2" stroke="black" points="291.76,-474.55 295.93,-464.82 286.6,-469.83 291.76,-474.55"/>
</g>
<!-- requests_api -->
<g id="node7" class="node">
<title>requests_api</title><style>.edge>path:hover{stroke-width:8}</style>
<polygon fill="blue" stroke="black" points="392.18,-220.21 315.18,-220.21 315.18,-184.21 392.18,-184.21 392.18,-220.21"/>
<text text-anchor="middle" x="353.68" y="-199.71" font-family="Helvetica,sans-Serif" font-size="10.00" fill="white">requests.api</text>
</g>
<!-- requests_api&#45;&gt;requests -->
<g id="edge8" class="edge">
<title>requests_api&#45;&gt;requests</title><style>.edge>path:hover{stroke-width:8}</style>
<path fill="none" stroke="black" d="M353.68,-183.86C353.68,-175.38 353.68,-164.98 353.68,-155.45"/>
<polygon fill="blue" stroke="black" points="357.18,-155.23 353.68,-145.23 350.18,-155.23 357.18,-155.23"/>
</g>
<!-- requests_exceptions -->
<g id="node8" class="node">
<title>requests_exceptions</title><style>.edge>path:hover{stroke-width:8}</style>
<ellipse fill="#2424d0" stroke="black" cx="398.68" cy="-525.05" rx="49.49" ry="21.43"/>
<text text-anchor="middle" x="398.68" y="-528.05" font-family="Helvetica,sans-Serif" font-size="10.00" fill="#ffffff">requests.</text>
<text text-anchor="middle" x="398.68" y="-517.05" font-family="Helvetica,sans-Serif" font-size="10.00" fill="#ffffff">exceptions</text>
</g>
<!-- requests_exceptions&#45;&gt;requests -->
<g id="edge9" class="edge">
<title>requests_exceptions&#45;&gt;requests</title><style>.edge>path:hover{stroke-width:8}</style>
<path fill="none" stroke="black" d="M393.04,-503.8C389.06,-488.5 384.03,-466.92 381.68,-447.62"/>
<path fill="none" stroke="black" d="M381.68,-445.62C376.84,-405.88 363.75,-398.9 349.68,-361.42"/>
<path fill="none" stroke="black" d="M349.68,-359.42C333.65,-316.72 277.6,-323.12 286.68,-278.43"/>
</g>
<!-- requests_models -->
<g id="node9" class="node">
<title>requests_models</title><style>.edge>path:hover{stroke-width:8}</style>
<polygon fill="blue" stroke="black" points="439.68,-378.42 377.68,-378.42 377.68,-342.42 439.68,-342.42 439.68,-378.42"/>
<text text-anchor="middle" x="408.68" y="-363.42" font-family="Helvetica,sans-Serif" font-size="10.00" fill="white">requests.</text>
<text text-anchor="middle" x="408.68" y="-352.42" font-family="Helvetica,sans-Serif" font-size="10.00" fill="white">models</text>
</g>
<!-- requests_exceptions&#45;&gt;requests_models -->
<g id="edge10" class="edge">
<title>requests_exceptions&#45;&gt;requests_models</title><style>.edge>path:hover{stroke-width:8}</style>
<path fill="none" stroke="black" d="M381.68,-445.62C379.27,-425.81 386.27,-404.4 393.75,-388.13"/>
<polygon fill="#2424d0" stroke="black" points="397.1,-389.24 398.38,-378.72 390.82,-386.14 397.1,-389.24"/>
</g>
<!-- requests_sessions -->
<g id="node11" class="node">
<title>requests_sessions</title><style>.edge>path:hover{stroke-width:8}</style>
<polygon fill="blue" stroke="black" points="380.68,-295.43 318.68,-295.43 318.68,-259.43 380.68,-259.43 380.68,-295.43"/>
<text text-anchor="middle" x="349.68" y="-280.43" font-family="Helvetica,sans-Serif" font-size="10.00" fill="white">requests.</text>
<text text-anchor="middle" x="349.68" y="-269.43" font-family="Helvetica,sans-Serif" font-size="10.00" fill="white">sessions</text>
</g>
<!-- requests_exceptions&#45;&gt;requests_sessions -->
<g id="edge11" class="edge">
<title>requests_exceptions&#45;&gt;requests_sessions</title><style>.edge>path:hover{stroke-width:8}</style>
<path fill="none" stroke="black" d="M349.68,-359.42C343.3,-342.41 343.36,-321.94 344.98,-305.84"/>
<polygon fill="#2424d0" stroke="black" points="348.51,-305.84 346.3,-295.48 341.57,-304.96 348.51,-305.84"/>
</g>
<!-- requests_exceptions&#45;&gt;requests_utils -->
<g id="edge12" class="edge">
<title>requests_exceptions&#45;&gt;requests_utils</title><style>.edge>path:hover{stroke-width:8}</style>
<path fill="none" stroke="black" d="M377.62,-505.55C365.99,-495.33 351.41,-482.52 338.92,-471.55"/>
<polygon fill="#2424d0" stroke="black" points="340.88,-468.62 331.06,-464.65 336.26,-473.88 340.88,-468.62"/>
</g>
<!-- requests_models&#45;&gt;requests -->
<g id="edge13" class="edge">
<title>requests_models&#45;&gt;requests</title><style>.edge>path:hover{stroke-width:8}</style>
<path fill="none" stroke="black" d="M439.56,-342.27C460.38,-328.26 484.46,-306.25 486.68,-278.43"/>
<path fill="none" stroke="black" d="M486.68,-276.43C489.27,-243.99 491.82,-235.34 486.68,-203.21"/>
</g>
<!-- requests_models&#45;&gt;requests_sessions -->
<g id="edge14" class="edge">
<title>requests_models&#45;&gt;requests_sessions</title><style>.edge>path:hover{stroke-width:8}</style>
<path fill="none" stroke="black" d="M396.17,-342.24C388.03,-331.07 377.28,-316.32 368.17,-303.81"/>
<polygon fill="blue" stroke="black" points="370.89,-301.6 362.18,-295.58 365.24,-305.72 370.89,-301.6"/>
</g>
<!-- requests_packages -->
<g id="node10" class="node">
<title>requests_packages</title><style>.edge>path:hover{stroke-width:8}</style>
<ellipse fill="#5353b6" stroke="black" cx="558.68" cy="-202.21" rx="43.68" ry="21.43"/>
<text text-anchor="middle" x="558.68" y="-205.21" font-family="Helvetica,sans-Serif" font-size="10.00" fill="#ffffff">requests.</text>
<text text-anchor="middle" x="558.68" y="-194.21" font-family="Helvetica,sans-Serif" font-size="10.00" fill="#ffffff">packages</text>
</g>
<!-- requests_packages&#45;&gt;requests -->
<g id="edge15" class="edge">
<title>requests_packages&#45;&gt;requests</title><style>.edge>path:hover{stroke-width:8}</style>
<path fill="none" stroke="black" d="M524.06,-189.04C516.37,-186.37 508.26,-183.57 500.68,-181 455.2,-165.57 440.91,-163.63 392.82,-145.28"/>
<polygon fill="#5353b6" stroke="black" points="394.02,-141.99 383.43,-141.65 391.5,-148.52 394.02,-141.99"/>
</g>
<!-- requests_sessions&#45;&gt;requests -->
<g id="edge16" class="edge">
<title>requests_sessions&#45;&gt;requests</title><style>.edge>path:hover{stroke-width:8}</style>
<path fill="none" stroke="black" d="M380.76,-273.57C423.51,-267.87 494.35,-251.15 486.68,-203.21"/>
<path fill="none" stroke="black" d="M486.68,-201.21C484.98,-190.6 431.42,-163.77 392.79,-145.71"/>
<polygon fill="blue" stroke="black" points="393.88,-142.36 383.33,-141.32 390.93,-148.71 393.88,-142.36"/>
</g>
<!-- requests_sessions&#45;&gt;requests_api -->
<g id="edge17" class="edge">
<title>requests_sessions&#45;&gt;requests_api</title><style>.edge>path:hover{stroke-width:8}</style>
<path fill="none" stroke="black" d="M350.63,-259.08C351.09,-250.6 351.66,-240.19 352.18,-230.67"/>
<polygon fill="blue" stroke="black" points="355.69,-230.62 352.74,-220.44 348.7,-230.23 355.69,-230.62"/>
</g>
<!-- requests_status_codes -->
<g id="node12" class="node">
<title>requests_status_codes</title><style>.edge>path:hover{stroke-width:8}</style>
<ellipse fill="#3b3bce" stroke="black" cx="504.68" cy="-446.62" rx="56.64" ry="21.43"/>
<text text-anchor="middle" x="504.68" y="-449.62" font-family="Helvetica,sans-Serif" font-size="10.00" fill="#ffffff">requests.</text>
<text text-anchor="middle" x="504.68" y="-438.62" font-family="Helvetica,sans-Serif" font-size="10.00" fill="#ffffff">status_codes</text>
</g>
<!-- requests_status_codes&#45;&gt;requests -->
<g id="edge18" class="edge">
<title>requests_status_codes&#45;&gt;requests</title><style>.edge>path:hover{stroke-width:8}</style>
<path fill="none" stroke="black" d="M486.68,-359.42C471.09,-326.97 483.82,-314.31 486.68,-278.43"/>
</g>
<!-- requests_status_codes&#45;&gt;requests_models -->
<g id="edge19" class="edge">
<title>requests_status_codes&#45;&gt;requests_models</title><style>.edge>path:hover{stroke-width:8}</style>
<path fill="none" stroke="black" d="M483.38,-426.93C469.36,-414.64 450.89,-398.44 435.82,-385.22"/>
<polygon fill="#3b3bce" stroke="black" points="438.12,-382.58 428.29,-378.62 433.5,-387.85 438.12,-382.58"/>
</g>
<!-- requests_status_codes&#45;&gt;requests_sessions -->
<g id="edge20" class="edge">
<title>requests_status_codes&#45;&gt;requests_sessions</title><style>.edge>path:hover{stroke-width:8}</style>
<path fill="none" stroke="black" d="M503.06,-425.36C501.02,-407.74 496.52,-381.9 486.68,-361.42"/>
<path fill="none" stroke="black" d="M486.68,-359.42C468.55,-321.68 423.88,-300.24 390.44,-289.03"/>
<polygon fill="#3b3bce" stroke="black" points="391.49,-285.69 380.9,-286 389.37,-292.36 391.49,-285.69"/>
</g>
<!-- requests_utils&#45;&gt;requests -->
<g id="edge21" class="edge">
<title>requests_utils&#45;&gt;requests</title><style>.edge>path:hover{stroke-width:8}</style>
<path fill="none" stroke="black" d="M311.29,-428.52C310.99,-411.5 310.77,-384.64 311.68,-361.42"/>
<path fill="none" stroke="black" d="M311.68,-359.42C313.15,-321.77 279.18,-315.34 286.68,-278.43"/>
</g>
<!-- requests_utils&#45;&gt;requests_models -->
<g id="edge22" class="edge">
<title>requests_utils&#45;&gt;requests_models</title><style>.edge>path:hover{stroke-width:8}</style>
<path fill="none" stroke="black" d="M331.31,-428.58C345.64,-416.14 365.26,-399.11 381.16,-385.31"/>
<polygon fill="blue" stroke="black" points="383.82,-387.63 389.08,-378.43 379.24,-382.34 383.82,-387.63"/>
</g>
<!-- requests_utils&#45;&gt;requests_sessions -->
<g id="edge23" class="edge">
<title>requests_utils&#45;&gt;requests_sessions</title><style>.edge>path:hover{stroke-width:8}</style>
<path fill="none" stroke="black" d="M311.68,-359.42C312.45,-339.75 321.77,-319.71 330.98,-304.49"/>
<polygon fill="blue" stroke="black" points="334.18,-305.99 336.63,-295.68 328.29,-302.21 334.18,-305.99"/>
</g>
<!-- urllib3 -->
<g id="node14" class="node">
<title>urllib3</title><style>.edge>path:hover{stroke-width:8}</style>
<ellipse fill="#df0bdf" stroke="black" cx="179.68" cy="-672.26" rx="27.84" ry="18"/>
<text text-anchor="middle" x="179.68" y="-669.76" font-family="Helvetica,sans-Serif" font-size="10.00" fill="#ffffff">urllib3</text>
</g>
<!-- urllib3&#45;&gt;requests -->
<g id="edge24" class="edge">
<title>urllib3&#45;&gt;requests</title><style>.edge>path:hover{stroke-width:8}</style>
<path fill="none" stroke="black" d="M169.48,-655.32C161.51,-640.7 153.11,-618.72 161.68,-601.26"/>
<path fill="none" stroke="black" d="M161.68,-599.26C176.03,-570.06 145.47,-554.26 161.68,-526.05"/>
</g>
<!-- urllib3&#45;&gt;requests_exceptions -->
<g id="edge25" class="edge">
<title>urllib3&#45;&gt;requests_exceptions</title><style>.edge>path:hover{stroke-width:8}</style>
<path fill="none" stroke="black" d="M161.68,-599.26C197.77,-526.92 258.52,-570.39 335.68,-546.26 340.49,-544.76 345.5,-543.18 350.51,-541.59"/>
<polygon fill="#df0bdf" stroke="black" points="351.6,-544.91 360.06,-538.54 349.47,-538.24 351.6,-544.91"/>
</g>
<!-- urllib3&#45;&gt;requests_models -->
<g id="edge26" class="edge">
<title>urllib3&#45;&gt;requests_models</title><style>.edge>path:hover{stroke-width:8}</style>
<path fill="none" stroke="black" d="M161.68,-599.26C220.81,-479.9 371.22,-648.45 456.68,-546.26 486.72,-510.35 443.98,-487.65 419.68,-447.62"/>
<path fill="none" stroke="black" d="M419.68,-445.62C409.6,-428.47 407.09,-405.99 406.97,-388.58"/>
<polygon fill="#df0bdf" stroke="black" points="410.47,-388.54 407.16,-378.48 403.47,-388.41 410.47,-388.54"/>
</g>
<!-- urllib3&#45;&gt;requests_utils -->
<g id="edge27" class="edge">
<title>urllib3&#45;&gt;requests_utils</title><style>.edge>path:hover{stroke-width:8}</style>
<path fill="none" stroke="black" d="M161.68,-599.26C191.57,-539.36 262.11,-599.51 302.68,-546.26 318.02,-526.14 318.7,-496.56 316.5,-475.04"/>
<polygon fill="#df0bdf" stroke="black" points="319.95,-474.39 315.2,-464.91 313,-475.28 319.95,-474.39"/>
</g>
<!-- urllib3_contrib -->
<g id="node15" class="node">
<title>urllib3_contrib</title><style>.edge>path:hover{stroke-width:8}</style>
<ellipse fill="#c247c2" stroke="black" cx="151.68" cy="-747.48" rx="35.21" ry="21.43"/>
<text text-anchor="middle" x="151.68" y="-750.48" font-family="Helvetica,sans-Serif" font-size="10.00" fill="#ffffff">urllib3.</text>
<text text-anchor="middle" x="151.68" y="-739.48" font-family="Helvetica,sans-Serif" font-size="10.00" fill="#ffffff">contrib</text>
</g>
<!-- urllib3_contrib&#45;&gt;requests -->
<g id="edge28" class="edge">
<title>urllib3_contrib&#45;&gt;requests</title><style>.edge>path:hover{stroke-width:8}</style>
<path fill="none" stroke="black" d="M146.84,-726.24C138.22,-685.3 124.38,-590.99 161.68,-526.05"/>
<path fill="none" stroke="black" d="M161.68,-524.05C183.96,-480.21 221.92,-492.65 241.68,-447.62"/>
<path fill="none" stroke="black" d="M241.68,-445.62C272.61,-375.16 265.88,-352.51 286.68,-278.43"/>
</g>
<!-- urllib3_contrib&#45;&gt;urllib3 -->
<g id="edge29" class="edge">
<title>urllib3_contrib&#45;&gt;urllib3</title><style>.edge>path:hover{stroke-width:8}</style>
<path fill="none" stroke="black" d="M159.33,-726.47C162.49,-718.23 166.18,-708.56 169.56,-699.74"/>
<polygon fill="#c247c2" stroke="black" points="172.88,-700.86 173.18,-690.27 166.34,-698.36 172.88,-700.86"/>
</g>
<!-- urllib3_contrib_pyopenssl&#45;&gt;requests -->
<g id="edge30" class="edge">
<title>urllib3_contrib_pyopenssl&#45;&gt;requests</title><style>.edge>path:hover{stroke-width:8}</style>
<path fill="none" stroke="black" d="M234.37,-341.26C256.21,-327.54 281.01,-306.3 286.68,-278.43"/>
</g>
<!-- urllib3_exceptions -->
<g id="node17" class="node">
<title>urllib3_exceptions</title><style>.edge>path:hover{stroke-width:8}</style>
<ellipse fill="#db2fdb" stroke="black" cx="421.68" cy="-747.48" rx="49.49" ry="21.43"/>
<text text-anchor="middle" x="421.68" y="-750.48" font-family="Helvetica,sans-Serif" font-size="10.00" fill="#ffffff">urllib3.</text>
<text text-anchor="middle" x="421.68" y="-739.48" font-family="Helvetica,sans-Serif" font-size="10.00" fill="#ffffff">exceptions</text>
</g>
<!-- urllib3_exceptions&#45;&gt;requests -->
<g id="edge31" class="edge">
<title>urllib3_exceptions&#45;&gt;requests</title><style>.edge>path:hover{stroke-width:8}</style>
<path fill="none" stroke="black" d="M589.68,-524.05C571.77,-483.15 586.19,-467.28 570.68,-425.41 557.61,-390.13 483.69,-315.93 486.68,-278.43"/>
</g>
<!-- urllib3_exceptions&#45;&gt;requests_exceptions -->
<g id="edge32" class="edge">
<title>urllib3_exceptions&#45;&gt;requests_exceptions</title><style>.edge>path:hover{stroke-width:8}</style>
<path fill="none" stroke="black" d="M460.47,-733.97C519.22,-712.69 620.82,-665.43 589.68,-601.26"/>
<path fill="none" stroke="black" d="M589.68,-599.26C572.45,-547.75 507.62,-531.66 458.22,-527.05"/>
<polygon fill="#db2fdb" stroke="black" points="458.5,-523.56 448.26,-526.25 457.95,-530.54 458.5,-523.56"/>
</g>
<!-- urllib3_exceptions&#45;&gt;requests_models -->
<g id="edge33" class="edge">
<title>urllib3_exceptions&#45;&gt;requests_models</title><style>.edge>path:hover{stroke-width:8}</style>
<path fill="none" stroke="black" d="M589.68,-599.26C579.36,-568.4 602.74,-555.85 589.68,-526.05"/>
<path fill="none" stroke="black" d="M589.68,-524.05C556.45,-448.17 461.67,-519.03 419.68,-447.62"/>
</g>
<!-- urllib3_exceptions&#45;&gt;urllib3 -->
<g id="edge34" class="edge">
<title>urllib3_exceptions&#45;&gt;urllib3</title><style>.edge>path:hover{stroke-width:8}</style>
<path fill="none" stroke="black" d="M382.26,-734.55C335.54,-720.42 258.45,-697.09 214.06,-683.66"/>
<polygon fill="#db2fdb" stroke="black" points="214.89,-680.26 204.31,-680.71 212.87,-686.96 214.89,-680.26"/>
</g>
</g>
</svg>
