<?xml version="1.0" encoding="UTF-8" standalone="no"?>
<!DOCTYPE svg PUBLIC "-//W3C//DTD SVG 1.1//EN"
 "http://www.w3.org/Graphics/SVG/1.1/DTD/svg11.dtd">
<!-- Generated by graphviz version 2.43.0 (0)
 -->
<!-- Title: G Pages: 1 -->
<svg width="112pt" height="225pt"
 viewBox="0.00 0.00 111.60 225.00" xmlns="http://www.w3.org/2000/svg" xmlns:xlink="http://www.w3.org/1999/xlink">
<g id="graph0" class="graph" transform="scale(1 1) rotate(0) translate(4 221)">
<title>G</title><style>.edge>path:hover{stroke-width:8}</style>
<polygon fill="white" stroke="transparent" points="-4,4 -4,-221 107.6,-221 107.6,4 -4,4"/>
<!-- dotenv -->
<g id="node1" class="node">
<title>dotenv</title><style>.edge>path:hover{stroke-width:8}</style>
<ellipse fill="#b65353" stroke="black" cx="51.8" cy="-199" rx="29.37" ry="18"/>
<text text-anchor="middle" x="51.8" y="-196.5" font-family="Helvetica,sans-Serif" font-size="10.00" fill="#ffffff">dotenv</text>
</g>
<!-- logger_setup -->
<g id="node2" class="node">
<title>logger_setup</title><style>.edge>path:hover{stroke-width:8}</style>
<ellipse fill="#4cb34c" stroke="black" cx="51.8" cy="-127" rx="47.19" ry="18"/>
<text text-anchor="middle" x="51.8" y="-124.5" font-family="Helvetica,sans-Serif" font-size="10.00" fill="#000000">logger_setup</text>
</g>
<!-- dotenv&#45;&gt;logger_setup -->
<g id="edge1" class="edge">
<title>dotenv&#45;&gt;logger_setup</title><style>.edge>path:hover{stroke-width:8}</style>
<path fill="none" stroke="black" d="M51.8,-180.7C51.8,-172.98 51.8,-163.71 51.8,-155.11"/>
<polygon fill="#b65353" stroke="black" points="55.3,-155.1 51.8,-145.1 48.3,-155.1 55.3,-155.1"/>
</g>
<!-- queue_utils_py -->
<g id="node3" class="node">
<title>queue_utils_py</title><style>.edge>path:hover{stroke-width:8}</style>
<ellipse fill="#5959a6" stroke="black" cx="51.8" cy="-18" rx="51.61" ry="18"/>
<text text-anchor="middle" x="51.8" y="-15.5" font-family="Helvetica,sans-Serif" font-size="10.00" fill="#ffffff">queue_utils.py</text>
</g>
<!-- logger_setup&#45;&gt;queue_utils_py -->
<g id="edge2" class="edge">
<title>logger_setup&#45;&gt;queue_utils_py</title><style>.edge>path:hover{stroke-width:8}</style>
<path fill="none" stroke="black" d="M51.8,-108.81C51.8,-91.96 51.8,-66.02 51.8,-46.34"/>
<polygon fill="#4cb34c" stroke="black" points="55.3,-46.15 51.8,-36.15 48.3,-46.15 55.3,-46.15"/>
</g>
</g>
</svg>
